<?xml version="1.0" encoding="utf-8" standalone="no"?>
<!DOCTYPE svg PUBLIC "-//W3C//DTD SVG 1.1//EN"
  "http://www.w3.org/Graphics/SVG/1.1/DTD/svg11.dtd">
<svg xmlns:xlink="http://www.w3.org/1999/xlink" width="864pt" height="288pt" viewBox="0 0 864 288" xmlns="http://www.w3.org/2000/svg" version="1.1">
 <metadata>
  <rdf:RDF xmlns:dc="http://purl.org/dc/elements/1.1/" xmlns:cc="http://creativecommons.org/ns#" xmlns:rdf="http://www.w3.org/1999/02/22-rdf-syntax-ns#">
   <cc:Work>
    <dc:type rdf:resource="http://purl.org/dc/dcmitype/StillImage"/>
    <dc:date>2025-03-22T15:27:54.116037</dc:date>
    <dc:format>image/svg+xml</dc:format>
    <dc:creator>
     <cc:Agent>
      <dc:title>Matplotlib v3.10.0, https://matplotlib.org/</dc:title>
     </cc:Agent>
    </dc:creator>
   </cc:Work>
  </rdf:RDF>
 </metadata>
 <defs>
  <style type="text/css">*{stroke-linejoin: round; stroke-linecap: butt}</style>
 </defs>
 <g id="figure_1">
  <g id="patch_1">
   <path d="M 0 288 
L 864 288 
L 864 0 
L 0 0 
z
" style="fill: #ffffff"/>
  </g>
  <g id="axes_1">
   <g id="patch_2">
    <path d="M 108 256.32 
L 777.6 256.32 
L 777.6 34.56 
L 108 34.56 
z
" style="fill: #ffffff"/>
   </g>
   <g id="FillBetweenPolyCollection_1">
    <path d="M 138.436364 -347.085869 
L 138.436364 529.704251 
L 139.150832 307.978374 
L 139.865301 246.491257 
L 140.57977 249.006163 
L 141.294238 226.552495 
L 142.008707 203.74934 
L 142.723175 199.205251 
L 143.437644 194.42962 
L 144.152113 189.971788 
L 144.866581 193.213821 
L 145.58105 188.358888 
L 146.295519 188.251496 
L 147.009987 186.501247 
L 147.724456 187.022303 
L 148.438924 183.393284 
L 149.153393 189.610602 
L 149.867862 189.063729 
L 150.58233 187.736461 
L 151.296799 182.34497 
L 152.011268 179.632806 
L 152.725736 176.401841 
L 153.440205 175.323685 
L 154.154673 172.599836 
L 154.869142 173.371782 
L 155.583611 171.252904 
L 156.298079 171.429897 
L 157.012548 172.948063 
L 157.727017 170.256115 
L 158.441485 169.659681 
L 159.155954 169.065112 
L 159.870423 169.256511 
L 160.584891 170.010591 
L 161.29936 168.379923 
L 162.013828 169.530057 
L 162.728297 170.70605 
L 163.442766 169.634426 
L 164.157234 167.721679 
L 164.871703 167.568823 
L 165.586172 167.290283 
L 166.30064 167.614945 
L 167.015109 167.238046 
L 167.729577 168.167045 
L 168.444046 166.235667 
L 169.158515 165.883483 
L 169.872983 166.413108 
L 170.587452 166.294761 
L 171.301921 164.67683 
L 172.016389 165.722927 
L 172.730858 165.454207 
L 173.445327 165.865271 
L 174.159795 164.754277 
L 174.874264 166.643796 
L 175.588732 167.349966 
L 176.303201 166.242292 
L 177.01767 165.241643 
L 177.732138 167.070484 
L 178.446607 167.442148 
L 179.161076 166.959208 
L 179.875544 166.994314 
L 180.590013 166.012165 
L 181.304481 166.533097 
L 182.01895 166.631858 
L 182.733419 167.047668 
L 183.447887 167.38155 
L 184.162356 167.83492 
L 184.876825 168.067832 
L 185.591293 168.198189 
L 186.305762 168.245622 
L 187.02023 168.022237 
L 187.734699 168.390196 
L 188.449168 167.422412 
L 189.163636 166.667908 
L 189.878105 167.214554 
L 190.592574 167.631022 
L 191.307042 166.747658 
L 192.021511 165.941136 
L 192.73598 165.992779 
L 193.450448 165.567559 
L 194.164917 164.010607 
L 194.879385 163.137691 
L 195.593854 162.439756 
L 196.308323 161.955083 
L 197.022791 161.987532 
L 197.73726 162.170334 
L 198.451729 161.516242 
L 199.166197 161.862643 
L 199.880666 161.737024 
L 200.595134 161.203754 
L 201.309603 161.619646 
L 202.024072 161.561213 
L 202.73854 161.427427 
L 203.453009 161.374385 
L 204.167478 161.180271 
L 204.881946 161.091722 
L 205.596415 161.076011 
L 206.310883 161.711182 
L 207.025352 161.963867 
L 207.739821 162.835415 
L 208.454289 163.153593 
L 209.168758 163.199551 
L 209.883227 163.186716 
L 210.597695 163.43753 
L 211.312164 162.918092 
L 212.026633 163.259742 
L 212.741101 163.210638 
L 213.45557 163.433712 
L 214.170038 163.141049 
L 214.884507 162.423801 
L 215.598976 161.923419 
L 216.313444 161.93701 
L 217.027913 162.294832 
L 217.742382 162.221124 
L 218.45685 162.272354 
L 219.171319 161.795261 
L 219.885787 162.331079 
L 220.600256 162.476924 
L 221.314725 162.055538 
L 222.029193 161.620362 
L 222.743662 161.345611 
L 223.458131 160.273162 
L 224.172599 159.88032 
L 224.887068 159.446771 
L 225.601536 158.802331 
L 226.316005 158.947156 
L 227.030474 158.892234 
L 227.744942 159.304889 
L 228.459411 159.071064 
L 229.17388 159.206769 
L 229.888348 159.104933 
L 230.602817 158.887865 
L 231.317286 158.936418 
L 232.031754 159.008243 
L 232.746223 158.761898 
L 233.460691 158.706729 
L 234.17516 158.890124 
L 234.889629 158.765405 
L 235.604097 158.628893 
L 236.318566 158.56161 
L 237.033035 158.345962 
L 237.747503 158.394322 
L 238.461972 158.672239 
L 239.17644 158.31402 
L 239.890909 158.39796 
L 240.605378 158.524382 
L 241.319846 158.327429 
L 242.034315 158.322262 
L 242.748784 158.456425 
L 243.463252 158.325583 
L 244.177721 158.077344 
L 244.89219 158.044135 
L 245.606658 158.293992 
L 246.321127 158.823962 
L 247.035595 158.902207 
L 247.750064 159.337981 
L 248.464533 159.149768 
L 249.179001 159.299581 
L 249.89347 159.132776 
L 250.607939 159.235467 
L 251.322407 159.36364 
L 252.036876 159.345308 
L 252.751344 159.558664 
L 253.465813 159.742193 
L 254.180282 159.517452 
L 254.89475 159.248966 
L 255.609219 159.352584 
L 256.323688 159.294023 
L 257.038156 159.388779 
L 257.752625 159.669858 
L 258.467093 160.257369 
L 259.181562 159.857808 
L 259.896031 159.534335 
L 260.610499 158.06363 
L 261.324968 157.752478 
L 262.039437 157.706678 
L 262.753905 157.714201 
L 263.468374 158.062396 
L 264.182843 158.212106 
L 264.897311 157.998086 
L 265.61178 158.145852 
L 266.326248 158.04449 
L 267.040717 158.045544 
L 267.755186 157.372495 
L 268.469654 157.391406 
L 269.184123 157.433287 
L 269.898592 157.344555 
L 270.61306 157.256216 
L 271.327529 157.497574 
L 272.041997 157.090236 
L 272.756466 157.15818 
L 273.470935 156.859094 
L 274.185403 156.493728 
L 274.899872 156.857094 
L 275.614341 157.233982 
L 276.328809 157.321972 
L 277.043278 157.448699 
L 277.757746 157.297211 
L 278.472215 157.362078 
L 279.186684 157.571067 
L 279.901152 157.477348 
L 280.615621 157.415131 
L 281.33009 157.502235 
L 282.044558 157.300141 
L 282.759027 157.212981 
L 283.473496 157.044268 
L 284.187964 157.167129 
L 284.902433 157.02138 
L 285.616901 156.663174 
L 286.33137 156.540689 
L 287.045839 155.954433 
L 287.760307 156.159711 
L 288.474776 155.971014 
L 289.189245 155.942834 
L 289.903713 155.763463 
L 290.618182 155.746921 
L 291.33265 155.739697 
L 292.047119 155.878146 
L 292.761588 155.810346 
L 293.476056 155.76452 
L 294.190525 155.759739 
L 294.904994 155.819407 
L 295.619462 155.613919 
L 296.333931 155.321528 
L 297.048399 154.243675 
L 297.762868 154.149329 
L 298.477337 154.060656 
L 299.191805 154.054572 
L 299.906274 154.108806 
L 300.620743 154.039066 
L 301.335211 154.056094 
L 302.04968 153.964384 
L 302.764149 154.114369 
L 303.478617 154.021536 
L 304.193086 153.823891 
L 304.907554 153.789195 
L 305.622023 153.649109 
L 306.336492 153.055178 
L 307.05096 153.171775 
L 307.765429 152.940937 
L 308.479898 152.863461 
L 309.194366 153.058883 
L 309.908835 152.971021 
L 310.623303 152.936856 
L 311.337772 153.016412 
L 312.052241 152.877219 
L 312.766709 152.844452 
L 313.481178 152.747203 
L 314.195647 152.963183 
L 314.910115 153.220109 
L 315.624584 153.197966 
L 316.339052 153.354378 
L 317.053521 153.154908 
L 317.76799 153.112587 
L 318.482458 153.086112 
L 319.196927 153.00592 
L 319.911396 153.016875 
L 320.625864 153.233772 
L 321.340333 152.982802 
L 322.054802 153.124851 
L 322.76927 153.175507 
L 323.483739 153.045806 
L 324.198207 152.482663 
L 324.912676 152.536324 
L 325.627145 152.37504 
L 326.341613 152.246635 
L 327.056082 152.23963 
L 327.770551 152.356583 
L 328.485019 152.122088 
L 329.199488 152.237511 
L 329.913956 152.377449 
L 330.628425 152.254274 
L 331.342894 152.112904 
L 332.057362 152.18299 
L 332.771831 152.191085 
L 333.4863 151.921433 
L 334.200768 151.922776 
L 334.915237 151.739288 
L 335.629706 151.876466 
L 336.344174 151.917975 
L 337.058643 151.86914 
L 337.773111 151.777624 
L 338.48758 151.838883 
L 339.202049 151.565448 
L 339.916517 151.35083 
L 340.630986 151.398506 
L 341.345455 151.381917 
L 342.059923 151.401794 
L 342.774392 151.307814 
L 343.48886 151.159244 
L 344.203329 151.31304 
L 344.917798 151.353021 
L 345.632266 151.315452 
L 346.346735 151.323909 
L 347.061204 151.134379 
L 347.775672 151.048955 
L 348.490141 151.104892 
L 349.204609 151.144402 
L 349.919078 151.186281 
L 350.633547 151.10318 
L 351.348015 151.202243 
L 352.062484 151.23294 
L 352.776953 151.154168 
L 353.491421 151.178289 
L 354.20589 151.213366 
L 354.920359 151.182044 
L 355.634827 151.463468 
L 356.349296 151.362064 
L 357.063764 151.359357 
L 357.778233 151.471613 
L 358.492702 151.512365 
L 359.20717 151.420654 
L 359.921639 151.454267 
L 360.636108 151.635127 
L 361.350576 151.508183 
L 362.065045 151.268526 
L 362.779513 151.304471 
L 363.493982 151.457376 
L 364.208451 151.421052 
L 364.922919 151.553382 
L 365.637388 151.26444 
L 366.351857 151.238554 
L 367.066325 151.223062 
L 367.780794 151.311569 
L 368.495262 151.432556 
L 369.209731 151.482752 
L 369.9242 151.513933 
L 370.638668 151.224413 
L 371.353137 150.923741 
L 372.067606 150.829695 
L 372.782074 151.076785 
L 373.496543 151.176838 
L 374.211012 150.98755 
L 374.92548 150.97245 
L 375.639949 150.902089 
L 376.354417 150.863082 
L 377.068886 150.945465 
L 377.783355 150.934261 
L 378.497823 150.947903 
L 379.212292 150.958672 
L 379.926761 151.044824 
L 380.641229 151.037861 
L 381.355698 151.025752 
L 382.070166 150.949261 
L 382.784635 150.794386 
L 383.499104 150.667601 
L 384.213572 150.649665 
L 384.928041 150.640427 
L 385.64251 150.631883 
L 386.356978 150.599691 
L 387.071447 150.620001 
L 387.785915 150.60905 
L 388.500384 150.647977 
L 389.214853 150.696081 
L 389.929321 150.970252 
L 390.64379 151.02063 
L 391.358259 150.913657 
L 392.072727 150.922701 
L 392.787196 150.922899 
L 393.501665 150.83228 
L 394.216133 150.838586 
L 394.930602 150.90952 
L 395.64507 150.882768 
L 396.359539 150.367508 
L 397.074008 150.029547 
L 397.788476 150.261938 
L 398.502945 150.238871 
L 399.217414 150.301402 
L 399.931882 150.449997 
L 400.646351 150.449091 
L 401.360819 150.654505 
L 402.075288 150.602842 
L 402.789757 150.731202 
L 403.504225 150.544929 
L 404.218694 150.486934 
L 404.933163 150.387916 
L 405.647631 150.507388 
L 406.3621 150.358394 
L 407.076569 150.430293 
L 407.791037 150.527244 
L 408.505506 150.440125 
L 409.219974 150.533361 
L 409.934443 150.656926 
L 410.648912 150.555494 
L 411.36338 150.44461 
L 412.077849 150.483603 
L 412.792318 150.458907 
L 413.506786 150.368678 
L 414.221255 150.372228 
L 414.935723 150.068512 
L 415.650192 150.119961 
L 416.364661 149.938611 
L 417.079129 149.861743 
L 417.793598 149.768727 
L 418.508067 149.743884 
L 419.222535 149.838823 
L 419.937004 149.809657 
L 420.651472 149.896589 
L 421.365941 149.872063 
L 422.08041 149.9558 
L 422.794878 149.982392 
L 423.509347 149.91153 
L 424.223816 149.884089 
L 424.938284 149.603757 
L 425.652753 149.589914 
L 426.367222 149.467861 
L 427.08169 149.407121 
L 427.796159 149.368573 
L 428.510627 149.309746 
L 429.225096 149.34999 
L 429.939565 149.269967 
L 430.654033 149.17203 
L 431.368502 149.139168 
L 432.082971 149.154028 
L 432.797439 149.181654 
L 433.511908 149.171937 
L 434.226376 149.049082 
L 434.940845 148.902218 
L 435.655314 148.980953 
L 436.369782 148.913408 
L 437.084251 148.876696 
L 437.79872 148.836317 
L 438.513188 148.879732 
L 439.227657 148.786308 
L 439.942125 148.788453 
L 440.656594 148.732516 
L 441.371063 148.808577 
L 442.085531 148.930346 
L 442.8 148.986543 
L 443.514469 148.977827 
L 444.228937 148.92695 
L 444.943406 148.99395 
L 445.657875 149.185983 
L 446.372343 149.286175 
L 447.086812 149.101418 
L 447.80128 149.05305 
L 448.515749 149.007532 
L 449.230218 148.799121 
L 449.944686 148.99889 
L 450.659155 149.040365 
L 451.373624 149.05065 
L 452.088092 149.097275 
L 452.802561 149.111868 
L 453.517029 149.102978 
L 454.231498 149.05321 
L 454.945967 149.079613 
L 455.660435 149.008286 
L 456.374904 148.96944 
L 457.089373 148.941166 
L 457.803841 148.875053 
L 458.51831 148.902743 
L 459.232778 148.734997 
L 459.947247 148.752797 
L 460.661716 148.758292 
L 461.376184 148.740984 
L 462.090653 148.697932 
L 462.805122 148.778667 
L 463.51959 148.78342 
L 464.234059 148.664159 
L 464.948528 148.733244 
L 465.662996 148.777468 
L 466.377465 148.848174 
L 467.091933 148.983747 
L 467.806402 148.981067 
L 468.520871 148.518338 
L 469.235339 148.469123 
L 469.949808 148.536845 
L 470.664277 148.504375 
L 471.378745 148.288361 
L 472.093214 148.470686 
L 472.807682 148.371504 
L 473.522151 148.430664 
L 474.23662 148.352582 
L 474.951088 148.413685 
L 475.665557 148.45273 
L 476.380026 148.504221 
L 477.094494 148.56879 
L 477.808963 148.620512 
L 478.523431 148.563266 
L 479.2379 148.558828 
L 479.952369 148.615367 
L 480.666837 148.657114 
L 481.381306 148.511698 
L 482.095775 148.447265 
L 482.810243 148.493833 
L 483.524712 148.436773 
L 484.239181 148.552554 
L 484.953649 148.63872 
L 485.668118 148.463121 
L 486.382586 148.463775 
L 487.097055 148.386511 
L 487.811524 148.334281 
L 488.525992 148.484531 
L 489.240461 148.485928 
L 489.95493 148.625121 
L 490.669398 148.637879 
L 491.383867 148.330686 
L 492.098335 148.326177 
L 492.812804 148.371181 
L 493.527273 148.341609 
L 494.241741 148.379138 
L 494.95621 148.414972 
L 495.670679 148.469475 
L 496.385147 148.473947 
L 497.099616 148.479406 
L 497.814085 148.559028 
L 498.528553 148.648267 
L 499.243022 148.864235 
L 499.95749 148.965993 
L 500.671959 149.050101 
L 501.386428 149.113832 
L 502.100896 149.053524 
L 502.815365 149.150757 
L 503.529834 149.195238 
L 504.244302 149.264325 
L 504.958771 149.22135 
L 505.673239 149.115381 
L 506.387708 149.037506 
L 507.102177 148.965429 
L 507.816645 148.975505 
L 508.531114 148.910079 
L 509.245583 148.89438 
L 509.960051 148.842938 
L 510.67452 148.811763 
L 511.388988 148.827737 
L 512.103457 148.706739 
L 512.817926 148.686656 
L 513.532394 148.600716 
L 514.246863 148.569595 
L 514.961332 148.596429 
L 515.6758 148.576074 
L 516.390269 148.407175 
L 517.104738 148.376744 
L 517.819206 148.535081 
L 518.533675 148.522051 
L 519.248143 148.457712 
L 519.962612 148.331004 
L 520.677081 148.316673 
L 521.391549 148.398266 
L 522.106018 148.403362 
L 522.820487 148.544172 
L 523.534955 148.651258 
L 524.249424 148.689252 
L 524.963892 148.814908 
L 525.678361 148.805062 
L 526.39283 148.800715 
L 527.107298 148.828658 
L 527.821767 148.752712 
L 528.536236 148.701133 
L 529.250704 148.652828 
L 529.965173 148.655422 
L 530.679641 148.641115 
L 531.39411 148.655248 
L 532.108579 148.263013 
L 532.823047 148.176934 
L 533.537516 148.272431 
L 534.251985 148.184968 
L 534.966453 148.159455 
L 535.680922 148.198405 
L 536.395391 148.213625 
L 537.109859 148.283871 
L 537.824328 148.365901 
L 538.538796 148.226971 
L 539.253265 148.269039 
L 539.967734 148.182358 
L 540.682202 148.254814 
L 541.396671 148.28958 
L 542.11114 148.179355 
L 542.825608 148.245633 
L 543.540077 148.218402 
L 544.254545 148.227714 
L 544.969014 148.177397 
L 545.683483 148.210626 
L 546.397951 148.093236 
L 547.11242 148.094607 
L 547.826889 148.129692 
L 548.541357 148.069312 
L 549.255826 148.101015 
L 549.970294 147.980535 
L 550.684763 147.987931 
L 551.399232 147.988442 
L 552.1137 147.90141 
L 552.828169 147.869659 
L 553.542638 147.826004 
L 554.257106 147.709766 
L 554.971575 147.761891 
L 555.686044 147.760161 
L 556.400512 147.718409 
L 557.114981 147.744477 
L 557.829449 147.764156 
L 558.543918 147.852797 
L 559.258387 147.890569 
L 559.972855 147.97855 
L 560.687324 147.951254 
L 561.401793 147.957037 
L 562.116261 147.982699 
L 562.83073 147.896867 
L 563.545198 147.944406 
L 564.259667 148.003092 
L 564.974136 147.928177 
L 565.688604 148.002064 
L 566.403073 148.065351 
L 567.117542 147.917554 
L 567.83201 147.902296 
L 568.546479 147.878298 
L 569.260948 148.06244 
L 569.975416 147.917963 
L 570.689885 147.865227 
L 571.404353 147.763469 
L 572.118822 147.834605 
L 572.833291 147.78504 
L 573.547759 147.857365 
L 574.262228 147.863049 
L 574.976697 147.865586 
L 575.691165 147.906231 
L 576.405634 147.91055 
L 577.120102 147.857631 
L 577.834571 147.871044 
L 578.54904 148.028127 
L 579.263508 147.88728 
L 579.977977 147.826118 
L 580.692446 147.819883 
L 581.406914 147.867499 
L 582.121383 147.856387 
L 582.835851 147.89459 
L 583.55032 147.862167 
L 584.264789 147.921145 
L 584.979257 147.85858 
L 585.693726 147.734239 
L 586.408195 147.767002 
L 587.122663 147.676012 
L 587.837132 147.627278 
L 588.551601 147.680798 
L 589.266069 147.671724 
L 589.980538 147.712946 
L 590.695006 147.686736 
L 591.409475 147.70974 
L 592.123944 147.695302 
L 592.838412 147.688411 
L 593.552881 147.705226 
L 594.26735 147.712047 
L 594.981818 147.730098 
L 595.696287 147.79099 
L 596.410755 147.652544 
L 597.125224 147.669296 
L 597.839693 147.618927 
L 598.554161 147.666066 
L 599.26863 147.647999 
L 599.983099 147.665812 
L 600.697567 147.665104 
L 601.412036 147.565473 
L 602.126504 147.505933 
L 602.840973 147.512196 
L 603.555442 147.447203 
L 604.26991 147.504008 
L 604.984379 147.360216 
L 605.698848 147.512748 
L 606.413316 147.537566 
L 607.127785 147.438874 
L 607.842254 147.563828 
L 608.556722 147.50411 
L 609.271191 147.459283 
L 609.985659 147.338662 
L 610.700128 147.312469 
L 611.414597 147.321751 
L 612.129065 147.218987 
L 612.843534 147.237988 
L 613.558003 147.247823 
L 614.272471 147.258501 
L 614.98694 147.323948 
L 615.701408 147.329614 
L 616.415877 147.428954 
L 617.130346 147.361993 
L 617.844814 147.341378 
L 618.559283 147.368956 
L 619.273752 147.442763 
L 619.98822 147.441455 
L 620.702689 147.463541 
L 621.417157 147.469623 
L 622.131626 147.456738 
L 622.846095 147.405613 
L 623.560563 147.549755 
L 624.275032 147.52824 
L 624.989501 147.568005 
L 625.703969 147.551849 
L 626.418438 147.564297 
L 627.132907 147.653758 
L 627.847375 147.746498 
L 628.561844 147.769137 
L 629.276312 147.687452 
L 629.990781 147.683097 
L 630.70525 147.678805 
L 631.419718 147.686548 
L 632.134187 147.651355 
L 632.848656 147.631639 
L 633.563124 147.662393 
L 634.277593 147.699788 
L 634.992061 147.626103 
L 635.70653 147.555983 
L 636.420999 147.456919 
L 637.135467 147.487671 
L 637.849936 147.577089 
L 638.564405 147.528744 
L 639.278873 147.48117 
L 639.993342 147.557478 
L 640.70781 147.405166 
L 641.422279 147.441868 
L 642.136748 147.427324 
L 642.851216 147.356821 
L 643.565685 147.341942 
L 644.280154 147.293955 
L 644.994622 147.339752 
L 645.709091 147.333048 
L 646.42356 147.404576 
L 647.138028 147.464217 
L 647.852497 147.387456 
L 648.566965 147.4252 
L 649.281434 147.48937 
L 649.995903 147.464077 
L 650.710371 147.407992 
L 651.42484 147.349097 
L 652.139309 147.318887 
L 652.853777 147.385465 
L 653.568246 147.33936 
L 654.282714 147.288401 
L 654.997183 147.255035 
L 655.711652 147.214766 
L 656.42612 147.211733 
L 657.140589 147.197221 
L 657.855058 147.131624 
L 658.569526 147.11666 
L 659.283995 147.008416 
L 659.998464 146.9644 
L 660.712932 146.944845 
L 661.427401 146.923607 
L 662.141869 146.821073 
L 662.856338 146.860925 
L 663.570807 146.923634 
L 664.285275 146.900876 
L 664.999744 146.897028 
L 665.714213 146.817743 
L 666.428681 146.855131 
L 667.14315 146.874838 
L 667.857618 146.933712 
L 668.572087 146.873382 
L 669.286556 146.791797 
L 670.001024 146.727653 
L 670.715493 146.696741 
L 671.429962 146.719184 
L 672.14443 146.617115 
L 672.858899 146.728728 
L 673.573367 146.695694 
L 674.287836 146.644468 
L 675.002305 146.647626 
L 675.716773 146.703097 
L 676.431242 146.798665 
L 677.145711 146.773916 
L 677.860179 146.653953 
L 678.574648 146.605724 
L 679.289117 146.589735 
L 680.003585 146.651088 
L 680.718054 146.736903 
L 681.432522 146.730172 
L 682.146991 146.73581 
L 682.86146 146.707267 
L 683.575928 146.676593 
L 684.290397 146.691667 
L 685.004866 146.602361 
L 685.719334 146.699999 
L 686.433803 146.599749 
L 687.148271 146.564657 
L 687.86274 146.587494 
L 688.577209 146.624257 
L 689.291677 146.636921 
L 690.006146 146.351151 
L 690.720615 146.309606 
L 691.435083 146.296688 
L 692.149552 146.380385 
L 692.86402 146.444008 
L 693.578489 146.456596 
L 694.292958 146.444242 
L 695.007426 146.49647 
L 695.721895 146.462929 
L 696.436364 146.468544 
L 697.150832 146.36214 
L 697.865301 146.349036 
L 698.57977 146.36862 
L 699.294238 146.506454 
L 700.008707 146.507321 
L 700.723175 146.540951 
L 701.437644 146.561376 
L 702.152113 146.598313 
L 702.866581 146.593677 
L 703.58105 146.659349 
L 704.295519 146.587483 
L 705.009987 146.589501 
L 705.724456 146.519662 
L 706.438924 146.488714 
L 707.153393 146.47217 
L 707.867862 146.438297 
L 708.58233 146.360223 
L 709.296799 146.390331 
L 710.011268 146.446133 
L 710.725736 145.631788 
L 711.440205 145.605396 
L 712.154673 145.598333 
L 712.869142 145.687004 
L 713.583611 145.652887 
L 714.298079 145.645656 
L 715.012548 145.678646 
L 715.727017 145.632469 
L 716.441485 145.643937 
L 717.155954 145.60396 
L 717.870423 145.633425 
L 718.584891 145.670265 
L 719.29936 145.719409 
L 720.013828 145.604304 
L 720.728297 145.602754 
L 721.442766 145.636447 
L 722.157234 145.639253 
L 722.871703 145.584321 
L 723.586172 145.599369 
L 724.30064 145.62785 
L 725.015109 145.660241 
L 725.729577 145.52892 
L 726.444046 145.557856 
L 727.158515 145.613446 
L 727.872983 145.66223 
L 728.587452 145.603628 
L 729.301921 145.650098 
L 730.016389 145.524642 
L 730.730858 145.490061 
L 731.445327 145.426317 
L 732.159795 145.456962 
L 732.874264 145.435943 
L 733.588732 145.51683 
L 734.303201 145.430021 
L 735.01767 145.51628 
L 735.732138 145.447675 
L 736.446607 145.504278 
L 737.161076 145.299456 
L 737.875544 145.256584 
L 738.590013 145.332119 
L 739.304481 145.402156 
L 740.01895 145.374995 
L 740.733419 145.421144 
L 741.447887 145.453453 
L 742.162356 145.234614 
L 742.876825 144.814152 
L 743.591293 144.769571 
L 744.305762 144.741075 
L 745.02023 144.75615 
L 745.734699 144.69765 
L 746.449168 144.151103 
L 747.163636 143.912586 
L 747.163636 143.912586 
L 747.163636 143.912586 
L 746.449168 143.857154 
L 745.734699 143.72438 
L 745.02023 143.601451 
L 744.305762 143.575953 
L 743.591293 143.529529 
L 742.876825 143.476913 
L 742.162356 143.546568 
L 741.447887 143.508038 
L 740.733419 143.50884 
L 740.01895 143.478125 
L 739.304481 143.422622 
L 738.590013 143.420925 
L 737.875544 143.366632 
L 737.161076 143.266176 
L 736.446607 143.213788 
L 735.732138 143.191484 
L 735.01767 143.1923 
L 734.303201 143.231101 
L 733.588732 143.22073 
L 732.874264 143.243551 
L 732.159795 143.283947 
L 731.445327 143.174509 
L 730.730858 143.094241 
L 730.016389 143.119737 
L 729.301921 143.114326 
L 728.587452 143.038339 
L 727.872983 143.071248 
L 727.158515 143.014711 
L 726.444046 142.962302 
L 725.729577 143.012157 
L 725.015109 142.961397 
L 724.30064 142.870056 
L 723.586172 142.859798 
L 722.871703 142.809084 
L 722.157234 142.772619 
L 721.442766 142.751253 
L 720.728297 142.792689 
L 720.013828 142.851367 
L 719.29936 142.781 
L 718.584891 142.747646 
L 717.870423 142.770625 
L 717.155954 142.75172 
L 716.441485 142.7527 
L 715.727017 142.740847 
L 715.012548 142.722165 
L 714.298079 142.732976 
L 713.583611 142.693535 
L 712.869142 142.671109 
L 712.154673 142.67411 
L 711.440205 142.666375 
L 710.725736 142.570523 
L 710.011268 142.625694 
L 709.296799 142.61936 
L 708.58233 142.596741 
L 707.867862 142.644707 
L 707.153393 142.707402 
L 706.438924 142.651143 
L 705.724456 142.676951 
L 705.009987 142.661213 
L 704.295519 142.580668 
L 703.58105 142.534556 
L 702.866581 142.536133 
L 702.152113 142.494145 
L 701.437644 142.441664 
L 700.723175 142.39378 
L 700.008707 142.344594 
L 699.294238 142.270993 
L 698.57977 142.324389 
L 697.865301 142.320286 
L 697.150832 142.22821 
L 696.436364 142.198774 
L 695.721895 142.284796 
L 695.007426 142.249001 
L 694.292958 142.209084 
L 693.578489 142.144248 
L 692.86402 142.12661 
L 692.149552 142.104147 
L 691.435083 142.072273 
L 690.720615 142.086349 
L 690.006146 142.122221 
L 689.291677 142.091464 
L 688.577209 141.935288 
L 687.86274 141.911306 
L 687.148271 141.916364 
L 686.433803 141.835918 
L 685.719334 141.904063 
L 685.004866 141.880466 
L 684.290397 141.845265 
L 683.575928 141.870269 
L 682.86146 141.927011 
L 682.146991 142.013629 
L 681.432522 141.967095 
L 680.718054 141.831767 
L 680.003585 141.815819 
L 679.289117 141.84787 
L 678.574648 141.844669 
L 677.860179 141.821245 
L 677.145711 141.879883 
L 676.431242 141.948643 
L 675.716773 141.954842 
L 675.002305 141.997587 
L 674.287836 142.018791 
L 673.573367 142.016823 
L 672.858899 141.97862 
L 672.14443 141.945895 
L 671.429962 141.962459 
L 670.715493 141.983851 
L 670.001024 141.934244 
L 669.286556 141.884987 
L 668.572087 141.900021 
L 667.857618 141.905517 
L 667.14315 141.858572 
L 666.428681 141.801817 
L 665.714213 141.742897 
L 664.999744 141.82111 
L 664.285275 141.738064 
L 663.570807 141.755508 
L 662.856338 141.759272 
L 662.141869 141.79951 
L 661.427401 141.802907 
L 660.712932 141.851401 
L 659.998464 141.809963 
L 659.283995 141.714927 
L 658.569526 141.704218 
L 657.855058 141.627888 
L 657.140589 141.691953 
L 656.42612 141.66509 
L 655.711652 141.6648 
L 654.997183 141.570033 
L 654.282714 141.506941 
L 653.568246 141.422713 
L 652.853777 141.372943 
L 652.139309 141.400551 
L 651.42484 141.496987 
L 650.710371 141.535167 
L 649.995903 141.46987 
L 649.281434 141.664903 
L 648.566965 141.704679 
L 647.852497 141.716803 
L 647.138028 141.685356 
L 646.42356 141.598507 
L 645.709091 141.627285 
L 644.994622 141.655437 
L 644.280154 141.64454 
L 643.565685 141.649331 
L 642.851216 141.596149 
L 642.136748 141.560799 
L 641.422279 141.464849 
L 640.70781 141.384559 
L 639.993342 141.311672 
L 639.278873 141.397637 
L 638.564405 141.205785 
L 637.849936 141.226954 
L 637.135467 141.234985 
L 636.420999 141.174712 
L 635.70653 141.069216 
L 634.992061 141.026262 
L 634.277593 141.029825 
L 633.563124 141.096381 
L 632.848656 141.103946 
L 632.134187 141.045408 
L 631.419718 141.067707 
L 630.70525 141.009524 
L 629.990781 141.038606 
L 629.276312 140.943492 
L 628.561844 141.023991 
L 627.847375 141.004184 
L 627.132907 141.078964 
L 626.418438 141.032109 
L 625.703969 141.178882 
L 624.989501 141.223928 
L 624.275032 141.225077 
L 623.560563 141.16342 
L 622.846095 141.183371 
L 622.131626 141.369119 
L 621.417157 141.253729 
L 620.702689 141.199125 
L 619.98822 141.036298 
L 619.273752 140.927034 
L 618.559283 140.849372 
L 617.844814 140.898824 
L 617.130346 140.969509 
L 616.415877 140.981994 
L 615.701408 140.954892 
L 614.98694 141.015212 
L 614.272471 141.019566 
L 613.558003 141.066838 
L 612.843534 141.08153 
L 612.129065 141.052155 
L 611.414597 140.991136 
L 610.700128 140.97195 
L 609.985659 140.953411 
L 609.271191 140.875387 
L 608.556722 140.81711 
L 607.842254 140.814777 
L 607.127785 140.843039 
L 606.413316 140.873871 
L 605.698848 140.960325 
L 604.984379 140.883152 
L 604.26991 140.86788 
L 603.555442 140.873567 
L 602.840973 140.781531 
L 602.126504 140.737253 
L 601.412036 140.832105 
L 600.697567 140.810391 
L 599.983099 140.851859 
L 599.26863 140.796166 
L 598.554161 140.765644 
L 597.839693 140.7387 
L 597.125224 140.805993 
L 596.410755 140.734381 
L 595.696287 140.649497 
L 594.981818 140.621133 
L 594.26735 140.491084 
L 593.552881 140.361869 
L 592.838412 140.247155 
L 592.123944 140.278228 
L 591.409475 140.291533 
L 590.695006 140.275547 
L 589.980538 140.571188 
L 589.266069 140.541049 
L 588.551601 140.590229 
L 587.837132 140.567609 
L 587.122663 140.589153 
L 586.408195 140.520793 
L 585.693726 140.507762 
L 584.979257 140.397827 
L 584.264789 140.410675 
L 583.55032 140.361059 
L 582.835851 140.300613 
L 582.121383 140.270972 
L 581.406914 140.313662 
L 580.692446 140.341799 
L 579.977977 140.421091 
L 579.263508 140.446457 
L 578.54904 140.567209 
L 577.834571 140.470919 
L 577.120102 140.354452 
L 576.405634 140.41238 
L 575.691165 140.378849 
L 574.976697 140.32533 
L 574.262228 140.187855 
L 573.547759 140.146136 
L 572.833291 140.31858 
L 572.118822 140.308231 
L 571.404353 140.474124 
L 570.689885 140.416239 
L 569.975416 140.424299 
L 569.260948 140.351278 
L 568.546479 140.276384 
L 567.83201 140.263549 
L 567.117542 140.282756 
L 566.403073 140.188025 
L 565.688604 140.121857 
L 564.974136 140.027196 
L 564.259667 140.021923 
L 563.545198 140.001448 
L 562.83073 139.990377 
L 562.116261 140.132178 
L 561.401793 140.202283 
L 560.687324 140.190232 
L 559.972855 140.112777 
L 559.258387 140.146547 
L 558.543918 140.090679 
L 557.829449 140.007314 
L 557.114981 139.924396 
L 556.400512 139.94679 
L 555.686044 139.918553 
L 554.971575 139.921729 
L 554.257106 140.003374 
L 553.542638 139.853765 
L 552.828169 139.88541 
L 552.1137 139.820253 
L 551.399232 139.760227 
L 550.684763 139.742755 
L 549.970294 139.717744 
L 549.255826 139.711181 
L 548.541357 139.717944 
L 547.826889 139.670381 
L 547.11242 139.811124 
L 546.397951 139.722489 
L 545.683483 139.739726 
L 544.969014 139.643617 
L 544.254545 139.513314 
L 543.540077 139.583834 
L 542.825608 139.700819 
L 542.11114 139.714691 
L 541.396671 139.777031 
L 540.682202 139.634134 
L 539.967734 139.620159 
L 539.253265 139.589529 
L 538.538796 139.66939 
L 537.824328 139.687192 
L 537.109859 139.741143 
L 536.395391 139.707758 
L 535.680922 139.72609 
L 534.966453 139.688822 
L 534.251985 139.756029 
L 533.537516 139.727213 
L 532.823047 139.759834 
L 532.108579 139.754025 
L 531.39411 139.718607 
L 530.679641 139.728612 
L 529.965173 139.664881 
L 529.250704 139.644302 
L 528.536236 139.653241 
L 527.821767 139.596421 
L 527.107298 139.447999 
L 526.39283 139.320444 
L 525.678361 139.384399 
L 524.963892 139.348738 
L 524.249424 139.369736 
L 523.534955 139.329708 
L 522.820487 139.309938 
L 522.106018 139.325228 
L 521.391549 139.317717 
L 520.677081 139.29739 
L 519.962612 139.310186 
L 519.248143 139.334382 
L 518.533675 139.291476 
L 517.819206 139.229155 
L 517.104738 139.202727 
L 516.390269 139.217176 
L 515.6758 139.149226 
L 514.961332 139.124587 
L 514.246863 139.14298 
L 513.532394 139.167281 
L 512.817926 139.234415 
L 512.103457 139.33683 
L 511.388988 139.379113 
L 510.67452 139.411827 
L 509.960051 139.523262 
L 509.245583 139.417408 
L 508.531114 139.491604 
L 507.816645 139.393318 
L 507.102177 139.305925 
L 506.387708 139.214145 
L 505.673239 139.1829 
L 504.958771 139.108157 
L 504.244302 139.04355 
L 503.529834 139.071864 
L 502.815365 138.960884 
L 502.100896 139.073457 
L 501.386428 139.00298 
L 500.671959 138.929557 
L 499.95749 138.879173 
L 499.243022 138.844747 
L 498.528553 138.890564 
L 497.814085 138.802388 
L 497.099616 138.847356 
L 496.385147 138.962594 
L 495.670679 138.912438 
L 494.95621 138.90045 
L 494.241741 138.86981 
L 493.527273 138.737714 
L 492.812804 138.695181 
L 492.098335 138.656992 
L 491.383867 138.49559 
L 490.669398 138.399428 
L 489.95493 138.32103 
L 489.240461 138.326162 
L 488.525992 138.270006 
L 487.811524 138.256485 
L 487.097055 138.275079 
L 486.382586 138.249212 
L 485.668118 138.12956 
L 484.953649 138.123958 
L 484.239181 137.97952 
L 483.524712 137.946559 
L 482.810243 137.974702 
L 482.095775 138.452536 
L 481.381306 138.44077 
L 480.666837 138.565246 
L 479.952369 138.608102 
L 479.2379 138.519085 
L 478.523431 138.46604 
L 477.808963 138.405213 
L 477.094494 138.317768 
L 476.380026 138.307707 
L 475.665557 138.371099 
L 474.951088 138.158253 
L 474.23662 138.185481 
L 473.522151 138.188107 
L 472.807682 138.081399 
L 472.093214 138.132849 
L 471.378745 138.085584 
L 470.664277 138.058677 
L 469.949808 138.134026 
L 469.235339 138.184472 
L 468.520871 138.147472 
L 467.806402 138.005981 
L 467.091933 138.041645 
L 466.377465 138.171306 
L 465.662996 138.133784 
L 464.948528 138.199282 
L 464.234059 138.275225 
L 463.51959 138.268961 
L 462.805122 138.110999 
L 462.090653 138.121776 
L 461.376184 138.157469 
L 460.661716 138.090613 
L 459.947247 138.129141 
L 459.232778 138.332507 
L 458.51831 138.438724 
L 457.803841 138.611217 
L 457.089373 138.485215 
L 456.374904 138.44043 
L 455.660435 138.464748 
L 454.945967 138.303619 
L 454.231498 138.316346 
L 453.517029 138.374855 
L 452.802561 138.464633 
L 452.088092 138.595099 
L 451.373624 138.483666 
L 450.659155 138.378716 
L 449.944686 138.378032 
L 449.230218 138.325405 
L 448.515749 138.295101 
L 447.80128 138.325259 
L 447.086812 138.339543 
L 446.372343 138.287743 
L 445.657875 138.121329 
L 444.943406 138.071279 
L 444.228937 138.036618 
L 443.514469 138.097127 
L 442.8 137.982269 
L 442.085531 137.910953 
L 441.371063 137.736855 
L 440.656594 137.785254 
L 439.942125 137.739424 
L 439.227657 137.561097 
L 438.513188 137.506841 
L 437.79872 137.573837 
L 437.084251 137.76026 
L 436.369782 137.784917 
L 435.655314 137.762201 
L 434.940845 137.6096 
L 434.226376 137.515723 
L 433.511908 137.571815 
L 432.797439 137.481629 
L 432.082971 137.363482 
L 431.368502 137.375506 
L 430.654033 137.303425 
L 429.939565 137.244952 
L 429.225096 137.894839 
L 428.510627 137.953598 
L 427.796159 138.101204 
L 427.08169 137.95871 
L 426.367222 137.954668 
L 425.652753 138.062548 
L 424.938284 138.013442 
L 424.223816 138.020317 
L 423.509347 137.845057 
L 422.794878 137.934206 
L 422.08041 137.838012 
L 421.365941 137.685958 
L 420.651472 137.729766 
L 419.937004 137.730625 
L 419.222535 137.824959 
L 418.508067 137.676791 
L 417.793598 137.567238 
L 417.079129 137.648934 
L 416.364661 137.595759 
L 415.650192 137.666543 
L 414.935723 137.60467 
L 414.221255 137.581355 
L 413.506786 137.640001 
L 412.792318 137.668738 
L 412.077849 137.729569 
L 411.36338 137.715775 
L 410.648912 137.838805 
L 409.934443 137.77746 
L 409.219974 137.769606 
L 408.505506 137.705259 
L 407.791037 137.739549 
L 407.076569 137.665184 
L 406.3621 137.523958 
L 405.647631 137.499694 
L 404.933163 137.485214 
L 404.218694 137.486669 
L 403.504225 137.456037 
L 402.789757 137.613337 
L 402.075288 137.641277 
L 401.360819 137.639204 
L 400.646351 137.880849 
L 399.931882 137.796887 
L 399.217414 137.634417 
L 398.502945 137.500422 
L 397.788476 137.516822 
L 397.074008 137.467424 
L 396.359539 137.487025 
L 395.64507 137.408895 
L 394.930602 137.433546 
L 394.216133 137.470327 
L 393.501665 137.407051 
L 392.787196 137.246005 
L 392.072727 137.167651 
L 391.358259 136.995828 
L 390.64379 136.899361 
L 389.929321 136.834245 
L 389.214853 136.850494 
L 388.500384 136.913508 
L 387.785915 136.715831 
L 387.071447 136.443378 
L 386.356978 136.507261 
L 385.64251 136.714578 
L 384.928041 136.638503 
L 384.213572 136.567579 
L 383.499104 136.465738 
L 382.784635 136.361881 
L 382.070166 136.184224 
L 381.355698 136.236353 
L 380.641229 136.228144 
L 379.926761 136.366017 
L 379.212292 136.263877 
L 378.497823 136.304879 
L 377.783355 136.318987 
L 377.068886 136.350294 
L 376.354417 136.591759 
L 375.639949 136.553665 
L 374.92548 136.403086 
L 374.211012 136.31186 
L 373.496543 136.269462 
L 372.782074 136.075698 
L 372.067606 135.925612 
L 371.353137 136.077019 
L 370.638668 136.141669 
L 369.9242 136.122191 
L 369.209731 136.302306 
L 368.495262 136.207371 
L 367.780794 136.440192 
L 367.066325 136.46656 
L 366.351857 136.211925 
L 365.637388 136.093926 
L 364.922919 136.207962 
L 364.208451 135.986381 
L 363.493982 136.137193 
L 362.779513 136.002799 
L 362.065045 136.239577 
L 361.350576 135.842615 
L 360.636108 135.670117 
L 359.921639 135.599101 
L 359.20717 135.611092 
L 358.492702 135.45222 
L 357.778233 135.933865 
L 357.063764 135.978893 
L 356.349296 136.022738 
L 355.634827 135.767516 
L 354.920359 135.698823 
L 354.20589 135.754065 
L 353.491421 135.826593 
L 352.776953 135.795822 
L 352.062484 135.70898 
L 351.348015 135.547333 
L 350.633547 135.589657 
L 349.919078 135.593538 
L 349.204609 135.587722 
L 348.490141 135.728683 
L 347.775672 135.834989 
L 347.061204 135.794113 
L 346.346735 135.708383 
L 345.632266 135.470182 
L 344.917798 135.536602 
L 344.203329 135.57215 
L 343.48886 135.394474 
L 342.774392 135.288821 
L 342.059923 135.149884 
L 341.345455 135.056927 
L 340.630986 135.096176 
L 339.916517 134.983362 
L 339.202049 134.859749 
L 338.48758 134.73778 
L 337.773111 134.805504 
L 337.058643 134.510742 
L 336.344174 134.090073 
L 335.629706 134.024178 
L 334.915237 134.155196 
L 334.200768 134.114287 
L 333.4863 133.921993 
L 332.771831 133.929062 
L 332.057362 133.896691 
L 331.342894 133.618967 
L 330.628425 134.053764 
L 329.913956 134.10559 
L 329.199488 134.015848 
L 328.485019 134.069861 
L 327.770551 134.386644 
L 327.056082 134.659421 
L 326.341613 134.477496 
L 325.627145 134.571146 
L 324.912676 134.494565 
L 324.198207 134.361132 
L 323.483739 134.322263 
L 322.76927 134.107484 
L 322.054802 133.937899 
L 321.340333 134.203746 
L 320.625864 134.225906 
L 319.911396 134.229367 
L 319.196927 134.214066 
L 318.482458 134.022072 
L 317.76799 134.011764 
L 317.053521 133.977503 
L 316.339052 133.866976 
L 315.624584 134.063296 
L 314.910115 133.634251 
L 314.195647 133.449424 
L 313.481178 133.314589 
L 312.766709 133.265868 
L 312.052241 133.150606 
L 311.337772 133.000644 
L 310.623303 132.78547 
L 309.908835 132.76773 
L 309.194366 132.386652 
L 308.479898 132.292203 
L 307.765429 132.307861 
L 307.05096 132.059078 
L 306.336492 131.882663 
L 305.622023 132.11003 
L 304.907554 131.991051 
L 304.193086 132.407489 
L 303.478617 132.099799 
L 302.764149 132.003738 
L 302.04968 132.011571 
L 301.335211 131.837184 
L 300.620743 131.877044 
L 299.906274 131.783176 
L 299.191805 131.705058 
L 298.477337 132.061827 
L 297.762868 132.260441 
L 297.048399 132.184667 
L 296.333931 132.024287 
L 295.619462 131.709454 
L 294.904994 131.599497 
L 294.190525 131.408421 
L 293.476056 131.494881 
L 292.761588 131.729113 
L 292.047119 132.404931 
L 291.33265 132.732636 
L 290.618182 133.847612 
L 289.903713 133.883854 
L 289.189245 133.471244 
L 288.474776 133.121632 
L 287.760307 133.042532 
L 287.045839 133.320843 
L 286.33137 133.177371 
L 285.616901 133.174739 
L 284.902433 133.043266 
L 284.187964 133.063897 
L 283.473496 132.921566 
L 282.759027 132.880749 
L 282.044558 132.696035 
L 281.33009 132.262436 
L 280.615621 132.589501 
L 279.901152 132.600857 
L 279.186684 132.490765 
L 278.472215 132.77679 
L 277.757746 132.726566 
L 277.043278 132.846827 
L 276.328809 132.604343 
L 275.614341 132.423937 
L 274.899872 132.347239 
L 274.185403 132.21508 
L 273.470935 132.060907 
L 272.756466 132.111041 
L 272.041997 131.930762 
L 271.327529 131.908975 
L 270.61306 131.717197 
L 269.898592 131.640549 
L 269.184123 131.142321 
L 268.469654 131.037087 
L 267.755186 130.936704 
L 267.040717 130.868719 
L 266.326248 131.60699 
L 265.61178 131.20191 
L 264.897311 131.040487 
L 264.182843 131.305321 
L 263.468374 131.101866 
L 262.753905 130.833684 
L 262.039437 131.052609 
L 261.324968 130.84607 
L 260.610499 130.91735 
L 259.896031 130.997012 
L 259.181562 130.793695 
L 258.467093 130.536543 
L 257.752625 130.811193 
L 257.038156 130.51619 
L 256.323688 130.298485 
L 255.609219 130.594881 
L 254.89475 131.987525 
L 254.180282 131.870654 
L 253.465813 131.491003 
L 252.751344 131.391944 
L 252.036876 131.347842 
L 251.322407 131.373597 
L 250.607939 131.406115 
L 249.89347 131.133538 
L 249.179001 131.342207 
L 248.464533 131.58371 
L 247.750064 131.43445 
L 247.035595 131.006331 
L 246.321127 130.953217 
L 245.606658 131.00107 
L 244.89219 131.786353 
L 244.177721 132.549724 
L 243.463252 132.317824 
L 242.748784 131.895389 
L 242.034315 131.749865 
L 241.319846 131.87534 
L 240.605378 131.884958 
L 239.890909 130.898472 
L 239.17644 130.2442 
L 238.461972 130.410544 
L 237.747503 130.190923 
L 237.033035 130.37943 
L 236.318566 130.202291 
L 235.604097 130.255131 
L 234.889629 129.9717 
L 234.17516 129.755638 
L 233.460691 129.128837 
L 232.746223 129.521576 
L 232.031754 129.862569 
L 231.317286 129.573806 
L 230.602817 129.341752 
L 229.888348 129.035604 
L 229.17388 128.316314 
L 228.459411 128.484994 
L 227.744942 127.743063 
L 227.030474 127.24278 
L 226.316005 126.764081 
L 225.601536 127.092744 
L 224.887068 126.596664 
L 224.172599 127.224587 
L 223.458131 128.743305 
L 222.743662 129.113583 
L 222.029193 129.48633 
L 221.314725 129.479383 
L 220.600256 129.235151 
L 219.885787 128.837624 
L 219.171319 128.608018 
L 218.45685 128.272757 
L 217.742382 127.709991 
L 217.027913 127.241199 
L 216.313444 126.80843 
L 215.598976 127.440031 
L 214.884507 127.385026 
L 214.170038 127.374189 
L 213.45557 127.127353 
L 212.741101 126.406317 
L 212.026633 126.514233 
L 211.312164 125.702563 
L 210.597695 125.452098 
L 209.883227 124.995223 
L 209.168758 124.63476 
L 208.454289 124.199527 
L 207.739821 125.225537 
L 207.025352 125.300907 
L 206.310883 126.014134 
L 205.596415 125.598984 
L 204.881946 124.919184 
L 204.167478 125.402282 
L 203.453009 124.747724 
L 202.73854 124.979292 
L 202.024072 124.751627 
L 201.309603 124.590576 
L 200.595134 125.426793 
L 199.880666 125.017401 
L 199.166197 124.50613 
L 198.451729 124.271019 
L 197.73726 124.259139 
L 197.022791 123.848947 
L 196.308323 123.6895 
L 195.593854 122.994937 
L 194.879385 122.193854 
L 194.164917 121.475421 
L 193.450448 120.918169 
L 192.73598 120.001113 
L 192.021511 119.887775 
L 191.307042 119.826938 
L 190.592574 119.599273 
L 189.878105 118.797282 
L 189.163636 117.621609 
L 188.449168 117.342041 
L 187.734699 116.687574 
L 187.02023 116.629364 
L 186.305762 116.523987 
L 185.591293 115.359293 
L 184.876825 115.832701 
L 184.162356 116.29828 
L 183.447887 115.378814 
L 182.733419 114.875009 
L 182.01895 114.227414 
L 181.304481 114.710081 
L 180.590013 114.709179 
L 179.875544 114.235815 
L 179.161076 113.972829 
L 178.446607 113.731225 
L 177.732138 113.594941 
L 177.01767 113.369115 
L 176.303201 114.739518 
L 175.588732 115.110512 
L 174.874264 114.397544 
L 174.159795 114.292761 
L 173.445327 113.750363 
L 172.730858 114.176256 
L 172.016389 115.565548 
L 171.301921 114.750023 
L 170.587452 113.988552 
L 169.872983 113.327522 
L 169.158515 113.071268 
L 168.444046 112.760581 
L 167.729577 116.295953 
L 167.015109 115.789874 
L 166.30064 114.655415 
L 165.586172 115.628629 
L 164.871703 113.846841 
L 164.157234 112.40222 
L 163.442766 112.084617 
L 162.728297 111.118841 
L 162.013828 109.971242 
L 161.29936 108.9049 
L 160.584891 107.445994 
L 159.870423 108.058151 
L 159.155954 107.547675 
L 158.441485 106.975508 
L 157.727017 107.100551 
L 157.012548 105.364254 
L 156.298079 101.460724 
L 155.583611 101.217147 
L 154.869142 99.909251 
L 154.154673 99.370076 
L 153.440205 99.481146 
L 152.725736 95.412592 
L 152.011268 93.068771 
L 151.296799 90.421793 
L 150.58233 86.520302 
L 149.867862 84.189817 
L 149.153393 81.377901 
L 148.438924 78.035833 
L 147.724456 71.619802 
L 147.009987 79.093858 
L 146.295519 79.193552 
L 145.58105 70.887036 
L 144.866581 67.141083 
L 144.152113 58.883835 
L 143.437644 55.471743 
L 142.723175 38.620258 
L 142.008707 29.665437 
L 141.294238 10.507542 
L 140.57977 -15.663182 
L 139.865301 -70.617286 
L 139.150832 -136.748825 
L 138.436364 -347.085869 
z
" clip-path="url(#pe67a0111fe)" style="fill: #1f77b4; fill-opacity: 0.5"/>
   </g>
   <g id="matplotlib.axis_1">
    <g id="xtick_1">
     <g id="line2d_1">
      <defs>
       <path id="ma6ab12f915" d="M 0 0 
L 0 3.5 
" style="stroke: #000000; stroke-width: 0.8"/>
      </defs>
      <g>
       <use xlink:href="#ma6ab12f915" x="138.436364" y="256.32" style="stroke: #000000; stroke-width: 0.8"/>
      </g>
     </g>
     <g id="text_1">
      <!-- 0 -->
      <g transform="translate(135.255114 270.918437) scale(0.1 -0.1)">
       <defs>
        <path id="DejaVuSans-30" d="M 2034 4250 
Q 1547 4250 1301 3770 
Q 1056 3291 1056 2328 
Q 1056 1369 1301 889 
Q 1547 409 2034 409 
Q 2525 409 2770 889 
Q 3016 1369 3016 2328 
Q 3016 3291 2770 3770 
Q 2525 4250 2034 4250 
z
M 2034 4750 
Q 2819 4750 3233 4129 
Q 3647 3509 3647 2328 
Q 3647 1150 3233 529 
Q 2819 -91 2034 -91 
Q 1250 -91 836 529 
Q 422 1150 422 2328 
Q 422 3509 836 4129 
Q 1250 4750 2034 4750 
z
" transform="scale(0.015625)"/>
       </defs>
       <use xlink:href="#DejaVuSans-30"/>
      </g>
     </g>
    </g>
    <g id="xtick_2">
     <g id="line2d_2">
      <g>
       <use xlink:href="#ma6ab12f915" x="281.33009" y="256.32" style="stroke: #000000; stroke-width: 0.8"/>
      </g>
     </g>
     <g id="text_2">
      <!-- 2 -->
      <g transform="translate(278.14884 270.918437) scale(0.1 -0.1)">
       <defs>
        <path id="DejaVuSans-32" d="M 1228 531 
L 3431 531 
L 3431 0 
L 469 0 
L 469 531 
Q 828 903 1448 1529 
Q 2069 2156 2228 2338 
Q 2531 2678 2651 2914 
Q 2772 3150 2772 3378 
Q 2772 3750 2511 3984 
Q 2250 4219 1831 4219 
Q 1534 4219 1204 4116 
Q 875 4013 500 3803 
L 500 4441 
Q 881 4594 1212 4672 
Q 1544 4750 1819 4750 
Q 2544 4750 2975 4387 
Q 3406 4025 3406 3419 
Q 3406 3131 3298 2873 
Q 3191 2616 2906 2266 
Q 2828 2175 2409 1742 
Q 1991 1309 1228 531 
z
" transform="scale(0.015625)"/>
       </defs>
       <use xlink:href="#DejaVuSans-32"/>
      </g>
     </g>
    </g>
    <g id="xtick_3">
     <g id="line2d_3">
      <g>
       <use xlink:href="#ma6ab12f915" x="424.223816" y="256.32" style="stroke: #000000; stroke-width: 0.8"/>
      </g>
     </g>
     <g id="text_3">
      <!-- 4 -->
      <g transform="translate(421.042566 270.918437) scale(0.1 -0.1)">
       <defs>
        <path id="DejaVuSans-34" d="M 2419 4116 
L 825 1625 
L 2419 1625 
L 2419 4116 
z
M 2253 4666 
L 3047 4666 
L 3047 1625 
L 3713 1625 
L 3713 1100 
L 3047 1100 
L 3047 0 
L 2419 0 
L 2419 1100 
L 313 1100 
L 313 1709 
L 2253 4666 
z
" transform="scale(0.015625)"/>
       </defs>
       <use xlink:href="#DejaVuSans-34"/>
      </g>
     </g>
    </g>
    <g id="xtick_4">
     <g id="line2d_4">
      <g>
       <use xlink:href="#ma6ab12f915" x="567.117542" y="256.32" style="stroke: #000000; stroke-width: 0.8"/>
      </g>
     </g>
     <g id="text_4">
      <!-- 6 -->
      <g transform="translate(563.936292 270.918437) scale(0.1 -0.1)">
       <defs>
        <path id="DejaVuSans-36" d="M 2113 2584 
Q 1688 2584 1439 2293 
Q 1191 2003 1191 1497 
Q 1191 994 1439 701 
Q 1688 409 2113 409 
Q 2538 409 2786 701 
Q 3034 994 3034 1497 
Q 3034 2003 2786 2293 
Q 2538 2584 2113 2584 
z
M 3366 4563 
L 3366 3988 
Q 3128 4100 2886 4159 
Q 2644 4219 2406 4219 
Q 1781 4219 1451 3797 
Q 1122 3375 1075 2522 
Q 1259 2794 1537 2939 
Q 1816 3084 2150 3084 
Q 2853 3084 3261 2657 
Q 3669 2231 3669 1497 
Q 3669 778 3244 343 
Q 2819 -91 2113 -91 
Q 1303 -91 875 529 
Q 447 1150 447 2328 
Q 447 3434 972 4092 
Q 1497 4750 2381 4750 
Q 2619 4750 2861 4703 
Q 3103 4656 3366 4563 
z
" transform="scale(0.015625)"/>
       </defs>
       <use xlink:href="#DejaVuSans-36"/>
      </g>
     </g>
    </g>
    <g id="xtick_5">
     <g id="line2d_5">
      <g>
       <use xlink:href="#ma6ab12f915" x="710.011268" y="256.32" style="stroke: #000000; stroke-width: 0.8"/>
      </g>
     </g>
     <g id="text_5">
      <!-- 8 -->
      <g transform="translate(706.830018 270.918437) scale(0.1 -0.1)">
       <defs>
        <path id="DejaVuSans-38" d="M 2034 2216 
Q 1584 2216 1326 1975 
Q 1069 1734 1069 1313 
Q 1069 891 1326 650 
Q 1584 409 2034 409 
Q 2484 409 2743 651 
Q 3003 894 3003 1313 
Q 3003 1734 2745 1975 
Q 2488 2216 2034 2216 
z
M 1403 2484 
Q 997 2584 770 2862 
Q 544 3141 544 3541 
Q 544 4100 942 4425 
Q 1341 4750 2034 4750 
Q 2731 4750 3128 4425 
Q 3525 4100 3525 3541 
Q 3525 3141 3298 2862 
Q 3072 2584 2669 2484 
Q 3125 2378 3379 2068 
Q 3634 1759 3634 1313 
Q 3634 634 3220 271 
Q 2806 -91 2034 -91 
Q 1263 -91 848 271 
Q 434 634 434 1313 
Q 434 1759 690 2068 
Q 947 2378 1403 2484 
z
M 1172 3481 
Q 1172 3119 1398 2916 
Q 1625 2713 2034 2713 
Q 2441 2713 2670 2916 
Q 2900 3119 2900 3481 
Q 2900 3844 2670 4047 
Q 2441 4250 2034 4250 
Q 1625 4250 1398 4047 
Q 1172 3844 1172 3481 
z
" transform="scale(0.015625)"/>
       </defs>
       <use xlink:href="#DejaVuSans-38"/>
      </g>
     </g>
    </g>
    <g id="text_6">
     <!-- nTokens -->
     <g transform="translate(422.803906 284.596563) scale(0.1 -0.1)">
      <defs>
       <path id="DejaVuSans-6e" d="M 3513 2113 
L 3513 0 
L 2938 0 
L 2938 2094 
Q 2938 2591 2744 2837 
Q 2550 3084 2163 3084 
Q 1697 3084 1428 2787 
Q 1159 2491 1159 1978 
L 1159 0 
L 581 0 
L 581 3500 
L 1159 3500 
L 1159 2956 
Q 1366 3272 1645 3428 
Q 1925 3584 2291 3584 
Q 2894 3584 3203 3211 
Q 3513 2838 3513 2113 
z
" transform="scale(0.015625)"/>
       <path id="DejaVuSans-54" d="M -19 4666 
L 3928 4666 
L 3928 4134 
L 2272 4134 
L 2272 0 
L 1638 0 
L 1638 4134 
L -19 4134 
L -19 4666 
z
" transform="scale(0.015625)"/>
       <path id="DejaVuSans-6f" d="M 1959 3097 
Q 1497 3097 1228 2736 
Q 959 2375 959 1747 
Q 959 1119 1226 758 
Q 1494 397 1959 397 
Q 2419 397 2687 759 
Q 2956 1122 2956 1747 
Q 2956 2369 2687 2733 
Q 2419 3097 1959 3097 
z
M 1959 3584 
Q 2709 3584 3137 3096 
Q 3566 2609 3566 1747 
Q 3566 888 3137 398 
Q 2709 -91 1959 -91 
Q 1206 -91 779 398 
Q 353 888 353 1747 
Q 353 2609 779 3096 
Q 1206 3584 1959 3584 
z
" transform="scale(0.015625)"/>
       <path id="DejaVuSans-6b" d="M 581 4863 
L 1159 4863 
L 1159 1991 
L 2875 3500 
L 3609 3500 
L 1753 1863 
L 3688 0 
L 2938 0 
L 1159 1709 
L 1159 0 
L 581 0 
L 581 4863 
z
" transform="scale(0.015625)"/>
       <path id="DejaVuSans-65" d="M 3597 1894 
L 3597 1613 
L 953 1613 
Q 991 1019 1311 708 
Q 1631 397 2203 397 
Q 2534 397 2845 478 
Q 3156 559 3463 722 
L 3463 178 
Q 3153 47 2828 -22 
Q 2503 -91 2169 -91 
Q 1331 -91 842 396 
Q 353 884 353 1716 
Q 353 2575 817 3079 
Q 1281 3584 2069 3584 
Q 2775 3584 3186 3129 
Q 3597 2675 3597 1894 
z
M 3022 2063 
Q 3016 2534 2758 2815 
Q 2500 3097 2075 3097 
Q 1594 3097 1305 2825 
Q 1016 2553 972 2059 
L 3022 2063 
z
" transform="scale(0.015625)"/>
       <path id="DejaVuSans-73" d="M 2834 3397 
L 2834 2853 
Q 2591 2978 2328 3040 
Q 2066 3103 1784 3103 
Q 1356 3103 1142 2972 
Q 928 2841 928 2578 
Q 928 2378 1081 2264 
Q 1234 2150 1697 2047 
L 1894 2003 
Q 2506 1872 2764 1633 
Q 3022 1394 3022 966 
Q 3022 478 2636 193 
Q 2250 -91 1575 -91 
Q 1294 -91 989 -36 
Q 684 19 347 128 
L 347 722 
Q 666 556 975 473 
Q 1284 391 1588 391 
Q 1994 391 2212 530 
Q 2431 669 2431 922 
Q 2431 1156 2273 1281 
Q 2116 1406 1581 1522 
L 1381 1569 
Q 847 1681 609 1914 
Q 372 2147 372 2553 
Q 372 3047 722 3315 
Q 1072 3584 1716 3584 
Q 2034 3584 2315 3537 
Q 2597 3491 2834 3397 
z
" transform="scale(0.015625)"/>
      </defs>
      <use xlink:href="#DejaVuSans-6e"/>
      <use xlink:href="#DejaVuSans-54" transform="translate(63.378906 0)"/>
      <use xlink:href="#DejaVuSans-6f" transform="translate(107.462891 0)"/>
      <use xlink:href="#DejaVuSans-6b" transform="translate(168.644531 0)"/>
      <use xlink:href="#DejaVuSans-65" transform="translate(222.929688 0)"/>
      <use xlink:href="#DejaVuSans-6e" transform="translate(284.453125 0)"/>
      <use xlink:href="#DejaVuSans-73" transform="translate(347.832031 0)"/>
     </g>
    </g>
    <g id="text_7">
     <!-- 1e7 -->
     <g transform="translate(758.721875 283.596563) scale(0.1 -0.1)">
      <defs>
       <path id="DejaVuSans-31" d="M 794 531 
L 1825 531 
L 1825 4091 
L 703 3866 
L 703 4441 
L 1819 4666 
L 2450 4666 
L 2450 531 
L 3481 531 
L 3481 0 
L 794 0 
L 794 531 
z
" transform="scale(0.015625)"/>
       <path id="DejaVuSans-37" d="M 525 4666 
L 3525 4666 
L 3525 4397 
L 1831 0 
L 1172 0 
L 2766 4134 
L 525 4134 
L 525 4666 
z
" transform="scale(0.015625)"/>
      </defs>
      <use xlink:href="#DejaVuSans-31"/>
      <use xlink:href="#DejaVuSans-65" transform="translate(63.623047 0)"/>
      <use xlink:href="#DejaVuSans-37" transform="translate(125.146484 0)"/>
     </g>
    </g>
   </g>
   <g id="matplotlib.axis_2">
    <g id="ytick_1">
     <g id="line2d_6">
      <defs>
       <path id="m73b0cb081c" d="M 0 0 
L -3.5 0 
" style="stroke: #000000; stroke-width: 0.8"/>
      </defs>
      <g>
       <use xlink:href="#m73b0cb081c" x="108" y="256.32" style="stroke: #000000; stroke-width: 0.8"/>
      </g>
     </g>
     <g id="text_8">
      <!-- 4.40 -->
      <g transform="translate(78.734375 260.119219) scale(0.1 -0.1)">
       <defs>
        <path id="DejaVuSans-2e" d="M 684 794 
L 1344 794 
L 1344 0 
L 684 0 
L 684 794 
z
" transform="scale(0.015625)"/>
       </defs>
       <use xlink:href="#DejaVuSans-34"/>
       <use xlink:href="#DejaVuSans-2e" transform="translate(63.623047 0)"/>
       <use xlink:href="#DejaVuSans-34" transform="translate(95.410156 0)"/>
       <use xlink:href="#DejaVuSans-30" transform="translate(159.033203 0)"/>
      </g>
     </g>
    </g>
    <g id="ytick_2">
     <g id="line2d_7">
      <g>
       <use xlink:href="#m73b0cb081c" x="108" y="219.36" style="stroke: #000000; stroke-width: 0.8"/>
      </g>
     </g>
     <g id="text_9">
      <!-- 4.45 -->
      <g transform="translate(78.734375 223.159219) scale(0.1 -0.1)">
       <defs>
        <path id="DejaVuSans-35" d="M 691 4666 
L 3169 4666 
L 3169 4134 
L 1269 4134 
L 1269 2991 
Q 1406 3038 1543 3061 
Q 1681 3084 1819 3084 
Q 2600 3084 3056 2656 
Q 3513 2228 3513 1497 
Q 3513 744 3044 326 
Q 2575 -91 1722 -91 
Q 1428 -91 1123 -41 
Q 819 9 494 109 
L 494 744 
Q 775 591 1075 516 
Q 1375 441 1709 441 
Q 2250 441 2565 725 
Q 2881 1009 2881 1497 
Q 2881 1984 2565 2268 
Q 2250 2553 1709 2553 
Q 1456 2553 1204 2497 
Q 953 2441 691 2322 
L 691 4666 
z
" transform="scale(0.015625)"/>
       </defs>
       <use xlink:href="#DejaVuSans-34"/>
       <use xlink:href="#DejaVuSans-2e" transform="translate(63.623047 0)"/>
       <use xlink:href="#DejaVuSans-34" transform="translate(95.410156 0)"/>
       <use xlink:href="#DejaVuSans-35" transform="translate(159.033203 0)"/>
      </g>
     </g>
    </g>
    <g id="ytick_3">
     <g id="line2d_8">
      <g>
       <use xlink:href="#m73b0cb081c" x="108" y="182.4" style="stroke: #000000; stroke-width: 0.8"/>
      </g>
     </g>
     <g id="text_10">
      <!-- 4.50 -->
      <g transform="translate(78.734375 186.199219) scale(0.1 -0.1)">
       <use xlink:href="#DejaVuSans-34"/>
       <use xlink:href="#DejaVuSans-2e" transform="translate(63.623047 0)"/>
       <use xlink:href="#DejaVuSans-35" transform="translate(95.410156 0)"/>
       <use xlink:href="#DejaVuSans-30" transform="translate(159.033203 0)"/>
      </g>
     </g>
    </g>
    <g id="ytick_4">
     <g id="line2d_9">
      <g>
       <use xlink:href="#m73b0cb081c" x="108" y="145.44" style="stroke: #000000; stroke-width: 0.8"/>
      </g>
     </g>
     <g id="text_11">
      <!-- 4.55 -->
      <g transform="translate(78.734375 149.239219) scale(0.1 -0.1)">
       <use xlink:href="#DejaVuSans-34"/>
       <use xlink:href="#DejaVuSans-2e" transform="translate(63.623047 0)"/>
       <use xlink:href="#DejaVuSans-35" transform="translate(95.410156 0)"/>
       <use xlink:href="#DejaVuSans-35" transform="translate(159.033203 0)"/>
      </g>
     </g>
    </g>
    <g id="ytick_5">
     <g id="line2d_10">
      <g>
       <use xlink:href="#m73b0cb081c" x="108" y="108.48" style="stroke: #000000; stroke-width: 0.8"/>
      </g>
     </g>
     <g id="text_12">
      <!-- 4.60 -->
      <g transform="translate(78.734375 112.279219) scale(0.1 -0.1)">
       <use xlink:href="#DejaVuSans-34"/>
       <use xlink:href="#DejaVuSans-2e" transform="translate(63.623047 0)"/>
       <use xlink:href="#DejaVuSans-36" transform="translate(95.410156 0)"/>
       <use xlink:href="#DejaVuSans-30" transform="translate(159.033203 0)"/>
      </g>
     </g>
    </g>
    <g id="ytick_6">
     <g id="line2d_11">
      <g>
       <use xlink:href="#m73b0cb081c" x="108" y="71.52" style="stroke: #000000; stroke-width: 0.8"/>
      </g>
     </g>
     <g id="text_13">
      <!-- 4.65 -->
      <g transform="translate(78.734375 75.319219) scale(0.1 -0.1)">
       <use xlink:href="#DejaVuSans-34"/>
       <use xlink:href="#DejaVuSans-2e" transform="translate(63.623047 0)"/>
       <use xlink:href="#DejaVuSans-36" transform="translate(95.410156 0)"/>
       <use xlink:href="#DejaVuSans-35" transform="translate(159.033203 0)"/>
      </g>
     </g>
    </g>
    <g id="ytick_7">
     <g id="line2d_12">
      <g>
       <use xlink:href="#m73b0cb081c" x="108" y="34.56" style="stroke: #000000; stroke-width: 0.8"/>
      </g>
     </g>
     <g id="text_14">
      <!-- 4.70 -->
      <g transform="translate(78.734375 38.359219) scale(0.1 -0.1)">
       <use xlink:href="#DejaVuSans-34"/>
       <use xlink:href="#DejaVuSans-2e" transform="translate(63.623047 0)"/>
       <use xlink:href="#DejaVuSans-37" transform="translate(95.410156 0)"/>
       <use xlink:href="#DejaVuSans-30" transform="translate(159.033203 0)"/>
      </g>
     </g>
    </g>
    <g id="text_15">
     <!-- Entropy -->
     <g transform="translate(72.654687 164.864219) rotate(-90) scale(0.1 -0.1)">
      <defs>
       <path id="DejaVuSans-45" d="M 628 4666 
L 3578 4666 
L 3578 4134 
L 1259 4134 
L 1259 2753 
L 3481 2753 
L 3481 2222 
L 1259 2222 
L 1259 531 
L 3634 531 
L 3634 0 
L 628 0 
L 628 4666 
z
" transform="scale(0.015625)"/>
       <path id="DejaVuSans-74" d="M 1172 4494 
L 1172 3500 
L 2356 3500 
L 2356 3053 
L 1172 3053 
L 1172 1153 
Q 1172 725 1289 603 
Q 1406 481 1766 481 
L 2356 481 
L 2356 0 
L 1766 0 
Q 1100 0 847 248 
Q 594 497 594 1153 
L 594 3053 
L 172 3053 
L 172 3500 
L 594 3500 
L 594 4494 
L 1172 4494 
z
" transform="scale(0.015625)"/>
       <path id="DejaVuSans-72" d="M 2631 2963 
Q 2534 3019 2420 3045 
Q 2306 3072 2169 3072 
Q 1681 3072 1420 2755 
Q 1159 2438 1159 1844 
L 1159 0 
L 581 0 
L 581 3500 
L 1159 3500 
L 1159 2956 
Q 1341 3275 1631 3429 
Q 1922 3584 2338 3584 
Q 2397 3584 2469 3576 
Q 2541 3569 2628 3553 
L 2631 2963 
z
" transform="scale(0.015625)"/>
       <path id="DejaVuSans-70" d="M 1159 525 
L 1159 -1331 
L 581 -1331 
L 581 3500 
L 1159 3500 
L 1159 2969 
Q 1341 3281 1617 3432 
Q 1894 3584 2278 3584 
Q 2916 3584 3314 3078 
Q 3713 2572 3713 1747 
Q 3713 922 3314 415 
Q 2916 -91 2278 -91 
Q 1894 -91 1617 61 
Q 1341 213 1159 525 
z
M 3116 1747 
Q 3116 2381 2855 2742 
Q 2594 3103 2138 3103 
Q 1681 3103 1420 2742 
Q 1159 2381 1159 1747 
Q 1159 1113 1420 752 
Q 1681 391 2138 391 
Q 2594 391 2855 752 
Q 3116 1113 3116 1747 
z
" transform="scale(0.015625)"/>
       <path id="DejaVuSans-79" d="M 2059 -325 
Q 1816 -950 1584 -1140 
Q 1353 -1331 966 -1331 
L 506 -1331 
L 506 -850 
L 844 -850 
Q 1081 -850 1212 -737 
Q 1344 -625 1503 -206 
L 1606 56 
L 191 3500 
L 800 3500 
L 1894 763 
L 2988 3500 
L 3597 3500 
L 2059 -325 
z
" transform="scale(0.015625)"/>
      </defs>
      <use xlink:href="#DejaVuSans-45"/>
      <use xlink:href="#DejaVuSans-6e" transform="translate(63.183594 0)"/>
      <use xlink:href="#DejaVuSans-74" transform="translate(126.5625 0)"/>
      <use xlink:href="#DejaVuSans-72" transform="translate(165.771484 0)"/>
      <use xlink:href="#DejaVuSans-6f" transform="translate(204.634766 0)"/>
      <use xlink:href="#DejaVuSans-70" transform="translate(265.816406 0)"/>
      <use xlink:href="#DejaVuSans-79" transform="translate(329.292969 0)"/>
     </g>
    </g>
   </g>
   <g id="line2d_13">
    <path d="M 138.436364 150.677138 
L 139.150832 180.795879 
L 139.865301 188.814634 
L 140.57977 195.095352 
L 141.294238 177.899164 
L 142.008707 175.756338 
L 142.723175 166.276561 
L 143.437644 159.380795 
L 144.152113 159.367659 
L 144.866581 159.826145 
L 145.58105 154.023295 
L 146.295519 152.902735 
L 147.009987 157.620707 
L 147.724456 155.807834 
L 148.438924 154.607591 
L 149.153393 162.278345 
L 149.867862 160.684553 
L 150.58233 160.177863 
L 151.296799 159.140493 
L 152.011268 156.21028 
L 152.725736 155.465073 
L 153.440205 157.756924 
L 154.154673 154.612817 
L 154.869142 154.644295 
L 155.583611 159.354711 
L 156.298079 161.138593 
L 157.012548 156.964636 
L 157.727017 158.012187 
L 158.441485 155.830755 
L 159.155954 156.143628 
L 159.870423 156.188226 
L 160.584891 156.370555 
L 161.29936 154.804348 
L 162.013828 156.300784 
L 162.728297 152.984962 
L 163.442766 151.592118 
L 164.871703 153.069965 
L 165.586172 154.543967 
L 166.30064 154.62393 
L 167.015109 155.953753 
L 167.729577 155.972437 
L 168.444046 154.793218 
L 169.158515 154.66266 
L 169.872983 155.568544 
L 170.587452 156.028713 
L 171.301921 155.228338 
L 172.016389 154.745648 
L 172.730858 154.46672 
L 174.159795 155.721439 
L 174.874264 156.605192 
L 175.588732 156.137498 
L 176.303201 156.962243 
L 177.01767 157.483583 
L 177.732138 157.188728 
L 178.446607 157.655122 
L 179.161076 157.903485 
L 179.875544 157.627712 
L 180.590013 155.794688 
L 181.304481 154.986844 
L 182.01895 154.908277 
L 182.733419 155.541295 
L 183.447887 155.360455 
L 184.162356 156.212781 
L 184.876825 155.450937 
L 185.591293 154.220623 
L 187.02023 153.739488 
L 188.449168 154.105741 
L 189.163636 152.933797 
L 189.878105 152.599665 
L 190.592574 152.018222 
L 191.307042 152.428244 
L 192.021511 152.62602 
L 192.73598 153.372476 
L 193.450448 153.22622 
L 194.164917 152.036609 
L 194.879385 152.281362 
L 196.308323 154.295823 
L 197.022791 154.447913 
L 197.73726 154.781555 
L 198.451729 155.542073 
L 199.166197 154.820988 
L 199.880666 154.640613 
L 200.595134 154.172904 
L 201.309603 154.66621 
L 202.024072 154.73472 
L 202.73854 154.963701 
L 203.453009 154.04801 
L 204.167478 153.7203 
L 204.881946 153.764736 
L 205.596415 153.486973 
L 206.310883 153.496122 
L 207.025352 153.677083 
L 207.739821 153.696279 
L 209.168758 153.198219 
L 209.883227 153.311124 
L 210.597695 152.784176 
L 211.312164 152.781334 
L 212.026633 152.998164 
L 212.741101 152.892625 
L 213.45557 151.746027 
L 214.170038 152.004649 
L 214.884507 151.29181 
L 215.598976 150.856282 
L 217.742382 150.891672 
L 218.45685 150.272028 
L 219.171319 150.441572 
L 219.885787 150.92058 
L 220.600256 150.993939 
L 221.314725 150.823381 
L 222.029193 150.865671 
L 222.743662 151.263611 
L 223.458131 151.216998 
L 224.172599 150.905962 
L 225.601536 151.713488 
L 227.030474 151.349232 
L 228.459411 151.860098 
L 229.17388 151.508809 
L 229.888348 151.721994 
L 231.317286 151.358373 
L 232.031754 150.631924 
L 232.746223 150.462061 
L 233.460691 150.472623 
L 234.17516 150.723349 
L 236.318566 149.999393 
L 237.033035 150.305469 
L 237.747503 149.655247 
L 239.17644 149.325288 
L 240.605378 149.516342 
L 241.319846 149.415781 
L 243.463252 150.117389 
L 244.177721 150.077849 
L 245.606658 149.671166 
L 247.035595 149.696099 
L 250.607939 149.401153 
L 251.322407 149.079349 
L 253.465813 149.264572 
L 254.180282 149.048752 
L 255.609219 149.672936 
L 256.323688 149.171974 
L 257.038156 149.402759 
L 257.752625 149.240447 
L 259.181562 149.085206 
L 260.610499 149.64727 
L 261.324968 149.297271 
L 262.039437 149.157533 
L 262.753905 149.169484 
L 263.468374 149.550178 
L 264.897311 149.511137 
L 265.61178 148.992549 
L 266.326248 149.099243 
L 267.040717 148.485506 
L 268.469654 148.559859 
L 269.184123 148.315151 
L 269.898592 148.405423 
L 271.327529 148.105601 
L 272.041997 148.35401 
L 272.756466 148.370044 
L 273.470935 148.588243 
L 277.043278 148.582044 
L 277.757746 148.353654 
L 279.186684 148.338793 
L 279.901152 148.069958 
L 281.33009 148.00174 
L 282.044558 148.200558 
L 283.473496 147.933259 
L 284.187964 148.081697 
L 284.902433 147.763939 
L 286.33137 148.261788 
L 287.045839 148.19952 
L 287.760307 148.350573 
L 288.474776 148.250999 
L 289.189245 148.402745 
L 289.903713 148.69375 
L 291.33265 148.822876 
L 292.761588 148.410565 
L 293.476056 147.357535 
L 294.190525 147.337388 
L 294.904994 147.522788 
L 295.619462 147.335432 
L 296.333931 146.730972 
L 297.048399 146.550531 
L 297.762868 146.637596 
L 298.477337 146.428075 
L 299.191805 146.342428 
L 299.906274 145.861197 
L 300.620743 145.732044 
L 301.335211 145.905653 
L 302.04968 145.859461 
L 302.764149 146.177077 
L 303.478617 146.281564 
L 304.907554 146.277997 
L 305.622023 146.524986 
L 306.336492 146.606609 
L 307.765429 146.234855 
L 308.479898 146.184351 
L 309.194366 146.346822 
L 309.908835 146.217224 
L 312.052241 146.213346 
L 312.766709 145.907289 
L 315.624584 145.73782 
L 316.339052 145.35296 
L 317.76799 145.749843 
L 318.482458 145.533033 
L 320.625864 145.765431 
L 321.340333 145.629168 
L 322.054802 145.769591 
L 323.483739 145.841693 
L 324.198207 145.39148 
L 324.912676 145.344097 
L 325.627145 145.455505 
L 327.056082 145.294564 
L 327.770551 145.102024 
L 328.485019 145.236517 
L 330.628425 145.098721 
L 331.342894 145.299629 
L 332.057362 145.210784 
L 332.771831 145.344501 
L 333.4863 145.21441 
L 334.200768 145.353861 
L 334.915237 145.365855 
L 336.344174 145.037882 
L 339.202049 145.144924 
L 339.916517 144.872301 
L 340.630986 144.851475 
L 341.345455 145.012917 
L 342.059923 145.037493 
L 342.774392 144.623866 
L 344.917798 144.646964 
L 345.632266 144.667465 
L 346.346735 144.918073 
L 347.775672 144.90736 
L 348.490141 145.044071 
L 349.204609 145.04671 
L 352.062484 145.460231 
L 352.776953 145.765033 
L 354.20589 145.678853 
L 354.920359 145.550343 
L 355.634827 145.615988 
L 356.349296 145.272451 
L 357.063764 145.094971 
L 358.492702 145.373005 
L 359.20717 145.29786 
L 360.636108 144.934396 
L 361.350576 144.788966 
L 362.779513 144.898663 
L 364.208451 145.022477 
L 366.351857 144.880796 
L 367.066325 144.699076 
L 370.638668 144.832936 
L 372.067606 144.976921 
L 372.782074 144.881789 
L 373.496543 144.901997 
L 374.211012 144.731291 
L 377.068886 145.117466 
L 377.783355 144.915945 
L 379.212292 145.136684 
L 379.926761 144.9837 
L 380.641229 145.012184 
L 381.355698 144.877855 
L 387.071447 145.11478 
L 388.500384 144.930348 
L 389.214853 144.976082 
L 390.64379 145.415874 
L 391.358259 145.329028 
L 393.501665 145.394358 
L 394.216133 144.583007 
L 394.930602 144.890415 
L 397.074008 145.233246 
L 398.502945 145.110745 
L 399.931882 145.439713 
L 401.360819 145.541365 
L 402.075288 145.424188 
L 403.504225 145.515115 
L 404.933163 145.753604 
L 406.3621 145.558611 
L 407.076569 145.79172 
L 409.219974 145.692218 
L 409.934443 145.842057 
L 412.077849 145.682865 
L 412.792318 145.828541 
L 413.506786 145.780782 
L 414.221255 145.962477 
L 416.364661 146.027679 
L 417.793598 146.181926 
L 422.794878 146.10597 
L 423.509347 145.822254 
L 424.223816 145.74459 
L 427.796159 146.49499 
L 428.510627 146.408925 
L 430.654033 146.432707 
L 431.368502 146.384119 
L 432.797439 146.59934 
L 434.226376 146.709144 
L 434.940845 146.449777 
L 435.655314 146.381549 
L 437.084251 146.008094 
L 439.227657 146.251477 
L 439.942125 146.132755 
L 440.656594 146.363248 
L 442.085531 146.363907 
L 442.8 146.097529 
L 444.228937 146.200832 
L 445.657875 146.133972 
L 446.372343 146.233491 
L 447.086812 146.212881 
L 447.80128 145.984413 
L 449.944686 146.067313 
L 450.659155 146.176735 
L 454.231498 145.722482 
L 457.803841 145.660395 
L 458.51831 145.538148 
L 459.947247 145.602603 
L 460.661716 145.511453 
L 462.090653 145.483996 
L 464.234059 145.395187 
L 465.662996 145.511926 
L 466.377465 145.545304 
L 467.091933 145.750845 
L 468.520871 145.77794 
L 469.235339 145.581902 
L 471.378745 145.726626 
L 472.807682 145.522465 
L 474.23662 145.590762 
L 476.380026 145.589841 
L 477.808963 145.5604 
L 478.523431 145.662458 
L 482.095775 145.61864 
L 484.953649 145.889718 
L 491.383867 145.948229 
L 492.098335 146.102181 
L 493.527273 146.057629 
L 495.670679 146.008856 
L 496.385147 146.051295 
L 497.099616 146.296345 
L 499.95749 146.418117 
L 500.671959 146.387737 
L 501.386428 146.507463 
L 503.529834 146.421627 
L 505.673239 146.330988 
L 509.245583 146.428747 
L 512.103457 146.32713 
L 515.6758 146.469804 
L 516.390269 146.403744 
L 517.819206 146.429331 
L 519.962612 146.395901 
L 521.391549 146.559677 
L 522.820487 146.652754 
L 523.534955 146.489846 
L 524.963892 146.522339 
L 527.107298 146.296641 
L 527.821767 145.508304 
L 528.536236 145.080292 
L 529.250704 145.027426 
L 532.823047 145.345122 
L 534.251985 145.309493 
L 537.824328 145.555457 
L 539.253265 145.549972 
L 541.396671 145.665991 
L 543.540077 145.41719 
L 544.969014 145.439197 
L 546.397951 145.128995 
L 547.11242 145.28609 
L 547.826889 145.125814 
L 549.255826 145.200405 
L 550.684763 145.450541 
L 552.1137 145.392589 
L 553.542638 145.324374 
L 555.686044 145.348459 
L 557.114981 145.540511 
L 558.543918 145.766469 
L 559.258387 145.753132 
L 559.972855 145.446109 
L 560.687324 145.44232 
L 561.401793 145.287381 
L 562.116261 145.250086 
L 562.83073 145.084476 
L 564.259667 145.074113 
L 564.974136 145.208307 
L 571.404353 145.24632 
L 574.976697 145.465161 
L 575.691165 145.390502 
L 584.979257 146.010802 
L 586.408195 146.106037 
L 587.837132 146.177308 
L 589.980538 146.286647 
L 591.409475 146.234965 
L 594.26735 146.272325 
L 596.410755 146.330675 
L 599.983099 146.074027 
L 604.26991 146.142409 
L 606.413316 146.236707 
L 609.271191 146.063575 
L 609.985659 146.134063 
L 611.414597 146.075767 
L 619.273752 146.032955 
L 620.702689 145.917103 
L 622.846095 146.029688 
L 627.132907 145.700129 
L 627.847375 145.783246 
L 629.276312 145.66699 
L 630.70525 145.722484 
L 632.134187 145.801256 
L 636.420999 145.728209 
L 637.135467 145.774617 
L 638.564405 145.61248 
L 639.278873 145.267088 
L 639.993342 145.299477 
L 640.70781 145.185303 
L 642.136748 145.26047 
L 643.565685 145.274027 
L 653.568246 145.307905 
L 654.997183 145.137304 
L 656.42612 145.123254 
L 659.998464 144.997914 
L 660.712932 145.087801 
L 662.141869 144.963191 
L 664.285275 145.045676 
L 665.714213 144.883518 
L 668.572087 145.000776 
L 669.286556 144.846354 
L 672.14443 144.980069 
L 672.858899 144.879904 
L 673.573367 144.915007 
L 675.002305 144.751209 
L 680.003585 144.96857 
L 680.718054 144.958804 
L 682.146991 145.193829 
L 685.004866 145.035965 
L 688.577209 144.975184 
L 689.291677 145.079513 
L 690.720615 145.164781 
L 699.294238 145.359553 
L 700.723175 145.272742 
L 702.866581 145.170565 
L 703.58105 145.162686 
L 704.295519 144.682988 
L 710.725736 144.795086 
L 711.440205 144.935913 
L 715.012548 144.858402 
L 719.29936 144.752689 
L 725.729577 144.774332 
L 728.587452 144.357451 
L 732.874264 143.974252 
L 738.590013 143.915693 
L 740.733419 143.982413 
L 742.876825 143.902368 
L 745.734699 143.92968 
L 747.163636 143.912586 
L 747.163636 143.912586 
" clip-path="url(#pe67a0111fe)" style="fill: none; stroke: #ff0000; stroke-width: 1.5; stroke-linecap: square"/>
   </g>
   <g id="line2d_14">
    <path d="M 138.436364 161.445427 
L 139.150832 154.854202 
L 139.865301 152.330663 
L 140.57977 150.333953 
L 142.008707 148.462413 
L 144.866581 146.840778 
L 146.295519 146.268023 
L 147.009987 146.123662 
L 148.438924 145.555274 
L 151.296799 145.126123 
L 152.011268 145.24141 
L 153.440205 145.176916 
L 154.154673 145.242399 
L 154.869142 145.074093 
L 156.298079 144.928404 
L 157.727017 144.789557 
L 159.155954 144.684775 
L 160.584891 144.624749 
L 163.442766 144.542253 
L 164.871703 144.568197 
L 168.444046 144.646812 
L 170.587452 144.546755 
L 171.301921 144.598405 
L 173.445327 144.445501 
L 181.304481 144.541183 
L 184.876825 144.400327 
L 187.734699 144.342796 
L 199.880666 144.264002 
L 202.024072 144.191239 
L 255.609219 144.080049 
L 301.335211 143.988017 
L 307.05096 143.991051 
L 319.911396 144.044271 
L 330.628425 143.989307 
L 721.442766 143.93754 
L 747.163636 143.912586 
L 747.163636 143.912586 
" clip-path="url(#pe67a0111fe)" style="fill: none; stroke: #0000ff; stroke-width: 1.5; stroke-linecap: square"/>
   </g>
   <g id="patch_3">
    <path d="M 108 256.32 
L 108 34.56 
" style="fill: none; stroke: #000000; stroke-width: 0.8; stroke-linejoin: miter; stroke-linecap: square"/>
   </g>
   <g id="patch_4">
    <path d="M 777.6 256.32 
L 777.6 34.56 
" style="fill: none; stroke: #000000; stroke-width: 0.8; stroke-linejoin: miter; stroke-linecap: square"/>
   </g>
   <g id="patch_5">
    <path d="M 108 256.32 
L 777.6 256.32 
" style="fill: none; stroke: #000000; stroke-width: 0.8; stroke-linejoin: miter; stroke-linecap: square"/>
   </g>
   <g id="patch_6">
    <path d="M 108 34.56 
L 777.6 34.56 
" style="fill: none; stroke: #000000; stroke-width: 0.8; stroke-linejoin: miter; stroke-linecap: square"/>
   </g>
   <g id="text_16">
    <!-- Entropy of English Tokens -->
    <g transform="translate(366.129375 28.56) scale(0.12 -0.12)">
     <defs>
      <path id="DejaVuSans-20" transform="scale(0.015625)"/>
      <path id="DejaVuSans-66" d="M 2375 4863 
L 2375 4384 
L 1825 4384 
Q 1516 4384 1395 4259 
Q 1275 4134 1275 3809 
L 1275 3500 
L 2222 3500 
L 2222 3053 
L 1275 3053 
L 1275 0 
L 697 0 
L 697 3053 
L 147 3053 
L 147 3500 
L 697 3500 
L 697 3744 
Q 697 4328 969 4595 
Q 1241 4863 1831 4863 
L 2375 4863 
z
" transform="scale(0.015625)"/>
      <path id="DejaVuSans-67" d="M 2906 1791 
Q 2906 2416 2648 2759 
Q 2391 3103 1925 3103 
Q 1463 3103 1205 2759 
Q 947 2416 947 1791 
Q 947 1169 1205 825 
Q 1463 481 1925 481 
Q 2391 481 2648 825 
Q 2906 1169 2906 1791 
z
M 3481 434 
Q 3481 -459 3084 -895 
Q 2688 -1331 1869 -1331 
Q 1566 -1331 1297 -1286 
Q 1028 -1241 775 -1147 
L 775 -588 
Q 1028 -725 1275 -790 
Q 1522 -856 1778 -856 
Q 2344 -856 2625 -561 
Q 2906 -266 2906 331 
L 2906 616 
Q 2728 306 2450 153 
Q 2172 0 1784 0 
Q 1141 0 747 490 
Q 353 981 353 1791 
Q 353 2603 747 3093 
Q 1141 3584 1784 3584 
Q 2172 3584 2450 3431 
Q 2728 3278 2906 2969 
L 2906 3500 
L 3481 3500 
L 3481 434 
z
" transform="scale(0.015625)"/>
      <path id="DejaVuSans-6c" d="M 603 4863 
L 1178 4863 
L 1178 0 
L 603 0 
L 603 4863 
z
" transform="scale(0.015625)"/>
      <path id="DejaVuSans-69" d="M 603 3500 
L 1178 3500 
L 1178 0 
L 603 0 
L 603 3500 
z
M 603 4863 
L 1178 4863 
L 1178 4134 
L 603 4134 
L 603 4863 
z
" transform="scale(0.015625)"/>
      <path id="DejaVuSans-68" d="M 3513 2113 
L 3513 0 
L 2938 0 
L 2938 2094 
Q 2938 2591 2744 2837 
Q 2550 3084 2163 3084 
Q 1697 3084 1428 2787 
Q 1159 2491 1159 1978 
L 1159 0 
L 581 0 
L 581 4863 
L 1159 4863 
L 1159 2956 
Q 1366 3272 1645 3428 
Q 1925 3584 2291 3584 
Q 2894 3584 3203 3211 
Q 3513 2838 3513 2113 
z
" transform="scale(0.015625)"/>
     </defs>
     <use xlink:href="#DejaVuSans-45"/>
     <use xlink:href="#DejaVuSans-6e" transform="translate(63.183594 0)"/>
     <use xlink:href="#DejaVuSans-74" transform="translate(126.5625 0)"/>
     <use xlink:href="#DejaVuSans-72" transform="translate(165.771484 0)"/>
     <use xlink:href="#DejaVuSans-6f" transform="translate(204.634766 0)"/>
     <use xlink:href="#DejaVuSans-70" transform="translate(265.816406 0)"/>
     <use xlink:href="#DejaVuSans-79" transform="translate(329.292969 0)"/>
     <use xlink:href="#DejaVuSans-20" transform="translate(388.472656 0)"/>
     <use xlink:href="#DejaVuSans-6f" transform="translate(420.259766 0)"/>
     <use xlink:href="#DejaVuSans-66" transform="translate(481.441406 0)"/>
     <use xlink:href="#DejaVuSans-20" transform="translate(516.646484 0)"/>
     <use xlink:href="#DejaVuSans-45" transform="translate(548.433594 0)"/>
     <use xlink:href="#DejaVuSans-6e" transform="translate(611.617188 0)"/>
     <use xlink:href="#DejaVuSans-67" transform="translate(674.996094 0)"/>
     <use xlink:href="#DejaVuSans-6c" transform="translate(738.472656 0)"/>
     <use xlink:href="#DejaVuSans-69" transform="translate(766.255859 0)"/>
     <use xlink:href="#DejaVuSans-73" transform="translate(794.039062 0)"/>
     <use xlink:href="#DejaVuSans-68" transform="translate(846.138672 0)"/>
     <use xlink:href="#DejaVuSans-20" transform="translate(909.517578 0)"/>
     <use xlink:href="#DejaVuSans-54" transform="translate(941.304688 0)"/>
     <use xlink:href="#DejaVuSans-6f" transform="translate(985.388672 0)"/>
     <use xlink:href="#DejaVuSans-6b" transform="translate(1046.570312 0)"/>
     <use xlink:href="#DejaVuSans-65" transform="translate(1100.855469 0)"/>
     <use xlink:href="#DejaVuSans-6e" transform="translate(1162.378906 0)"/>
     <use xlink:href="#DejaVuSans-73" transform="translate(1225.757812 0)"/>
    </g>
   </g>
   <g id="legend_1">
    <g id="patch_7">
     <path d="M 699.46875 71.91625 
L 770.6 71.91625 
Q 772.6 71.91625 772.6 69.91625 
L 772.6 41.56 
Q 772.6 39.56 770.6 39.56 
L 699.46875 39.56 
Q 697.46875 39.56 697.46875 41.56 
L 697.46875 69.91625 
Q 697.46875 71.91625 699.46875 71.91625 
z
" style="fill: #ffffff; opacity: 0.8; stroke: #cccccc; stroke-linejoin: miter"/>
    </g>
    <g id="line2d_15">
     <path d="M 701.46875 47.658437 
L 711.46875 47.658437 
L 721.46875 47.658437 
" style="fill: none; stroke: #ff0000; stroke-width: 1.5; stroke-linecap: square"/>
    </g>
    <g id="text_17">
     <!-- Original -->
     <g transform="translate(729.46875 51.158437) scale(0.1 -0.1)">
      <defs>
       <path id="DejaVuSans-4f" d="M 2522 4238 
Q 1834 4238 1429 3725 
Q 1025 3213 1025 2328 
Q 1025 1447 1429 934 
Q 1834 422 2522 422 
Q 3209 422 3611 934 
Q 4013 1447 4013 2328 
Q 4013 3213 3611 3725 
Q 3209 4238 2522 4238 
z
M 2522 4750 
Q 3503 4750 4090 4092 
Q 4678 3434 4678 2328 
Q 4678 1225 4090 567 
Q 3503 -91 2522 -91 
Q 1538 -91 948 565 
Q 359 1222 359 2328 
Q 359 3434 948 4092 
Q 1538 4750 2522 4750 
z
" transform="scale(0.015625)"/>
       <path id="DejaVuSans-61" d="M 2194 1759 
Q 1497 1759 1228 1600 
Q 959 1441 959 1056 
Q 959 750 1161 570 
Q 1363 391 1709 391 
Q 2188 391 2477 730 
Q 2766 1069 2766 1631 
L 2766 1759 
L 2194 1759 
z
M 3341 1997 
L 3341 0 
L 2766 0 
L 2766 531 
Q 2569 213 2275 61 
Q 1981 -91 1556 -91 
Q 1019 -91 701 211 
Q 384 513 384 1019 
Q 384 1609 779 1909 
Q 1175 2209 1959 2209 
L 2766 2209 
L 2766 2266 
Q 2766 2663 2505 2880 
Q 2244 3097 1772 3097 
Q 1472 3097 1187 3025 
Q 903 2953 641 2809 
L 641 3341 
Q 956 3463 1253 3523 
Q 1550 3584 1831 3584 
Q 2591 3584 2966 3190 
Q 3341 2797 3341 1997 
z
" transform="scale(0.015625)"/>
      </defs>
      <use xlink:href="#DejaVuSans-4f"/>
      <use xlink:href="#DejaVuSans-72" transform="translate(78.710938 0)"/>
      <use xlink:href="#DejaVuSans-69" transform="translate(119.824219 0)"/>
      <use xlink:href="#DejaVuSans-67" transform="translate(147.607422 0)"/>
      <use xlink:href="#DejaVuSans-69" transform="translate(211.083984 0)"/>
      <use xlink:href="#DejaVuSans-6e" transform="translate(238.867188 0)"/>
      <use xlink:href="#DejaVuSans-61" transform="translate(302.246094 0)"/>
      <use xlink:href="#DejaVuSans-6c" transform="translate(363.525391 0)"/>
     </g>
    </g>
    <g id="line2d_16">
     <path d="M 701.46875 62.336562 
L 711.46875 62.336562 
L 721.46875 62.336562 
" style="fill: none; stroke: #0000ff; stroke-width: 1.5; stroke-linecap: square"/>
    </g>
    <g id="text_18">
     <!-- Mean -->
     <g transform="translate(729.46875 65.836562) scale(0.1 -0.1)">
      <defs>
       <path id="DejaVuSans-4d" d="M 628 4666 
L 1569 4666 
L 2759 1491 
L 3956 4666 
L 4897 4666 
L 4897 0 
L 4281 0 
L 4281 4097 
L 3078 897 
L 2444 897 
L 1241 4097 
L 1241 0 
L 628 0 
L 628 4666 
z
" transform="scale(0.015625)"/>
      </defs>
      <use xlink:href="#DejaVuSans-4d"/>
      <use xlink:href="#DejaVuSans-65" transform="translate(86.279297 0)"/>
      <use xlink:href="#DejaVuSans-61" transform="translate(147.802734 0)"/>
      <use xlink:href="#DejaVuSans-6e" transform="translate(209.082031 0)"/>
     </g>
    </g>
   </g>
  </g>
 </g>
 <defs>
  <clipPath id="pe67a0111fe">
   <rect x="108" y="34.56" width="669.6" height="221.76"/>
  </clipPath>
 </defs>
</svg>
