<?xml version="1.0" encoding="utf-8" standalone="no"?>
<!DOCTYPE svg PUBLIC "-//W3C//DTD SVG 1.1//EN"
  "http://www.w3.org/Graphics/SVG/1.1/DTD/svg11.dtd">
<svg xmlns:xlink="http://www.w3.org/1999/xlink" width="864pt" height="288pt" viewBox="0 0 864 288" xmlns="http://www.w3.org/2000/svg" version="1.1">
 <metadata>
  <rdf:RDF xmlns:dc="http://purl.org/dc/elements/1.1/" xmlns:cc="http://creativecommons.org/ns#" xmlns:rdf="http://www.w3.org/1999/02/22-rdf-syntax-ns#">
   <cc:Work>
    <dc:type rdf:resource="http://purl.org/dc/dcmitype/StillImage"/>
    <dc:date>2025-03-22T20:51:40.820523</dc:date>
    <dc:format>image/svg+xml</dc:format>
    <dc:creator>
     <cc:Agent>
      <dc:title>Matplotlib v3.10.0, https://matplotlib.org/</dc:title>
     </cc:Agent>
    </dc:creator>
   </cc:Work>
  </rdf:RDF>
 </metadata>
 <defs>
  <style type="text/css">*{stroke-linejoin: round; stroke-linecap: butt}</style>
 </defs>
 <g id="figure_1">
  <g id="patch_1">
   <path d="M 0 288 
L 864 288 
L 864 0 
L 0 0 
z
" style="fill: #ffffff"/>
  </g>
  <g id="axes_1">
   <g id="patch_2">
    <path d="M 108 256.32 
L 777.6 256.32 
L 777.6 34.56 
L 108 34.56 
z
" style="fill: #ffffff"/>
   </g>
   <g id="FillBetweenPolyCollection_1">
    <path d="M 138.436364 -574.793068 
L 138.436364 1048.045146 
L 139.150832 446.697526 
L 139.865301 320.909892 
L 140.57977 301.955807 
L 141.294238 333.495843 
L 142.008707 353.794719 
L 142.723175 370.031503 
L 143.437644 368.267125 
L 144.152113 332.378434 
L 144.866581 305.608134 
L 145.58105 289.094703 
L 146.295519 276.663036 
L 147.009987 271.183849 
L 147.724456 260.94387 
L 148.438924 252.792104 
L 149.153393 244.861158 
L 149.867862 241.530173 
L 150.58233 235.91228 
L 151.296799 232.436251 
L 152.011268 229.00751 
L 152.725736 222.463676 
L 153.440205 220.373126 
L 154.154673 214.927542 
L 154.869142 207.484162 
L 155.583611 204.058627 
L 156.298079 202.704148 
L 157.012548 200.6521 
L 157.727017 194.59084 
L 158.441485 191.96023 
L 159.155954 190.490464 
L 159.870423 189.193809 
L 160.584891 188.157985 
L 161.29936 185.401723 
L 162.013828 184.50583 
L 162.728297 181.774843 
L 163.442766 181.996892 
L 164.157234 180.857339 
L 164.871703 181.865526 
L 165.586172 181.589082 
L 166.30064 183.308935 
L 167.015109 184.234712 
L 167.729577 183.964759 
L 168.444046 181.970982 
L 169.158515 181.348749 
L 169.872983 181.861772 
L 170.587452 180.826353 
L 171.301921 179.093216 
L 172.016389 178.731998 
L 172.730858 178.902422 
L 173.445327 178.265072 
L 174.159795 177.787509 
L 174.874264 177.812357 
L 175.588732 177.894214 
L 176.303201 176.322468 
L 177.01767 175.675896 
L 177.732138 176.021663 
L 178.446607 174.663622 
L 179.161076 176.247162 
L 179.875544 176.982907 
L 180.590013 175.449867 
L 181.304481 176.174154 
L 182.01895 176.634451 
L 182.733419 177.372674 
L 183.447887 176.239319 
L 184.162356 174.856034 
L 184.876825 175.01725 
L 185.591293 175.23574 
L 186.305762 174.872526 
L 187.02023 174.225903 
L 187.734699 173.906305 
L 188.449168 173.60876 
L 189.163636 174.536308 
L 189.878105 174.805103 
L 190.592574 174.513538 
L 191.307042 172.8652 
L 192.021511 172.052304 
L 192.73598 170.873222 
L 193.450448 171.125354 
L 194.164917 170.938791 
L 194.879385 170.370731 
L 195.593854 168.622533 
L 196.308323 168.165099 
L 197.022791 167.788046 
L 197.73726 168.060806 
L 198.451729 167.468426 
L 199.166197 166.924308 
L 199.880666 167.510452 
L 200.595134 167.473368 
L 201.309603 167.186333 
L 202.024072 166.113935 
L 202.73854 166.12378 
L 203.453009 166.302576 
L 204.167478 166.750241 
L 204.881946 167.155587 
L 205.596415 167.498367 
L 206.310883 168.019183 
L 207.025352 168.434008 
L 207.739821 167.890847 
L 208.454289 167.887276 
L 209.168758 167.950681 
L 209.883227 168.129414 
L 210.597695 167.554605 
L 211.312164 167.68582 
L 212.026633 167.842622 
L 212.741101 167.969652 
L 213.45557 167.178197 
L 214.170038 166.853564 
L 214.884507 166.505437 
L 215.598976 166.272543 
L 216.313444 165.860035 
L 217.027913 165.481225 
L 217.742382 165.673548 
L 218.45685 165.165867 
L 219.171319 164.930996 
L 219.885787 165.404733 
L 220.600256 165.269811 
L 221.314725 165.136683 
L 222.029193 164.57275 
L 222.743662 164.306684 
L 223.458131 163.677435 
L 224.172599 163.293946 
L 224.887068 163.396688 
L 225.601536 162.754807 
L 226.316005 162.246964 
L 227.030474 162.212245 
L 227.744942 161.79 
L 228.459411 161.466736 
L 229.17388 161.716703 
L 229.888348 161.475743 
L 230.602817 161.587725 
L 231.317286 161.354689 
L 232.031754 161.523187 
L 232.746223 161.573744 
L 233.460691 161.658168 
L 234.17516 161.468672 
L 234.889629 161.833658 
L 235.604097 161.144912 
L 236.318566 161.546579 
L 237.033035 161.187921 
L 237.747503 161.208783 
L 238.461972 161.514739 
L 239.17644 161.306676 
L 239.890909 161.417034 
L 240.605378 160.721289 
L 241.319846 160.313559 
L 242.034315 160.66708 
L 242.748784 160.951513 
L 243.463252 160.979747 
L 244.177721 160.609226 
L 244.89219 160.428804 
L 245.606658 160.420583 
L 246.321127 160.023466 
L 247.035595 159.451857 
L 247.750064 159.740765 
L 248.464533 160.094152 
L 249.179001 160.199368 
L 249.89347 160.015588 
L 250.607939 159.774034 
L 251.322407 159.381216 
L 252.036876 159.235441 
L 252.751344 159.190863 
L 253.465813 158.74291 
L 254.180282 158.597284 
L 254.89475 157.933969 
L 255.609219 157.845994 
L 256.323688 158.02206 
L 257.038156 158.370823 
L 257.752625 158.533578 
L 258.467093 158.631654 
L 259.181562 158.507805 
L 259.896031 158.584943 
L 260.610499 158.724221 
L 261.324968 157.313548 
L 262.039437 156.948575 
L 262.753905 156.925577 
L 263.468374 156.877468 
L 264.182843 156.985382 
L 264.897311 156.711385 
L 265.61178 156.833648 
L 266.326248 156.766809 
L 267.040717 156.419442 
L 267.755186 156.359889 
L 268.469654 156.192564 
L 269.184123 156.109672 
L 269.898592 156.170629 
L 270.61306 156.135699 
L 271.327529 156.238047 
L 272.041997 155.927103 
L 272.756466 155.74105 
L 273.470935 156.034757 
L 274.185403 156.128388 
L 274.899872 155.977789 
L 275.614341 155.732448 
L 276.328809 155.606791 
L 277.043278 155.932646 
L 277.757746 155.868313 
L 278.472215 155.788194 
L 279.186684 155.851334 
L 279.901152 155.850342 
L 280.615621 156.070168 
L 281.33009 155.910502 
L 282.044558 155.583031 
L 282.759027 155.511714 
L 283.473496 155.46178 
L 284.187964 155.294255 
L 284.902433 155.420912 
L 285.616901 155.139202 
L 286.33137 155.029056 
L 287.045839 155.348599 
L 287.760307 155.349955 
L 288.474776 154.915709 
L 289.189245 154.863338 
L 289.903713 154.907472 
L 290.618182 154.884465 
L 291.33265 155.134708 
L 292.047119 155.029316 
L 292.761588 155.152355 
L 293.476056 154.943944 
L 294.190525 154.997263 
L 294.904994 155.067439 
L 295.619462 155.09472 
L 296.333931 155.037974 
L 297.048399 154.831049 
L 297.762868 154.552523 
L 298.477337 154.682259 
L 299.191805 154.681668 
L 299.906274 155.317145 
L 300.620743 154.709346 
L 301.335211 154.491477 
L 302.04968 154.692856 
L 302.764149 154.927725 
L 303.478617 155.138532 
L 304.193086 155.015888 
L 304.907554 154.887841 
L 305.622023 154.727108 
L 306.336492 155.108292 
L 307.05096 155.502947 
L 307.765429 155.552324 
L 308.479898 155.428338 
L 309.194366 155.324771 
L 309.908835 155.175186 
L 310.623303 155.175409 
L 311.337772 155.320305 
L 312.052241 155.300612 
L 312.766709 155.108867 
L 313.481178 155.11545 
L 314.195647 155.148252 
L 314.910115 155.215241 
L 315.624584 155.312834 
L 316.339052 155.344059 
L 317.053521 155.345464 
L 317.76799 155.313239 
L 318.482458 155.331773 
L 319.196927 155.592112 
L 319.911396 155.736786 
L 320.625864 155.880466 
L 321.340333 155.787747 
L 322.054802 155.940056 
L 322.76927 156.038186 
L 323.483739 156.373898 
L 324.198207 156.401009 
L 324.912676 156.127132 
L 325.627145 156.130221 
L 326.341613 155.98164 
L 327.056082 156.156615 
L 327.770551 156.07875 
L 328.485019 155.383678 
L 329.199488 155.391793 
L 329.913956 155.443806 
L 330.628425 155.521295 
L 331.342894 155.645381 
L 332.057362 155.478476 
L 332.771831 155.531475 
L 333.4863 155.83106 
L 334.200768 155.948243 
L 334.915237 155.828699 
L 335.629706 155.707895 
L 336.344174 155.650965 
L 337.058643 155.273734 
L 337.773111 155.07955 
L 338.48758 155.004948 
L 339.202049 155.019503 
L 339.916517 154.97439 
L 340.630986 154.776112 
L 341.345455 154.799444 
L 342.059923 155.020734 
L 342.774392 154.942914 
L 343.48886 154.882342 
L 344.203329 154.976076 
L 344.917798 154.730455 
L 345.632266 154.690573 
L 346.346735 154.759157 
L 347.061204 155.104586 
L 347.775672 154.976974 
L 348.490141 154.685518 
L 349.204609 154.844273 
L 349.919078 155.149334 
L 350.633547 155.302585 
L 351.348015 154.988843 
L 352.062484 155.216708 
L 352.776953 155.65123 
L 353.491421 155.831559 
L 354.20589 155.609209 
L 354.920359 155.502605 
L 355.634827 155.319562 
L 356.349296 154.941345 
L 357.063764 155.246166 
L 357.778233 155.26614 
L 358.492702 155.293529 
L 359.20717 155.248072 
L 359.921639 155.005789 
L 360.636108 154.878599 
L 361.350576 154.934993 
L 362.065045 154.931095 
L 362.779513 154.944424 
L 363.493982 154.702836 
L 364.208451 154.679791 
L 364.922919 154.578048 
L 365.637388 154.60385 
L 366.351857 154.359433 
L 367.066325 154.144428 
L 367.780794 154.088084 
L 368.495262 154.176859 
L 369.209731 154.352678 
L 369.9242 154.244073 
L 370.638668 153.314814 
L 371.353137 152.402956 
L 372.067606 152.293375 
L 372.782074 152.308623 
L 373.496543 152.055387 
L 374.211012 152.149894 
L 374.92548 151.895513 
L 375.639949 151.849641 
L 376.354417 151.881002 
L 377.068886 151.662728 
L 377.783355 151.754201 
L 378.497823 151.553 
L 379.212292 151.610095 
L 379.926761 151.417648 
L 380.641229 151.329794 
L 381.355698 151.422628 
L 382.070166 151.397052 
L 382.784635 151.380726 
L 383.499104 151.270482 
L 384.213572 151.542922 
L 384.928041 151.428363 
L 385.64251 151.401972 
L 386.356978 151.382267 
L 387.071447 151.213774 
L 387.785915 151.219543 
L 388.500384 151.147002 
L 389.214853 151.039984 
L 389.929321 150.976875 
L 390.64379 151.093169 
L 391.358259 151.093733 
L 392.072727 151.112307 
L 392.787196 151.178301 
L 393.501665 151.131003 
L 394.216133 151.011537 
L 394.930602 150.975202 
L 395.64507 150.942242 
L 396.359539 150.895799 
L 397.074008 150.935107 
L 397.788476 151.085776 
L 398.502945 151.22294 
L 399.217414 151.171075 
L 399.931882 151.136296 
L 400.646351 150.308481 
L 401.360819 150.218503 
L 402.075288 150.088086 
L 402.789757 150.204223 
L 403.504225 150.156804 
L 404.218694 150.019839 
L 404.933163 149.876772 
L 405.647631 149.829467 
L 406.3621 149.933438 
L 407.076569 149.944306 
L 407.791037 149.936555 
L 408.505506 149.866654 
L 409.219974 149.416057 
L 409.934443 149.409427 
L 410.648912 149.552021 
L 411.36338 149.561939 
L 412.077849 149.641664 
L 412.792318 149.556354 
L 413.506786 149.690332 
L 414.221255 149.597535 
L 414.935723 149.885681 
L 415.650192 150.009097 
L 416.364661 150.213497 
L 417.079129 150.278907 
L 417.793598 150.011198 
L 418.508067 150.069558 
L 419.222535 150.200489 
L 419.937004 150.027345 
L 420.651472 150.013434 
L 421.365941 149.923218 
L 422.08041 149.887867 
L 422.794878 149.73854 
L 423.509347 149.798974 
L 424.223816 149.884348 
L 424.938284 149.816454 
L 425.652753 149.797495 
L 426.367222 149.578937 
L 427.08169 149.435857 
L 427.796159 149.269638 
L 428.510627 149.224161 
L 429.225096 149.288084 
L 429.939565 149.367399 
L 430.654033 149.437704 
L 431.368502 149.377074 
L 432.082971 149.423426 
L 432.797439 149.306402 
L 433.511908 149.394643 
L 434.226376 149.251026 
L 434.940845 149.323103 
L 435.655314 149.393824 
L 436.369782 149.465016 
L 437.084251 149.557837 
L 437.79872 149.465159 
L 438.513188 149.358382 
L 439.227657 149.322849 
L 439.942125 149.277658 
L 440.656594 149.185227 
L 441.371063 149.220125 
L 442.085531 149.145624 
L 442.8 149.205465 
L 443.514469 149.174175 
L 444.228937 149.120582 
L 444.943406 149.137511 
L 445.657875 149.259214 
L 446.372343 149.176114 
L 447.086812 149.16968 
L 447.80128 149.227472 
L 448.515749 149.221528 
L 449.230218 148.958025 
L 449.944686 149.011937 
L 450.659155 148.984305 
L 451.373624 148.84781 
L 452.088092 148.894068 
L 452.802561 148.904623 
L 453.517029 148.948501 
L 454.231498 148.869159 
L 454.945967 148.940905 
L 455.660435 148.93285 
L 456.374904 149.030835 
L 457.089373 149.045543 
L 457.803841 149.0976 
L 458.51831 148.886271 
L 459.232778 148.969902 
L 459.947247 149.001636 
L 460.661716 149.098153 
L 461.376184 149.189878 
L 462.090653 149.274671 
L 462.805122 149.194542 
L 463.51959 149.038532 
L 464.234059 149.141144 
L 464.948528 149.101282 
L 465.662996 149.020641 
L 466.377465 149.069074 
L 467.091933 149.186659 
L 467.806402 149.016095 
L 468.520871 149.052609 
L 469.235339 149.110788 
L 469.949808 149.161236 
L 470.664277 149.144407 
L 471.378745 149.004753 
L 472.093214 149.020982 
L 472.807682 148.891956 
L 473.522151 148.921346 
L 474.23662 149.009019 
L 474.951088 149.17792 
L 475.665557 149.092278 
L 476.380026 149.044758 
L 477.094494 149.172745 
L 477.808963 148.983991 
L 478.523431 148.85349 
L 479.2379 148.968652 
L 479.952369 149.108972 
L 480.666837 149.093231 
L 481.381306 149.069982 
L 482.095775 149.065426 
L 482.810243 149.226113 
L 483.524712 149.291971 
L 484.239181 149.410449 
L 484.953649 149.610985 
L 485.668118 149.660795 
L 486.382586 149.568976 
L 487.097055 149.541174 
L 487.811524 149.630522 
L 488.525992 149.489927 
L 489.240461 149.409574 
L 489.95493 149.465721 
L 490.669398 149.343072 
L 491.383867 149.429489 
L 492.098335 149.375702 
L 492.812804 149.409131 
L 493.527273 149.381583 
L 494.241741 149.230356 
L 494.95621 149.350062 
L 495.670679 149.185255 
L 496.385147 149.288294 
L 497.099616 149.366691 
L 497.814085 149.373922 
L 498.528553 149.428384 
L 499.243022 149.493598 
L 499.95749 149.533265 
L 500.671959 149.252251 
L 501.386428 149.218181 
L 502.100896 149.06994 
L 502.815365 148.530447 
L 503.529834 148.5689 
L 504.244302 148.56687 
L 504.958771 148.632784 
L 505.673239 148.619846 
L 506.387708 148.59774 
L 507.102177 148.677532 
L 507.816645 148.681183 
L 508.531114 148.727879 
L 509.245583 148.827863 
L 509.960051 148.908455 
L 510.67452 148.788315 
L 511.388988 148.818918 
L 512.103457 148.906552 
L 512.817926 148.843298 
L 513.532394 148.904314 
L 514.246863 148.984397 
L 514.961332 148.860627 
L 515.6758 148.828223 
L 516.390269 148.623778 
L 517.104738 148.385242 
L 517.819206 148.504184 
L 518.533675 148.641621 
L 519.248143 148.770746 
L 519.962612 148.755287 
L 520.677081 148.833036 
L 521.391549 148.796557 
L 522.106018 148.61499 
L 522.820487 148.551292 
L 523.534955 148.495301 
L 524.249424 148.580218 
L 524.963892 148.613593 
L 525.678361 148.645396 
L 526.39283 148.765929 
L 527.107298 148.750067 
L 527.821767 148.857862 
L 528.536236 148.915152 
L 529.250704 148.907964 
L 529.965173 148.82784 
L 530.679641 148.823605 
L 531.39411 148.790365 
L 532.108579 148.722395 
L 532.823047 148.851087 
L 533.537516 148.831284 
L 534.251985 148.7886 
L 534.966453 148.782086 
L 535.680922 148.766915 
L 536.395391 148.690362 
L 537.109859 148.683704 
L 537.824328 148.772595 
L 538.538796 148.79493 
L 539.253265 148.849558 
L 539.967734 148.886848 
L 540.682202 148.792215 
L 541.396671 148.809213 
L 542.11114 148.846432 
L 542.825608 148.835656 
L 543.540077 148.800211 
L 544.254545 148.801241 
L 544.969014 148.773188 
L 545.683483 148.86396 
L 546.397951 148.919629 
L 547.11242 148.889117 
L 547.826889 148.813491 
L 548.541357 148.759681 
L 549.255826 148.721834 
L 549.970294 148.730344 
L 550.684763 148.852947 
L 551.399232 148.813895 
L 552.1137 148.817794 
L 552.828169 148.643147 
L 553.542638 148.678646 
L 554.257106 148.729607 
L 554.971575 148.82881 
L 555.686044 148.763117 
L 556.400512 148.774893 
L 557.114981 148.846774 
L 557.829449 148.84125 
L 558.543918 148.754318 
L 559.258387 148.654309 
L 559.972855 148.629278 
L 560.687324 148.647286 
L 561.401793 148.685123 
L 562.116261 148.857103 
L 562.83073 148.833725 
L 563.545198 148.770826 
L 564.259667 148.771498 
L 564.974136 148.722655 
L 565.688604 148.785207 
L 566.403073 148.837616 
L 567.117542 148.790778 
L 567.83201 148.772555 
L 568.546479 148.636295 
L 569.260948 148.590398 
L 569.975416 148.657475 
L 570.689885 148.748278 
L 571.404353 148.812254 
L 572.118822 148.676763 
L 572.833291 148.673801 
L 573.547759 148.593309 
L 574.262228 148.502848 
L 574.976697 148.471832 
L 575.691165 148.465679 
L 576.405634 148.462327 
L 577.120102 148.455961 
L 577.834571 148.549613 
L 578.54904 148.537922 
L 579.263508 148.443474 
L 579.977977 148.373564 
L 580.692446 148.466459 
L 581.406914 148.512492 
L 582.121383 148.610941 
L 582.835851 148.515244 
L 583.55032 148.55494 
L 584.264789 148.637036 
L 584.979257 148.648642 
L 585.693726 148.625422 
L 586.408195 148.457742 
L 587.122663 148.27729 
L 587.837132 148.290083 
L 588.551601 148.379554 
L 589.266069 148.370705 
L 589.980538 148.305092 
L 590.695006 148.233788 
L 591.409475 148.25952 
L 592.123944 148.217001 
L 592.838412 148.248078 
L 593.552881 148.220963 
L 594.26735 148.202848 
L 594.981818 148.096458 
L 595.696287 148.18674 
L 596.410755 148.134237 
L 597.125224 148.139221 
L 597.839693 148.162089 
L 598.554161 148.081011 
L 599.26863 148.10679 
L 599.983099 148.083975 
L 600.697567 147.879601 
L 601.412036 147.806002 
L 602.126504 147.972131 
L 602.840973 147.924244 
L 603.555442 148.026576 
L 604.26991 148.062641 
L 604.984379 148.144898 
L 605.698848 147.880717 
L 606.413316 147.826355 
L 607.127785 147.613708 
L 607.842254 147.640567 
L 608.556722 147.723314 
L 609.271191 147.839545 
L 609.985659 147.865523 
L 610.700128 147.88559 
L 611.414597 147.762323 
L 612.129065 147.546062 
L 612.843534 147.404913 
L 613.558003 147.471678 
L 614.272471 147.635637 
L 614.98694 147.52076 
L 615.701408 147.216347 
L 616.415877 147.036579 
L 617.130346 147.111906 
L 617.844814 147.133522 
L 618.559283 147.201697 
L 619.273752 147.228745 
L 619.98822 147.215335 
L 620.702689 147.060558 
L 621.417157 147.086203 
L 622.131626 147.059623 
L 622.846095 147.023627 
L 623.560563 147.044234 
L 624.275032 147.028331 
L 624.989501 147.062208 
L 625.703969 147.086756 
L 626.418438 146.941314 
L 627.132907 145.819305 
L 627.847375 145.844968 
L 628.561844 145.728211 
L 629.276312 145.685248 
L 629.990781 145.752898 
L 630.70525 145.7218 
L 631.419718 145.785882 
L 632.134187 145.784494 
L 632.848656 145.801245 
L 633.563124 145.836733 
L 634.277593 145.844886 
L 634.992061 145.861341 
L 635.70653 145.916213 
L 636.420999 145.826865 
L 637.135467 145.767933 
L 637.849936 145.74095 
L 638.564405 145.805327 
L 639.278873 145.606353 
L 639.993342 145.486438 
L 640.70781 145.43355 
L 641.422279 145.373282 
L 642.136748 145.322792 
L 642.851216 145.473289 
L 643.565685 145.543513 
L 644.280154 145.448617 
L 644.994622 145.432822 
L 645.709091 145.305756 
L 646.42356 145.322576 
L 647.138028 145.378481 
L 647.852497 145.392985 
L 648.566965 145.407044 
L 649.281434 145.449 
L 649.995903 145.418154 
L 650.710371 145.307299 
L 651.42484 145.361306 
L 652.139309 145.403065 
L 652.853777 145.34998 
L 653.568246 145.331722 
L 654.282714 145.179395 
L 654.997183 145.17763 
L 655.711652 145.198879 
L 656.42612 145.266342 
L 657.140589 145.182754 
L 657.855058 145.054242 
L 658.569526 145.070729 
L 659.283995 145.123687 
L 659.998464 145.049891 
L 660.712932 145.016804 
L 661.427401 145.04749 
L 662.141869 145.031059 
L 662.856338 145.187225 
L 663.570807 145.142994 
L 664.285275 145.12391 
L 664.999744 145.229346 
L 665.714213 145.241612 
L 666.428681 145.286584 
L 667.14315 145.25713 
L 667.857618 145.243561 
L 668.572087 145.044473 
L 669.286556 145.076932 
L 670.001024 145.127939 
L 670.715493 145.250492 
L 671.429962 145.231694 
L 672.14443 145.18805 
L 672.858899 145.141964 
L 673.573367 145.153041 
L 674.287836 145.192737 
L 675.002305 145.249236 
L 675.716773 145.22244 
L 676.431242 145.287099 
L 677.145711 145.279037 
L 677.860179 145.313049 
L 678.574648 145.336695 
L 679.289117 145.30682 
L 680.003585 145.300416 
L 680.718054 145.320125 
L 681.432522 145.34924 
L 682.146991 145.147858 
L 682.86146 145.125767 
L 683.575928 145.033581 
L 684.290397 145.057492 
L 685.004866 145.079408 
L 685.719334 145.063934 
L 686.433803 145.107854 
L 687.148271 145.050887 
L 687.86274 145.046677 
L 688.577209 145.01479 
L 689.291677 145.04296 
L 690.006146 144.849284 
L 690.720615 144.868515 
L 691.435083 144.818713 
L 692.149552 144.864786 
L 692.86402 144.897837 
L 693.578489 144.882709 
L 694.292958 144.926594 
L 695.007426 144.929284 
L 695.721895 144.965708 
L 696.436364 144.987704 
L 697.150832 145.036726 
L 697.865301 145.040891 
L 698.57977 144.812832 
L 699.294238 144.845447 
L 700.008707 144.852302 
L 700.723175 144.841552 
L 701.437644 144.806268 
L 702.152113 144.924679 
L 702.866581 144.936349 
L 703.58105 144.822053 
L 704.295519 144.610126 
L 705.009987 144.663448 
L 705.724456 144.645151 
L 706.438924 144.719737 
L 707.153393 144.766337 
L 707.867862 144.763945 
L 708.58233 144.700807 
L 709.296799 144.747155 
L 710.011268 144.620162 
L 710.725736 144.66214 
L 711.440205 144.546353 
L 712.154673 144.557649 
L 712.869142 144.535855 
L 713.583611 144.502521 
L 714.298079 144.486798 
L 715.012548 144.460423 
L 715.727017 144.416626 
L 716.441485 144.439962 
L 717.155954 144.426209 
L 717.870423 144.377296 
L 718.584891 144.41873 
L 719.29936 144.41269 
L 720.013828 144.360812 
L 720.728297 144.374189 
L 721.442766 144.34409 
L 722.157234 144.304328 
L 722.871703 144.340803 
L 723.586172 144.413098 
L 724.30064 144.427548 
L 725.015109 144.339576 
L 725.729577 144.246462 
L 726.444046 144.211622 
L 727.158515 144.193579 
L 727.872983 144.140565 
L 728.587452 144.196521 
L 729.301921 143.990775 
L 730.016389 144.078416 
L 730.730858 144.032934 
L 731.445327 144.009302 
L 732.159795 144.025569 
L 732.874264 144.048753 
L 733.588732 144.123898 
L 734.303201 144.002855 
L 735.01767 143.980227 
L 735.732138 144.023772 
L 736.446607 144.120066 
L 737.161076 144.086738 
L 737.875544 144.042162 
L 738.590013 143.901356 
L 739.304481 143.808532 
L 740.01895 143.77139 
L 740.733419 143.838601 
L 741.447887 143.887925 
L 742.162356 143.703168 
L 742.876825 143.136295 
L 743.591293 143.202705 
L 744.305762 143.1185 
L 745.02023 143.108767 
L 745.734699 143.119817 
L 746.449168 142.275468 
L 747.163636 141.923934 
L 747.163636 141.923934 
L 747.163636 141.923934 
L 746.449168 141.825865 
L 745.734699 141.683847 
L 745.02023 141.515251 
L 744.305762 141.332666 
L 743.591293 141.164279 
L 742.876825 140.986631 
L 742.162356 140.808488 
L 741.447887 140.819006 
L 740.733419 140.811496 
L 740.01895 140.786056 
L 739.304481 140.739917 
L 738.590013 140.754444 
L 737.875544 140.690935 
L 737.161076 140.652954 
L 736.446607 140.583013 
L 735.732138 140.492683 
L 735.01767 140.46838 
L 734.303201 140.473866 
L 733.588732 140.448244 
L 732.874264 140.465289 
L 732.159795 140.515405 
L 731.445327 140.447352 
L 730.730858 140.383465 
L 730.016389 140.326873 
L 729.301921 140.233244 
L 728.587452 140.195331 
L 727.872983 140.170392 
L 727.158515 140.173732 
L 726.444046 140.168998 
L 725.729577 140.103445 
L 725.015109 140.093676 
L 724.30064 140.073155 
L 723.586172 140.026774 
L 722.871703 139.932643 
L 722.157234 139.920643 
L 721.442766 139.920204 
L 720.728297 139.998372 
L 720.013828 139.935438 
L 719.29936 139.877289 
L 718.584891 139.840644 
L 717.870423 139.774738 
L 717.155954 139.701779 
L 716.441485 139.657433 
L 715.727017 139.602251 
L 715.012548 139.543323 
L 714.298079 139.61895 
L 713.583611 139.612722 
L 712.869142 139.510739 
L 712.154673 139.529288 
L 711.440205 139.565098 
L 710.725736 139.480589 
L 710.011268 139.59727 
L 709.296799 139.650151 
L 708.58233 139.62263 
L 707.867862 139.490152 
L 707.153393 139.575784 
L 706.438924 139.556109 
L 705.724456 139.547064 
L 705.009987 139.586375 
L 704.295519 139.615395 
L 703.58105 139.624123 
L 702.866581 139.746946 
L 702.152113 139.723199 
L 701.437644 139.66365 
L 700.723175 139.720321 
L 700.008707 139.601414 
L 699.294238 139.409122 
L 698.57977 139.346336 
L 697.865301 139.423933 
L 697.150832 139.393248 
L 696.436364 139.390638 
L 695.721895 139.506999 
L 695.007426 139.438424 
L 694.292958 139.35447 
L 693.578489 139.295955 
L 692.86402 139.292517 
L 692.149552 139.213774 
L 691.435083 139.144609 
L 690.720615 139.169895 
L 690.006146 139.153596 
L 689.291677 139.141488 
L 688.577209 139.078318 
L 687.86274 139.095529 
L 687.148271 139.048268 
L 686.433803 138.966634 
L 685.719334 138.966537 
L 685.004866 139.022467 
L 684.290397 138.987757 
L 683.575928 138.897209 
L 682.86146 139.048654 
L 682.146991 138.994169 
L 681.432522 138.977041 
L 680.718054 139.064671 
L 680.003585 138.987561 
L 679.289117 138.97577 
L 678.574648 138.946244 
L 677.860179 138.89054 
L 677.145711 138.796855 
L 676.431242 138.751889 
L 675.716773 138.68467 
L 675.002305 138.72318 
L 674.287836 138.748209 
L 673.573367 138.709907 
L 672.858899 138.589728 
L 672.14443 138.516316 
L 671.429962 138.493893 
L 670.715493 138.560599 
L 670.001024 138.495479 
L 669.286556 138.421894 
L 668.572087 138.415718 
L 667.857618 138.437055 
L 667.14315 138.342917 
L 666.428681 138.400644 
L 665.714213 138.44189 
L 664.999744 138.35045 
L 664.285275 138.181334 
L 663.570807 138.251127 
L 662.856338 138.286569 
L 662.141869 138.371861 
L 661.427401 138.385445 
L 660.712932 138.349382 
L 659.998464 138.31709 
L 659.283995 138.299391 
L 658.569526 138.301745 
L 657.855058 138.410306 
L 657.140589 138.403706 
L 656.42612 138.28068 
L 655.711652 138.332536 
L 654.997183 138.362776 
L 654.282714 138.2054 
L 653.568246 138.21864 
L 652.853777 138.202445 
L 652.139309 138.211086 
L 651.42484 138.232698 
L 650.710371 138.335885 
L 649.995903 138.392712 
L 649.281434 138.39242 
L 648.566965 138.422231 
L 647.852497 138.363018 
L 647.138028 138.438812 
L 646.42356 138.404594 
L 645.709091 138.42352 
L 644.994622 138.406021 
L 644.280154 138.358465 
L 643.565685 138.318685 
L 642.851216 138.342619 
L 642.136748 138.337022 
L 641.422279 138.315529 
L 640.70781 138.240932 
L 639.993342 138.253268 
L 639.278873 138.133806 
L 638.564405 138.159499 
L 637.849936 138.083459 
L 637.135467 138.049741 
L 636.420999 138.149045 
L 635.70653 138.126752 
L 634.992061 138.156147 
L 634.277593 138.164301 
L 633.563124 138.008961 
L 632.848656 138.033418 
L 632.134187 138.081889 
L 631.419718 138.040486 
L 630.70525 138.056585 
L 629.990781 138.249672 
L 629.276312 138.235113 
L 628.561844 138.293474 
L 627.847375 138.205607 
L 627.132907 138.392026 
L 626.418438 138.352217 
L 625.703969 138.45409 
L 624.989501 138.430428 
L 624.275032 138.343441 
L 623.560563 138.234187 
L 622.846095 138.214335 
L 622.131626 138.202197 
L 621.417157 138.145782 
L 620.702689 138.022571 
L 619.98822 138.032878 
L 619.273752 138.062384 
L 618.559283 138.048101 
L 617.844814 138.000723 
L 617.130346 138.045226 
L 616.415877 138.021541 
L 615.701408 138.025052 
L 614.98694 138.000524 
L 614.272471 137.929066 
L 613.558003 137.917456 
L 612.843534 137.894902 
L 612.129065 137.841377 
L 611.414597 137.820962 
L 610.700128 137.754284 
L 609.985659 137.904733 
L 609.271191 137.820555 
L 608.556722 137.753093 
L 607.842254 137.612845 
L 607.127785 137.589316 
L 606.413316 137.511664 
L 605.698848 137.550131 
L 604.984379 137.543642 
L 604.26991 137.578898 
L 603.555442 137.572746 
L 602.840973 137.559137 
L 602.126504 137.566205 
L 601.412036 137.58208 
L 600.697567 137.534401 
L 599.983099 137.583602 
L 599.26863 137.433266 
L 598.554161 137.535864 
L 597.839693 137.503669 
L 597.125224 137.54733 
L 596.410755 137.5157 
L 595.696287 137.472625 
L 594.981818 137.361845 
L 594.26735 137.307087 
L 593.552881 137.270703 
L 592.838412 137.191854 
L 592.123944 137.093946 
L 591.409475 136.952572 
L 590.695006 137.010454 
L 589.980538 137.037273 
L 589.266069 136.962626 
L 588.551601 136.918669 
L 587.837132 136.889132 
L 587.122663 136.813503 
L 586.408195 136.79011 
L 585.693726 136.768083 
L 584.979257 136.853356 
L 584.264789 136.961927 
L 583.55032 137.071345 
L 582.835851 136.902474 
L 582.121383 137.102045 
L 581.406914 137.038797 
L 580.692446 136.968581 
L 579.977977 137.000755 
L 579.263508 136.930009 
L 578.54904 136.858308 
L 577.834571 136.709275 
L 577.120102 136.601181 
L 576.405634 136.522388 
L 575.691165 136.461292 
L 574.976697 136.5352 
L 574.262228 136.394899 
L 573.547759 136.344395 
L 572.833291 136.314935 
L 572.118822 136.459843 
L 571.404353 136.457738 
L 570.689885 136.427728 
L 569.975416 136.363617 
L 569.260948 136.39529 
L 568.546479 136.355263 
L 567.83201 136.304976 
L 567.117542 136.275922 
L 566.403073 136.137907 
L 565.688604 136.111091 
L 564.974136 136.115492 
L 564.259667 136.104989 
L 563.545198 136.033501 
L 562.83073 136.054593 
L 562.116261 136.098118 
L 561.401793 136.072936 
L 560.687324 135.989066 
L 559.972855 135.91322 
L 559.258387 135.72927 
L 558.543918 135.58688 
L 557.829449 135.72198 
L 557.114981 135.677611 
L 556.400512 135.612509 
L 555.686044 135.638567 
L 554.971575 135.552036 
L 554.257106 135.396323 
L 553.542638 135.370554 
L 552.828169 135.326422 
L 552.1137 135.213426 
L 551.399232 135.147683 
L 550.684763 135.075921 
L 549.970294 135.03747 
L 549.255826 134.948341 
L 548.541357 134.937163 
L 547.826889 134.901422 
L 547.11242 135.025067 
L 546.397951 135.09013 
L 545.683483 134.908697 
L 544.969014 134.886043 
L 544.254545 134.938698 
L 543.540077 134.885247 
L 542.825608 134.969998 
L 542.11114 135.034519 
L 541.396671 135.14249 
L 540.682202 134.96471 
L 539.967734 134.934247 
L 539.253265 134.833637 
L 538.538796 134.771514 
L 537.824328 134.749544 
L 537.109859 134.825263 
L 536.395391 134.8308 
L 535.680922 134.795161 
L 534.966453 134.71229 
L 534.251985 134.712796 
L 533.537516 134.76233 
L 532.823047 134.879635 
L 532.108579 134.83523 
L 531.39411 134.781834 
L 530.679641 134.694235 
L 529.965173 134.73131 
L 529.250704 134.655444 
L 528.536236 134.704605 
L 527.821767 134.640258 
L 527.107298 134.533638 
L 526.39283 134.514494 
L 525.678361 134.598384 
L 524.963892 134.443541 
L 524.249424 134.383323 
L 523.534955 134.292015 
L 522.820487 134.209696 
L 522.106018 134.46318 
L 521.391549 134.542692 
L 520.677081 134.626517 
L 519.962612 134.579261 
L 519.248143 134.76709 
L 518.533675 134.69475 
L 517.819206 134.63787 
L 517.104738 134.585536 
L 516.390269 134.545496 
L 515.6758 134.46347 
L 514.961332 134.335334 
L 514.246863 134.273066 
L 513.532394 134.256221 
L 512.817926 134.255746 
L 512.103457 134.395163 
L 511.388988 134.407394 
L 510.67452 135.919817 
L 509.960051 135.866384 
L 509.245583 135.890859 
L 508.531114 135.92947 
L 507.816645 136.018639 
L 507.102177 136.058383 
L 506.387708 135.944168 
L 505.673239 135.971767 
L 504.958771 136.053845 
L 504.244302 136.325241 
L 503.529834 136.398396 
L 502.815365 136.248318 
L 502.100896 136.115374 
L 501.386428 136.047307 
L 500.671959 135.942811 
L 499.95749 135.801603 
L 499.243022 135.742969 
L 498.528553 135.741438 
L 497.814085 135.610285 
L 497.099616 135.491651 
L 496.385147 135.531858 
L 495.670679 135.845893 
L 494.95621 135.774187 
L 494.241741 135.857105 
L 493.527273 135.756313 
L 492.812804 136.156782 
L 492.098335 136.312969 
L 491.383867 136.312085 
L 490.669398 136.315117 
L 489.95493 136.240966 
L 489.240461 136.297481 
L 488.525992 136.247561 
L 487.811524 136.249126 
L 487.097055 136.2449 
L 486.382586 136.232595 
L 485.668118 136.114039 
L 484.953649 135.978353 
L 484.239181 135.73553 
L 483.524712 135.611778 
L 482.810243 135.700299 
L 482.095775 135.934955 
L 481.381306 135.82479 
L 480.666837 135.73898 
L 479.952369 135.735337 
L 479.2379 135.724112 
L 478.523431 135.853912 
L 477.808963 135.953249 
L 477.094494 135.980541 
L 476.380026 136.223815 
L 475.665557 136.280683 
L 474.951088 136.272964 
L 474.23662 136.19552 
L 473.522151 135.987366 
L 472.807682 136.077854 
L 472.093214 136.037927 
L 471.378745 135.964145 
L 470.664277 135.776406 
L 469.949808 135.651841 
L 469.235339 135.550436 
L 468.520871 135.643642 
L 467.806402 135.505275 
L 467.091933 135.558519 
L 466.377465 135.50596 
L 465.662996 135.529812 
L 464.948528 135.656554 
L 464.234059 135.659431 
L 463.51959 135.59543 
L 462.805122 135.498082 
L 462.090653 135.527684 
L 461.376184 135.474491 
L 460.661716 135.352267 
L 459.947247 135.105711 
L 459.232778 135.136693 
L 458.51831 135.067147 
L 457.803841 134.961567 
L 457.089373 135.055889 
L 456.374904 135.220852 
L 455.660435 135.375868 
L 454.945967 135.380606 
L 454.231498 135.403857 
L 453.517029 135.496415 
L 452.802561 135.542644 
L 452.088092 135.451937 
L 451.373624 135.347303 
L 450.659155 135.336653 
L 449.944686 135.297582 
L 449.230218 135.204678 
L 448.515749 135.168736 
L 447.80128 134.95146 
L 447.086812 134.936109 
L 446.372343 135.255919 
L 445.657875 135.112239 
L 444.943406 135.09883 
L 444.228937 135.128706 
L 443.514469 135.107072 
L 442.8 135.077541 
L 442.085531 134.854408 
L 441.371063 134.527501 
L 440.656594 134.397547 
L 439.942125 134.515421 
L 439.227657 134.472059 
L 438.513188 134.296387 
L 437.79872 134.349967 
L 437.084251 134.183381 
L 436.369782 133.985663 
L 435.655314 133.65145 
L 434.940845 133.504822 
L 434.226376 133.340751 
L 433.511908 133.347224 
L 432.797439 133.296119 
L 432.082971 133.323063 
L 431.368502 133.311582 
L 430.654033 133.534177 
L 429.939565 133.415808 
L 429.225096 133.282534 
L 428.510627 133.12589 
L 427.796159 133.054 
L 427.08169 132.933792 
L 426.367222 132.74286 
L 425.652753 132.764983 
L 424.938284 132.707713 
L 424.223816 132.653458 
L 423.509347 133.542229 
L 422.794878 133.603798 
L 422.08041 133.548857 
L 421.365941 133.437116 
L 420.651472 133.33909 
L 419.937004 133.416004 
L 419.222535 133.428556 
L 418.508067 133.515037 
L 417.793598 133.423305 
L 417.079129 133.262443 
L 416.364661 133.317046 
L 415.650192 133.472503 
L 414.935723 133.522727 
L 414.221255 133.563712 
L 413.506786 133.596245 
L 412.792318 133.575099 
L 412.077849 133.677859 
L 411.36338 133.796918 
L 410.648912 133.676398 
L 409.934443 133.57256 
L 409.219974 133.394449 
L 408.505506 133.374865 
L 407.791037 133.511982 
L 407.076569 133.471191 
L 406.3621 133.517914 
L 405.647631 133.579618 
L 404.933163 133.622586 
L 404.218694 133.541793 
L 403.504225 133.481137 
L 402.789757 133.633066 
L 402.075288 133.220506 
L 401.360819 132.78517 
L 400.646351 132.36836 
L 399.931882 131.940211 
L 399.217414 132.004152 
L 398.502945 132.210072 
L 397.788476 132.106063 
L 397.074008 132.170962 
L 396.359539 132.085497 
L 395.64507 132.099856 
L 394.930602 132.106884 
L 394.216133 132.717141 
L 393.501665 132.659587 
L 392.787196 132.63474 
L 392.072727 132.469324 
L 391.358259 132.224701 
L 390.64379 132.384471 
L 389.929321 132.756384 
L 389.214853 132.660349 
L 388.500384 132.359941 
L 387.785915 132.581423 
L 387.071447 132.864716 
L 386.356978 132.945407 
L 385.64251 133.02825 
L 384.928041 132.84043 
L 384.213572 132.757013 
L 383.499104 132.914957 
L 382.784635 132.825994 
L 382.070166 132.830123 
L 381.355698 132.760954 
L 380.641229 132.681315 
L 379.926761 132.547897 
L 379.212292 132.567159 
L 378.497823 132.593882 
L 377.783355 132.204888 
L 377.068886 131.81817 
L 376.354417 132.152239 
L 375.639949 132.014081 
L 374.92548 131.956886 
L 374.211012 131.855994 
L 373.496543 131.618151 
L 372.782074 131.739858 
L 372.067606 131.451964 
L 371.353137 131.435656 
L 370.638668 131.455646 
L 369.9242 131.518365 
L 369.209731 131.470423 
L 368.495262 131.347217 
L 367.780794 131.225533 
L 367.066325 131.164126 
L 366.351857 131.190259 
L 365.637388 130.970453 
L 364.922919 131.009295 
L 364.208451 130.861925 
L 363.493982 131.209612 
L 362.779513 131.259831 
L 362.065045 131.055221 
L 361.350576 130.935829 
L 360.636108 130.883011 
L 359.921639 130.777827 
L 359.20717 130.691505 
L 358.492702 130.655613 
L 357.778233 130.503318 
L 357.063764 130.625906 
L 356.349296 130.901168 
L 355.634827 131.014486 
L 354.920359 131.050625 
L 354.20589 130.894174 
L 353.491421 130.87038 
L 352.776953 130.669098 
L 352.062484 130.736698 
L 351.348015 130.629056 
L 350.633547 130.625805 
L 349.919078 130.526806 
L 349.204609 130.301713 
L 348.490141 130.301154 
L 347.775672 130.454064 
L 347.061204 130.413333 
L 346.346735 130.37772 
L 345.632266 130.157675 
L 344.917798 130.084998 
L 344.203329 130.028303 
L 343.48886 129.929859 
L 342.774392 130.046028 
L 342.059923 129.708043 
L 341.345455 129.827188 
L 340.630986 129.890437 
L 339.916517 129.912952 
L 339.202049 129.844605 
L 338.48758 129.821889 
L 337.773111 129.678915 
L 337.058643 129.991914 
L 336.344174 129.599319 
L 335.629706 129.60229 
L 334.915237 129.582508 
L 334.200768 129.465031 
L 333.4863 129.415254 
L 332.771831 129.629206 
L 332.057362 129.621679 
L 331.342894 129.705861 
L 330.628425 129.570139 
L 329.913956 129.647965 
L 329.199488 129.85146 
L 328.485019 129.781541 
L 327.770551 129.790073 
L 327.056082 129.605132 
L 326.341613 129.679202 
L 325.627145 129.324614 
L 324.912676 129.210152 
L 324.198207 129.211273 
L 323.483739 129.100029 
L 322.76927 129.157278 
L 322.054802 128.878583 
L 321.340333 128.768476 
L 320.625864 128.630172 
L 319.911396 128.480165 
L 319.196927 128.157301 
L 318.482458 128.113976 
L 317.76799 127.986443 
L 317.053521 128.059784 
L 316.339052 128.052536 
L 315.624584 128.401757 
L 314.910115 128.192232 
L 314.195647 127.875355 
L 313.481178 127.31438 
L 312.766709 127.134631 
L 312.052241 127.246281 
L 311.337772 128.859533 
L 310.623303 128.710582 
L 309.908835 128.949449 
L 309.194366 128.885103 
L 308.479898 128.880397 
L 307.765429 128.825466 
L 307.05096 128.705645 
L 306.336492 128.451963 
L 305.622023 128.087004 
L 304.907554 128.171669 
L 304.193086 128.156476 
L 303.478617 128.032377 
L 302.764149 128.130007 
L 302.04968 127.840679 
L 301.335211 127.716402 
L 300.620743 127.814351 
L 299.906274 128.047457 
L 299.191805 128.017104 
L 298.477337 127.812045 
L 297.762868 127.24005 
L 297.048399 126.915986 
L 296.333931 126.650889 
L 295.619462 126.746796 
L 294.904994 126.900251 
L 294.190525 126.764904 
L 293.476056 126.820359 
L 292.761588 126.849961 
L 292.047119 127.33174 
L 291.33265 127.082901 
L 290.618182 127.041639 
L 289.903713 127.129867 
L 289.189245 127.15048 
L 288.474776 126.800798 
L 287.760307 126.49613 
L 287.045839 126.314196 
L 286.33137 126.347654 
L 285.616901 127.112839 
L 284.902433 126.837799 
L 284.187964 126.956796 
L 283.473496 127.088945 
L 282.759027 127.169586 
L 282.044558 127.024286 
L 281.33009 126.992382 
L 280.615621 127.081783 
L 279.901152 127.093171 
L 279.186684 126.706749 
L 278.472215 126.784413 
L 277.757746 126.529115 
L 277.043278 126.981653 
L 276.328809 127.011595 
L 275.614341 127.143386 
L 274.899872 126.904107 
L 274.185403 126.891082 
L 273.470935 126.741685 
L 272.756466 126.683497 
L 272.041997 126.767653 
L 271.327529 127.024324 
L 270.61306 126.805627 
L 269.898592 127.030659 
L 269.184123 127.39594 
L 268.469654 127.267119 
L 267.755186 127.278361 
L 267.040717 127.193262 
L 266.326248 127.09399 
L 265.61178 127.09139 
L 264.897311 126.925797 
L 264.182843 126.757901 
L 263.468374 126.594048 
L 262.753905 126.279864 
L 262.039437 125.804592 
L 261.324968 125.20539 
L 260.610499 124.985191 
L 259.896031 125.258285 
L 259.181562 124.791327 
L 258.467093 124.696485 
L 257.752625 124.323212 
L 257.038156 123.882235 
L 256.323688 123.576207 
L 255.609219 123.224293 
L 254.89475 123.328981 
L 254.180282 123.778491 
L 253.465813 123.504165 
L 252.751344 123.039555 
L 252.036876 123.0207 
L 251.322407 122.171353 
L 250.607939 122.199892 
L 249.89347 122.137715 
L 249.179001 121.839361 
L 248.464533 122.56716 
L 247.750064 122.821167 
L 247.035595 124.066047 
L 246.321127 124.040538 
L 245.606658 123.922757 
L 244.89219 124.476385 
L 244.177721 124.59412 
L 243.463252 124.142935 
L 242.748784 123.99636 
L 242.034315 123.537308 
L 241.319846 123.06736 
L 240.605378 123.015137 
L 239.890909 122.55745 
L 239.17644 121.788792 
L 238.461972 121.857474 
L 237.747503 121.545265 
L 237.033035 121.764378 
L 236.318566 121.506426 
L 235.604097 121.520885 
L 234.889629 121.322588 
L 234.17516 120.82713 
L 233.460691 119.882594 
L 232.746223 120.175673 
L 232.031754 120.427342 
L 231.317286 120.100644 
L 230.602817 119.427236 
L 229.888348 118.937558 
L 229.17388 118.158382 
L 228.459411 117.696736 
L 227.744942 117.048141 
L 227.030474 116.541751 
L 226.316005 116.220849 
L 225.601536 115.980705 
L 224.887068 115.458216 
L 224.172599 115.778646 
L 223.458131 118.801381 
L 222.743662 119.249343 
L 222.029193 118.932046 
L 221.314725 118.78936 
L 220.600256 118.887638 
L 219.885787 118.434025 
L 219.171319 118.222926 
L 218.45685 118.100805 
L 217.742382 117.368101 
L 217.027913 116.944146 
L 216.313444 116.416193 
L 215.598976 116.81973 
L 214.884507 116.760266 
L 214.170038 117.273133 
L 213.45557 117.625365 
L 212.741101 116.93377 
L 212.026633 116.436242 
L 211.312164 115.667994 
L 210.597695 114.998858 
L 209.883227 114.333079 
L 209.168758 114.218918 
L 208.454289 113.787772 
L 207.739821 114.536139 
L 207.025352 114.632237 
L 206.310883 114.958876 
L 205.596415 114.340155 
L 204.881946 113.538448 
L 204.167478 113.411346 
L 203.453009 112.718835 
L 202.73854 112.135798 
L 202.024072 111.489319 
L 201.309603 111.191142 
L 200.595134 111.959314 
L 199.880666 111.170162 
L 199.166197 110.78075 
L 198.451729 110.710214 
L 197.73726 110.649627 
L 197.022791 110.689176 
L 196.308323 109.874748 
L 195.593854 109.151037 
L 194.879385 107.860815 
L 194.164917 106.871881 
L 193.450448 106.358047 
L 192.73598 104.746571 
L 192.021511 104.130172 
L 191.307042 103.894654 
L 190.592574 103.352554 
L 189.878105 102.41347 
L 189.163636 100.975267 
L 188.449168 100.856039 
L 187.734699 100.070321 
L 187.02023 99.719332 
L 186.305762 98.730665 
L 185.591293 96.624261 
L 184.876825 97.245325 
L 184.162356 98.219048 
L 183.447887 97.07585 
L 182.733419 96.935685 
L 182.01895 95.1264 
L 181.304481 94.134278 
L 180.590013 92.675893 
L 179.875544 90.977724 
L 179.161076 90.225595 
L 178.446607 90.516984 
L 177.732138 91.948628 
L 177.01767 92.854321 
L 176.303201 95.741209 
L 175.588732 95.604306 
L 174.874264 94.514936 
L 174.159795 93.886144 
L 173.445327 93.24395 
L 172.730858 93.767659 
L 172.016389 108.065982 
L 171.301921 108.017304 
L 170.587452 105.381429 
L 169.872983 105.724415 
L 169.158515 107.462256 
L 168.444046 106.931222 
L 167.729577 107.313899 
L 167.015109 104.090599 
L 166.30064 105.027611 
L 165.586172 103.415686 
L 164.871703 103.820229 
L 164.157234 100.877259 
L 163.442766 100.576152 
L 162.728297 98.242596 
L 162.013828 97.085351 
L 161.29936 94.944548 
L 160.584891 95.919429 
L 159.870423 94.527552 
L 159.155954 92.315171 
L 158.441485 87.867398 
L 157.727017 94.986619 
L 157.012548 92.841098 
L 156.298079 92.390572 
L 155.583611 89.247956 
L 154.869142 87.932576 
L 154.154673 89.235682 
L 153.440205 86.303455 
L 152.725736 80.112441 
L 152.011268 76.600513 
L 151.296799 70.666681 
L 150.58233 64.357006 
L 149.867862 60.913457 
L 149.153393 59.200457 
L 148.438924 53.975575 
L 147.724456 43.877439 
L 147.009987 48.950468 
L 146.295519 43.277893 
L 145.58105 37.152074 
L 144.866581 24.582562 
L 144.152113 13.686868 
L 143.437644 10.314701 
L 142.723175 -8.606334 
L 142.008707 -26.462171 
L 141.294238 -58.871216 
L 140.57977 -106.159248 
L 139.865301 -161.14083 
L 139.150832 -277.275509 
L 138.436364 -574.793068 
z
" clip-path="url(#pcac9c90279)" style="fill: #1f77b4; fill-opacity: 0.5"/>
   </g>
   <g id="matplotlib.axis_1">
    <g id="xtick_1">
     <g id="line2d_1">
      <defs>
       <path id="m6e5d97d1dc" d="M 0 0 
L 0 3.5 
" style="stroke: #000000; stroke-width: 0.8"/>
      </defs>
      <g>
       <use xlink:href="#m6e5d97d1dc" x="138.436364" y="256.32" style="stroke: #000000; stroke-width: 0.8"/>
      </g>
     </g>
     <g id="text_1">
      <!-- 0 -->
      <g transform="translate(135.255114 270.918437) scale(0.1 -0.1)">
       <defs>
        <path id="DejaVuSans-30" d="M 2034 4250 
Q 1547 4250 1301 3770 
Q 1056 3291 1056 2328 
Q 1056 1369 1301 889 
Q 1547 409 2034 409 
Q 2525 409 2770 889 
Q 3016 1369 3016 2328 
Q 3016 3291 2770 3770 
Q 2525 4250 2034 4250 
z
M 2034 4750 
Q 2819 4750 3233 4129 
Q 3647 3509 3647 2328 
Q 3647 1150 3233 529 
Q 2819 -91 2034 -91 
Q 1250 -91 836 529 
Q 422 1150 422 2328 
Q 422 3509 836 4129 
Q 1250 4750 2034 4750 
z
" transform="scale(0.015625)"/>
       </defs>
       <use xlink:href="#DejaVuSans-30"/>
      </g>
     </g>
    </g>
    <g id="xtick_2">
     <g id="line2d_2">
      <g>
       <use xlink:href="#m6e5d97d1dc" x="281.33009" y="256.32" style="stroke: #000000; stroke-width: 0.8"/>
      </g>
     </g>
     <g id="text_2">
      <!-- 2 -->
      <g transform="translate(278.14884 270.918437) scale(0.1 -0.1)">
       <defs>
        <path id="DejaVuSans-32" d="M 1228 531 
L 3431 531 
L 3431 0 
L 469 0 
L 469 531 
Q 828 903 1448 1529 
Q 2069 2156 2228 2338 
Q 2531 2678 2651 2914 
Q 2772 3150 2772 3378 
Q 2772 3750 2511 3984 
Q 2250 4219 1831 4219 
Q 1534 4219 1204 4116 
Q 875 4013 500 3803 
L 500 4441 
Q 881 4594 1212 4672 
Q 1544 4750 1819 4750 
Q 2544 4750 2975 4387 
Q 3406 4025 3406 3419 
Q 3406 3131 3298 2873 
Q 3191 2616 2906 2266 
Q 2828 2175 2409 1742 
Q 1991 1309 1228 531 
z
" transform="scale(0.015625)"/>
       </defs>
       <use xlink:href="#DejaVuSans-32"/>
      </g>
     </g>
    </g>
    <g id="xtick_3">
     <g id="line2d_3">
      <g>
       <use xlink:href="#m6e5d97d1dc" x="424.223816" y="256.32" style="stroke: #000000; stroke-width: 0.8"/>
      </g>
     </g>
     <g id="text_3">
      <!-- 4 -->
      <g transform="translate(421.042566 270.918437) scale(0.1 -0.1)">
       <defs>
        <path id="DejaVuSans-34" d="M 2419 4116 
L 825 1625 
L 2419 1625 
L 2419 4116 
z
M 2253 4666 
L 3047 4666 
L 3047 1625 
L 3713 1625 
L 3713 1100 
L 3047 1100 
L 3047 0 
L 2419 0 
L 2419 1100 
L 313 1100 
L 313 1709 
L 2253 4666 
z
" transform="scale(0.015625)"/>
       </defs>
       <use xlink:href="#DejaVuSans-34"/>
      </g>
     </g>
    </g>
    <g id="xtick_4">
     <g id="line2d_4">
      <g>
       <use xlink:href="#m6e5d97d1dc" x="567.117542" y="256.32" style="stroke: #000000; stroke-width: 0.8"/>
      </g>
     </g>
     <g id="text_4">
      <!-- 6 -->
      <g transform="translate(563.936292 270.918437) scale(0.1 -0.1)">
       <defs>
        <path id="DejaVuSans-36" d="M 2113 2584 
Q 1688 2584 1439 2293 
Q 1191 2003 1191 1497 
Q 1191 994 1439 701 
Q 1688 409 2113 409 
Q 2538 409 2786 701 
Q 3034 994 3034 1497 
Q 3034 2003 2786 2293 
Q 2538 2584 2113 2584 
z
M 3366 4563 
L 3366 3988 
Q 3128 4100 2886 4159 
Q 2644 4219 2406 4219 
Q 1781 4219 1451 3797 
Q 1122 3375 1075 2522 
Q 1259 2794 1537 2939 
Q 1816 3084 2150 3084 
Q 2853 3084 3261 2657 
Q 3669 2231 3669 1497 
Q 3669 778 3244 343 
Q 2819 -91 2113 -91 
Q 1303 -91 875 529 
Q 447 1150 447 2328 
Q 447 3434 972 4092 
Q 1497 4750 2381 4750 
Q 2619 4750 2861 4703 
Q 3103 4656 3366 4563 
z
" transform="scale(0.015625)"/>
       </defs>
       <use xlink:href="#DejaVuSans-36"/>
      </g>
     </g>
    </g>
    <g id="xtick_5">
     <g id="line2d_5">
      <g>
       <use xlink:href="#m6e5d97d1dc" x="710.011268" y="256.32" style="stroke: #000000; stroke-width: 0.8"/>
      </g>
     </g>
     <g id="text_5">
      <!-- 8 -->
      <g transform="translate(706.830018 270.918437) scale(0.1 -0.1)">
       <defs>
        <path id="DejaVuSans-38" d="M 2034 2216 
Q 1584 2216 1326 1975 
Q 1069 1734 1069 1313 
Q 1069 891 1326 650 
Q 1584 409 2034 409 
Q 2484 409 2743 651 
Q 3003 894 3003 1313 
Q 3003 1734 2745 1975 
Q 2488 2216 2034 2216 
z
M 1403 2484 
Q 997 2584 770 2862 
Q 544 3141 544 3541 
Q 544 4100 942 4425 
Q 1341 4750 2034 4750 
Q 2731 4750 3128 4425 
Q 3525 4100 3525 3541 
Q 3525 3141 3298 2862 
Q 3072 2584 2669 2484 
Q 3125 2378 3379 2068 
Q 3634 1759 3634 1313 
Q 3634 634 3220 271 
Q 2806 -91 2034 -91 
Q 1263 -91 848 271 
Q 434 634 434 1313 
Q 434 1759 690 2068 
Q 947 2378 1403 2484 
z
M 1172 3481 
Q 1172 3119 1398 2916 
Q 1625 2713 2034 2713 
Q 2441 2713 2670 2916 
Q 2900 3119 2900 3481 
Q 2900 3844 2670 4047 
Q 2441 4250 2034 4250 
Q 1625 4250 1398 4047 
Q 1172 3844 1172 3481 
z
" transform="scale(0.015625)"/>
       </defs>
       <use xlink:href="#DejaVuSans-38"/>
      </g>
     </g>
    </g>
    <g id="text_6">
     <!-- nTokens -->
     <g transform="translate(422.803906 284.596563) scale(0.1 -0.1)">
      <defs>
       <path id="DejaVuSans-6e" d="M 3513 2113 
L 3513 0 
L 2938 0 
L 2938 2094 
Q 2938 2591 2744 2837 
Q 2550 3084 2163 3084 
Q 1697 3084 1428 2787 
Q 1159 2491 1159 1978 
L 1159 0 
L 581 0 
L 581 3500 
L 1159 3500 
L 1159 2956 
Q 1366 3272 1645 3428 
Q 1925 3584 2291 3584 
Q 2894 3584 3203 3211 
Q 3513 2838 3513 2113 
z
" transform="scale(0.015625)"/>
       <path id="DejaVuSans-54" d="M -19 4666 
L 3928 4666 
L 3928 4134 
L 2272 4134 
L 2272 0 
L 1638 0 
L 1638 4134 
L -19 4134 
L -19 4666 
z
" transform="scale(0.015625)"/>
       <path id="DejaVuSans-6f" d="M 1959 3097 
Q 1497 3097 1228 2736 
Q 959 2375 959 1747 
Q 959 1119 1226 758 
Q 1494 397 1959 397 
Q 2419 397 2687 759 
Q 2956 1122 2956 1747 
Q 2956 2369 2687 2733 
Q 2419 3097 1959 3097 
z
M 1959 3584 
Q 2709 3584 3137 3096 
Q 3566 2609 3566 1747 
Q 3566 888 3137 398 
Q 2709 -91 1959 -91 
Q 1206 -91 779 398 
Q 353 888 353 1747 
Q 353 2609 779 3096 
Q 1206 3584 1959 3584 
z
" transform="scale(0.015625)"/>
       <path id="DejaVuSans-6b" d="M 581 4863 
L 1159 4863 
L 1159 1991 
L 2875 3500 
L 3609 3500 
L 1753 1863 
L 3688 0 
L 2938 0 
L 1159 1709 
L 1159 0 
L 581 0 
L 581 4863 
z
" transform="scale(0.015625)"/>
       <path id="DejaVuSans-65" d="M 3597 1894 
L 3597 1613 
L 953 1613 
Q 991 1019 1311 708 
Q 1631 397 2203 397 
Q 2534 397 2845 478 
Q 3156 559 3463 722 
L 3463 178 
Q 3153 47 2828 -22 
Q 2503 -91 2169 -91 
Q 1331 -91 842 396 
Q 353 884 353 1716 
Q 353 2575 817 3079 
Q 1281 3584 2069 3584 
Q 2775 3584 3186 3129 
Q 3597 2675 3597 1894 
z
M 3022 2063 
Q 3016 2534 2758 2815 
Q 2500 3097 2075 3097 
Q 1594 3097 1305 2825 
Q 1016 2553 972 2059 
L 3022 2063 
z
" transform="scale(0.015625)"/>
       <path id="DejaVuSans-73" d="M 2834 3397 
L 2834 2853 
Q 2591 2978 2328 3040 
Q 2066 3103 1784 3103 
Q 1356 3103 1142 2972 
Q 928 2841 928 2578 
Q 928 2378 1081 2264 
Q 1234 2150 1697 2047 
L 1894 2003 
Q 2506 1872 2764 1633 
Q 3022 1394 3022 966 
Q 3022 478 2636 193 
Q 2250 -91 1575 -91 
Q 1294 -91 989 -36 
Q 684 19 347 128 
L 347 722 
Q 666 556 975 473 
Q 1284 391 1588 391 
Q 1994 391 2212 530 
Q 2431 669 2431 922 
Q 2431 1156 2273 1281 
Q 2116 1406 1581 1522 
L 1381 1569 
Q 847 1681 609 1914 
Q 372 2147 372 2553 
Q 372 3047 722 3315 
Q 1072 3584 1716 3584 
Q 2034 3584 2315 3537 
Q 2597 3491 2834 3397 
z
" transform="scale(0.015625)"/>
      </defs>
      <use xlink:href="#DejaVuSans-6e"/>
      <use xlink:href="#DejaVuSans-54" transform="translate(63.378906 0)"/>
      <use xlink:href="#DejaVuSans-6f" transform="translate(107.462891 0)"/>
      <use xlink:href="#DejaVuSans-6b" transform="translate(168.644531 0)"/>
      <use xlink:href="#DejaVuSans-65" transform="translate(222.929688 0)"/>
      <use xlink:href="#DejaVuSans-6e" transform="translate(284.453125 0)"/>
      <use xlink:href="#DejaVuSans-73" transform="translate(347.832031 0)"/>
     </g>
    </g>
    <g id="text_7">
     <!-- 1e7 -->
     <g transform="translate(758.721875 283.596563) scale(0.1 -0.1)">
      <defs>
       <path id="DejaVuSans-31" d="M 794 531 
L 1825 531 
L 1825 4091 
L 703 3866 
L 703 4441 
L 1819 4666 
L 2450 4666 
L 2450 531 
L 3481 531 
L 3481 0 
L 794 0 
L 794 531 
z
" transform="scale(0.015625)"/>
       <path id="DejaVuSans-37" d="M 525 4666 
L 3525 4666 
L 3525 4397 
L 1831 0 
L 1172 0 
L 2766 4134 
L 525 4134 
L 525 4666 
z
" transform="scale(0.015625)"/>
      </defs>
      <use xlink:href="#DejaVuSans-31"/>
      <use xlink:href="#DejaVuSans-65" transform="translate(63.623047 0)"/>
      <use xlink:href="#DejaVuSans-37" transform="translate(125.146484 0)"/>
     </g>
    </g>
   </g>
   <g id="matplotlib.axis_2">
    <g id="ytick_1">
     <g id="line2d_6">
      <defs>
       <path id="ma7bcc4e6e7" d="M 0 0 
L -3.5 0 
" style="stroke: #000000; stroke-width: 0.8"/>
      </defs>
      <g>
       <use xlink:href="#ma7bcc4e6e7" x="108" y="256.32" style="stroke: #000000; stroke-width: 0.8"/>
      </g>
     </g>
     <g id="text_8">
      <!-- 4.16 -->
      <g transform="translate(78.734375 260.119219) scale(0.1 -0.1)">
       <defs>
        <path id="DejaVuSans-2e" d="M 684 794 
L 1344 794 
L 1344 0 
L 684 0 
L 684 794 
z
" transform="scale(0.015625)"/>
       </defs>
       <use xlink:href="#DejaVuSans-34"/>
       <use xlink:href="#DejaVuSans-2e" transform="translate(63.623047 0)"/>
       <use xlink:href="#DejaVuSans-31" transform="translate(95.410156 0)"/>
       <use xlink:href="#DejaVuSans-36" transform="translate(159.033203 0)"/>
      </g>
     </g>
    </g>
    <g id="ytick_2">
     <g id="line2d_7">
      <g>
       <use xlink:href="#ma7bcc4e6e7" x="108" y="231.68" style="stroke: #000000; stroke-width: 0.8"/>
      </g>
     </g>
     <g id="text_9">
      <!-- 4.17 -->
      <g transform="translate(78.734375 235.479219) scale(0.1 -0.1)">
       <use xlink:href="#DejaVuSans-34"/>
       <use xlink:href="#DejaVuSans-2e" transform="translate(63.623047 0)"/>
       <use xlink:href="#DejaVuSans-31" transform="translate(95.410156 0)"/>
       <use xlink:href="#DejaVuSans-37" transform="translate(159.033203 0)"/>
      </g>
     </g>
    </g>
    <g id="ytick_3">
     <g id="line2d_8">
      <g>
       <use xlink:href="#ma7bcc4e6e7" x="108" y="207.04" style="stroke: #000000; stroke-width: 0.8"/>
      </g>
     </g>
     <g id="text_10">
      <!-- 4.18 -->
      <g transform="translate(78.734375 210.839219) scale(0.1 -0.1)">
       <use xlink:href="#DejaVuSans-34"/>
       <use xlink:href="#DejaVuSans-2e" transform="translate(63.623047 0)"/>
       <use xlink:href="#DejaVuSans-31" transform="translate(95.410156 0)"/>
       <use xlink:href="#DejaVuSans-38" transform="translate(159.033203 0)"/>
      </g>
     </g>
    </g>
    <g id="ytick_4">
     <g id="line2d_9">
      <g>
       <use xlink:href="#ma7bcc4e6e7" x="108" y="182.4" style="stroke: #000000; stroke-width: 0.8"/>
      </g>
     </g>
     <g id="text_11">
      <!-- 4.19 -->
      <g transform="translate(78.734375 186.199219) scale(0.1 -0.1)">
       <defs>
        <path id="DejaVuSans-39" d="M 703 97 
L 703 672 
Q 941 559 1184 500 
Q 1428 441 1663 441 
Q 2288 441 2617 861 
Q 2947 1281 2994 2138 
Q 2813 1869 2534 1725 
Q 2256 1581 1919 1581 
Q 1219 1581 811 2004 
Q 403 2428 403 3163 
Q 403 3881 828 4315 
Q 1253 4750 1959 4750 
Q 2769 4750 3195 4129 
Q 3622 3509 3622 2328 
Q 3622 1225 3098 567 
Q 2575 -91 1691 -91 
Q 1453 -91 1209 -44 
Q 966 3 703 97 
z
M 1959 2075 
Q 2384 2075 2632 2365 
Q 2881 2656 2881 3163 
Q 2881 3666 2632 3958 
Q 2384 4250 1959 4250 
Q 1534 4250 1286 3958 
Q 1038 3666 1038 3163 
Q 1038 2656 1286 2365 
Q 1534 2075 1959 2075 
z
" transform="scale(0.015625)"/>
       </defs>
       <use xlink:href="#DejaVuSans-34"/>
       <use xlink:href="#DejaVuSans-2e" transform="translate(63.623047 0)"/>
       <use xlink:href="#DejaVuSans-31" transform="translate(95.410156 0)"/>
       <use xlink:href="#DejaVuSans-39" transform="translate(159.033203 0)"/>
      </g>
     </g>
    </g>
    <g id="ytick_5">
     <g id="line2d_10">
      <g>
       <use xlink:href="#ma7bcc4e6e7" x="108" y="157.76" style="stroke: #000000; stroke-width: 0.8"/>
      </g>
     </g>
     <g id="text_12">
      <!-- 4.20 -->
      <g transform="translate(78.734375 161.559219) scale(0.1 -0.1)">
       <use xlink:href="#DejaVuSans-34"/>
       <use xlink:href="#DejaVuSans-2e" transform="translate(63.623047 0)"/>
       <use xlink:href="#DejaVuSans-32" transform="translate(95.410156 0)"/>
       <use xlink:href="#DejaVuSans-30" transform="translate(159.033203 0)"/>
      </g>
     </g>
    </g>
    <g id="ytick_6">
     <g id="line2d_11">
      <g>
       <use xlink:href="#ma7bcc4e6e7" x="108" y="133.12" style="stroke: #000000; stroke-width: 0.8"/>
      </g>
     </g>
     <g id="text_13">
      <!-- 4.21 -->
      <g transform="translate(78.734375 136.919219) scale(0.1 -0.1)">
       <use xlink:href="#DejaVuSans-34"/>
       <use xlink:href="#DejaVuSans-2e" transform="translate(63.623047 0)"/>
       <use xlink:href="#DejaVuSans-32" transform="translate(95.410156 0)"/>
       <use xlink:href="#DejaVuSans-31" transform="translate(159.033203 0)"/>
      </g>
     </g>
    </g>
    <g id="ytick_7">
     <g id="line2d_12">
      <g>
       <use xlink:href="#ma7bcc4e6e7" x="108" y="108.48" style="stroke: #000000; stroke-width: 0.8"/>
      </g>
     </g>
     <g id="text_14">
      <!-- 4.22 -->
      <g transform="translate(78.734375 112.279219) scale(0.1 -0.1)">
       <use xlink:href="#DejaVuSans-34"/>
       <use xlink:href="#DejaVuSans-2e" transform="translate(63.623047 0)"/>
       <use xlink:href="#DejaVuSans-32" transform="translate(95.410156 0)"/>
       <use xlink:href="#DejaVuSans-32" transform="translate(159.033203 0)"/>
      </g>
     </g>
    </g>
    <g id="ytick_8">
     <g id="line2d_13">
      <g>
       <use xlink:href="#ma7bcc4e6e7" x="108" y="83.84" style="stroke: #000000; stroke-width: 0.8"/>
      </g>
     </g>
     <g id="text_15">
      <!-- 4.23 -->
      <g transform="translate(78.734375 87.639219) scale(0.1 -0.1)">
       <defs>
        <path id="DejaVuSans-33" d="M 2597 2516 
Q 3050 2419 3304 2112 
Q 3559 1806 3559 1356 
Q 3559 666 3084 287 
Q 2609 -91 1734 -91 
Q 1441 -91 1130 -33 
Q 819 25 488 141 
L 488 750 
Q 750 597 1062 519 
Q 1375 441 1716 441 
Q 2309 441 2620 675 
Q 2931 909 2931 1356 
Q 2931 1769 2642 2001 
Q 2353 2234 1838 2234 
L 1294 2234 
L 1294 2753 
L 1863 2753 
Q 2328 2753 2575 2939 
Q 2822 3125 2822 3475 
Q 2822 3834 2567 4026 
Q 2313 4219 1838 4219 
Q 1578 4219 1281 4162 
Q 984 4106 628 3988 
L 628 4550 
Q 988 4650 1302 4700 
Q 1616 4750 1894 4750 
Q 2613 4750 3031 4423 
Q 3450 4097 3450 3541 
Q 3450 3153 3228 2886 
Q 3006 2619 2597 2516 
z
" transform="scale(0.015625)"/>
       </defs>
       <use xlink:href="#DejaVuSans-34"/>
       <use xlink:href="#DejaVuSans-2e" transform="translate(63.623047 0)"/>
       <use xlink:href="#DejaVuSans-32" transform="translate(95.410156 0)"/>
       <use xlink:href="#DejaVuSans-33" transform="translate(159.033203 0)"/>
      </g>
     </g>
    </g>
    <g id="ytick_9">
     <g id="line2d_14">
      <g>
       <use xlink:href="#ma7bcc4e6e7" x="108" y="59.2" style="stroke: #000000; stroke-width: 0.8"/>
      </g>
     </g>
     <g id="text_16">
      <!-- 4.24 -->
      <g transform="translate(78.734375 62.999219) scale(0.1 -0.1)">
       <use xlink:href="#DejaVuSans-34"/>
       <use xlink:href="#DejaVuSans-2e" transform="translate(63.623047 0)"/>
       <use xlink:href="#DejaVuSans-32" transform="translate(95.410156 0)"/>
       <use xlink:href="#DejaVuSans-34" transform="translate(159.033203 0)"/>
      </g>
     </g>
    </g>
    <g id="ytick_10">
     <g id="line2d_15">
      <g>
       <use xlink:href="#ma7bcc4e6e7" x="108" y="34.56" style="stroke: #000000; stroke-width: 0.8"/>
      </g>
     </g>
     <g id="text_17">
      <!-- 4.25 -->
      <g transform="translate(78.734375 38.359219) scale(0.1 -0.1)">
       <defs>
        <path id="DejaVuSans-35" d="M 691 4666 
L 3169 4666 
L 3169 4134 
L 1269 4134 
L 1269 2991 
Q 1406 3038 1543 3061 
Q 1681 3084 1819 3084 
Q 2600 3084 3056 2656 
Q 3513 2228 3513 1497 
Q 3513 744 3044 326 
Q 2575 -91 1722 -91 
Q 1428 -91 1123 -41 
Q 819 9 494 109 
L 494 744 
Q 775 591 1075 516 
Q 1375 441 1709 441 
Q 2250 441 2565 725 
Q 2881 1009 2881 1497 
Q 2881 1984 2565 2268 
Q 2250 2553 1709 2553 
Q 1456 2553 1204 2497 
Q 953 2441 691 2322 
L 691 4666 
z
" transform="scale(0.015625)"/>
       </defs>
       <use xlink:href="#DejaVuSans-34"/>
       <use xlink:href="#DejaVuSans-2e" transform="translate(63.623047 0)"/>
       <use xlink:href="#DejaVuSans-32" transform="translate(95.410156 0)"/>
       <use xlink:href="#DejaVuSans-35" transform="translate(159.033203 0)"/>
      </g>
     </g>
    </g>
    <g id="text_18">
     <!-- Entropy -->
     <g transform="translate(72.654687 164.864219) rotate(-90) scale(0.1 -0.1)">
      <defs>
       <path id="DejaVuSans-45" d="M 628 4666 
L 3578 4666 
L 3578 4134 
L 1259 4134 
L 1259 2753 
L 3481 2753 
L 3481 2222 
L 1259 2222 
L 1259 531 
L 3634 531 
L 3634 0 
L 628 0 
L 628 4666 
z
" transform="scale(0.015625)"/>
       <path id="DejaVuSans-74" d="M 1172 4494 
L 1172 3500 
L 2356 3500 
L 2356 3053 
L 1172 3053 
L 1172 1153 
Q 1172 725 1289 603 
Q 1406 481 1766 481 
L 2356 481 
L 2356 0 
L 1766 0 
Q 1100 0 847 248 
Q 594 497 594 1153 
L 594 3053 
L 172 3053 
L 172 3500 
L 594 3500 
L 594 4494 
L 1172 4494 
z
" transform="scale(0.015625)"/>
       <path id="DejaVuSans-72" d="M 2631 2963 
Q 2534 3019 2420 3045 
Q 2306 3072 2169 3072 
Q 1681 3072 1420 2755 
Q 1159 2438 1159 1844 
L 1159 0 
L 581 0 
L 581 3500 
L 1159 3500 
L 1159 2956 
Q 1341 3275 1631 3429 
Q 1922 3584 2338 3584 
Q 2397 3584 2469 3576 
Q 2541 3569 2628 3553 
L 2631 2963 
z
" transform="scale(0.015625)"/>
       <path id="DejaVuSans-70" d="M 1159 525 
L 1159 -1331 
L 581 -1331 
L 581 3500 
L 1159 3500 
L 1159 2969 
Q 1341 3281 1617 3432 
Q 1894 3584 2278 3584 
Q 2916 3584 3314 3078 
Q 3713 2572 3713 1747 
Q 3713 922 3314 415 
Q 2916 -91 2278 -91 
Q 1894 -91 1617 61 
Q 1341 213 1159 525 
z
M 3116 1747 
Q 3116 2381 2855 2742 
Q 2594 3103 2138 3103 
Q 1681 3103 1420 2742 
Q 1159 2381 1159 1747 
Q 1159 1113 1420 752 
Q 1681 391 2138 391 
Q 2594 391 2855 752 
Q 3116 1113 3116 1747 
z
" transform="scale(0.015625)"/>
       <path id="DejaVuSans-79" d="M 2059 -325 
Q 1816 -950 1584 -1140 
Q 1353 -1331 966 -1331 
L 506 -1331 
L 506 -850 
L 844 -850 
Q 1081 -850 1212 -737 
Q 1344 -625 1503 -206 
L 1606 56 
L 191 3500 
L 800 3500 
L 1894 763 
L 2988 3500 
L 3597 3500 
L 2059 -325 
z
" transform="scale(0.015625)"/>
      </defs>
      <use xlink:href="#DejaVuSans-45"/>
      <use xlink:href="#DejaVuSans-6e" transform="translate(63.183594 0)"/>
      <use xlink:href="#DejaVuSans-74" transform="translate(126.5625 0)"/>
      <use xlink:href="#DejaVuSans-72" transform="translate(165.771484 0)"/>
      <use xlink:href="#DejaVuSans-6f" transform="translate(204.634766 0)"/>
      <use xlink:href="#DejaVuSans-70" transform="translate(265.816406 0)"/>
      <use xlink:href="#DejaVuSans-79" transform="translate(329.292969 0)"/>
     </g>
    </g>
   </g>
   <g id="line2d_16">
    <path d="M 138.436364 177.31017 
L 139.150832 186.782504 
L 139.865301 189.883538 
L 140.57977 190.871935 
L 141.294238 165.679602 
L 142.008707 172.497522 
L 142.723175 167.416144 
L 143.437644 164.472747 
L 144.152113 165.456514 
L 144.866581 169.293967 
L 145.58105 165.184958 
L 146.295519 159.340076 
L 147.009987 161.142985 
L 147.724456 161.319493 
L 148.438924 162.089467 
L 149.153393 169.486833 
L 149.867862 168.517747 
L 150.58233 167.34176 
L 151.296799 168.139921 
L 152.725736 164.924097 
L 153.440205 167.115657 
L 154.154673 162.702841 
L 154.869142 160.410097 
L 155.583611 165.460611 
L 156.298079 166.946331 
L 157.012548 162.970332 
L 157.727017 163.842424 
L 158.441485 157.924251 
L 159.155954 160.608716 
L 159.870423 160.187617 
L 160.584891 160.236215 
L 161.29936 158.015144 
L 162.013828 159.520021 
L 162.728297 154.951685 
L 163.442766 153.509018 
L 164.157234 154.284781 
L 164.871703 154.056509 
L 165.586172 154.8257 
L 166.30064 153.178009 
L 167.015109 155.104495 
L 167.729577 155.724165 
L 168.444046 154.607661 
L 169.158515 154.482874 
L 169.872983 155.090971 
L 170.587452 156.399435 
L 171.301921 156.841292 
L 172.016389 156.211562 
L 172.730858 155.20153 
L 173.445327 155.112803 
L 174.874264 156.608355 
L 175.588732 156.06143 
L 176.303201 157.131034 
L 177.01767 157.173798 
L 177.732138 157.417506 
L 178.446607 158.703685 
L 179.161076 159.132244 
L 179.875544 159.300076 
L 180.590013 156.508182 
L 181.304481 155.569164 
L 182.01895 155.506216 
L 182.733419 156.007952 
L 183.447887 156.17823 
L 184.162356 157.498322 
L 184.876825 157.092237 
L 185.591293 155.740407 
L 186.305762 155.828463 
L 187.02023 155.775559 
L 187.734699 155.249836 
L 188.449168 155.231693 
L 189.163636 153.415586 
L 189.878105 153.180124 
L 190.592574 152.766588 
L 191.307042 152.542711 
L 192.021511 152.620347 
L 192.73598 153.988627 
L 193.450448 154.826389 
L 194.164917 152.674819 
L 194.879385 152.561107 
L 196.308323 153.955852 
L 197.022791 153.484365 
L 197.73726 154.22638 
L 198.451729 155.204195 
L 199.166197 153.764522 
L 200.595134 153.093594 
L 201.309603 153.478748 
L 202.024072 153.999758 
L 203.453009 153.12068 
L 204.167478 153.047625 
L 204.881946 152.732974 
L 205.596415 151.78443 
L 206.310883 151.880284 
L 207.025352 152.451039 
L 207.739821 152.522603 
L 208.454289 152.414162 
L 209.883227 151.521978 
L 210.597695 150.799283 
L 211.312164 150.848245 
L 212.026633 151.169663 
L 212.741101 150.750985 
L 213.45557 148.775512 
L 214.170038 148.939225 
L 214.884507 148.667653 
L 216.313444 148.739307 
L 217.027913 149.19841 
L 217.742382 149.30707 
L 218.45685 148.910276 
L 219.171319 148.846601 
L 219.885787 149.576752 
L 220.600256 149.232121 
L 222.029193 148.907906 
L 222.743662 149.315157 
L 223.458131 148.983872 
L 224.172599 148.861819 
L 225.601536 149.369282 
L 227.030474 149.362659 
L 227.744942 149.844251 
L 228.459411 149.900862 
L 229.17388 149.483491 
L 229.888348 149.752062 
L 230.602817 149.221762 
L 231.317286 148.449286 
L 232.031754 148.661627 
L 232.746223 148.267876 
L 234.17516 148.937624 
L 234.889629 148.78444 
L 235.604097 148.91985 
L 236.318566 148.867681 
L 237.033035 149.185228 
L 237.747503 148.51567 
L 238.461972 148.538304 
L 239.17644 148.445985 
L 239.890909 148.726226 
L 240.605378 148.823434 
L 241.319846 148.775312 
L 242.034315 148.994655 
L 242.748784 148.893939 
L 243.463252 149.202053 
L 244.177721 149.318914 
L 244.89219 149.263051 
L 245.606658 149.031659 
L 246.321127 149.001703 
L 247.750064 149.308835 
L 248.464533 149.522891 
L 249.179001 149.134486 
L 249.89347 149.635754 
L 252.036876 147.968559 
L 252.751344 148.106616 
L 254.180282 147.182685 
L 254.89475 147.551428 
L 255.609219 148.137257 
L 256.323688 147.802672 
L 257.038156 148.030783 
L 258.467093 147.039195 
L 259.181562 146.861832 
L 259.896031 147.110608 
L 260.610499 147.158078 
L 261.324968 146.588727 
L 262.039437 146.466854 
L 262.753905 146.544369 
L 263.468374 146.937623 
L 264.897311 146.613185 
L 265.61178 146.262396 
L 266.326248 146.300599 
L 267.040717 145.959857 
L 267.755186 146.106505 
L 269.184123 145.851294 
L 269.898592 145.974119 
L 271.327529 145.528182 
L 272.041997 145.717594 
L 272.756466 145.756524 
L 274.185403 146.390749 
L 275.614341 147.045845 
L 276.328809 146.995316 
L 277.757746 146.723968 
L 278.472215 146.711218 
L 279.186684 146.809783 
L 279.901152 146.571823 
L 282.044558 146.708078 
L 283.473496 146.309725 
L 284.187964 146.575392 
L 284.902433 146.309945 
L 285.616901 146.345297 
L 286.33137 146.540464 
L 287.045839 146.568363 
L 287.760307 146.798091 
L 289.189245 146.985815 
L 289.903713 147.248515 
L 292.761588 146.9889 
L 293.476056 146.106608 
L 294.190525 146.04746 
L 294.904994 146.348046 
L 295.619462 145.981513 
L 296.333931 144.982787 
L 297.048399 144.890001 
L 297.762868 145.012736 
L 298.477337 144.825766 
L 299.191805 144.85931 
L 300.620743 144.002245 
L 301.335211 144.250724 
L 302.04968 144.017102 
L 302.764149 144.237847 
L 304.907554 144.173896 
L 305.622023 144.378661 
L 306.336492 144.434679 
L 308.479898 144.047487 
L 309.194366 144.319099 
L 309.908835 144.231843 
L 310.623303 144.601254 
L 311.337772 144.688493 
L 312.766709 144.067925 
L 313.481178 144.29095 
L 314.195647 144.247667 
L 315.624584 143.78657 
L 316.339052 143.155628 
L 317.76799 143.469403 
L 318.482458 143.295339 
L 319.911396 143.260369 
L 320.625864 143.437853 
L 321.340333 143.298434 
L 322.054802 143.478636 
L 322.76927 143.330067 
L 323.483739 143.515904 
L 324.198207 143.281164 
L 325.627145 143.222674 
L 327.056082 143.452232 
L 327.770551 142.882865 
L 328.485019 142.874611 
L 329.913956 143.008762 
L 330.628425 143.011483 
L 331.342894 143.300842 
L 333.4863 142.86428 
L 334.200768 142.953994 
L 334.915237 142.911919 
L 335.629706 142.683767 
L 336.344174 142.319744 
L 337.773111 142.22428 
L 339.202049 142.481026 
L 340.630986 142.065279 
L 341.345455 142.291272 
L 342.059923 142.359276 
L 342.774392 142.076524 
L 344.203329 141.948401 
L 345.632266 141.91069 
L 347.061204 142.217404 
L 348.490141 142.344268 
L 349.204609 142.162288 
L 351.348015 142.285881 
L 352.062484 142.189788 
L 352.776953 142.394178 
L 355.634827 141.923932 
L 356.349296 141.581128 
L 357.063764 141.443755 
L 358.492702 141.643091 
L 359.20717 141.563646 
L 360.636108 141.024193 
L 364.208451 141.409381 
L 364.922919 141.64442 
L 369.209731 141.564432 
L 370.638668 141.709803 
L 371.353137 141.692645 
L 372.067606 141.867412 
L 372.782074 141.693746 
L 374.92548 141.763966 
L 375.639949 141.981386 
L 377.068886 142.108129 
L 377.783355 141.778321 
L 378.497823 141.914437 
L 379.212292 141.932097 
L 379.926761 141.514885 
L 380.641229 141.621437 
L 381.355698 141.365825 
L 384.213572 141.06993 
L 384.928041 141.055738 
L 385.64251 141.231596 
L 387.071447 141.20325 
L 389.214853 141.135502 
L 391.358259 141.599948 
L 392.787196 141.702972 
L 393.501665 141.788537 
L 394.216133 140.619019 
L 395.64507 141.032396 
L 397.074008 141.253731 
L 398.502945 141.05846 
L 399.931882 141.415899 
L 401.360819 141.63197 
L 402.075288 141.450507 
L 403.504225 141.554557 
L 404.933163 141.661972 
L 405.647631 141.64146 
L 406.3621 141.471304 
L 407.076569 141.697007 
L 409.219974 141.658092 
L 409.934443 141.878115 
L 411.36338 141.979884 
L 413.506786 142.014089 
L 414.221255 142.219377 
L 417.079129 142.329968 
L 418.508067 142.446144 
L 419.222535 142.36176 
L 422.08041 142.420004 
L 424.223816 142.361084 
L 426.367222 142.900983 
L 427.08169 143.179355 
L 427.796159 143.276754 
L 429.225096 143.12562 
L 429.939565 143.179601 
L 430.654033 143.084593 
L 431.368502 143.17718 
L 432.797439 143.490442 
L 434.226376 143.599303 
L 434.940845 143.149291 
L 435.655314 143.251411 
L 437.084251 142.993701 
L 439.227657 143.338216 
L 439.942125 143.184184 
L 440.656594 143.389833 
L 442.085531 143.399957 
L 442.8 143.147602 
L 444.228937 143.391897 
L 444.943406 143.430937 
L 445.657875 143.310737 
L 447.086812 143.300383 
L 448.515749 142.914829 
L 449.944686 142.975274 
L 450.659155 143.06428 
L 452.088092 142.913969 
L 453.517029 142.971812 
L 454.945967 142.903478 
L 455.660435 142.927428 
L 456.374904 142.789362 
L 457.803841 142.918066 
L 458.51831 142.787661 
L 459.232778 142.83255 
L 462.090653 142.574418 
L 464.234059 142.425222 
L 467.091933 142.914955 
L 468.520871 143.095919 
L 469.235339 142.785124 
L 469.949808 142.767207 
L 470.664277 143.002765 
L 472.093214 142.856318 
L 472.807682 142.749545 
L 473.522151 142.783241 
L 474.23662 142.935791 
L 477.808963 142.856567 
L 478.523431 143.084029 
L 479.952369 143.103002 
L 480.666837 143.133209 
L 481.381306 142.824457 
L 482.095775 142.901797 
L 482.810243 143.210257 
L 484.239181 143.336342 
L 485.668118 143.340465 
L 486.382586 143.311608 
L 487.097055 143.524305 
L 488.525992 143.383347 
L 489.240461 143.486873 
L 489.95493 143.467812 
L 490.669398 143.279841 
L 492.098335 143.471646 
L 496.385147 143.339371 
L 497.099616 143.591718 
L 497.814085 143.689081 
L 501.386428 143.684293 
L 502.100896 143.727476 
L 502.815365 143.560877 
L 504.958771 143.603983 
L 507.102177 143.756734 
L 509.245583 143.730826 
L 512.103457 143.979536 
L 515.6758 144.480172 
L 516.390269 144.408244 
L 517.104738 144.490924 
L 518.533675 144.307078 
L 519.248143 144.394809 
L 519.962612 144.287462 
L 521.391549 144.451077 
L 523.534955 144.474692 
L 524.249424 144.551905 
L 525.678361 144.350343 
L 526.39283 144.227245 
L 527.107298 144.331017 
L 527.821767 143.169093 
L 528.536236 142.472847 
L 529.250704 142.385651 
L 532.108579 142.800748 
L 532.823047 142.69557 
L 534.966453 142.76447 
L 537.109859 142.7189 
L 538.538796 142.678101 
L 539.253265 142.577383 
L 542.11114 142.569874 
L 543.540077 142.55295 
L 544.969014 142.491309 
L 545.683483 142.146508 
L 547.11242 142.124412 
L 547.826889 141.937958 
L 549.255826 141.880005 
L 551.399232 142.137328 
L 552.1137 142.010386 
L 554.971575 142.029859 
L 556.400512 142.199715 
L 557.114981 142.461345 
L 557.829449 142.566389 
L 559.258387 142.434749 
L 559.972855 141.964358 
L 560.687324 141.994212 
L 562.83073 141.481355 
L 564.259667 141.556389 
L 565.688604 141.590965 
L 567.83201 141.555995 
L 568.546479 141.398278 
L 569.975416 141.412821 
L 570.689885 141.35475 
L 574.262228 141.645896 
L 576.405634 141.650229 
L 578.54904 141.951727 
L 579.263508 141.908204 
L 582.835851 142.435223 
L 584.264789 142.48039 
L 585.693726 142.395594 
L 588.551601 142.618716 
L 592.123944 142.510917 
L 599.26863 142.374317 
L 599.983099 142.1522 
L 602.840973 142.198607 
L 604.26991 142.188415 
L 605.698848 142.320643 
L 607.127785 142.217252 
L 607.842254 142.100823 
L 609.985659 142.137517 
L 613.558003 141.861726 
L 614.272471 141.962017 
L 616.415877 141.676022 
L 619.98822 141.817374 
L 620.702689 141.756884 
L 622.131626 141.949574 
L 623.560563 141.883017 
L 624.989501 141.71283 
L 625.703969 141.429757 
L 629.276312 141.454831 
L 629.990781 141.426166 
L 632.134187 141.6071 
L 634.277593 141.623597 
L 635.70653 141.673134 
L 638.564405 141.494744 
L 639.278873 140.992823 
L 642.851216 140.913507 
L 643.565685 141.014448 
L 644.280154 140.972929 
L 644.994622 141.091116 
L 646.42356 141.065919 
L 652.139309 141.134911 
L 652.853777 141.251314 
L 657.140589 141.023737 
L 657.855058 140.847499 
L 659.283995 140.910603 
L 661.427401 140.63463 
L 668.572087 140.700253 
L 670.001024 140.824542 
L 671.429962 140.783425 
L 673.573367 140.706867 
L 675.002305 140.617064 
L 678.574648 140.984289 
L 683.575928 141.277383 
L 686.433803 141.276432 
L 687.86274 141.162199 
L 692.86402 141.752289 
L 693.578489 141.687409 
L 695.007426 141.83192 
L 698.57977 141.86087 
L 701.437644 141.726446 
L 702.152113 141.660413 
L 703.58105 141.752732 
L 704.295519 140.998942 
L 705.724456 141.081057 
L 706.438924 141.001609 
L 707.153393 141.085902 
L 708.58233 141.00918 
L 717.870423 141.245517 
L 718.584891 141.126414 
L 719.29936 140.823138 
L 721.442766 140.813834 
L 725.015109 140.997228 
L 725.729577 140.967902 
L 726.444046 140.810196 
L 727.158515 140.861982 
L 731.445327 141.925027 
L 732.159795 141.895483 
L 734.303201 141.522322 
L 736.446607 141.657929 
L 737.875544 141.699314 
L 739.304481 141.925029 
L 740.733419 141.961594 
L 747.163636 141.923934 
L 747.163636 141.923934 
" clip-path="url(#pcac9c90279)" style="fill: none; stroke: #ff0000; stroke-width: 1.5; stroke-linecap: square"/>
   </g>
   <g id="line2d_17">
    <path d="M 138.436364 163.244889 
L 139.150832 154.853499 
L 139.865301 151.250587 
L 140.57977 149.1422 
L 141.294238 147.903024 
L 142.008707 146.951465 
L 144.866581 145.675692 
L 146.295519 144.655323 
L 147.009987 144.332819 
L 147.724456 143.884005 
L 148.438924 143.588218 
L 149.867862 143.521517 
L 150.58233 143.231718 
L 151.296799 143.28148 
L 152.011268 143.496152 
L 153.440205 143.456501 
L 154.154673 143.517339 
L 154.869142 143.281388 
L 155.583611 143.270095 
L 158.441485 142.861384 
L 162.013828 142.605114 
L 163.442766 142.62729 
L 172.016389 142.481153 
L 174.159795 142.342177 
L 175.588732 142.400615 
L 177.01767 142.393855 
L 179.161076 142.429395 
L 180.590013 142.450742 
L 182.733419 142.50924 
L 189.878105 142.474942 
L 191.307042 142.462856 
L 214.884507 142.078617 
L 223.458131 142.094 
L 229.888348 142.031583 
L 462.805122 141.97822 
L 472.807682 141.997642 
L 504.244302 141.997636 
L 532.108579 141.976783 
L 570.689885 141.9799 
L 597.839693 141.960836 
L 747.163636 141.923934 
L 747.163636 141.923934 
" clip-path="url(#pcac9c90279)" style="fill: none; stroke: #0000ff; stroke-width: 1.5; stroke-linecap: square"/>
   </g>
   <g id="patch_3">
    <path d="M 108 256.32 
L 108 34.56 
" style="fill: none; stroke: #000000; stroke-width: 0.8; stroke-linejoin: miter; stroke-linecap: square"/>
   </g>
   <g id="patch_4">
    <path d="M 777.6 256.32 
L 777.6 34.56 
" style="fill: none; stroke: #000000; stroke-width: 0.8; stroke-linejoin: miter; stroke-linecap: square"/>
   </g>
   <g id="patch_5">
    <path d="M 108 256.32 
L 777.6 256.32 
" style="fill: none; stroke: #000000; stroke-width: 0.8; stroke-linejoin: miter; stroke-linecap: square"/>
   </g>
   <g id="patch_6">
    <path d="M 108 34.56 
L 777.6 34.56 
" style="fill: none; stroke: #000000; stroke-width: 0.8; stroke-linejoin: miter; stroke-linecap: square"/>
   </g>
   <g id="text_19">
    <!-- Entropy of English (Lowercase) Tokens -->
    <g transform="translate(327.9075 28.56) scale(0.12 -0.12)">
     <defs>
      <path id="DejaVuSans-20" transform="scale(0.015625)"/>
      <path id="DejaVuSans-66" d="M 2375 4863 
L 2375 4384 
L 1825 4384 
Q 1516 4384 1395 4259 
Q 1275 4134 1275 3809 
L 1275 3500 
L 2222 3500 
L 2222 3053 
L 1275 3053 
L 1275 0 
L 697 0 
L 697 3053 
L 147 3053 
L 147 3500 
L 697 3500 
L 697 3744 
Q 697 4328 969 4595 
Q 1241 4863 1831 4863 
L 2375 4863 
z
" transform="scale(0.015625)"/>
      <path id="DejaVuSans-67" d="M 2906 1791 
Q 2906 2416 2648 2759 
Q 2391 3103 1925 3103 
Q 1463 3103 1205 2759 
Q 947 2416 947 1791 
Q 947 1169 1205 825 
Q 1463 481 1925 481 
Q 2391 481 2648 825 
Q 2906 1169 2906 1791 
z
M 3481 434 
Q 3481 -459 3084 -895 
Q 2688 -1331 1869 -1331 
Q 1566 -1331 1297 -1286 
Q 1028 -1241 775 -1147 
L 775 -588 
Q 1028 -725 1275 -790 
Q 1522 -856 1778 -856 
Q 2344 -856 2625 -561 
Q 2906 -266 2906 331 
L 2906 616 
Q 2728 306 2450 153 
Q 2172 0 1784 0 
Q 1141 0 747 490 
Q 353 981 353 1791 
Q 353 2603 747 3093 
Q 1141 3584 1784 3584 
Q 2172 3584 2450 3431 
Q 2728 3278 2906 2969 
L 2906 3500 
L 3481 3500 
L 3481 434 
z
" transform="scale(0.015625)"/>
      <path id="DejaVuSans-6c" d="M 603 4863 
L 1178 4863 
L 1178 0 
L 603 0 
L 603 4863 
z
" transform="scale(0.015625)"/>
      <path id="DejaVuSans-69" d="M 603 3500 
L 1178 3500 
L 1178 0 
L 603 0 
L 603 3500 
z
M 603 4863 
L 1178 4863 
L 1178 4134 
L 603 4134 
L 603 4863 
z
" transform="scale(0.015625)"/>
      <path id="DejaVuSans-68" d="M 3513 2113 
L 3513 0 
L 2938 0 
L 2938 2094 
Q 2938 2591 2744 2837 
Q 2550 3084 2163 3084 
Q 1697 3084 1428 2787 
Q 1159 2491 1159 1978 
L 1159 0 
L 581 0 
L 581 4863 
L 1159 4863 
L 1159 2956 
Q 1366 3272 1645 3428 
Q 1925 3584 2291 3584 
Q 2894 3584 3203 3211 
Q 3513 2838 3513 2113 
z
" transform="scale(0.015625)"/>
      <path id="DejaVuSans-28" d="M 1984 4856 
Q 1566 4138 1362 3434 
Q 1159 2731 1159 2009 
Q 1159 1288 1364 580 
Q 1569 -128 1984 -844 
L 1484 -844 
Q 1016 -109 783 600 
Q 550 1309 550 2009 
Q 550 2706 781 3412 
Q 1013 4119 1484 4856 
L 1984 4856 
z
" transform="scale(0.015625)"/>
      <path id="DejaVuSans-4c" d="M 628 4666 
L 1259 4666 
L 1259 531 
L 3531 531 
L 3531 0 
L 628 0 
L 628 4666 
z
" transform="scale(0.015625)"/>
      <path id="DejaVuSans-77" d="M 269 3500 
L 844 3500 
L 1563 769 
L 2278 3500 
L 2956 3500 
L 3675 769 
L 4391 3500 
L 4966 3500 
L 4050 0 
L 3372 0 
L 2619 2869 
L 1863 0 
L 1184 0 
L 269 3500 
z
" transform="scale(0.015625)"/>
      <path id="DejaVuSans-63" d="M 3122 3366 
L 3122 2828 
Q 2878 2963 2633 3030 
Q 2388 3097 2138 3097 
Q 1578 3097 1268 2742 
Q 959 2388 959 1747 
Q 959 1106 1268 751 
Q 1578 397 2138 397 
Q 2388 397 2633 464 
Q 2878 531 3122 666 
L 3122 134 
Q 2881 22 2623 -34 
Q 2366 -91 2075 -91 
Q 1284 -91 818 406 
Q 353 903 353 1747 
Q 353 2603 823 3093 
Q 1294 3584 2113 3584 
Q 2378 3584 2631 3529 
Q 2884 3475 3122 3366 
z
" transform="scale(0.015625)"/>
      <path id="DejaVuSans-61" d="M 2194 1759 
Q 1497 1759 1228 1600 
Q 959 1441 959 1056 
Q 959 750 1161 570 
Q 1363 391 1709 391 
Q 2188 391 2477 730 
Q 2766 1069 2766 1631 
L 2766 1759 
L 2194 1759 
z
M 3341 1997 
L 3341 0 
L 2766 0 
L 2766 531 
Q 2569 213 2275 61 
Q 1981 -91 1556 -91 
Q 1019 -91 701 211 
Q 384 513 384 1019 
Q 384 1609 779 1909 
Q 1175 2209 1959 2209 
L 2766 2209 
L 2766 2266 
Q 2766 2663 2505 2880 
Q 2244 3097 1772 3097 
Q 1472 3097 1187 3025 
Q 903 2953 641 2809 
L 641 3341 
Q 956 3463 1253 3523 
Q 1550 3584 1831 3584 
Q 2591 3584 2966 3190 
Q 3341 2797 3341 1997 
z
" transform="scale(0.015625)"/>
      <path id="DejaVuSans-29" d="M 513 4856 
L 1013 4856 
Q 1481 4119 1714 3412 
Q 1947 2706 1947 2009 
Q 1947 1309 1714 600 
Q 1481 -109 1013 -844 
L 513 -844 
Q 928 -128 1133 580 
Q 1338 1288 1338 2009 
Q 1338 2731 1133 3434 
Q 928 4138 513 4856 
z
" transform="scale(0.015625)"/>
     </defs>
     <use xlink:href="#DejaVuSans-45"/>
     <use xlink:href="#DejaVuSans-6e" transform="translate(63.183594 0)"/>
     <use xlink:href="#DejaVuSans-74" transform="translate(126.5625 0)"/>
     <use xlink:href="#DejaVuSans-72" transform="translate(165.771484 0)"/>
     <use xlink:href="#DejaVuSans-6f" transform="translate(204.634766 0)"/>
     <use xlink:href="#DejaVuSans-70" transform="translate(265.816406 0)"/>
     <use xlink:href="#DejaVuSans-79" transform="translate(329.292969 0)"/>
     <use xlink:href="#DejaVuSans-20" transform="translate(388.472656 0)"/>
     <use xlink:href="#DejaVuSans-6f" transform="translate(420.259766 0)"/>
     <use xlink:href="#DejaVuSans-66" transform="translate(481.441406 0)"/>
     <use xlink:href="#DejaVuSans-20" transform="translate(516.646484 0)"/>
     <use xlink:href="#DejaVuSans-45" transform="translate(548.433594 0)"/>
     <use xlink:href="#DejaVuSans-6e" transform="translate(611.617188 0)"/>
     <use xlink:href="#DejaVuSans-67" transform="translate(674.996094 0)"/>
     <use xlink:href="#DejaVuSans-6c" transform="translate(738.472656 0)"/>
     <use xlink:href="#DejaVuSans-69" transform="translate(766.255859 0)"/>
     <use xlink:href="#DejaVuSans-73" transform="translate(794.039062 0)"/>
     <use xlink:href="#DejaVuSans-68" transform="translate(846.138672 0)"/>
     <use xlink:href="#DejaVuSans-20" transform="translate(909.517578 0)"/>
     <use xlink:href="#DejaVuSans-28" transform="translate(941.304688 0)"/>
     <use xlink:href="#DejaVuSans-4c" transform="translate(980.318359 0)"/>
     <use xlink:href="#DejaVuSans-6f" transform="translate(1034.28125 0)"/>
     <use xlink:href="#DejaVuSans-77" transform="translate(1095.462891 0)"/>
     <use xlink:href="#DejaVuSans-65" transform="translate(1177.25 0)"/>
     <use xlink:href="#DejaVuSans-72" transform="translate(1238.773438 0)"/>
     <use xlink:href="#DejaVuSans-63" transform="translate(1277.636719 0)"/>
     <use xlink:href="#DejaVuSans-61" transform="translate(1332.617188 0)"/>
     <use xlink:href="#DejaVuSans-73" transform="translate(1393.896484 0)"/>
     <use xlink:href="#DejaVuSans-65" transform="translate(1445.996094 0)"/>
     <use xlink:href="#DejaVuSans-29" transform="translate(1507.519531 0)"/>
     <use xlink:href="#DejaVuSans-20" transform="translate(1546.533203 0)"/>
     <use xlink:href="#DejaVuSans-54" transform="translate(1578.320312 0)"/>
     <use xlink:href="#DejaVuSans-6f" transform="translate(1622.404297 0)"/>
     <use xlink:href="#DejaVuSans-6b" transform="translate(1683.585938 0)"/>
     <use xlink:href="#DejaVuSans-65" transform="translate(1737.871094 0)"/>
     <use xlink:href="#DejaVuSans-6e" transform="translate(1799.394531 0)"/>
     <use xlink:href="#DejaVuSans-73" transform="translate(1862.773438 0)"/>
    </g>
   </g>
   <g id="legend_1">
    <g id="patch_7">
     <path d="M 699.46875 71.91625 
L 770.6 71.91625 
Q 772.6 71.91625 772.6 69.91625 
L 772.6 41.56 
Q 772.6 39.56 770.6 39.56 
L 699.46875 39.56 
Q 697.46875 39.56 697.46875 41.56 
L 697.46875 69.91625 
Q 697.46875 71.91625 699.46875 71.91625 
z
" style="fill: #ffffff; opacity: 0.8; stroke: #cccccc; stroke-linejoin: miter"/>
    </g>
    <g id="line2d_18">
     <path d="M 701.46875 47.658437 
L 711.46875 47.658437 
L 721.46875 47.658437 
" style="fill: none; stroke: #ff0000; stroke-width: 1.5; stroke-linecap: square"/>
    </g>
    <g id="text_20">
     <!-- Original -->
     <g transform="translate(729.46875 51.158437) scale(0.1 -0.1)">
      <defs>
       <path id="DejaVuSans-4f" d="M 2522 4238 
Q 1834 4238 1429 3725 
Q 1025 3213 1025 2328 
Q 1025 1447 1429 934 
Q 1834 422 2522 422 
Q 3209 422 3611 934 
Q 4013 1447 4013 2328 
Q 4013 3213 3611 3725 
Q 3209 4238 2522 4238 
z
M 2522 4750 
Q 3503 4750 4090 4092 
Q 4678 3434 4678 2328 
Q 4678 1225 4090 567 
Q 3503 -91 2522 -91 
Q 1538 -91 948 565 
Q 359 1222 359 2328 
Q 359 3434 948 4092 
Q 1538 4750 2522 4750 
z
" transform="scale(0.015625)"/>
      </defs>
      <use xlink:href="#DejaVuSans-4f"/>
      <use xlink:href="#DejaVuSans-72" transform="translate(78.710938 0)"/>
      <use xlink:href="#DejaVuSans-69" transform="translate(119.824219 0)"/>
      <use xlink:href="#DejaVuSans-67" transform="translate(147.607422 0)"/>
      <use xlink:href="#DejaVuSans-69" transform="translate(211.083984 0)"/>
      <use xlink:href="#DejaVuSans-6e" transform="translate(238.867188 0)"/>
      <use xlink:href="#DejaVuSans-61" transform="translate(302.246094 0)"/>
      <use xlink:href="#DejaVuSans-6c" transform="translate(363.525391 0)"/>
     </g>
    </g>
    <g id="line2d_19">
     <path d="M 701.46875 62.336562 
L 711.46875 62.336562 
L 721.46875 62.336562 
" style="fill: none; stroke: #0000ff; stroke-width: 1.5; stroke-linecap: square"/>
    </g>
    <g id="text_21">
     <!-- Mean -->
     <g transform="translate(729.46875 65.836562) scale(0.1 -0.1)">
      <defs>
       <path id="DejaVuSans-4d" d="M 628 4666 
L 1569 4666 
L 2759 1491 
L 3956 4666 
L 4897 4666 
L 4897 0 
L 4281 0 
L 4281 4097 
L 3078 897 
L 2444 897 
L 1241 4097 
L 1241 0 
L 628 0 
L 628 4666 
z
" transform="scale(0.015625)"/>
      </defs>
      <use xlink:href="#DejaVuSans-4d"/>
      <use xlink:href="#DejaVuSans-65" transform="translate(86.279297 0)"/>
      <use xlink:href="#DejaVuSans-61" transform="translate(147.802734 0)"/>
      <use xlink:href="#DejaVuSans-6e" transform="translate(209.082031 0)"/>
     </g>
    </g>
   </g>
  </g>
 </g>
 <defs>
  <clipPath id="pcac9c90279">
   <rect x="108" y="34.56" width="669.6" height="221.76"/>
  </clipPath>
 </defs>
</svg>
