<?xml version="1.0" encoding="utf-8" standalone="no"?>
<!DOCTYPE svg PUBLIC "-//W3C//DTD SVG 1.1//EN"
  "http://www.w3.org/Graphics/SVG/1.1/DTD/svg11.dtd">
<svg xmlns:xlink="http://www.w3.org/1999/xlink" width="864pt" height="288pt" viewBox="0 0 864 288" xmlns="http://www.w3.org/2000/svg" version="1.1">
 <metadata>
  <rdf:RDF xmlns:dc="http://purl.org/dc/elements/1.1/" xmlns:cc="http://creativecommons.org/ns#" xmlns:rdf="http://www.w3.org/1999/02/22-rdf-syntax-ns#">
   <cc:Work>
    <dc:type rdf:resource="http://purl.org/dc/dcmitype/StillImage"/>
    <dc:date>2025-03-22T20:47:58.791821</dc:date>
    <dc:format>image/svg+xml</dc:format>
    <dc:creator>
     <cc:Agent>
      <dc:title>Matplotlib v3.10.0, https://matplotlib.org/</dc:title>
     </cc:Agent>
    </dc:creator>
   </cc:Work>
  </rdf:RDF>
 </metadata>
 <defs>
  <style type="text/css">*{stroke-linejoin: round; stroke-linecap: butt}</style>
 </defs>
 <g id="figure_1">
  <g id="patch_1">
   <path d="M 0 288 
L 864 288 
L 864 0 
L 0 0 
z
" style="fill: #ffffff"/>
  </g>
  <g id="axes_1">
   <g id="patch_2">
    <path d="M 108 256.32 
L 777.6 256.32 
L 777.6 34.56 
L 108 34.56 
z
" style="fill: #ffffff"/>
   </g>
   <g id="FillBetweenPolyCollection_1">
    <path d="M 138.436364 75.074381 
L 138.436364 1531.628491 
L 139.061983 940.753988 
L 139.687602 759.823458 
L 140.313221 636.28983 
L 140.93884 591.458637 
L 141.564459 633.93935 
L 142.190078 622.228808 
L 142.815697 534.080341 
L 143.441316 464.267316 
L 144.066935 449.190851 
L 144.692553 429.79543 
L 145.318172 379.12293 
L 145.943791 373.530524 
L 146.56941 350.582726 
L 147.195029 358.376848 
L 147.820648 360.302204 
L 148.446267 345.104721 
L 149.071886 321.521594 
L 149.697505 312.72761 
L 150.323124 301.645047 
L 150.948743 292.402899 
L 151.574362 293.611104 
L 152.199981 282.008282 
L 152.8256 274.625594 
L 153.451219 262.870451 
L 154.076838 252.098357 
L 154.702457 242.483752 
L 155.328076 236.738098 
L 155.953695 237.711662 
L 156.579314 242.948748 
L 157.204933 244.869818 
L 157.830552 238.797604 
L 158.456171 230.822595 
L 159.08179 227.145717 
L 159.707409 224.753035 
L 160.333028 216.520998 
L 160.958647 213.301901 
L 161.584266 212.891973 
L 162.209885 224.562059 
L 162.835504 234.226505 
L 163.461123 237.548939 
L 164.086742 241.010854 
L 164.712361 239.633637 
L 165.33798 232.859932 
L 165.963599 230.459071 
L 166.589218 230.072365 
L 167.214837 225.942175 
L 167.840456 230.619257 
L 168.466075 228.66602 
L 169.091694 226.660443 
L 169.717313 225.656166 
L 170.342932 224.647271 
L 170.968551 219.949205 
L 171.59417 218.068718 
L 172.219789 220.383205 
L 172.845408 218.274328 
L 173.471027 217.576598 
L 174.096646 215.173987 
L 174.722265 215.223364 
L 175.347884 213.17744 
L 175.973503 211.963984 
L 176.599122 209.224777 
L 177.224741 207.539529 
L 177.85036 203.611865 
L 178.475979 200.194461 
L 179.101598 198.011182 
L 179.727217 196.583512 
L 180.352836 197.709107 
L 180.978455 195.627931 
L 181.604074 197.038671 
L 182.229693 193.849282 
L 182.855312 194.230251 
L 183.480931 191.028203 
L 184.10655 191.373415 
L 184.732169 187.608562 
L 185.357788 185.705403 
L 185.983407 184.638065 
L 186.609026 184.930933 
L 187.234644 184.982527 
L 187.860263 183.942108 
L 188.485882 182.039322 
L 189.111501 181.418974 
L 189.73712 180.679327 
L 190.362739 182.441633 
L 190.988358 182.0887 
L 191.613977 185.01493 
L 192.239596 185.410059 
L 192.865215 182.840571 
L 193.490834 181.695907 
L 194.116453 183.636908 
L 194.742072 180.478315 
L 195.367691 181.959713 
L 195.99331 182.245132 
L 196.618929 181.447396 
L 197.244548 179.52055 
L 197.870167 179.800242 
L 198.495786 181.62693 
L 199.121405 178.882406 
L 199.747024 178.788401 
L 200.372643 179.662669 
L 200.998262 179.439296 
L 201.623881 178.032069 
L 202.2495 177.873329 
L 202.875119 177.261974 
L 203.500738 177.232895 
L 204.126357 177.732931 
L 204.751976 178.100861 
L 205.377595 177.419031 
L 206.003214 174.803313 
L 206.628833 176.352957 
L 207.254452 175.121669 
L 207.880071 173.462785 
L 208.50569 174.827248 
L 209.131309 176.998931 
L 209.756928 179.024611 
L 210.382547 178.032593 
L 211.008166 180.119722 
L 211.633785 182.446892 
L 212.259404 183.751942 
L 212.885023 183.759625 
L 213.510642 183.836225 
L 214.136261 184.462926 
L 214.76188 184.6313 
L 215.387499 183.267381 
L 216.013118 182.83113 
L 216.638737 183.471485 
L 217.264356 182.377231 
L 217.889975 182.424758 
L 218.515594 182.592511 
L 219.141213 183.215143 
L 219.766832 182.08809 
L 220.392451 182.419476 
L 221.01807 181.842969 
L 221.643689 181.364805 
L 222.269308 180.995175 
L 222.894927 181.122336 
L 223.520546 180.411597 
L 224.146165 180.496422 
L 224.771784 179.696487 
L 225.397403 180.034229 
L 226.023022 180.404109 
L 226.648641 179.377514 
L 227.27426 179.24122 
L 227.899879 178.538996 
L 228.525498 177.208267 
L 229.151117 177.217371 
L 229.776735 176.049999 
L 230.402354 174.433634 
L 231.027973 175.177723 
L 231.653592 176.234761 
L 232.279211 176.321223 
L 232.90483 176.507414 
L 233.530449 177.67981 
L 234.156068 176.894644 
L 234.781687 176.395096 
L 235.407306 176.311411 
L 236.032925 176.740787 
L 236.658544 175.583517 
L 237.284163 175.293834 
L 237.909782 174.87895 
L 238.535401 173.422176 
L 239.16102 172.995204 
L 239.786639 173.051371 
L 240.412258 172.700449 
L 241.037877 172.396934 
L 241.663496 171.6657 
L 242.289115 170.78774 
L 242.914734 171.048005 
L 243.540353 170.469454 
L 244.165972 171.51183 
L 244.791591 171.883478 
L 245.41721 171.727734 
L 246.042829 170.442036 
L 246.668448 170.448108 
L 247.294067 169.908414 
L 247.919686 169.496457 
L 248.545305 169.582382 
L 249.170924 170.454459 
L 249.796543 169.572966 
L 250.422162 168.821685 
L 251.047781 169.065352 
L 251.6734 169.602355 
L 252.299019 169.350894 
L 252.924638 168.915519 
L 253.550257 169.827949 
L 254.175876 171.09618 
L 254.801495 170.627911 
L 255.427114 170.330805 
L 256.052733 170.070653 
L 256.678352 169.871768 
L 257.303971 170.771269 
L 257.92959 171.148299 
L 258.555209 170.440472 
L 259.180828 170.003412 
L 259.806447 170.944515 
L 260.432066 170.727682 
L 261.057685 170.551176 
L 261.683304 170.686377 
L 262.308923 170.647459 
L 262.934542 172.057185 
L 263.560161 172.534515 
L 264.18578 172.498175 
L 264.811399 171.907455 
L 265.437018 172.146067 
L 266.062637 172.320709 
L 266.688256 171.866433 
L 267.313875 171.770592 
L 267.939494 171.326211 
L 268.565113 170.462804 
L 269.190732 169.125634 
L 269.816351 169.011604 
L 270.44197 168.771065 
L 271.067589 167.750482 
L 271.693208 167.683806 
L 272.318826 167.411371 
L 272.944445 167.330203 
L 273.570064 167.058957 
L 274.195683 166.54203 
L 274.821302 166.417103 
L 275.446921 165.526857 
L 276.07254 165.343259 
L 276.698159 165.529032 
L 277.323778 165.189902 
L 277.949397 164.909331 
L 278.575016 164.642017 
L 279.200635 163.736172 
L 279.826254 163.07826 
L 280.451873 162.457324 
L 281.077492 162.486289 
L 281.703111 162.605896 
L 282.32873 162.908035 
L 282.954349 162.643806 
L 283.579968 161.950088 
L 284.205587 162.047964 
L 284.831206 162.440486 
L 285.456825 161.680605 
L 286.082444 161.37921 
L 286.708063 160.771593 
L 287.333682 160.018648 
L 287.959301 159.588546 
L 288.58492 158.869042 
L 289.210539 158.742032 
L 289.836158 158.576862 
L 290.461777 158.85242 
L 291.087396 159.599451 
L 291.713015 158.861248 
L 292.338634 158.361432 
L 292.964253 157.940683 
L 293.589872 158.311029 
L 294.215491 157.891993 
L 294.84111 157.885833 
L 295.466729 157.975996 
L 296.092348 158.270273 
L 296.717967 158.748295 
L 297.343586 159.011435 
L 297.969205 158.657171 
L 298.594824 158.145148 
L 299.220443 157.735985 
L 299.846062 157.983827 
L 300.471681 157.957098 
L 301.0973 158.417042 
L 301.722919 158.825124 
L 302.348538 158.680863 
L 302.974157 158.006644 
L 303.599776 158.346299 
L 304.225395 159.053852 
L 304.851014 158.956142 
L 305.476633 158.745581 
L 306.102252 158.039331 
L 306.727871 158.204674 
L 307.35349 159.023338 
L 307.979109 158.935857 
L 308.604728 158.837139 
L 309.230347 158.593168 
L 309.855966 159.08374 
L 310.481585 159.019151 
L 311.107204 159.296528 
L 311.732823 158.996607 
L 312.358442 159.057982 
L 312.984061 159.048898 
L 313.60968 158.772249 
L 314.235299 159.134915 
L 314.860917 159.042907 
L 315.486536 158.961066 
L 316.112155 159.193318 
L 316.737774 158.936961 
L 317.363393 159.42192 
L 317.989012 159.582589 
L 318.614631 158.956843 
L 319.24025 158.085425 
L 319.865869 158.084099 
L 320.491488 157.749306 
L 321.117107 157.497914 
L 321.742726 157.648185 
L 322.368345 157.17708 
L 322.993964 157.101753 
L 323.619583 156.857857 
L 324.245202 156.72611 
L 324.870821 156.367842 
L 325.49644 156.043637 
L 326.122059 155.628904 
L 326.747678 155.954032 
L 327.373297 156.291731 
L 327.998916 156.242078 
L 328.624535 156.388596 
L 329.250154 156.648953 
L 329.875773 156.48538 
L 330.501392 156.629296 
L 331.127011 156.624688 
L 331.75263 156.471747 
L 332.378249 156.295328 
L 333.003868 156.348498 
L 333.629487 156.661394 
L 334.255106 156.802955 
L 334.880725 157.77598 
L 335.506344 157.686266 
L 336.131963 157.93985 
L 336.757582 157.522237 
L 337.383201 157.558014 
L 338.00882 157.255255 
L 338.634439 157.140821 
L 339.260058 156.832161 
L 339.885677 156.653185 
L 340.511296 156.331693 
L 341.136915 156.045059 
L 341.762534 155.992097 
L 342.388153 155.951478 
L 343.013772 156.077467 
L 343.639391 156.141511 
L 344.26501 156.018384 
L 344.890629 155.947278 
L 345.516248 156.208765 
L 346.141867 156.516996 
L 346.767486 156.31714 
L 347.393105 155.955541 
L 348.018724 155.87303 
L 348.644343 155.80565 
L 349.269962 156.028841 
L 349.895581 155.614885 
L 350.5212 155.700141 
L 351.146819 155.467678 
L 351.772438 155.501322 
L 352.398057 155.60353 
L 353.023676 155.136769 
L 353.649295 154.905821 
L 354.274914 154.947383 
L 354.900533 155.278515 
L 355.526152 155.191596 
L 356.151771 154.977617 
L 356.77739 154.860901 
L 357.403009 154.265666 
L 358.028627 153.637416 
L 358.654246 153.589789 
L 359.279865 153.359711 
L 359.905484 153.310947 
L 360.531103 153.453407 
L 361.156722 153.830162 
L 361.782341 154.169918 
L 362.40796 153.857038 
L 363.033579 153.686004 
L 363.659198 154.079399 
L 364.284817 153.796044 
L 364.910436 153.582266 
L 365.536055 153.613221 
L 366.161674 153.65105 
L 366.787293 153.449465 
L 367.412912 152.729103 
L 368.038531 152.197982 
L 368.66415 151.993327 
L 369.289769 152.216587 
L 369.915388 152.490272 
L 370.541007 152.361476 
L 371.166626 151.758454 
L 371.792245 151.412769 
L 372.417864 151.28815 
L 373.043483 151.274332 
L 373.669102 151.737688 
L 374.294721 151.504194 
L 374.92034 151.797904 
L 375.545959 151.755215 
L 376.171578 151.834701 
L 376.797197 152.304983 
L 377.422816 152.441201 
L 378.048435 152.609173 
L 378.674054 152.630961 
L 379.299673 152.636982 
L 379.925292 152.625351 
L 380.550911 152.459183 
L 381.17653 152.429866 
L 381.802149 152.618855 
L 382.427768 152.663533 
L 383.053387 152.35775 
L 383.679006 151.973374 
L 384.304625 151.585248 
L 384.930244 151.237474 
L 385.555863 151.122711 
L 386.181482 150.942254 
L 386.807101 150.800736 
L 387.43272 150.677183 
L 388.058339 150.61 
L 388.683958 150.989066 
L 389.309577 150.990665 
L 389.935196 150.885885 
L 390.560815 150.770627 
L 391.186434 151.213331 
L 391.812053 151.157339 
L 392.437672 151.189721 
L 393.063291 151.0435 
L 393.68891 150.898265 
L 394.314529 150.47258 
L 394.940148 149.920652 
L 395.565767 149.880677 
L 396.191386 149.572404 
L 396.817005 149.542272 
L 397.442624 149.672626 
L 398.068243 149.932507 
L 398.693862 149.922298 
L 399.319481 149.822772 
L 399.9451 149.738221 
L 400.570718 149.440258 
L 401.196337 149.732553 
L 401.821956 150.058312 
L 402.447575 150.212718 
L 403.073194 150.462133 
L 403.698813 151.364976 
L 404.324432 151.531233 
L 404.950051 151.470691 
L 405.57567 151.569264 
L 406.201289 151.362206 
L 406.826908 151.393995 
L 407.452527 151.643411 
L 408.078146 151.935481 
L 408.703765 152.394129 
L 409.329384 152.626874 
L 409.955003 152.616286 
L 410.580622 152.344056 
L 411.206241 151.943232 
L 411.83186 151.503679 
L 412.457479 151.564428 
L 413.083098 151.54931 
L 413.708717 150.765591 
L 414.334336 150.304712 
L 414.959955 150.183119 
L 415.585574 150.266595 
L 416.211193 150.833296 
L 416.836812 150.551937 
L 417.462431 150.692944 
L 418.08805 151.171308 
L 418.713669 150.914895 
L 419.339288 150.803006 
L 419.964907 150.670555 
L 420.590526 150.82619 
L 421.216145 150.755093 
L 421.841764 150.586652 
L 422.467383 150.398075 
L 423.093002 150.097181 
L 423.718621 150.06138 
L 424.34424 150.026065 
L 424.969859 149.773874 
L 425.595478 149.874533 
L 426.221097 150.181332 
L 426.846716 150.934781 
L 427.472335 151.060493 
L 428.097954 150.636726 
L 428.723573 150.378254 
L 429.349192 150.195143 
L 429.974811 150.116993 
L 430.60043 150.684802 
L 431.226049 150.760056 
L 431.851668 150.449255 
L 432.477287 150.43137 
L 433.102906 150.216664 
L 433.728525 150.257001 
L 434.354144 150.782733 
L 434.979763 151.373965 
L 435.605382 151.557091 
L 436.231001 151.524821 
L 436.85662 151.130728 
L 437.482239 151.165059 
L 438.107858 151.017936 
L 438.733477 150.631457 
L 439.359096 150.445556 
L 439.984715 150.544475 
L 440.610334 150.762339 
L 441.235953 150.753756 
L 441.861572 150.515259 
L 442.487191 150.383051 
L 443.112809 150.548308 
L 443.738428 150.470991 
L 444.364047 150.762934 
L 444.989666 150.509 
L 445.615285 150.577902 
L 446.240904 150.66958 
L 446.866523 150.561079 
L 447.492142 150.725856 
L 448.117761 151.023783 
L 448.74338 151.462288 
L 449.368999 151.333949 
L 449.994618 150.955295 
L 450.620237 150.854343 
L 451.245856 151.067901 
L 451.871475 151.059734 
L 452.497094 150.899208 
L 453.122713 150.728914 
L 453.748332 150.71855 
L 454.373951 150.552723 
L 454.99957 150.539792 
L 455.625189 150.477156 
L 456.250808 150.470106 
L 456.876427 150.476046 
L 457.502046 150.420381 
L 458.127665 150.274755 
L 458.753284 150.066492 
L 459.378903 150.325426 
L 460.004522 150.813556 
L 460.630141 150.679346 
L 461.25576 150.531261 
L 461.881379 150.462994 
L 462.506998 150.228047 
L 463.132617 150.543801 
L 463.758236 150.423143 
L 464.383855 150.443534 
L 465.009474 150.160411 
L 465.635093 150.232182 
L 466.260712 150.218503 
L 466.886331 150.186277 
L 467.51195 150.304362 
L 468.137569 150.042064 
L 468.763188 149.692101 
L 469.388807 149.477499 
L 470.014426 149.504935 
L 470.640045 149.33482 
L 471.265664 149.390139 
L 471.891283 149.157784 
L 472.516902 149.781614 
L 473.142521 149.631776 
L 473.76814 149.673799 
L 474.393759 149.761501 
L 475.019378 149.713173 
L 475.644997 149.698741 
L 476.270616 149.483088 
L 476.896235 149.234794 
L 477.521854 148.86418 
L 478.147473 148.879786 
L 478.773092 148.724028 
L 479.398711 148.306773 
L 480.02433 148.175433 
L 480.649949 146.633706 
L 481.275568 146.861006 
L 481.901187 146.807077 
L 482.526806 146.638638 
L 483.152425 146.681719 
L 483.778044 146.559604 
L 484.403663 146.428388 
L 485.029282 146.396366 
L 485.6549 146.296654 
L 486.280519 146.264946 
L 486.906138 146.176392 
L 487.531757 145.97229 
L 488.157376 146.24119 
L 488.782995 146.31951 
L 489.408614 146.294925 
L 490.034233 146.138175 
L 490.659852 146.277311 
L 491.285471 146.387335 
L 491.91109 146.266842 
L 492.536709 146.295566 
L 493.162328 146.344209 
L 493.787947 146.318882 
L 494.413566 146.102495 
L 495.039185 145.55055 
L 495.664804 145.551378 
L 496.290423 145.688021 
L 496.916042 146.017481 
L 497.541661 145.710215 
L 498.16728 145.683019 
L 498.792899 145.500173 
L 499.418518 145.494291 
L 500.044137 145.5257 
L 500.669756 145.822433 
L 501.295375 145.787659 
L 501.920994 145.197235 
L 502.546613 145.154272 
L 503.172232 145.293658 
L 503.797851 145.278336 
L 504.42347 145.322083 
L 505.049089 145.294155 
L 505.674708 145.252172 
L 506.300327 145.091165 
L 506.925946 145.071873 
L 507.551565 145.041787 
L 508.177184 144.870668 
L 508.802803 145.228254 
L 509.428422 145.386263 
L 510.054041 145.418883 
L 510.67966 145.680105 
L 511.305279 145.969125 
L 511.930898 145.764937 
L 512.556517 145.888679 
L 513.182136 146.169339 
L 513.807755 146.350098 
L 514.433374 146.406851 
L 515.058993 146.211082 
L 515.684612 146.057731 
L 516.310231 145.969417 
L 516.93585 145.900703 
L 517.561469 145.737317 
L 518.187088 145.536139 
L 518.812707 145.51515 
L 519.438326 145.390934 
L 520.063945 145.155474 
L 520.689564 145.000246 
L 521.315183 144.94885 
L 521.940802 144.950558 
L 522.566421 145.109985 
L 523.19204 144.913901 
L 523.817659 144.700872 
L 524.443278 144.70711 
L 525.068897 144.538311 
L 525.694516 144.36443 
L 526.320135 144.093297 
L 526.945754 143.814614 
L 527.571373 143.674242 
L 528.196991 143.876089 
L 528.82261 143.788577 
L 529.448229 143.521423 
L 530.073848 143.715106 
L 530.699467 143.648591 
L 531.325086 143.645842 
L 531.950705 143.584643 
L 532.576324 143.496025 
L 533.201943 143.446763 
L 533.827562 143.393405 
L 534.453181 143.247775 
L 535.0788 143.293806 
L 535.704419 143.338187 
L 536.330038 143.405903 
L 536.955657 143.29493 
L 537.581276 143.208325 
L 538.206895 143.10794 
L 538.832514 143.194732 
L 539.458133 143.134037 
L 540.083752 142.969857 
L 540.709371 143.236503 
L 541.33499 143.427022 
L 541.960609 143.181666 
L 542.586228 143.066784 
L 543.211847 143.16175 
L 543.837466 143.283933 
L 544.463085 143.332743 
L 545.088704 143.943517 
L 545.714323 144.441962 
L 546.339942 144.397459 
L 546.965561 144.31658 
L 547.59118 144.25815 
L 548.216799 144.372936 
L 548.842418 144.384929 
L 549.468037 144.071161 
L 550.093656 144.067793 
L 550.719275 144.148313 
L 551.344894 144.064182 
L 551.970513 144.182315 
L 552.596132 144.22556 
L 553.221751 143.980944 
L 553.84737 144.174483 
L 554.472989 144.377062 
L 555.098608 144.401265 
L 555.724227 144.26579 
L 556.349846 144.394997 
L 556.975465 144.393396 
L 557.601084 144.324294 
L 558.226703 144.325765 
L 558.852322 144.523119 
L 559.477941 144.440826 
L 560.10356 144.541335 
L 560.729179 144.226101 
L 561.354798 144.185416 
L 561.980417 144.001109 
L 562.606036 144.10692 
L 563.231655 144.351363 
L 563.857274 144.282233 
L 564.482893 144.212759 
L 565.108512 143.985863 
L 565.734131 143.779893 
L 566.35975 143.674474 
L 566.985369 143.751596 
L 567.610988 143.527751 
L 568.236607 143.341179 
L 568.862226 143.353519 
L 569.487845 143.329078 
L 570.113464 143.476117 
L 570.739083 143.339146 
L 571.364701 143.235645 
L 571.99032 143.061299 
L 572.615939 143.041142 
L 573.241558 142.905068 
L 573.867177 143.009565 
L 574.492796 143.047815 
L 575.118415 142.924948 
L 575.744034 142.981222 
L 576.369653 143.18365 
L 576.995272 143.139467 
L 577.620891 143.060886 
L 578.24651 142.945982 
L 578.872129 142.806575 
L 579.497748 142.613329 
L 580.123367 142.710298 
L 580.748986 142.657049 
L 581.374605 142.687449 
L 582.000224 142.760583 
L 582.625843 142.934337 
L 583.251462 142.863832 
L 583.877081 142.801029 
L 584.5027 142.764762 
L 585.128319 142.478857 
L 585.753938 142.426352 
L 586.379557 142.439284 
L 587.005176 142.233959 
L 587.630795 142.127981 
L 588.256414 142.066893 
L 588.882033 142.26435 
L 589.507652 142.259442 
L 590.133271 142.113093 
L 590.75889 142.179854 
L 591.384509 142.082658 
L 592.010128 141.797578 
L 592.635747 141.828198 
L 593.261366 141.729903 
L 593.886985 141.763309 
L 594.512604 142.09387 
L 595.138223 142.17435 
L 595.763842 141.982557 
L 596.389461 141.958676 
L 597.01508 142.102644 
L 597.640699 142.05614 
L 598.266318 142.192009 
L 598.891937 142.005459 
L 599.517556 142.453492 
L 600.143175 142.584121 
L 600.768794 142.63249 
L 601.394413 142.437671 
L 602.020032 142.288953 
L 602.645651 142.278044 
L 603.27127 142.318451 
L 603.896889 142.582362 
L 604.522508 142.199797 
L 605.148127 142.130162 
L 605.773746 141.967203 
L 606.399365 142.06892 
L 607.024984 141.868154 
L 607.650603 141.812277 
L 608.276222 141.888803 
L 608.901841 142.084106 
L 609.52746 142.064657 
L 610.153079 142.134541 
L 610.778698 142.16115 
L 611.404317 142.237693 
L 612.029936 142.546311 
L 612.655555 142.58049 
L 613.281174 142.754345 
L 613.906792 142.61564 
L 614.532411 142.542684 
L 615.15803 142.398886 
L 615.783649 142.321566 
L 616.409268 142.455636 
L 617.034887 142.398697 
L 617.660506 142.583093 
L 618.286125 142.504102 
L 618.911744 142.382229 
L 619.537363 142.277771 
L 620.162982 142.102259 
L 620.788601 141.984876 
L 621.41422 141.972193 
L 622.039839 142.029013 
L 622.665458 141.611824 
L 623.291077 141.502147 
L 623.916696 141.493991 
L 624.542315 141.263474 
L 625.167934 141.293897 
L 625.793553 141.384198 
L 626.419172 141.271972 
L 627.044791 141.337126 
L 627.67041 141.227728 
L 628.296029 140.999213 
L 628.921648 141.222385 
L 629.547267 141.295394 
L 630.172886 141.394429 
L 630.798505 141.390923 
L 631.424124 141.308565 
L 632.049743 141.167809 
L 632.675362 141.336702 
L 633.300981 141.53431 
L 633.9266 141.646221 
L 634.552219 141.675315 
L 635.177838 141.609037 
L 635.803457 141.517369 
L 636.429076 141.60082 
L 637.054695 141.492137 
L 637.680314 141.384416 
L 638.305933 141.400479 
L 638.931552 141.3221 
L 639.557171 141.283636 
L 640.18279 141.299269 
L 640.808409 141.199306 
L 641.434028 141.246705 
L 642.059647 141.183358 
L 642.685266 141.097658 
L 643.310885 141.187529 
L 643.936504 141.35552 
L 644.562123 141.396389 
L 645.187742 141.471532 
L 645.813361 141.525398 
L 646.43898 141.567709 
L 647.064599 141.511962 
L 647.690218 141.574278 
L 648.315837 141.626089 
L 648.941456 141.619207 
L 649.567075 141.489641 
L 650.192694 140.828535 
L 650.818313 140.836708 
L 651.443932 140.79972 
L 652.069551 141.223035 
L 652.69517 141.288953 
L 653.320789 141.233084 
L 653.946408 141.141021 
L 654.572027 140.926413 
L 655.197646 140.5112 
L 655.823265 140.282581 
L 656.448883 140.264407 
L 657.074502 140.188837 
L 657.700121 140.229652 
L 658.32574 140.077592 
L 658.951359 140.235544 
L 659.576978 140.166551 
L 660.202597 140.088932 
L 660.828216 140.071011 
L 661.453835 140.045914 
L 662.079454 140.048878 
L 662.705073 140.118898 
L 663.330692 140.283952 
L 663.956311 140.417979 
L 664.58193 140.231285 
L 665.207549 140.197074 
L 665.833168 140.09622 
L 666.458787 140.15436 
L 667.084406 139.971284 
L 667.710025 139.832194 
L 668.335644 139.878969 
L 668.961263 139.65282 
L 669.586882 139.57363 
L 670.212501 139.253379 
L 670.83812 139.114471 
L 671.463739 139.166577 
L 672.089358 139.24127 
L 672.714977 139.157041 
L 673.340596 139.222552 
L 673.966215 139.119837 
L 674.591834 138.994969 
L 675.217453 138.938587 
L 675.843072 138.916511 
L 676.468691 138.747456 
L 677.09431 138.80774 
L 677.719929 139.004881 
L 678.345548 139.322114 
L 678.971167 139.6149 
L 679.596786 139.879406 
L 680.222405 139.787235 
L 680.848024 140.043987 
L 681.473643 139.969243 
L 682.099262 139.827028 
L 682.724881 139.899621 
L 683.3505 139.943117 
L 683.976119 140.04549 
L 684.601738 140.226452 
L 685.227357 140.228306 
L 685.852976 140.16216 
L 686.478595 140.143706 
L 687.104214 140.143426 
L 687.729833 140.115436 
L 688.355452 139.203679 
L 688.981071 139.038288 
L 689.60669 139.037886 
L 690.232309 138.841724 
L 690.857928 138.971346 
L 691.483547 138.931925 
L 692.109166 138.994073 
L 692.734785 138.867234 
L 693.360404 138.945793 
L 693.986023 138.900814 
L 694.611642 138.954603 
L 695.237261 139.04708 
L 695.86288 139.043145 
L 696.488499 138.91049 
L 697.114118 138.811526 
L 697.739737 138.687371 
L 698.365356 138.612181 
L 698.990974 138.479696 
L 699.616593 138.400198 
L 700.242212 138.3941 
L 700.867831 138.340252 
L 701.49345 138.158569 
L 702.119069 138.069662 
L 702.744688 138.081456 
L 703.370307 138.059853 
L 703.995926 137.986823 
L 704.621545 138.052999 
L 705.247164 138.060497 
L 705.872783 138.158705 
L 706.498402 138.388535 
L 707.124021 138.650114 
L 707.74964 138.705642 
L 708.375259 138.795777 
L 709.000878 138.894559 
L 709.626497 138.786922 
L 710.252116 138.602841 
L 710.877735 138.522944 
L 711.503354 138.426707 
L 712.128973 138.640403 
L 712.754592 138.746862 
L 713.380211 138.591409 
L 714.00583 138.548549 
L 714.631449 138.442491 
L 715.257068 138.31103 
L 715.882687 138.216653 
L 716.508306 138.257129 
L 717.133925 138.139257 
L 717.759544 138.134467 
L 718.385163 138.233965 
L 719.010782 138.265309 
L 719.636401 138.227223 
L 720.26202 138.10633 
L 720.887639 137.738599 
L 721.513258 137.735167 
L 722.138877 137.691662 
L 722.764496 137.669113 
L 723.390115 137.614992 
L 724.015734 137.65336 
L 724.641353 137.667365 
L 725.266972 137.697264 
L 725.892591 137.595744 
L 726.51821 137.681169 
L 727.143829 137.584282 
L 727.769448 137.593129 
L 728.395067 137.208714 
L 729.020686 137.206337 
L 729.646305 137.212032 
L 730.271924 137.008414 
L 730.897543 137.031081 
L 731.523162 137.091854 
L 732.148781 137.183859 
L 732.7744 137.187123 
L 733.400019 137.326565 
L 734.025638 137.513579 
L 734.651257 137.580965 
L 735.276876 136.672969 
L 735.902495 136.710654 
L 736.528114 136.700608 
L 737.153733 136.737667 
L 737.779352 136.818126 
L 738.404971 136.862655 
L 739.03059 136.646762 
L 739.656209 136.634471 
L 740.281828 136.602706 
L 740.907447 136.467408 
L 741.533065 136.358403 
L 742.158684 136.108752 
L 742.784303 136.029554 
L 743.409922 135.975111 
L 744.035541 135.898763 
L 744.66116 135.867822 
L 745.286779 135.770645 
L 745.912398 135.800344 
L 746.538017 135.329173 
L 747.163636 134.57254 
L 747.163636 134.57254 
L 747.163636 134.57254 
L 746.538017 134.134493 
L 745.912398 133.882696 
L 745.286779 133.784421 
L 744.66116 133.332964 
L 744.035541 133.0711 
L 743.409922 133.099684 
L 742.784303 132.590145 
L 742.158684 132.375443 
L 741.533065 132.237543 
L 740.907447 132.198417 
L 740.281828 131.917119 
L 739.656209 131.772551 
L 739.03059 131.513916 
L 738.404971 131.659611 
L 737.779352 131.635695 
L 737.153733 131.669777 
L 736.528114 131.722592 
L 735.902495 131.728279 
L 735.276876 131.678995 
L 734.651257 131.651411 
L 734.025638 131.463886 
L 733.400019 131.514744 
L 732.7744 131.600284 
L 732.148781 131.517605 
L 731.523162 131.535901 
L 730.897543 131.615215 
L 730.271924 131.685286 
L 729.646305 131.713128 
L 729.020686 131.705627 
L 728.395067 131.629056 
L 727.769448 131.679142 
L 727.143829 131.678894 
L 726.51821 131.698584 
L 725.892591 131.707946 
L 725.266972 131.723124 
L 724.641353 131.826555 
L 724.015734 131.744695 
L 723.390115 131.694978 
L 722.764496 131.84003 
L 722.138877 131.932464 
L 721.513258 131.908808 
L 720.887639 131.585017 
L 720.26202 131.60386 
L 719.636401 131.599164 
L 719.010782 131.619254 
L 718.385163 131.604043 
L 717.759544 131.477775 
L 717.133925 131.298142 
L 716.508306 131.32592 
L 715.882687 131.554367 
L 715.257068 131.501777 
L 714.631449 131.470364 
L 714.00583 131.4268 
L 713.380211 131.265285 
L 712.754592 131.120852 
L 712.128973 131.192467 
L 711.503354 131.248806 
L 710.877735 131.207344 
L 710.252116 131.300338 
L 709.626497 131.328957 
L 709.000878 131.256942 
L 708.375259 131.016995 
L 707.74964 130.704052 
L 707.124021 130.781889 
L 706.498402 130.833687 
L 705.872783 130.831431 
L 705.247164 130.756684 
L 704.621545 130.794305 
L 703.995926 130.920003 
L 703.370307 130.936041 
L 702.744688 130.732995 
L 702.119069 130.614985 
L 701.49345 130.653413 
L 700.867831 130.681249 
L 700.242212 130.560483 
L 699.616593 130.067908 
L 698.990974 129.580493 
L 698.365356 129.369623 
L 697.739737 129.268472 
L 697.114118 129.341033 
L 696.488499 129.204537 
L 695.86288 129.411377 
L 695.237261 129.275512 
L 694.611642 129.186302 
L 693.986023 129.25746 
L 693.360404 129.268311 
L 692.734785 129.312618 
L 692.109166 129.393859 
L 691.483547 129.599102 
L 690.857928 129.738174 
L 690.232309 129.676277 
L 689.60669 129.684171 
L 688.981071 129.794481 
L 688.355452 129.697058 
L 687.729833 129.979329 
L 687.104214 129.826176 
L 686.478595 129.838759 
L 685.852976 129.872984 
L 685.227357 129.786146 
L 684.601738 129.903425 
L 683.976119 129.815706 
L 683.3505 129.939034 
L 682.724881 129.851351 
L 682.099262 129.809568 
L 681.473643 129.443529 
L 680.848024 129.480305 
L 680.222405 129.475111 
L 679.596786 129.605013 
L 678.971167 129.588397 
L 678.345548 129.379286 
L 677.719929 129.440032 
L 677.09431 129.430253 
L 676.468691 129.428204 
L 675.843072 129.525761 
L 675.217453 129.582447 
L 674.591834 129.568983 
L 673.966215 129.678682 
L 673.340596 129.649193 
L 672.714977 129.655908 
L 672.089358 129.468746 
L 671.463739 129.373641 
L 670.83812 129.39259 
L 670.212501 129.392407 
L 669.586882 129.346747 
L 668.961263 129.277479 
L 668.335644 129.233601 
L 667.710025 129.165787 
L 667.084406 128.966186 
L 666.458787 128.840918 
L 665.833168 128.607535 
L 665.207549 128.536918 
L 664.58193 128.400614 
L 663.956311 128.496817 
L 663.330692 128.511175 
L 662.705073 128.355268 
L 662.079454 128.145744 
L 661.453835 128.1818 
L 660.828216 127.935574 
L 660.202597 127.953418 
L 659.576978 127.791753 
L 658.951359 127.813285 
L 658.32574 127.885315 
L 657.700121 127.953755 
L 657.074502 128.029027 
L 656.448883 128.057348 
L 655.823265 127.971955 
L 655.197646 127.766321 
L 654.572027 127.601206 
L 653.946408 127.56558 
L 653.320789 127.483718 
L 652.69517 127.486309 
L 652.069551 127.289319 
L 651.443932 127.346299 
L 650.818313 127.135838 
L 650.192694 127.157193 
L 649.567075 127.120912 
L 648.941456 127.481452 
L 648.315837 127.486073 
L 647.690218 127.481128 
L 647.064599 127.535247 
L 646.43898 127.583186 
L 645.813361 127.671216 
L 645.187742 127.502944 
L 644.562123 127.538607 
L 643.936504 127.496216 
L 643.310885 127.524779 
L 642.685266 127.514778 
L 642.059647 127.367268 
L 641.434028 127.428441 
L 640.808409 127.40279 
L 640.18279 127.351056 
L 639.557171 127.26654 
L 638.931552 127.235948 
L 638.305933 127.268331 
L 637.680314 127.228396 
L 637.054695 127.272202 
L 636.429076 127.276585 
L 635.803457 127.303312 
L 635.177838 127.334502 
L 634.552219 127.225947 
L 633.9266 127.180906 
L 633.300981 127.059382 
L 632.675362 127.023169 
L 632.049743 126.976888 
L 631.424124 126.974682 
L 630.798505 126.912486 
L 630.172886 126.967871 
L 629.547267 127.101742 
L 628.921648 127.264041 
L 628.296029 127.284281 
L 627.67041 127.353455 
L 627.044791 127.275957 
L 626.419172 127.313966 
L 625.793553 127.342576 
L 625.167934 127.418366 
L 624.542315 127.376467 
L 623.916696 127.705091 
L 623.291077 127.728598 
L 622.665458 127.738411 
L 622.039839 127.600931 
L 621.41422 127.453495 
L 620.788601 128.033176 
L 620.162982 127.954581 
L 619.537363 127.998841 
L 618.911744 128.095726 
L 618.286125 128.092107 
L 617.660506 127.873702 
L 617.034887 127.870038 
L 616.409268 127.7956 
L 615.783649 127.907374 
L 615.15803 127.809702 
L 614.532411 127.567785 
L 613.906792 127.728636 
L 613.281174 127.810362 
L 612.655555 127.915817 
L 612.029936 127.990507 
L 611.404317 128.032036 
L 610.778698 127.879227 
L 610.153079 127.834253 
L 609.52746 127.853698 
L 608.901841 127.822118 
L 608.276222 127.530112 
L 607.650603 127.389331 
L 607.024984 127.298839 
L 606.399365 127.446868 
L 605.773746 127.497879 
L 605.148127 127.61311 
L 604.522508 127.597991 
L 603.896889 127.512912 
L 603.27127 127.346953 
L 602.645651 127.502958 
L 602.020032 127.358766 
L 601.394413 127.398437 
L 600.768794 127.202689 
L 600.143175 127.294445 
L 599.517556 127.373402 
L 598.891937 127.368388 
L 598.266318 127.276097 
L 597.640699 127.39534 
L 597.01508 127.553697 
L 596.389461 127.283635 
L 595.763842 127.146484 
L 595.138223 127.266245 
L 594.512604 127.324758 
L 593.886985 127.364813 
L 593.261366 127.261845 
L 592.635747 126.931001 
L 592.010128 126.65723 
L 591.384509 126.691052 
L 590.75889 126.498429 
L 590.133271 126.334044 
L 589.507652 126.471297 
L 588.882033 126.420654 
L 588.256414 126.36335 
L 587.630795 126.252486 
L 587.005176 126.262911 
L 586.379557 126.362559 
L 585.753938 126.34487 
L 585.128319 126.320422 
L 584.5027 126.417742 
L 583.877081 126.694547 
L 583.251462 126.797124 
L 582.625843 126.615927 
L 582.000224 126.462351 
L 581.374605 126.600335 
L 580.748986 126.741277 
L 580.123367 126.845367 
L 579.497748 126.80804 
L 578.872129 126.636797 
L 578.24651 126.637378 
L 577.620891 126.565793 
L 576.995272 126.376285 
L 576.369653 126.547385 
L 575.744034 126.443758 
L 575.118415 126.64442 
L 574.492796 126.646471 
L 573.867177 126.680383 
L 573.241558 126.654073 
L 572.615939 126.663979 
L 571.99032 126.589503 
L 571.364701 126.568192 
L 570.739083 126.512264 
L 570.113464 126.561372 
L 569.487845 126.361596 
L 568.862226 126.248251 
L 568.236607 126.040433 
L 567.610988 125.982803 
L 566.985369 126.083935 
L 566.35975 126.099448 
L 565.734131 125.791812 
L 565.108512 125.655311 
L 564.482893 125.603753 
L 563.857274 125.551461 
L 563.231655 125.624102 
L 562.606036 125.314121 
L 561.980417 125.578497 
L 561.354798 125.568202 
L 560.729179 125.575844 
L 560.10356 124.881816 
L 559.477941 124.85634 
L 558.852322 125.199089 
L 558.226703 125.196718 
L 557.601084 125.199245 
L 556.975465 125.366768 
L 556.349846 125.654419 
L 555.724227 125.558549 
L 555.098608 125.428782 
L 554.472989 125.293303 
L 553.84737 125.023936 
L 553.221751 124.933658 
L 552.596132 124.868669 
L 551.970513 124.972838 
L 551.344894 125.033705 
L 550.719275 125.132079 
L 550.093656 125.187071 
L 549.468037 125.365571 
L 548.842418 125.236949 
L 548.216799 125.348673 
L 547.59118 125.172893 
L 546.965561 125.276894 
L 546.339942 125.225479 
L 545.714323 125.329149 
L 545.088704 125.340053 
L 544.463085 125.416555 
L 543.837466 125.335211 
L 543.211847 125.009429 
L 542.586228 124.995081 
L 541.960609 124.663714 
L 541.33499 124.753617 
L 540.709371 124.691123 
L 540.083752 124.753954 
L 539.458133 124.755795 
L 538.832514 124.793078 
L 538.206895 124.906185 
L 537.581276 124.930028 
L 536.955657 125.048177 
L 536.330038 125.060817 
L 535.704419 124.993924 
L 535.0788 125.003883 
L 534.453181 124.986034 
L 533.827562 124.971237 
L 533.201943 125.187337 
L 532.576324 125.021569 
L 531.950705 125.240709 
L 531.325086 125.273139 
L 530.699467 125.132787 
L 530.073848 124.949194 
L 529.448229 125.023148 
L 528.82261 125.069731 
L 528.196991 124.944563 
L 527.571373 124.763901 
L 526.945754 124.566752 
L 526.320135 124.690526 
L 525.694516 124.65546 
L 525.068897 124.07051 
L 524.443278 123.905615 
L 523.817659 123.656081 
L 523.19204 123.531406 
L 522.566421 123.728695 
L 521.940802 123.931368 
L 521.315183 124.240167 
L 520.689564 124.059871 
L 520.063945 124.02013 
L 519.438326 124.132716 
L 518.812707 124.257509 
L 518.187088 124.229998 
L 517.561469 124.112601 
L 516.93585 124.202439 
L 516.310231 124.199499 
L 515.684612 124.177187 
L 515.058993 124.420892 
L 514.433374 124.622794 
L 513.807755 124.724702 
L 513.182136 124.577962 
L 512.556517 124.539234 
L 511.930898 124.662632 
L 511.305279 124.51253 
L 510.67966 124.796229 
L 510.054041 124.754723 
L 509.428422 124.91881 
L 508.802803 124.949909 
L 508.177184 124.642886 
L 507.551565 124.836139 
L 506.925946 124.762299 
L 506.300327 124.630331 
L 505.674708 124.481574 
L 505.049089 124.571005 
L 504.42347 124.268443 
L 503.797851 124.344683 
L 503.172232 124.162089 
L 502.546613 123.746144 
L 501.920994 123.855463 
L 501.295375 123.799661 
L 500.669756 123.656631 
L 500.044137 123.763751 
L 499.418518 123.711693 
L 498.792899 123.728881 
L 498.16728 123.834248 
L 497.541661 123.943376 
L 496.916042 124.126103 
L 496.290423 123.986665 
L 495.664804 124.068638 
L 495.039185 123.888657 
L 494.413566 123.554432 
L 493.787947 123.518454 
L 493.162328 123.492224 
L 492.536709 123.434731 
L 491.91109 123.479161 
L 491.285471 123.62427 
L 490.659852 123.656612 
L 490.034233 123.481566 
L 489.408614 123.543205 
L 488.782995 123.53249 
L 488.157376 123.261253 
L 487.531757 123.298803 
L 486.906138 123.215063 
L 486.280519 123.21798 
L 485.6549 123.245631 
L 485.029282 123.162101 
L 484.403663 123.235088 
L 483.778044 123.265147 
L 483.152425 123.327833 
L 482.526806 123.155891 
L 481.901187 123.112349 
L 481.275568 123.176034 
L 480.649949 123.301414 
L 480.02433 123.252857 
L 479.398711 123.300306 
L 478.773092 123.52921 
L 478.147473 123.454884 
L 477.521854 123.36304 
L 476.896235 123.330588 
L 476.270616 123.447071 
L 475.644997 123.485623 
L 475.019378 123.283694 
L 474.393759 123.312654 
L 473.76814 123.592426 
L 473.142521 123.645172 
L 472.516902 123.334862 
L 471.891283 123.263136 
L 471.265664 123.125777 
L 470.640045 123.195405 
L 470.014426 123.366298 
L 469.388807 122.762946 
L 468.763188 122.869017 
L 468.137569 122.778072 
L 467.51195 122.846868 
L 466.886331 122.887177 
L 466.260712 123.303272 
L 465.635093 123.044614 
L 465.009474 122.86063 
L 464.383855 122.893255 
L 463.758236 122.802759 
L 463.132617 122.778762 
L 462.506998 122.633506 
L 461.881379 122.260424 
L 461.25576 122.352892 
L 460.630141 122.209733 
L 460.004522 122.518198 
L 459.378903 122.198562 
L 458.753284 122.1597 
L 458.127665 122.143529 
L 457.502046 122.297634 
L 456.876427 122.201209 
L 456.250808 122.123359 
L 455.625189 122.217086 
L 454.99957 122.081067 
L 454.373951 121.836728 
L 453.748332 121.901366 
L 453.122713 121.872725 
L 452.497094 121.721352 
L 451.871475 121.774285 
L 451.245856 121.532498 
L 450.620237 121.5155 
L 449.994618 121.436875 
L 449.368999 121.742921 
L 448.74338 121.904418 
L 448.117761 121.797382 
L 447.492142 121.574358 
L 446.866523 120.902464 
L 446.240904 121.027016 
L 445.615285 120.799993 
L 444.989666 120.917624 
L 444.364047 120.617517 
L 443.738428 120.750883 
L 443.112809 120.871738 
L 442.487191 121.076078 
L 441.861572 121.249291 
L 441.235953 121.541225 
L 440.610334 121.408824 
L 439.984715 121.30861 
L 439.359096 121.275258 
L 438.733477 121.508044 
L 438.107858 121.512412 
L 437.482239 121.735713 
L 436.85662 121.939661 
L 436.231001 122.190873 
L 435.605382 122.10496 
L 434.979763 121.901213 
L 434.354144 121.900509 
L 433.728525 121.626851 
L 433.102906 120.643809 
L 432.477287 120.25588 
L 431.851668 120.027883 
L 431.226049 119.946177 
L 430.60043 120.504242 
L 429.974811 120.484475 
L 429.349192 120.526622 
L 428.723573 120.42131 
L 428.097954 120.492894 
L 427.472335 120.435168 
L 426.846716 120.70677 
L 426.221097 120.780182 
L 425.595478 120.787216 
L 424.969859 120.858611 
L 424.34424 120.889726 
L 423.718621 120.896531 
L 423.093002 120.807962 
L 422.467383 120.765175 
L 421.841764 120.5637 
L 421.216145 120.424821 
L 420.590526 120.38167 
L 419.964907 120.424774 
L 419.339288 120.263461 
L 418.713669 120.511837 
L 418.08805 120.261721 
L 417.462431 120.255373 
L 416.836812 120.303641 
L 416.211193 120.314874 
L 415.585574 120.4154 
L 414.959955 120.642068 
L 414.334336 121.085163 
L 413.708717 121.010867 
L 413.083098 121.05819 
L 412.457479 120.991331 
L 411.83186 120.875253 
L 411.206241 120.959358 
L 410.580622 121.011333 
L 409.955003 120.880666 
L 409.329384 120.490903 
L 408.703765 120.623198 
L 408.078146 120.640022 
L 407.452527 120.134297 
L 406.826908 119.623725 
L 406.201289 120.054572 
L 405.57567 120.266131 
L 404.950051 120.431936 
L 404.324432 120.374777 
L 403.698813 120.491352 
L 403.073194 120.596304 
L 402.447575 120.363208 
L 401.821956 120.33056 
L 401.196337 119.71245 
L 400.570718 119.121336 
L 399.9451 119.198076 
L 399.319481 119.092267 
L 398.693862 118.906559 
L 398.068243 118.546093 
L 397.442624 118.827606 
L 396.817005 118.850815 
L 396.191386 119.242925 
L 395.565767 119.011061 
L 394.940148 119.002306 
L 394.314529 119.305646 
L 393.68891 119.355484 
L 393.063291 119.298026 
L 392.437672 119.408317 
L 391.812053 119.718161 
L 391.186434 120.020339 
L 390.560815 119.867188 
L 389.935196 120.132372 
L 389.309577 120.210203 
L 388.683958 119.758354 
L 388.058339 119.968172 
L 387.43272 120.023575 
L 386.807101 119.847503 
L 386.181482 120.119667 
L 385.555863 119.840209 
L 384.930244 119.450048 
L 384.304625 119.494774 
L 383.679006 119.584995 
L 383.053387 119.572966 
L 382.427768 119.428154 
L 381.802149 119.0752 
L 381.17653 118.777261 
L 380.550911 118.585344 
L 379.925292 118.446013 
L 379.299673 118.289913 
L 378.674054 118.162211 
L 378.048435 118.142449 
L 377.422816 118.25432 
L 376.797197 117.810289 
L 376.171578 117.786992 
L 375.545959 117.564925 
L 374.92034 117.524229 
L 374.294721 117.626436 
L 373.669102 117.823119 
L 373.043483 118.254213 
L 372.417864 118.271289 
L 371.792245 118.466414 
L 371.166626 118.322841 
L 370.541007 118.088932 
L 369.915388 118.165425 
L 369.289769 118.174144 
L 368.66415 118.608879 
L 368.038531 118.598869 
L 367.412912 117.882285 
L 366.787293 118.012695 
L 366.161674 117.758191 
L 365.536055 118.171352 
L 364.910436 118.209178 
L 364.284817 118.243103 
L 363.659198 118.705956 
L 363.033579 118.656702 
L 362.40796 118.719281 
L 361.782341 118.461777 
L 361.156722 118.413008 
L 360.531103 117.938414 
L 359.905484 117.596914 
L 359.279865 117.786568 
L 358.654246 117.73444 
L 358.028627 117.735009 
L 357.403009 117.331445 
L 356.77739 117.399596 
L 356.151771 117.271422 
L 355.526152 116.76997 
L 354.900533 116.869999 
L 354.274914 116.701287 
L 353.649295 116.316331 
L 353.023676 116.354636 
L 352.398057 116.085777 
L 351.772438 115.576418 
L 351.146819 114.756989 
L 350.5212 114.292629 
L 349.895581 114.418196 
L 349.269962 114.584162 
L 348.644343 114.702292 
L 348.018724 115.112874 
L 347.393105 115.185527 
L 346.767486 114.744671 
L 346.141867 114.855859 
L 345.516248 114.280141 
L 344.890629 113.903405 
L 344.26501 113.698495 
L 343.639391 113.674152 
L 343.013772 114.093122 
L 342.388153 114.152499 
L 341.762534 114.529386 
L 341.136915 114.727144 
L 340.511296 115.052129 
L 339.885677 115.001774 
L 339.260058 115.409869 
L 338.634439 115.618002 
L 338.00882 115.872351 
L 337.383201 116.226697 
L 336.757582 116.223327 
L 336.131963 115.977823 
L 335.506344 115.892043 
L 334.880725 115.842741 
L 334.255106 115.446776 
L 333.629487 115.638648 
L 333.003868 115.107652 
L 332.378249 114.684731 
L 331.75263 114.651656 
L 331.127011 115.109919 
L 330.501392 115.130074 
L 329.875773 114.855855 
L 329.250154 114.860843 
L 328.624535 114.416708 
L 327.998916 113.893283 
L 327.373297 113.972845 
L 326.747678 113.778497 
L 326.122059 113.764774 
L 325.49644 113.815239 
L 324.870821 113.743784 
L 324.245202 113.960436 
L 323.619583 114.070835 
L 322.993964 114.498368 
L 322.368345 113.530895 
L 321.742726 113.86524 
L 321.117107 113.905873 
L 320.491488 113.421072 
L 319.865869 112.791226 
L 319.24025 112.147818 
L 318.614631 111.737611 
L 317.989012 111.755098 
L 317.363393 111.583371 
L 316.737774 111.177785 
L 316.112155 111.084512 
L 315.486536 111.21744 
L 314.860917 111.24726 
L 314.235299 111.10184 
L 313.60968 111.399364 
L 312.984061 111.034249 
L 312.358442 111.189888 
L 311.732823 111.157036 
L 311.107204 111.090369 
L 310.481585 110.734601 
L 309.855966 110.069207 
L 309.230347 109.54393 
L 308.604728 109.542312 
L 307.979109 109.819202 
L 307.35349 109.30823 
L 306.727871 109.511263 
L 306.102252 109.668208 
L 305.476633 109.78657 
L 304.851014 110.265268 
L 304.225395 110.817287 
L 303.599776 110.430218 
L 302.974157 110.71326 
L 302.348538 110.627022 
L 301.722919 110.835324 
L 301.0973 110.715246 
L 300.471681 110.809106 
L 299.846062 110.789034 
L 299.220443 110.299214 
L 298.594824 111.15792 
L 297.969205 111.42843 
L 297.343586 110.923013 
L 296.717967 110.644893 
L 296.092348 111.224105 
L 295.466729 110.839368 
L 294.84111 110.695856 
L 294.215491 110.441691 
L 293.589872 110.309813 
L 292.964253 110.242748 
L 292.338634 110.202397 
L 291.713015 110.209416 
L 291.087396 110.237238 
L 290.461777 110.190348 
L 289.836158 110.311637 
L 289.210539 110.017553 
L 288.58492 109.442938 
L 287.959301 108.991314 
L 287.333682 109.041459 
L 286.708063 108.830589 
L 286.082444 108.386177 
L 285.456825 108.369155 
L 284.831206 108.729368 
L 284.205587 108.925796 
L 283.579968 108.812598 
L 282.954349 108.173426 
L 282.32873 108.401987 
L 281.703111 108.527921 
L 281.077492 108.47777 
L 280.451873 108.023419 
L 279.826254 107.333433 
L 279.200635 107.303942 
L 278.575016 107.575154 
L 277.949397 107.149148 
L 277.323778 107.483609 
L 276.698159 107.867343 
L 276.07254 107.413464 
L 275.446921 108.126765 
L 274.821302 108.432104 
L 274.195683 108.95051 
L 273.570064 110.992412 
L 272.944445 111.207653 
L 272.318826 111.040368 
L 271.693208 110.697441 
L 271.067589 111.021352 
L 270.44197 111.181283 
L 269.816351 111.352481 
L 269.190732 110.384481 
L 268.565113 109.928108 
L 267.939494 109.850377 
L 267.313875 109.511639 
L 266.688256 110.025582 
L 266.062637 109.303965 
L 265.437018 109.006049 
L 264.811399 109.335614 
L 264.18578 109.486217 
L 263.560161 109.839625 
L 262.934542 109.29027 
L 262.308923 109.702604 
L 261.683304 109.912343 
L 261.057685 109.62917 
L 260.432066 109.400412 
L 259.806447 109.631285 
L 259.180828 108.35683 
L 258.555209 108.740727 
L 257.92959 108.303471 
L 257.303971 108.936947 
L 256.678352 109.072402 
L 256.052733 109.629409 
L 255.427114 109.862739 
L 254.801495 109.437662 
L 254.175876 109.777892 
L 253.550257 109.789053 
L 252.924638 109.454324 
L 252.299019 109.042536 
L 251.6734 109.327578 
L 251.047781 109.874703 
L 250.422162 110.20457 
L 249.796543 109.823948 
L 249.170924 108.222163 
L 248.545305 108.24285 
L 247.919686 108.233812 
L 247.294067 107.638305 
L 246.668448 107.980697 
L 246.042829 108.161796 
L 245.41721 107.27755 
L 244.791591 107.835281 
L 244.165972 107.927804 
L 243.540353 108.383035 
L 242.914734 107.92925 
L 242.289115 108.16021 
L 241.663496 107.893544 
L 241.037877 108.132491 
L 240.412258 107.396532 
L 239.786639 107.423417 
L 239.16102 107.444388 
L 238.535401 107.956826 
L 237.909782 107.90151 
L 237.284163 106.15226 
L 236.658544 105.632384 
L 236.032925 106.560843 
L 235.407306 105.198861 
L 234.781687 103.949488 
L 234.156068 104.400294 
L 233.530449 105.950152 
L 232.90483 105.820739 
L 232.279211 105.520163 
L 231.653592 106.106067 
L 231.027973 107.117948 
L 230.402354 107.899131 
L 229.776735 107.619734 
L 229.151117 106.905705 
L 228.525498 106.78373 
L 227.899879 106.309922 
L 227.27426 106.310095 
L 226.648641 106.868962 
L 226.023022 107.424233 
L 225.397403 107.576956 
L 224.771784 107.975108 
L 224.146165 107.412541 
L 223.520546 105.453143 
L 222.894927 104.74743 
L 222.269308 104.633134 
L 221.643689 105.11447 
L 221.01807 105.043972 
L 220.392451 102.58747 
L 219.766832 102.082679 
L 219.141213 101.390631 
L 218.515594 100.650229 
L 217.889975 100.926477 
L 217.264356 101.939733 
L 216.638737 102.7643 
L 216.013118 103.088604 
L 215.387499 103.139724 
L 214.76188 102.991583 
L 214.136261 103.466364 
L 213.510642 103.972879 
L 212.885023 103.892356 
L 212.259404 104.601603 
L 211.633785 103.829255 
L 211.008166 104.410341 
L 210.382547 103.568899 
L 209.756928 103.008664 
L 209.131309 103.855056 
L 208.50569 103.186403 
L 207.880071 102.673337 
L 207.254452 102.07434 
L 206.628833 102.282734 
L 206.003214 102.843805 
L 205.377595 102.321707 
L 204.751976 102.887466 
L 204.126357 102.441744 
L 203.500738 103.135375 
L 202.875119 102.242106 
L 202.2495 100.208401 
L 201.623881 100.232766 
L 200.998262 99.980519 
L 200.372643 98.148342 
L 199.747024 97.294606 
L 199.121405 95.690874 
L 198.495786 98.126594 
L 197.870167 98.356713 
L 197.244548 98.582365 
L 196.618929 97.570877 
L 195.99331 97.425481 
L 195.367691 97.355512 
L 194.742072 97.045069 
L 194.116453 97.158851 
L 193.490834 96.452511 
L 192.865215 95.116475 
L 192.239596 95.278515 
L 191.613977 94.759764 
L 190.988358 94.948809 
L 190.362739 94.801563 
L 189.73712 93.167763 
L 189.111501 93.150622 
L 188.485882 92.734279 
L 187.860263 92.841106 
L 187.234644 93.657275 
L 186.609026 93.279682 
L 185.983407 93.659324 
L 185.357788 93.703388 
L 184.732169 95.32679 
L 184.10655 93.225652 
L 183.480931 93.020918 
L 182.855312 92.384601 
L 182.229693 92.692992 
L 181.604074 93.088475 
L 180.978455 94.238915 
L 180.352836 93.884355 
L 179.727217 93.982646 
L 179.101598 91.332352 
L 178.475979 91.223506 
L 177.85036 90.653883 
L 177.224741 90.276998 
L 176.599122 97.949867 
L 175.973503 98.07364 
L 175.347884 97.809975 
L 174.722265 97.403024 
L 174.096646 97.465374 
L 173.471027 97.996183 
L 172.845408 98.601245 
L 172.219789 96.918731 
L 171.59417 97.57444 
L 170.968551 98.428999 
L 170.342932 98.583678 
L 169.717313 97.389144 
L 169.091694 96.912152 
L 168.466075 94.822343 
L 167.840456 95.152761 
L 167.214837 92.85159 
L 166.589218 93.353042 
L 165.963599 89.589983 
L 165.33798 88.363092 
L 164.712361 88.975306 
L 164.086742 90.447604 
L 163.461123 91.28862 
L 162.835504 91.47179 
L 162.209885 90.854462 
L 161.584266 90.560786 
L 160.958647 88.511863 
L 160.333028 87.433918 
L 159.707409 80.149933 
L 159.08179 81.297861 
L 158.456171 77.352787 
L 157.830552 89.122318 
L 157.204933 84.443658 
L 156.579314 83.841457 
L 155.953695 80.403958 
L 155.328076 75.685506 
L 154.702457 75.048077 
L 154.076838 73.366897 
L 153.451219 72.680396 
L 152.8256 66.214527 
L 152.199981 69.29268 
L 151.574362 76.255167 
L 150.948743 77.405414 
L 150.323124 76.228998 
L 149.697505 72.200199 
L 149.071886 83.650335 
L 148.446267 80.059822 
L 147.820648 74.485774 
L 147.195029 78.115926 
L 146.56941 72.53737 
L 145.943791 75.833403 
L 145.318172 77.071519 
L 144.692553 67.230145 
L 144.066935 62.848845 
L 143.441316 56.109582 
L 142.815697 66.229141 
L 142.190078 53.592408 
L 141.564459 63.859615 
L 140.93884 57.675028 
L 140.313221 59.922605 
L 139.687602 45.547465 
L 139.061983 48.715931 
L 138.436364 75.074381 
z
" clip-path="url(#pe41e67bebd)" style="fill: #1f77b4; fill-opacity: 0.5"/>
   </g>
   <g id="matplotlib.axis_1">
    <g id="xtick_1">
     <g id="line2d_1">
      <defs>
       <path id="mba478f8dca" d="M 0 0 
L 0 3.5 
" style="stroke: #000000; stroke-width: 0.8"/>
      </defs>
      <g>
       <use xlink:href="#mba478f8dca" x="138.436364" y="256.32" style="stroke: #000000; stroke-width: 0.8"/>
      </g>
     </g>
     <g id="text_1">
      <!-- 0.0 -->
      <g transform="translate(130.484801 270.918437) scale(0.1 -0.1)">
       <defs>
        <path id="DejaVuSans-30" d="M 2034 4250 
Q 1547 4250 1301 3770 
Q 1056 3291 1056 2328 
Q 1056 1369 1301 889 
Q 1547 409 2034 409 
Q 2525 409 2770 889 
Q 3016 1369 3016 2328 
Q 3016 3291 2770 3770 
Q 2525 4250 2034 4250 
z
M 2034 4750 
Q 2819 4750 3233 4129 
Q 3647 3509 3647 2328 
Q 3647 1150 3233 529 
Q 2819 -91 2034 -91 
Q 1250 -91 836 529 
Q 422 1150 422 2328 
Q 422 3509 836 4129 
Q 1250 4750 2034 4750 
z
" transform="scale(0.015625)"/>
        <path id="DejaVuSans-2e" d="M 684 794 
L 1344 794 
L 1344 0 
L 684 0 
L 684 794 
z
" transform="scale(0.015625)"/>
       </defs>
       <use xlink:href="#DejaVuSans-30"/>
       <use xlink:href="#DejaVuSans-2e" transform="translate(63.623047 0)"/>
       <use xlink:href="#DejaVuSans-30" transform="translate(95.410156 0)"/>
      </g>
     </g>
    </g>
    <g id="xtick_2">
     <g id="line2d_2">
      <g>
       <use xlink:href="#mba478f8dca" x="263.560161" y="256.32" style="stroke: #000000; stroke-width: 0.8"/>
      </g>
     </g>
     <g id="text_2">
      <!-- 0.2 -->
      <g transform="translate(255.608598 270.918437) scale(0.1 -0.1)">
       <defs>
        <path id="DejaVuSans-32" d="M 1228 531 
L 3431 531 
L 3431 0 
L 469 0 
L 469 531 
Q 828 903 1448 1529 
Q 2069 2156 2228 2338 
Q 2531 2678 2651 2914 
Q 2772 3150 2772 3378 
Q 2772 3750 2511 3984 
Q 2250 4219 1831 4219 
Q 1534 4219 1204 4116 
Q 875 4013 500 3803 
L 500 4441 
Q 881 4594 1212 4672 
Q 1544 4750 1819 4750 
Q 2544 4750 2975 4387 
Q 3406 4025 3406 3419 
Q 3406 3131 3298 2873 
Q 3191 2616 2906 2266 
Q 2828 2175 2409 1742 
Q 1991 1309 1228 531 
z
" transform="scale(0.015625)"/>
       </defs>
       <use xlink:href="#DejaVuSans-30"/>
       <use xlink:href="#DejaVuSans-2e" transform="translate(63.623047 0)"/>
       <use xlink:href="#DejaVuSans-32" transform="translate(95.410156 0)"/>
      </g>
     </g>
    </g>
    <g id="xtick_3">
     <g id="line2d_3">
      <g>
       <use xlink:href="#mba478f8dca" x="388.683958" y="256.32" style="stroke: #000000; stroke-width: 0.8"/>
      </g>
     </g>
     <g id="text_3">
      <!-- 0.4 -->
      <g transform="translate(380.732395 270.918437) scale(0.1 -0.1)">
       <defs>
        <path id="DejaVuSans-34" d="M 2419 4116 
L 825 1625 
L 2419 1625 
L 2419 4116 
z
M 2253 4666 
L 3047 4666 
L 3047 1625 
L 3713 1625 
L 3713 1100 
L 3047 1100 
L 3047 0 
L 2419 0 
L 2419 1100 
L 313 1100 
L 313 1709 
L 2253 4666 
z
" transform="scale(0.015625)"/>
       </defs>
       <use xlink:href="#DejaVuSans-30"/>
       <use xlink:href="#DejaVuSans-2e" transform="translate(63.623047 0)"/>
       <use xlink:href="#DejaVuSans-34" transform="translate(95.410156 0)"/>
      </g>
     </g>
    </g>
    <g id="xtick_4">
     <g id="line2d_4">
      <g>
       <use xlink:href="#mba478f8dca" x="513.807755" y="256.32" style="stroke: #000000; stroke-width: 0.8"/>
      </g>
     </g>
     <g id="text_4">
      <!-- 0.6 -->
      <g transform="translate(505.856192 270.918437) scale(0.1 -0.1)">
       <defs>
        <path id="DejaVuSans-36" d="M 2113 2584 
Q 1688 2584 1439 2293 
Q 1191 2003 1191 1497 
Q 1191 994 1439 701 
Q 1688 409 2113 409 
Q 2538 409 2786 701 
Q 3034 994 3034 1497 
Q 3034 2003 2786 2293 
Q 2538 2584 2113 2584 
z
M 3366 4563 
L 3366 3988 
Q 3128 4100 2886 4159 
Q 2644 4219 2406 4219 
Q 1781 4219 1451 3797 
Q 1122 3375 1075 2522 
Q 1259 2794 1537 2939 
Q 1816 3084 2150 3084 
Q 2853 3084 3261 2657 
Q 3669 2231 3669 1497 
Q 3669 778 3244 343 
Q 2819 -91 2113 -91 
Q 1303 -91 875 529 
Q 447 1150 447 2328 
Q 447 3434 972 4092 
Q 1497 4750 2381 4750 
Q 2619 4750 2861 4703 
Q 3103 4656 3366 4563 
z
" transform="scale(0.015625)"/>
       </defs>
       <use xlink:href="#DejaVuSans-30"/>
       <use xlink:href="#DejaVuSans-2e" transform="translate(63.623047 0)"/>
       <use xlink:href="#DejaVuSans-36" transform="translate(95.410156 0)"/>
      </g>
     </g>
    </g>
    <g id="xtick_5">
     <g id="line2d_5">
      <g>
       <use xlink:href="#mba478f8dca" x="638.931552" y="256.32" style="stroke: #000000; stroke-width: 0.8"/>
      </g>
     </g>
     <g id="text_5">
      <!-- 0.8 -->
      <g transform="translate(630.979989 270.918437) scale(0.1 -0.1)">
       <defs>
        <path id="DejaVuSans-38" d="M 2034 2216 
Q 1584 2216 1326 1975 
Q 1069 1734 1069 1313 
Q 1069 891 1326 650 
Q 1584 409 2034 409 
Q 2484 409 2743 651 
Q 3003 894 3003 1313 
Q 3003 1734 2745 1975 
Q 2488 2216 2034 2216 
z
M 1403 2484 
Q 997 2584 770 2862 
Q 544 3141 544 3541 
Q 544 4100 942 4425 
Q 1341 4750 2034 4750 
Q 2731 4750 3128 4425 
Q 3525 4100 3525 3541 
Q 3525 3141 3298 2862 
Q 3072 2584 2669 2484 
Q 3125 2378 3379 2068 
Q 3634 1759 3634 1313 
Q 3634 634 3220 271 
Q 2806 -91 2034 -91 
Q 1263 -91 848 271 
Q 434 634 434 1313 
Q 434 1759 690 2068 
Q 947 2378 1403 2484 
z
M 1172 3481 
Q 1172 3119 1398 2916 
Q 1625 2713 2034 2713 
Q 2441 2713 2670 2916 
Q 2900 3119 2900 3481 
Q 2900 3844 2670 4047 
Q 2441 4250 2034 4250 
Q 1625 4250 1398 4047 
Q 1172 3844 1172 3481 
z
" transform="scale(0.015625)"/>
       </defs>
       <use xlink:href="#DejaVuSans-30"/>
       <use xlink:href="#DejaVuSans-2e" transform="translate(63.623047 0)"/>
       <use xlink:href="#DejaVuSans-38" transform="translate(95.410156 0)"/>
      </g>
     </g>
    </g>
    <g id="xtick_6">
     <g id="line2d_6">
      <g>
       <use xlink:href="#mba478f8dca" x="764.055349" y="256.32" style="stroke: #000000; stroke-width: 0.8"/>
      </g>
     </g>
     <g id="text_6">
      <!-- 1.0 -->
      <g transform="translate(756.103786 270.918437) scale(0.1 -0.1)">
       <defs>
        <path id="DejaVuSans-31" d="M 794 531 
L 1825 531 
L 1825 4091 
L 703 3866 
L 703 4441 
L 1819 4666 
L 2450 4666 
L 2450 531 
L 3481 531 
L 3481 0 
L 794 0 
L 794 531 
z
" transform="scale(0.015625)"/>
       </defs>
       <use xlink:href="#DejaVuSans-31"/>
       <use xlink:href="#DejaVuSans-2e" transform="translate(63.623047 0)"/>
       <use xlink:href="#DejaVuSans-30" transform="translate(95.410156 0)"/>
      </g>
     </g>
    </g>
    <g id="text_7">
     <!-- nTokens -->
     <g transform="translate(422.803906 284.596563) scale(0.1 -0.1)">
      <defs>
       <path id="DejaVuSans-6e" d="M 3513 2113 
L 3513 0 
L 2938 0 
L 2938 2094 
Q 2938 2591 2744 2837 
Q 2550 3084 2163 3084 
Q 1697 3084 1428 2787 
Q 1159 2491 1159 1978 
L 1159 0 
L 581 0 
L 581 3500 
L 1159 3500 
L 1159 2956 
Q 1366 3272 1645 3428 
Q 1925 3584 2291 3584 
Q 2894 3584 3203 3211 
Q 3513 2838 3513 2113 
z
" transform="scale(0.015625)"/>
       <path id="DejaVuSans-54" d="M -19 4666 
L 3928 4666 
L 3928 4134 
L 2272 4134 
L 2272 0 
L 1638 0 
L 1638 4134 
L -19 4134 
L -19 4666 
z
" transform="scale(0.015625)"/>
       <path id="DejaVuSans-6f" d="M 1959 3097 
Q 1497 3097 1228 2736 
Q 959 2375 959 1747 
Q 959 1119 1226 758 
Q 1494 397 1959 397 
Q 2419 397 2687 759 
Q 2956 1122 2956 1747 
Q 2956 2369 2687 2733 
Q 2419 3097 1959 3097 
z
M 1959 3584 
Q 2709 3584 3137 3096 
Q 3566 2609 3566 1747 
Q 3566 888 3137 398 
Q 2709 -91 1959 -91 
Q 1206 -91 779 398 
Q 353 888 353 1747 
Q 353 2609 779 3096 
Q 1206 3584 1959 3584 
z
" transform="scale(0.015625)"/>
       <path id="DejaVuSans-6b" d="M 581 4863 
L 1159 4863 
L 1159 1991 
L 2875 3500 
L 3609 3500 
L 1753 1863 
L 3688 0 
L 2938 0 
L 1159 1709 
L 1159 0 
L 581 0 
L 581 4863 
z
" transform="scale(0.015625)"/>
       <path id="DejaVuSans-65" d="M 3597 1894 
L 3597 1613 
L 953 1613 
Q 991 1019 1311 708 
Q 1631 397 2203 397 
Q 2534 397 2845 478 
Q 3156 559 3463 722 
L 3463 178 
Q 3153 47 2828 -22 
Q 2503 -91 2169 -91 
Q 1331 -91 842 396 
Q 353 884 353 1716 
Q 353 2575 817 3079 
Q 1281 3584 2069 3584 
Q 2775 3584 3186 3129 
Q 3597 2675 3597 1894 
z
M 3022 2063 
Q 3016 2534 2758 2815 
Q 2500 3097 2075 3097 
Q 1594 3097 1305 2825 
Q 1016 2553 972 2059 
L 3022 2063 
z
" transform="scale(0.015625)"/>
       <path id="DejaVuSans-73" d="M 2834 3397 
L 2834 2853 
Q 2591 2978 2328 3040 
Q 2066 3103 1784 3103 
Q 1356 3103 1142 2972 
Q 928 2841 928 2578 
Q 928 2378 1081 2264 
Q 1234 2150 1697 2047 
L 1894 2003 
Q 2506 1872 2764 1633 
Q 3022 1394 3022 966 
Q 3022 478 2636 193 
Q 2250 -91 1575 -91 
Q 1294 -91 989 -36 
Q 684 19 347 128 
L 347 722 
Q 666 556 975 473 
Q 1284 391 1588 391 
Q 1994 391 2212 530 
Q 2431 669 2431 922 
Q 2431 1156 2273 1281 
Q 2116 1406 1581 1522 
L 1381 1569 
Q 847 1681 609 1914 
Q 372 2147 372 2553 
Q 372 3047 722 3315 
Q 1072 3584 1716 3584 
Q 2034 3584 2315 3537 
Q 2597 3491 2834 3397 
z
" transform="scale(0.015625)"/>
      </defs>
      <use xlink:href="#DejaVuSans-6e"/>
      <use xlink:href="#DejaVuSans-54" transform="translate(63.378906 0)"/>
      <use xlink:href="#DejaVuSans-6f" transform="translate(107.462891 0)"/>
      <use xlink:href="#DejaVuSans-6b" transform="translate(168.644531 0)"/>
      <use xlink:href="#DejaVuSans-65" transform="translate(222.929688 0)"/>
      <use xlink:href="#DejaVuSans-6e" transform="translate(284.453125 0)"/>
      <use xlink:href="#DejaVuSans-73" transform="translate(347.832031 0)"/>
     </g>
    </g>
    <g id="text_8">
     <!-- 1e8 -->
     <g transform="translate(758.721875 283.596563) scale(0.1 -0.1)">
      <use xlink:href="#DejaVuSans-31"/>
      <use xlink:href="#DejaVuSans-65" transform="translate(63.623047 0)"/>
      <use xlink:href="#DejaVuSans-38" transform="translate(125.146484 0)"/>
     </g>
    </g>
   </g>
   <g id="matplotlib.axis_2">
    <g id="ytick_1">
     <g id="line2d_7">
      <defs>
       <path id="m7b3489dfcc" d="M 0 0 
L -3.5 0 
" style="stroke: #000000; stroke-width: 0.8"/>
      </defs>
      <g>
       <use xlink:href="#m7b3489dfcc" x="108" y="256.32" style="stroke: #000000; stroke-width: 0.8"/>
      </g>
     </g>
     <g id="text_9">
      <!-- 9.500 -->
      <g transform="translate(72.371875 260.119219) scale(0.1 -0.1)">
       <defs>
        <path id="DejaVuSans-39" d="M 703 97 
L 703 672 
Q 941 559 1184 500 
Q 1428 441 1663 441 
Q 2288 441 2617 861 
Q 2947 1281 2994 2138 
Q 2813 1869 2534 1725 
Q 2256 1581 1919 1581 
Q 1219 1581 811 2004 
Q 403 2428 403 3163 
Q 403 3881 828 4315 
Q 1253 4750 1959 4750 
Q 2769 4750 3195 4129 
Q 3622 3509 3622 2328 
Q 3622 1225 3098 567 
Q 2575 -91 1691 -91 
Q 1453 -91 1209 -44 
Q 966 3 703 97 
z
M 1959 2075 
Q 2384 2075 2632 2365 
Q 2881 2656 2881 3163 
Q 2881 3666 2632 3958 
Q 2384 4250 1959 4250 
Q 1534 4250 1286 3958 
Q 1038 3666 1038 3163 
Q 1038 2656 1286 2365 
Q 1534 2075 1959 2075 
z
" transform="scale(0.015625)"/>
        <path id="DejaVuSans-35" d="M 691 4666 
L 3169 4666 
L 3169 4134 
L 1269 4134 
L 1269 2991 
Q 1406 3038 1543 3061 
Q 1681 3084 1819 3084 
Q 2600 3084 3056 2656 
Q 3513 2228 3513 1497 
Q 3513 744 3044 326 
Q 2575 -91 1722 -91 
Q 1428 -91 1123 -41 
Q 819 9 494 109 
L 494 744 
Q 775 591 1075 516 
Q 1375 441 1709 441 
Q 2250 441 2565 725 
Q 2881 1009 2881 1497 
Q 2881 1984 2565 2268 
Q 2250 2553 1709 2553 
Q 1456 2553 1204 2497 
Q 953 2441 691 2322 
L 691 4666 
z
" transform="scale(0.015625)"/>
       </defs>
       <use xlink:href="#DejaVuSans-39"/>
       <use xlink:href="#DejaVuSans-2e" transform="translate(63.623047 0)"/>
       <use xlink:href="#DejaVuSans-35" transform="translate(95.410156 0)"/>
       <use xlink:href="#DejaVuSans-30" transform="translate(159.033203 0)"/>
       <use xlink:href="#DejaVuSans-30" transform="translate(222.65625 0)"/>
      </g>
     </g>
    </g>
    <g id="ytick_2">
     <g id="line2d_8">
      <g>
       <use xlink:href="#m7b3489dfcc" x="108" y="228.6" style="stroke: #000000; stroke-width: 0.8"/>
      </g>
     </g>
     <g id="text_10">
      <!-- 9.525 -->
      <g transform="translate(72.371875 232.399219) scale(0.1 -0.1)">
       <use xlink:href="#DejaVuSans-39"/>
       <use xlink:href="#DejaVuSans-2e" transform="translate(63.623047 0)"/>
       <use xlink:href="#DejaVuSans-35" transform="translate(95.410156 0)"/>
       <use xlink:href="#DejaVuSans-32" transform="translate(159.033203 0)"/>
       <use xlink:href="#DejaVuSans-35" transform="translate(222.65625 0)"/>
      </g>
     </g>
    </g>
    <g id="ytick_3">
     <g id="line2d_9">
      <g>
       <use xlink:href="#m7b3489dfcc" x="108" y="200.88" style="stroke: #000000; stroke-width: 0.8"/>
      </g>
     </g>
     <g id="text_11">
      <!-- 9.550 -->
      <g transform="translate(72.371875 204.679219) scale(0.1 -0.1)">
       <use xlink:href="#DejaVuSans-39"/>
       <use xlink:href="#DejaVuSans-2e" transform="translate(63.623047 0)"/>
       <use xlink:href="#DejaVuSans-35" transform="translate(95.410156 0)"/>
       <use xlink:href="#DejaVuSans-35" transform="translate(159.033203 0)"/>
       <use xlink:href="#DejaVuSans-30" transform="translate(222.65625 0)"/>
      </g>
     </g>
    </g>
    <g id="ytick_4">
     <g id="line2d_10">
      <g>
       <use xlink:href="#m7b3489dfcc" x="108" y="173.16" style="stroke: #000000; stroke-width: 0.8"/>
      </g>
     </g>
     <g id="text_12">
      <!-- 9.575 -->
      <g transform="translate(72.371875 176.959219) scale(0.1 -0.1)">
       <defs>
        <path id="DejaVuSans-37" d="M 525 4666 
L 3525 4666 
L 3525 4397 
L 1831 0 
L 1172 0 
L 2766 4134 
L 525 4134 
L 525 4666 
z
" transform="scale(0.015625)"/>
       </defs>
       <use xlink:href="#DejaVuSans-39"/>
       <use xlink:href="#DejaVuSans-2e" transform="translate(63.623047 0)"/>
       <use xlink:href="#DejaVuSans-35" transform="translate(95.410156 0)"/>
       <use xlink:href="#DejaVuSans-37" transform="translate(159.033203 0)"/>
       <use xlink:href="#DejaVuSans-35" transform="translate(222.65625 0)"/>
      </g>
     </g>
    </g>
    <g id="ytick_5">
     <g id="line2d_11">
      <g>
       <use xlink:href="#m7b3489dfcc" x="108" y="145.44" style="stroke: #000000; stroke-width: 0.8"/>
      </g>
     </g>
     <g id="text_13">
      <!-- 9.600 -->
      <g transform="translate(72.371875 149.239219) scale(0.1 -0.1)">
       <use xlink:href="#DejaVuSans-39"/>
       <use xlink:href="#DejaVuSans-2e" transform="translate(63.623047 0)"/>
       <use xlink:href="#DejaVuSans-36" transform="translate(95.410156 0)"/>
       <use xlink:href="#DejaVuSans-30" transform="translate(159.033203 0)"/>
       <use xlink:href="#DejaVuSans-30" transform="translate(222.65625 0)"/>
      </g>
     </g>
    </g>
    <g id="ytick_6">
     <g id="line2d_12">
      <g>
       <use xlink:href="#m7b3489dfcc" x="108" y="117.72" style="stroke: #000000; stroke-width: 0.8"/>
      </g>
     </g>
     <g id="text_14">
      <!-- 9.625 -->
      <g transform="translate(72.371875 121.519219) scale(0.1 -0.1)">
       <use xlink:href="#DejaVuSans-39"/>
       <use xlink:href="#DejaVuSans-2e" transform="translate(63.623047 0)"/>
       <use xlink:href="#DejaVuSans-36" transform="translate(95.410156 0)"/>
       <use xlink:href="#DejaVuSans-32" transform="translate(159.033203 0)"/>
       <use xlink:href="#DejaVuSans-35" transform="translate(222.65625 0)"/>
      </g>
     </g>
    </g>
    <g id="ytick_7">
     <g id="line2d_13">
      <g>
       <use xlink:href="#m7b3489dfcc" x="108" y="90" style="stroke: #000000; stroke-width: 0.8"/>
      </g>
     </g>
     <g id="text_15">
      <!-- 9.650 -->
      <g transform="translate(72.371875 93.799219) scale(0.1 -0.1)">
       <use xlink:href="#DejaVuSans-39"/>
       <use xlink:href="#DejaVuSans-2e" transform="translate(63.623047 0)"/>
       <use xlink:href="#DejaVuSans-36" transform="translate(95.410156 0)"/>
       <use xlink:href="#DejaVuSans-35" transform="translate(159.033203 0)"/>
       <use xlink:href="#DejaVuSans-30" transform="translate(222.65625 0)"/>
      </g>
     </g>
    </g>
    <g id="ytick_8">
     <g id="line2d_14">
      <g>
       <use xlink:href="#m7b3489dfcc" x="108" y="62.28" style="stroke: #000000; stroke-width: 0.8"/>
      </g>
     </g>
     <g id="text_16">
      <!-- 9.675 -->
      <g transform="translate(72.371875 66.079219) scale(0.1 -0.1)">
       <use xlink:href="#DejaVuSans-39"/>
       <use xlink:href="#DejaVuSans-2e" transform="translate(63.623047 0)"/>
       <use xlink:href="#DejaVuSans-36" transform="translate(95.410156 0)"/>
       <use xlink:href="#DejaVuSans-37" transform="translate(159.033203 0)"/>
       <use xlink:href="#DejaVuSans-35" transform="translate(222.65625 0)"/>
      </g>
     </g>
    </g>
    <g id="ytick_9">
     <g id="line2d_15">
      <g>
       <use xlink:href="#m7b3489dfcc" x="108" y="34.56" style="stroke: #000000; stroke-width: 0.8"/>
      </g>
     </g>
     <g id="text_17">
      <!-- 9.700 -->
      <g transform="translate(72.371875 38.359219) scale(0.1 -0.1)">
       <use xlink:href="#DejaVuSans-39"/>
       <use xlink:href="#DejaVuSans-2e" transform="translate(63.623047 0)"/>
       <use xlink:href="#DejaVuSans-37" transform="translate(95.410156 0)"/>
       <use xlink:href="#DejaVuSans-30" transform="translate(159.033203 0)"/>
       <use xlink:href="#DejaVuSans-30" transform="translate(222.65625 0)"/>
      </g>
     </g>
    </g>
    <g id="text_18">
     <!-- Entropy -->
     <g transform="translate(66.292187 164.864219) rotate(-90) scale(0.1 -0.1)">
      <defs>
       <path id="DejaVuSans-45" d="M 628 4666 
L 3578 4666 
L 3578 4134 
L 1259 4134 
L 1259 2753 
L 3481 2753 
L 3481 2222 
L 1259 2222 
L 1259 531 
L 3634 531 
L 3634 0 
L 628 0 
L 628 4666 
z
" transform="scale(0.015625)"/>
       <path id="DejaVuSans-74" d="M 1172 4494 
L 1172 3500 
L 2356 3500 
L 2356 3053 
L 1172 3053 
L 1172 1153 
Q 1172 725 1289 603 
Q 1406 481 1766 481 
L 2356 481 
L 2356 0 
L 1766 0 
Q 1100 0 847 248 
Q 594 497 594 1153 
L 594 3053 
L 172 3053 
L 172 3500 
L 594 3500 
L 594 4494 
L 1172 4494 
z
" transform="scale(0.015625)"/>
       <path id="DejaVuSans-72" d="M 2631 2963 
Q 2534 3019 2420 3045 
Q 2306 3072 2169 3072 
Q 1681 3072 1420 2755 
Q 1159 2438 1159 1844 
L 1159 0 
L 581 0 
L 581 3500 
L 1159 3500 
L 1159 2956 
Q 1341 3275 1631 3429 
Q 1922 3584 2338 3584 
Q 2397 3584 2469 3576 
Q 2541 3569 2628 3553 
L 2631 2963 
z
" transform="scale(0.015625)"/>
       <path id="DejaVuSans-70" d="M 1159 525 
L 1159 -1331 
L 581 -1331 
L 581 3500 
L 1159 3500 
L 1159 2969 
Q 1341 3281 1617 3432 
Q 1894 3584 2278 3584 
Q 2916 3584 3314 3078 
Q 3713 2572 3713 1747 
Q 3713 922 3314 415 
Q 2916 -91 2278 -91 
Q 1894 -91 1617 61 
Q 1341 213 1159 525 
z
M 3116 1747 
Q 3116 2381 2855 2742 
Q 2594 3103 2138 3103 
Q 1681 3103 1420 2742 
Q 1159 2381 1159 1747 
Q 1159 1113 1420 752 
Q 1681 391 2138 391 
Q 2594 391 2855 752 
Q 3116 1113 3116 1747 
z
" transform="scale(0.015625)"/>
       <path id="DejaVuSans-79" d="M 2059 -325 
Q 1816 -950 1584 -1140 
Q 1353 -1331 966 -1331 
L 506 -1331 
L 506 -850 
L 844 -850 
Q 1081 -850 1212 -737 
Q 1344 -625 1503 -206 
L 1606 56 
L 191 3500 
L 800 3500 
L 1894 763 
L 2988 3500 
L 3597 3500 
L 2059 -325 
z
" transform="scale(0.015625)"/>
      </defs>
      <use xlink:href="#DejaVuSans-45"/>
      <use xlink:href="#DejaVuSans-6e" transform="translate(63.183594 0)"/>
      <use xlink:href="#DejaVuSans-74" transform="translate(126.5625 0)"/>
      <use xlink:href="#DejaVuSans-72" transform="translate(165.771484 0)"/>
      <use xlink:href="#DejaVuSans-6f" transform="translate(204.634766 0)"/>
      <use xlink:href="#DejaVuSans-70" transform="translate(265.816406 0)"/>
      <use xlink:href="#DejaVuSans-79" transform="translate(329.292969 0)"/>
     </g>
    </g>
   </g>
   <g id="line2d_16">
    <path d="M 139.341511 289 
L 139.687602 253.680869 
L 140.313221 272.177207 
L 140.93884 242.55311 
L 141.564459 203.161028 
L 142.190078 178.377426 
L 142.815697 173.247041 
L 143.441316 164.100783 
L 144.066935 165.99016 
L 144.692553 154.449698 
L 145.318172 154.707594 
L 145.943791 164.198823 
L 146.56941 162.735962 
L 147.820648 154.579274 
L 148.446267 160.107349 
L 149.071886 156.888533 
L 149.697505 149.61473 
L 150.323124 147.970882 
L 151.574362 139.251187 
L 152.199981 141.959997 
L 152.8256 139.53226 
L 153.451219 132.598575 
L 154.076838 136.088955 
L 154.702457 131.46063 
L 155.328076 129.316754 
L 155.953695 131.091136 
L 156.579314 131.253265 
L 157.204933 129.483356 
L 157.830552 125.831077 
L 159.707409 120.093779 
L 160.333028 124.840992 
L 160.958647 124.40705 
L 161.584266 121.993425 
L 162.835504 118.368465 
L 163.461123 120.203917 
L 164.086742 121.627705 
L 164.712361 119.247711 
L 165.33798 120.089281 
L 165.963599 119.928825 
L 166.589218 121.449089 
L 167.214837 123.687861 
L 167.840456 123.381189 
L 168.466075 124.289064 
L 169.091694 127.24971 
L 169.717313 127.186367 
L 170.342932 121.23873 
L 170.968551 120.623219 
L 171.59417 118.799563 
L 172.219789 118.886085 
L 172.845408 120.824298 
L 173.471027 121.803886 
L 174.722265 119.032415 
L 175.347884 119.721462 
L 175.973503 121.209259 
L 176.599122 121.776918 
L 177.224741 119.140676 
L 177.85036 118.176788 
L 178.475979 117.585419 
L 179.101598 117.182264 
L 179.727217 117.321685 
L 180.352836 116.956185 
L 180.978455 116.329284 
L 181.604074 114.831775 
L 182.855312 116.176506 
L 183.480931 113.689436 
L 184.10655 114.129351 
L 184.732169 114.046055 
L 185.357788 114.625506 
L 185.983407 113.558505 
L 186.609026 114.203732 
L 187.234644 113.71401 
L 187.860263 112.8484 
L 188.485882 104.928122 
L 189.111501 104.631879 
L 190.362739 105.839244 
L 190.988358 105.861773 
L 191.613977 106.043213 
L 192.239596 105.287304 
L 192.865215 106.033227 
L 193.490834 104.856262 
L 194.742072 104.545609 
L 195.367691 106.260727 
L 195.99331 106.694334 
L 196.618929 105.677184 
L 197.244548 105.753544 
L 197.870167 105.338514 
L 199.121405 105.362412 
L 200.372643 103.576174 
L 201.623881 107.081008 
L 202.2495 107.344913 
L 202.875119 106.790668 
L 203.500738 106.865239 
L 204.126357 106.293004 
L 204.751976 106.87358 
L 205.377595 106.535731 
L 206.628833 106.758724 
L 207.254452 107.724424 
L 209.131309 107.72186 
L 210.382547 105.847842 
L 211.008166 105.015979 
L 211.633785 104.774371 
L 212.259404 103.822851 
L 212.885023 103.788298 
L 213.510642 103.974839 
L 214.136261 106.735394 
L 214.76188 107.030555 
L 215.387499 108.435981 
L 216.013118 108.346431 
L 216.638737 108.374288 
L 217.264356 107.372506 
L 217.889975 107.159334 
L 218.515594 107.223169 
L 219.141213 107.449805 
L 220.392451 107.10594 
L 221.01807 106.745906 
L 221.643689 107.368188 
L 222.269308 107.730106 
L 222.894927 108.513231 
L 223.520546 108.696113 
L 224.771784 109.935509 
L 225.397403 110.648774 
L 226.023022 110.870815 
L 226.648641 110.123428 
L 227.27426 110.302197 
L 227.899879 110.099466 
L 228.525498 110.126867 
L 229.151117 109.417655 
L 229.776735 109.435483 
L 230.402354 109.986859 
L 231.027973 110.73487 
L 231.653592 110.615417 
L 232.279211 110.811832 
L 232.90483 110.125624 
L 233.530449 110.013528 
L 234.156068 110.27231 
L 234.781687 109.563651 
L 236.032925 108.373859 
L 236.658544 108.912632 
L 237.284163 109.760319 
L 237.909782 109.605042 
L 238.535401 109.58635 
L 239.16102 109.954831 
L 239.786639 109.718926 
L 241.037877 109.82717 
L 241.663496 110.447547 
L 242.289115 110.21691 
L 242.914734 110.360822 
L 243.540353 110.849649 
L 244.791591 111.345251 
L 245.41721 110.648539 
L 246.042829 110.196253 
L 246.668448 110.098506 
L 247.919686 110.555116 
L 248.545305 109.690312 
L 249.170924 109.602689 
L 249.796543 108.829701 
L 250.422162 108.683609 
L 251.047781 108.70876 
L 252.299019 109.362082 
L 252.924638 109.489689 
L 254.175876 109.511564 
L 255.427114 108.183545 
L 256.052733 108.358234 
L 256.678352 107.350683 
L 257.92959 108.074035 
L 258.555209 107.468337 
L 259.180828 107.75457 
L 259.806447 108.503951 
L 260.432066 108.865269 
L 262.934542 109.16094 
L 263.560161 106.610188 
L 264.811399 107.329901 
L 265.437018 108.194136 
L 266.062637 108.095026 
L 267.313875 107.527865 
L 267.939494 107.628634 
L 268.565113 107.110203 
L 269.190732 106.973136 
L 270.44197 106.538828 
L 271.067589 106.991662 
L 271.693208 107.200778 
L 272.318826 107.043608 
L 273.570064 106.24581 
L 274.195683 106.439815 
L 274.821302 106.285518 
L 275.446921 106.462964 
L 276.07254 106.501929 
L 276.698159 106.399161 
L 277.323778 105.921768 
L 277.949397 106.271216 
L 278.575016 105.973219 
L 279.200635 106.052429 
L 281.077492 105.81938 
L 281.703111 105.945076 
L 282.32873 105.717726 
L 282.954349 105.158074 
L 283.579968 104.903745 
L 284.205587 104.826145 
L 284.831206 104.919444 
L 285.456825 105.821365 
L 286.082444 105.999111 
L 286.708063 106.821778 
L 287.959301 107.161874 
L 288.58492 106.410829 
L 289.210539 106.620309 
L 289.836158 106.011994 
L 290.461777 106.524431 
L 291.087396 106.255573 
L 291.713015 106.193561 
L 292.338634 106.245608 
L 292.964253 106.73228 
L 293.589872 107.49432 
L 294.215491 107.750368 
L 294.84111 107.336455 
L 295.466729 107.388879 
L 296.092348 107.315515 
L 296.717967 107.414964 
L 297.343586 107.280557 
L 297.969205 107.663385 
L 298.594824 107.431686 
L 299.220443 107.32473 
L 299.846062 107.615454 
L 300.471681 107.299368 
L 301.0973 107.638893 
L 302.348538 107.334636 
L 302.974157 106.890335 
L 303.599776 106.844805 
L 304.225395 106.572636 
L 304.851014 105.81467 
L 305.476633 106.075188 
L 306.102252 106.147447 
L 306.727871 106.997481 
L 307.35349 107.236006 
L 307.979109 106.984126 
L 308.604728 107.123337 
L 309.855966 107.861157 
L 311.732823 107.512377 
L 312.984061 107.795563 
L 313.60968 107.634659 
L 315.486536 108.246051 
L 316.112155 108.291102 
L 316.737774 108.674633 
L 317.363393 108.857064 
L 317.989012 109.435696 
L 318.614631 108.970628 
L 319.865869 109.471514 
L 320.491488 109.81145 
L 321.117107 109.851889 
L 321.742726 110.410634 
L 322.368345 109.987814 
L 322.993964 110.141966 
L 323.619583 109.831062 
L 324.245202 109.720371 
L 326.122059 111.086131 
L 327.998916 110.94303 
L 328.624535 110.713404 
L 329.875773 110.500181 
L 331.75263 111.20878 
L 332.378249 112.077744 
L 333.003868 112.67428 
L 333.629487 112.744882 
L 334.880725 111.898254 
L 335.506344 112.452992 
L 336.757582 111.91774 
L 337.383201 112.437849 
L 339.260058 112.770448 
L 339.885677 112.26437 
L 341.136915 111.61138 
L 341.762534 111.395298 
L 343.013772 111.871011 
L 343.639391 111.501869 
L 344.890629 110.296721 
L 345.516248 110.419163 
L 346.767486 110.365947 
L 347.393105 110.52162 
L 348.018724 110.433893 
L 348.644343 110.165578 
L 349.269962 110.331515 
L 349.895581 109.862056 
L 350.5212 110.334918 
L 351.146819 110.043634 
L 351.772438 109.930011 
L 352.398057 109.362653 
L 353.023676 110.010212 
L 353.649295 110.242295 
L 354.274914 110.218053 
L 354.900533 109.807135 
L 356.151771 109.381621 
L 356.77739 109.314115 
L 357.403009 109.042762 
L 358.028627 109.417017 
L 358.654246 109.320346 
L 359.905484 109.380738 
L 360.531103 109.289784 
L 361.156722 109.439222 
L 362.40796 109.067801 
L 363.033579 109.251194 
L 363.659198 109.020625 
L 364.284817 109.097014 
L 365.536055 110.271801 
L 367.412912 111.626254 
L 368.038531 111.75633 
L 368.66415 112.077746 
L 369.289769 112.171197 
L 369.915388 111.726211 
L 371.166626 111.761544 
L 372.417864 111.995401 
L 373.669102 112.427116 
L 374.294721 112.544531 
L 374.92034 112.503706 
L 376.171578 113.036606 
L 377.422816 112.918489 
L 378.048435 112.981603 
L 379.299673 112.851014 
L 379.925292 113.165297 
L 380.550911 112.794436 
L 382.427768 112.99965 
L 383.053387 112.373511 
L 383.679006 111.922955 
L 384.930244 111.876382 
L 386.181482 112.270509 
L 388.058339 115.460116 
L 388.683958 115.966923 
L 389.309577 115.996315 
L 389.935196 116.41061 
L 391.186434 116.21754 
L 391.812053 116.323483 
L 392.437672 116.084991 
L 393.063291 116.024554 
L 393.68891 116.166595 
L 394.314529 116.149105 
L 394.940148 116.420661 
L 396.191386 116.440493 
L 396.817005 116.262171 
L 397.442624 116.263565 
L 398.068243 115.929595 
L 398.693862 116.069152 
L 399.319481 116.013826 
L 399.9451 116.338004 
L 400.570718 116.165975 
L 401.196337 116.372809 
L 401.821956 116.396913 
L 402.447575 116.607401 
L 403.073194 116.676987 
L 403.698813 116.222603 
L 404.324432 116.116102 
L 404.950051 116.364596 
L 405.57567 116.359131 
L 406.201289 116.161154 
L 406.826908 116.566648 
L 408.703765 116.768377 
L 409.329384 116.393518 
L 409.955003 116.276599 
L 410.580622 115.680036 
L 411.206241 115.539935 
L 412.457479 115.620217 
L 413.083098 115.704638 
L 413.708717 114.743732 
L 414.334336 114.89584 
L 414.959955 115.195599 
L 415.585574 115.158254 
L 416.211193 115.392865 
L 416.836812 115.386249 
L 417.462431 115.628064 
L 418.08805 115.423152 
L 418.713669 115.468072 
L 419.964907 115.219488 
L 420.590526 115.138325 
L 421.216145 114.829373 
L 421.841764 114.895416 
L 422.467383 114.51628 
L 423.093002 114.587152 
L 424.34424 114.31746 
L 424.969859 114.379985 
L 425.595478 114.609481 
L 426.221097 115.256801 
L 427.472335 115.406606 
L 428.097954 115.069726 
L 428.723573 115.401878 
L 429.349192 115.489881 
L 429.974811 115.139771 
L 430.60043 115.384115 
L 431.851668 115.401077 
L 433.102906 115.787803 
L 433.728525 115.702272 
L 434.354144 115.427906 
L 434.979763 115.417691 
L 435.605382 115.132716 
L 436.85662 115.030094 
L 438.107858 115.658612 
L 439.359096 115.65136 
L 441.861572 116.042921 
L 443.112809 115.744814 
L 443.738428 115.795444 
L 444.364047 116.787088 
L 444.989666 117.448379 
L 446.240904 117.846836 
L 446.866523 117.358568 
L 448.117761 116.653596 
L 448.74338 116.512895 
L 449.368999 116.233175 
L 451.245856 116.314556 
L 451.871475 116.153531 
L 453.122713 116.425468 
L 454.99957 116.354954 
L 456.876427 116.504508 
L 458.753284 116.534318 
L 459.378903 116.450396 
L 460.004522 116.56709 
L 461.881379 116.371065 
L 463.132617 115.992507 
L 463.758236 115.681649 
L 464.383855 115.827389 
L 465.009474 115.707937 
L 465.635093 115.828534 
L 466.260712 116.150529 
L 466.886331 116.231972 
L 467.51195 117.192214 
L 468.137569 117.415979 
L 469.388807 117.590131 
L 471.265664 118.079792 
L 471.891283 118.00126 
L 472.516902 118.226696 
L 473.142521 118.756372 
L 473.76814 118.663122 
L 474.393759 119.118219 
L 475.019378 119.285829 
L 475.644997 119.183481 
L 476.896235 119.396856 
L 477.521854 119.331394 
L 478.147473 119.558942 
L 478.773092 119.65269 
L 479.398711 119.620556 
L 482.526806 120.546673 
L 483.778044 120.446575 
L 485.6549 121.267121 
L 486.280519 121.795083 
L 486.906138 121.929837 
L 488.157376 121.863912 
L 488.782995 122.18276 
L 490.034233 121.556858 
L 491.285471 121.495608 
L 491.91109 121.786955 
L 493.162328 121.819732 
L 493.787947 121.659746 
L 494.413566 121.614707 
L 495.039185 121.745562 
L 495.664804 121.659655 
L 496.916042 121.787187 
L 498.16728 121.683707 
L 498.792899 121.708961 
L 499.418518 121.457217 
L 500.044137 121.651169 
L 500.669756 122.119849 
L 501.295375 122.381098 
L 502.546613 122.444907 
L 503.172232 121.139689 
L 503.797851 121.478317 
L 504.42347 121.546865 
L 505.674708 121.429406 
L 508.802803 121.871825 
L 509.428422 122.064687 
L 511.930898 122.010514 
L 512.556517 122.688103 
L 513.182136 122.908661 
L 513.807755 123.000931 
L 514.433374 123.341381 
L 515.058993 123.360902 
L 515.684612 123.226084 
L 516.310231 123.326758 
L 516.93585 123.587449 
L 517.561469 123.424782 
L 518.187088 123.534412 
L 518.812707 123.433917 
L 519.438326 123.463615 
L 520.063945 123.911005 
L 522.566421 124.794584 
L 523.817659 124.760433 
L 524.443278 124.913054 
L 525.068897 125.241214 
L 526.945754 125.232699 
L 528.196991 125.287779 
L 528.82261 125.349454 
L 530.699467 125.118137 
L 531.325086 125.069536 
L 531.950705 125.248558 
L 532.576324 124.969844 
L 533.201943 124.892003 
L 533.827562 124.618394 
L 534.453181 124.47093 
L 535.0788 124.498086 
L 535.704419 124.300912 
L 536.330038 124.395794 
L 537.581276 125.026796 
L 538.832514 124.829301 
L 541.33499 125.727381 
L 542.586228 125.668079 
L 544.463085 126.070211 
L 545.088704 125.853327 
L 546.339942 125.787015 
L 546.965561 125.770518 
L 548.216799 126.615279 
L 550.719275 127.674904 
L 551.970513 127.52514 
L 553.84737 127.363938 
L 555.724227 127.676175 
L 556.975465 127.870137 
L 557.601084 127.774377 
L 558.852322 127.913541 
L 559.477941 128.150553 
L 561.354798 127.916815 
L 561.980417 128.305992 
L 562.606036 128.192204 
L 563.857274 128.182929 
L 566.35975 128.257326 
L 566.985369 128.357359 
L 568.236607 128.159185 
L 569.487845 128.208584 
L 570.113464 128.028776 
L 570.739083 128.044787 
L 571.99032 127.818199 
L 572.615939 127.826678 
L 573.241558 128.004237 
L 574.492796 128.037218 
L 575.118415 127.748386 
L 576.995272 128.339658 
L 577.620891 128.249873 
L 578.872129 128.323028 
L 579.497748 128.274823 
L 580.748986 128.844544 
L 582.625843 128.627294 
L 583.251462 128.77325 
L 583.877081 128.599074 
L 585.753938 128.537254 
L 588.882033 128.337663 
L 589.507652 128.778558 
L 590.75889 128.924008 
L 592.010128 128.960661 
L 592.635747 129.200217 
L 593.261366 129.186374 
L 594.512604 128.779644 
L 595.763842 128.887768 
L 596.389461 128.792122 
L 597.640699 129.037287 
L 599.517556 128.984898 
L 601.394413 128.99122 
L 602.020032 129.257197 
L 603.27127 129.260304 
L 603.896889 129.087835 
L 604.522508 129.035229 
L 605.773746 129.285001 
L 606.399365 129.218916 
L 607.024984 129.009907 
L 609.52746 129.152543 
L 610.778698 129.333707 
L 613.906792 129.277067 
L 615.15803 129.517789 
L 618.911744 129.475246 
L 620.162982 129.235903 
L 622.665458 129.247358 
L 623.291077 129.323095 
L 623.916696 129.229941 
L 625.793553 129.762626 
L 626.419172 129.781916 
L 627.044791 129.930164 
L 627.67041 129.908684 
L 628.296029 130.195732 
L 628.921648 130.334148 
L 629.547267 130.239169 
L 630.172886 130.318105 
L 631.424124 130.254669 
L 632.049743 130.29613 
L 632.675362 130.092712 
L 633.300981 130.207865 
L 634.552219 130.144269 
L 636.429076 130.722593 
L 637.054695 130.537087 
L 637.680314 130.721816 
L 638.305933 130.698457 
L 638.931552 130.523682 
L 639.557171 130.52025 
L 640.18279 130.673477 
L 640.808409 130.674985 
L 641.434028 130.495892 
L 643.310885 130.49486 
L 643.936504 130.598958 
L 645.187742 130.379079 
L 647.064599 130.442039 
L 648.941456 130.343154 
L 652.69517 130.270257 
L 654.572027 130.335769 
L 656.448883 130.483652 
L 657.700121 130.651765 
L 658.951359 130.582636 
L 659.576978 129.930874 
L 660.202597 129.835655 
L 661.453835 130.150084 
L 662.079454 130.101652 
L 664.58193 131.040868 
L 665.207549 131.060633 
L 667.084406 131.540041 
L 667.710025 131.540434 
L 670.212501 132.131459 
L 670.83812 132.155304 
L 672.089358 132.642897 
L 674.591834 132.608885 
L 675.843072 132.566754 
L 677.719929 132.465589 
L 678.971167 132.619852 
L 680.848024 132.37499 
L 681.473643 132.239445 
L 682.724881 132.528223 
L 683.976119 132.600972 
L 684.601738 132.682803 
L 685.227357 132.900043 
L 685.852976 132.937024 
L 692.109166 132.047777 
L 692.734785 132.081962 
L 693.360404 132.29301 
L 694.611642 132.241306 
L 695.237261 132.356897 
L 696.488499 132.217802 
L 697.739737 132.069234 
L 700.867831 131.979505 
L 701.49345 132.140175 
L 702.744688 132.04424 
L 704.621545 132.425386 
L 705.872783 132.4889 
L 707.124021 132.911704 
L 707.74964 133.12506 
L 709.626497 133.184383 
L 710.252116 133.134013 
L 710.877735 133.301647 
L 711.503354 133.589211 
L 717.133925 133.534625 
L 718.385163 133.588476 
L 720.26202 133.456106 
L 722.764496 133.668968 
L 723.390115 133.885687 
L 724.015734 133.945265 
L 725.892591 133.805379 
L 728.395067 133.705013 
L 729.020686 133.598784 
L 730.897543 133.757907 
L 731.523162 133.840678 
L 733.400019 133.811963 
L 734.025638 133.992534 
L 735.902495 133.928994 
L 739.656209 133.632932 
L 741.533065 133.812342 
L 743.409922 133.635088 
L 744.035541 133.802959 
L 744.66116 134.213494 
L 745.912398 134.497691 
L 747.163636 134.57254 
L 747.163636 134.57254 
" clip-path="url(#pe41e67bebd)" style="fill: none; stroke: #ff0000; stroke-width: 1.5; stroke-linecap: square"/>
   </g>
   <g id="line2d_17">
    <path d="M 138.804543 289 
L 139.061983 258.78417 
L 139.687602 224.335817 
L 140.313221 205.193808 
L 140.93884 194.9066 
L 142.190078 181.861449 
L 142.815697 176.610623 
L 144.066935 169.140661 
L 144.692553 166.293302 
L 145.943791 162.16778 
L 146.56941 160.029437 
L 147.195029 158.389861 
L 147.820648 157.426495 
L 148.446267 155.995505 
L 149.071886 155.209519 
L 150.323124 153.050464 
L 152.199981 150.795288 
L 152.8256 150.287438 
L 153.451219 149.972027 
L 154.076838 149.182591 
L 155.328076 148.226153 
L 156.579314 147.212632 
L 157.204933 146.624742 
L 160.958647 144.431537 
L 162.209885 144.124585 
L 163.461123 143.686649 
L 164.712361 143.40118 
L 165.33798 143.111297 
L 166.589218 142.93381 
L 167.214837 142.608443 
L 169.091694 142.34736 
L 173.471027 141.474513 
L 175.347884 141.223185 
L 178.475979 140.323485 
L 182.229693 139.768953 
L 185.357788 139.485067 
L 186.609026 139.375398 
L 187.860263 139.236816 
L 189.73712 138.923566 
L 190.988358 138.863123 
L 192.865215 138.733221 
L 194.742072 138.653595 
L 196.618929 138.472381 
L 200.998262 138.32835 
L 206.628833 138.001406 
L 207.880071 137.942116 
L 213.510642 137.732776 
L 214.76188 137.699105 
L 221.01807 137.373459 
L 226.023022 137.206853 
L 228.525498 137.06287 
L 231.027973 136.984694 
L 233.530449 136.946265 
L 244.791591 136.593691 
L 250.422162 136.419145 
L 262.308923 136.165117 
L 265.437018 136.115355 
L 268.565113 136.071791 
L 288.58492 135.818958 
L 291.713015 135.788484 
L 294.215491 135.790392 
L 302.974157 135.703603 
L 351.772438 135.180042 
L 405.57567 135.006526 
L 414.334336 134.948527 
L 429.349192 134.911871 
L 644.562123 134.696299 
L 655.197646 134.693842 
L 664.58193 134.652801 
L 718.385163 134.61359 
L 746.538017 134.606112 
L 747.163636 134.57254 
L 747.163636 134.57254 
" clip-path="url(#pe41e67bebd)" style="fill: none; stroke: #0000ff; stroke-width: 1.5; stroke-linecap: square"/>
   </g>
   <g id="patch_3">
    <path d="M 108 256.32 
L 108 34.56 
" style="fill: none; stroke: #000000; stroke-width: 0.8; stroke-linejoin: miter; stroke-linecap: square"/>
   </g>
   <g id="patch_4">
    <path d="M 777.6 256.32 
L 777.6 34.56 
" style="fill: none; stroke: #000000; stroke-width: 0.8; stroke-linejoin: miter; stroke-linecap: square"/>
   </g>
   <g id="patch_5">
    <path d="M 108 256.32 
L 777.6 256.32 
" style="fill: none; stroke: #000000; stroke-width: 0.8; stroke-linejoin: miter; stroke-linecap: square"/>
   </g>
   <g id="patch_6">
    <path d="M 108 34.56 
L 777.6 34.56 
" style="fill: none; stroke: #000000; stroke-width: 0.8; stroke-linejoin: miter; stroke-linecap: square"/>
   </g>
   <g id="text_19">
    <!-- Entropy of Chinese Tokens (without original) -->
    <g transform="translate(310.34625 28.56) scale(0.12 -0.12)">
     <defs>
      <path id="DejaVuSans-20" transform="scale(0.015625)"/>
      <path id="DejaVuSans-66" d="M 2375 4863 
L 2375 4384 
L 1825 4384 
Q 1516 4384 1395 4259 
Q 1275 4134 1275 3809 
L 1275 3500 
L 2222 3500 
L 2222 3053 
L 1275 3053 
L 1275 0 
L 697 0 
L 697 3053 
L 147 3053 
L 147 3500 
L 697 3500 
L 697 3744 
Q 697 4328 969 4595 
Q 1241 4863 1831 4863 
L 2375 4863 
z
" transform="scale(0.015625)"/>
      <path id="DejaVuSans-43" d="M 4122 4306 
L 4122 3641 
Q 3803 3938 3442 4084 
Q 3081 4231 2675 4231 
Q 1875 4231 1450 3742 
Q 1025 3253 1025 2328 
Q 1025 1406 1450 917 
Q 1875 428 2675 428 
Q 3081 428 3442 575 
Q 3803 722 4122 1019 
L 4122 359 
Q 3791 134 3420 21 
Q 3050 -91 2638 -91 
Q 1578 -91 968 557 
Q 359 1206 359 2328 
Q 359 3453 968 4101 
Q 1578 4750 2638 4750 
Q 3056 4750 3426 4639 
Q 3797 4528 4122 4306 
z
" transform="scale(0.015625)"/>
      <path id="DejaVuSans-68" d="M 3513 2113 
L 3513 0 
L 2938 0 
L 2938 2094 
Q 2938 2591 2744 2837 
Q 2550 3084 2163 3084 
Q 1697 3084 1428 2787 
Q 1159 2491 1159 1978 
L 1159 0 
L 581 0 
L 581 4863 
L 1159 4863 
L 1159 2956 
Q 1366 3272 1645 3428 
Q 1925 3584 2291 3584 
Q 2894 3584 3203 3211 
Q 3513 2838 3513 2113 
z
" transform="scale(0.015625)"/>
      <path id="DejaVuSans-69" d="M 603 3500 
L 1178 3500 
L 1178 0 
L 603 0 
L 603 3500 
z
M 603 4863 
L 1178 4863 
L 1178 4134 
L 603 4134 
L 603 4863 
z
" transform="scale(0.015625)"/>
      <path id="DejaVuSans-28" d="M 1984 4856 
Q 1566 4138 1362 3434 
Q 1159 2731 1159 2009 
Q 1159 1288 1364 580 
Q 1569 -128 1984 -844 
L 1484 -844 
Q 1016 -109 783 600 
Q 550 1309 550 2009 
Q 550 2706 781 3412 
Q 1013 4119 1484 4856 
L 1984 4856 
z
" transform="scale(0.015625)"/>
      <path id="DejaVuSans-77" d="M 269 3500 
L 844 3500 
L 1563 769 
L 2278 3500 
L 2956 3500 
L 3675 769 
L 4391 3500 
L 4966 3500 
L 4050 0 
L 3372 0 
L 2619 2869 
L 1863 0 
L 1184 0 
L 269 3500 
z
" transform="scale(0.015625)"/>
      <path id="DejaVuSans-75" d="M 544 1381 
L 544 3500 
L 1119 3500 
L 1119 1403 
Q 1119 906 1312 657 
Q 1506 409 1894 409 
Q 2359 409 2629 706 
Q 2900 1003 2900 1516 
L 2900 3500 
L 3475 3500 
L 3475 0 
L 2900 0 
L 2900 538 
Q 2691 219 2414 64 
Q 2138 -91 1772 -91 
Q 1169 -91 856 284 
Q 544 659 544 1381 
z
M 1991 3584 
L 1991 3584 
z
" transform="scale(0.015625)"/>
      <path id="DejaVuSans-67" d="M 2906 1791 
Q 2906 2416 2648 2759 
Q 2391 3103 1925 3103 
Q 1463 3103 1205 2759 
Q 947 2416 947 1791 
Q 947 1169 1205 825 
Q 1463 481 1925 481 
Q 2391 481 2648 825 
Q 2906 1169 2906 1791 
z
M 3481 434 
Q 3481 -459 3084 -895 
Q 2688 -1331 1869 -1331 
Q 1566 -1331 1297 -1286 
Q 1028 -1241 775 -1147 
L 775 -588 
Q 1028 -725 1275 -790 
Q 1522 -856 1778 -856 
Q 2344 -856 2625 -561 
Q 2906 -266 2906 331 
L 2906 616 
Q 2728 306 2450 153 
Q 2172 0 1784 0 
Q 1141 0 747 490 
Q 353 981 353 1791 
Q 353 2603 747 3093 
Q 1141 3584 1784 3584 
Q 2172 3584 2450 3431 
Q 2728 3278 2906 2969 
L 2906 3500 
L 3481 3500 
L 3481 434 
z
" transform="scale(0.015625)"/>
      <path id="DejaVuSans-61" d="M 2194 1759 
Q 1497 1759 1228 1600 
Q 959 1441 959 1056 
Q 959 750 1161 570 
Q 1363 391 1709 391 
Q 2188 391 2477 730 
Q 2766 1069 2766 1631 
L 2766 1759 
L 2194 1759 
z
M 3341 1997 
L 3341 0 
L 2766 0 
L 2766 531 
Q 2569 213 2275 61 
Q 1981 -91 1556 -91 
Q 1019 -91 701 211 
Q 384 513 384 1019 
Q 384 1609 779 1909 
Q 1175 2209 1959 2209 
L 2766 2209 
L 2766 2266 
Q 2766 2663 2505 2880 
Q 2244 3097 1772 3097 
Q 1472 3097 1187 3025 
Q 903 2953 641 2809 
L 641 3341 
Q 956 3463 1253 3523 
Q 1550 3584 1831 3584 
Q 2591 3584 2966 3190 
Q 3341 2797 3341 1997 
z
" transform="scale(0.015625)"/>
      <path id="DejaVuSans-6c" d="M 603 4863 
L 1178 4863 
L 1178 0 
L 603 0 
L 603 4863 
z
" transform="scale(0.015625)"/>
      <path id="DejaVuSans-29" d="M 513 4856 
L 1013 4856 
Q 1481 4119 1714 3412 
Q 1947 2706 1947 2009 
Q 1947 1309 1714 600 
Q 1481 -109 1013 -844 
L 513 -844 
Q 928 -128 1133 580 
Q 1338 1288 1338 2009 
Q 1338 2731 1133 3434 
Q 928 4138 513 4856 
z
" transform="scale(0.015625)"/>
     </defs>
     <use xlink:href="#DejaVuSans-45"/>
     <use xlink:href="#DejaVuSans-6e" transform="translate(63.183594 0)"/>
     <use xlink:href="#DejaVuSans-74" transform="translate(126.5625 0)"/>
     <use xlink:href="#DejaVuSans-72" transform="translate(165.771484 0)"/>
     <use xlink:href="#DejaVuSans-6f" transform="translate(204.634766 0)"/>
     <use xlink:href="#DejaVuSans-70" transform="translate(265.816406 0)"/>
     <use xlink:href="#DejaVuSans-79" transform="translate(329.292969 0)"/>
     <use xlink:href="#DejaVuSans-20" transform="translate(388.472656 0)"/>
     <use xlink:href="#DejaVuSans-6f" transform="translate(420.259766 0)"/>
     <use xlink:href="#DejaVuSans-66" transform="translate(481.441406 0)"/>
     <use xlink:href="#DejaVuSans-20" transform="translate(516.646484 0)"/>
     <use xlink:href="#DejaVuSans-43" transform="translate(548.433594 0)"/>
     <use xlink:href="#DejaVuSans-68" transform="translate(618.257812 0)"/>
     <use xlink:href="#DejaVuSans-69" transform="translate(681.636719 0)"/>
     <use xlink:href="#DejaVuSans-6e" transform="translate(709.419922 0)"/>
     <use xlink:href="#DejaVuSans-65" transform="translate(772.798828 0)"/>
     <use xlink:href="#DejaVuSans-73" transform="translate(834.322266 0)"/>
     <use xlink:href="#DejaVuSans-65" transform="translate(886.421875 0)"/>
     <use xlink:href="#DejaVuSans-20" transform="translate(947.945312 0)"/>
     <use xlink:href="#DejaVuSans-54" transform="translate(979.732422 0)"/>
     <use xlink:href="#DejaVuSans-6f" transform="translate(1023.816406 0)"/>
     <use xlink:href="#DejaVuSans-6b" transform="translate(1084.998047 0)"/>
     <use xlink:href="#DejaVuSans-65" transform="translate(1139.283203 0)"/>
     <use xlink:href="#DejaVuSans-6e" transform="translate(1200.806641 0)"/>
     <use xlink:href="#DejaVuSans-73" transform="translate(1264.185547 0)"/>
     <use xlink:href="#DejaVuSans-20" transform="translate(1316.285156 0)"/>
     <use xlink:href="#DejaVuSans-28" transform="translate(1348.072266 0)"/>
     <use xlink:href="#DejaVuSans-77" transform="translate(1387.085938 0)"/>
     <use xlink:href="#DejaVuSans-69" transform="translate(1468.873047 0)"/>
     <use xlink:href="#DejaVuSans-74" transform="translate(1496.65625 0)"/>
     <use xlink:href="#DejaVuSans-68" transform="translate(1535.865234 0)"/>
     <use xlink:href="#DejaVuSans-6f" transform="translate(1599.244141 0)"/>
     <use xlink:href="#DejaVuSans-75" transform="translate(1660.425781 0)"/>
     <use xlink:href="#DejaVuSans-74" transform="translate(1723.804688 0)"/>
     <use xlink:href="#DejaVuSans-20" transform="translate(1763.013672 0)"/>
     <use xlink:href="#DejaVuSans-6f" transform="translate(1794.800781 0)"/>
     <use xlink:href="#DejaVuSans-72" transform="translate(1855.982422 0)"/>
     <use xlink:href="#DejaVuSans-69" transform="translate(1897.095703 0)"/>
     <use xlink:href="#DejaVuSans-67" transform="translate(1924.878906 0)"/>
     <use xlink:href="#DejaVuSans-69" transform="translate(1988.355469 0)"/>
     <use xlink:href="#DejaVuSans-6e" transform="translate(2016.138672 0)"/>
     <use xlink:href="#DejaVuSans-61" transform="translate(2079.517578 0)"/>
     <use xlink:href="#DejaVuSans-6c" transform="translate(2140.796875 0)"/>
     <use xlink:href="#DejaVuSans-29" transform="translate(2168.580078 0)"/>
    </g>
   </g>
   <g id="legend_1">
    <g id="patch_7">
     <path d="M 699.46875 71.91625 
L 770.6 71.91625 
Q 772.6 71.91625 772.6 69.91625 
L 772.6 41.56 
Q 772.6 39.56 770.6 39.56 
L 699.46875 39.56 
Q 697.46875 39.56 697.46875 41.56 
L 697.46875 69.91625 
Q 697.46875 71.91625 699.46875 71.91625 
z
" style="fill: #ffffff; opacity: 0.8; stroke: #cccccc; stroke-linejoin: miter"/>
    </g>
    <g id="line2d_18">
     <path d="M 701.46875 47.658437 
L 711.46875 47.658437 
L 721.46875 47.658437 
" style="fill: none; stroke: #ff0000; stroke-width: 1.5; stroke-linecap: square"/>
    </g>
    <g id="text_20">
     <!-- Original -->
     <g transform="translate(729.46875 51.158437) scale(0.1 -0.1)">
      <defs>
       <path id="DejaVuSans-4f" d="M 2522 4238 
Q 1834 4238 1429 3725 
Q 1025 3213 1025 2328 
Q 1025 1447 1429 934 
Q 1834 422 2522 422 
Q 3209 422 3611 934 
Q 4013 1447 4013 2328 
Q 4013 3213 3611 3725 
Q 3209 4238 2522 4238 
z
M 2522 4750 
Q 3503 4750 4090 4092 
Q 4678 3434 4678 2328 
Q 4678 1225 4090 567 
Q 3503 -91 2522 -91 
Q 1538 -91 948 565 
Q 359 1222 359 2328 
Q 359 3434 948 4092 
Q 1538 4750 2522 4750 
z
" transform="scale(0.015625)"/>
      </defs>
      <use xlink:href="#DejaVuSans-4f"/>
      <use xlink:href="#DejaVuSans-72" transform="translate(78.710938 0)"/>
      <use xlink:href="#DejaVuSans-69" transform="translate(119.824219 0)"/>
      <use xlink:href="#DejaVuSans-67" transform="translate(147.607422 0)"/>
      <use xlink:href="#DejaVuSans-69" transform="translate(211.083984 0)"/>
      <use xlink:href="#DejaVuSans-6e" transform="translate(238.867188 0)"/>
      <use xlink:href="#DejaVuSans-61" transform="translate(302.246094 0)"/>
      <use xlink:href="#DejaVuSans-6c" transform="translate(363.525391 0)"/>
     </g>
    </g>
    <g id="line2d_19">
     <path d="M 701.46875 62.336562 
L 711.46875 62.336562 
L 721.46875 62.336562 
" style="fill: none; stroke: #0000ff; stroke-width: 1.5; stroke-linecap: square"/>
    </g>
    <g id="text_21">
     <!-- Mean -->
     <g transform="translate(729.46875 65.836562) scale(0.1 -0.1)">
      <defs>
       <path id="DejaVuSans-4d" d="M 628 4666 
L 1569 4666 
L 2759 1491 
L 3956 4666 
L 4897 4666 
L 4897 0 
L 4281 0 
L 4281 4097 
L 3078 897 
L 2444 897 
L 1241 4097 
L 1241 0 
L 628 0 
L 628 4666 
z
" transform="scale(0.015625)"/>
      </defs>
      <use xlink:href="#DejaVuSans-4d"/>
      <use xlink:href="#DejaVuSans-65" transform="translate(86.279297 0)"/>
      <use xlink:href="#DejaVuSans-61" transform="translate(147.802734 0)"/>
      <use xlink:href="#DejaVuSans-6e" transform="translate(209.082031 0)"/>
     </g>
    </g>
   </g>
  </g>
 </g>
 <defs>
  <clipPath id="pe41e67bebd">
   <rect x="108" y="34.56" width="669.6" height="221.76"/>
  </clipPath>
 </defs>
</svg>
