<?xml version="1.0" encoding="utf-8" standalone="no"?>
<!DOCTYPE svg PUBLIC "-//W3C//DTD SVG 1.1//EN"
  "http://www.w3.org/Graphics/SVG/1.1/DTD/svg11.dtd">
<svg xmlns:xlink="http://www.w3.org/1999/xlink" width="460.8pt" height="345.6pt" viewBox="0 0 460.8 345.6" xmlns="http://www.w3.org/2000/svg" version="1.1">
 <metadata>
  <rdf:RDF xmlns:dc="http://purl.org/dc/elements/1.1/" xmlns:cc="http://creativecommons.org/ns#" xmlns:rdf="http://www.w3.org/1999/02/22-rdf-syntax-ns#">
   <cc:Work>
    <dc:type rdf:resource="http://purl.org/dc/dcmitype/StillImage"/>
    <dc:date>2025-03-22T20:31:13.266958</dc:date>
    <dc:format>image/svg+xml</dc:format>
    <dc:creator>
     <cc:Agent>
      <dc:title>Matplotlib v3.10.0, https://matplotlib.org/</dc:title>
     </cc:Agent>
    </dc:creator>
   </cc:Work>
  </rdf:RDF>
 </metadata>
 <defs>
  <style type="text/css">*{stroke-linejoin: round; stroke-linecap: butt}</style>
 </defs>
 <g id="figure_1">
  <g id="patch_1">
   <path d="M 0 345.6 
L 460.8 345.6 
L 460.8 0 
L 0 0 
z
" style="fill: #ffffff"/>
  </g>
  <g id="axes_1">
   <g id="patch_2">
    <path d="M 57.6 307.584 
L 414.72 307.584 
L 414.72 41.472 
L 57.6 41.472 
z
" style="fill: #ffffff"/>
   </g>
   <g id="patch_3">
    <path d="M 103.040254 307.584 
L 105.994724 307.584 
L 105.994724 306.601674 
L 103.040254 306.601674 
z
" clip-path="url(#p623a59486e)" style="fill: #1f77b4; opacity: 0.7"/>
   </g>
   <g id="patch_4">
    <path d="M 105.994724 307.584 
L 108.949195 307.584 
L 108.949195 307.584 
L 105.994724 307.584 
z
" clip-path="url(#p623a59486e)" style="fill: #1f77b4; opacity: 0.7"/>
   </g>
   <g id="patch_5">
    <path d="M 108.949195 307.584 
L 111.903665 307.584 
L 111.903665 307.584 
L 108.949195 307.584 
z
" clip-path="url(#p623a59486e)" style="fill: #1f77b4; opacity: 0.7"/>
   </g>
   <g id="patch_6">
    <path d="M 111.903665 307.584 
L 114.858135 307.584 
L 114.858135 307.584 
L 111.903665 307.584 
z
" clip-path="url(#p623a59486e)" style="fill: #1f77b4; opacity: 0.7"/>
   </g>
   <g id="patch_7">
    <path d="M 114.858135 307.584 
L 117.812605 307.584 
L 117.812605 307.584 
L 114.858135 307.584 
z
" clip-path="url(#p623a59486e)" style="fill: #1f77b4; opacity: 0.7"/>
   </g>
   <g id="patch_8">
    <path d="M 117.812605 307.584 
L 120.767075 307.584 
L 120.767075 307.584 
L 117.812605 307.584 
z
" clip-path="url(#p623a59486e)" style="fill: #1f77b4; opacity: 0.7"/>
   </g>
   <g id="patch_9">
    <path d="M 120.767075 307.584 
L 123.721545 307.584 
L 123.721545 307.584 
L 120.767075 307.584 
z
" clip-path="url(#p623a59486e)" style="fill: #1f77b4; opacity: 0.7"/>
   </g>
   <g id="patch_10">
    <path d="M 123.721545 307.584 
L 126.676016 307.584 
L 126.676016 307.584 
L 123.721545 307.584 
z
" clip-path="url(#p623a59486e)" style="fill: #1f77b4; opacity: 0.7"/>
   </g>
   <g id="patch_11">
    <path d="M 126.676016 307.584 
L 129.630486 307.584 
L 129.630486 307.584 
L 126.676016 307.584 
z
" clip-path="url(#p623a59486e)" style="fill: #1f77b4; opacity: 0.7"/>
   </g>
   <g id="patch_12">
    <path d="M 129.630486 307.584 
L 132.584956 307.584 
L 132.584956 307.584 
L 129.630486 307.584 
z
" clip-path="url(#p623a59486e)" style="fill: #1f77b4; opacity: 0.7"/>
   </g>
   <g id="patch_13">
    <path d="M 132.584956 307.584 
L 135.539426 307.584 
L 135.539426 307.584 
L 132.584956 307.584 
z
" clip-path="url(#p623a59486e)" style="fill: #1f77b4; opacity: 0.7"/>
   </g>
   <g id="patch_14">
    <path d="M 135.539426 307.584 
L 138.493896 307.584 
L 138.493896 307.584 
L 135.539426 307.584 
z
" clip-path="url(#p623a59486e)" style="fill: #1f77b4; opacity: 0.7"/>
   </g>
   <g id="patch_15">
    <path d="M 138.493896 307.584 
L 141.448367 307.584 
L 141.448367 307.584 
L 138.493896 307.584 
z
" clip-path="url(#p623a59486e)" style="fill: #1f77b4; opacity: 0.7"/>
   </g>
   <g id="patch_16">
    <path d="M 141.448367 307.584 
L 144.402837 307.584 
L 144.402837 307.584 
L 141.448367 307.584 
z
" clip-path="url(#p623a59486e)" style="fill: #1f77b4; opacity: 0.7"/>
   </g>
   <g id="patch_17">
    <path d="M 144.402837 307.584 
L 147.357307 307.584 
L 147.357307 307.584 
L 144.402837 307.584 
z
" clip-path="url(#p623a59486e)" style="fill: #1f77b4; opacity: 0.7"/>
   </g>
   <g id="patch_18">
    <path d="M 147.357307 307.584 
L 150.311777 307.584 
L 150.311777 307.584 
L 147.357307 307.584 
z
" clip-path="url(#p623a59486e)" style="fill: #1f77b4; opacity: 0.7"/>
   </g>
   <g id="patch_19">
    <path d="M 150.311777 307.584 
L 153.266247 307.584 
L 153.266247 307.584 
L 150.311777 307.584 
z
" clip-path="url(#p623a59486e)" style="fill: #1f77b4; opacity: 0.7"/>
   </g>
   <g id="patch_20">
    <path d="M 153.266247 307.584 
L 156.220717 307.584 
L 156.220717 307.584 
L 153.266247 307.584 
z
" clip-path="url(#p623a59486e)" style="fill: #1f77b4; opacity: 0.7"/>
   </g>
   <g id="patch_21">
    <path d="M 156.220717 307.584 
L 159.175188 307.584 
L 159.175188 307.584 
L 156.220717 307.584 
z
" clip-path="url(#p623a59486e)" style="fill: #1f77b4; opacity: 0.7"/>
   </g>
   <g id="patch_22">
    <path d="M 159.175188 307.584 
L 162.129658 307.584 
L 162.129658 307.584 
L 159.175188 307.584 
z
" clip-path="url(#p623a59486e)" style="fill: #1f77b4; opacity: 0.7"/>
   </g>
   <g id="patch_23">
    <path d="M 162.129658 307.584 
L 165.084128 307.584 
L 165.084128 307.584 
L 162.129658 307.584 
z
" clip-path="url(#p623a59486e)" style="fill: #1f77b4; opacity: 0.7"/>
   </g>
   <g id="patch_24">
    <path d="M 165.084128 307.584 
L 168.038598 307.584 
L 168.038598 307.584 
L 165.084128 307.584 
z
" clip-path="url(#p623a59486e)" style="fill: #1f77b4; opacity: 0.7"/>
   </g>
   <g id="patch_25">
    <path d="M 168.038598 307.584 
L 170.993068 307.584 
L 170.993068 307.584 
L 168.038598 307.584 
z
" clip-path="url(#p623a59486e)" style="fill: #1f77b4; opacity: 0.7"/>
   </g>
   <g id="patch_26">
    <path d="M 170.993068 307.584 
L 173.947539 307.584 
L 173.947539 307.584 
L 170.993068 307.584 
z
" clip-path="url(#p623a59486e)" style="fill: #1f77b4; opacity: 0.7"/>
   </g>
   <g id="patch_27">
    <path d="M 173.947539 307.584 
L 176.902009 307.584 
L 176.902009 307.584 
L 173.947539 307.584 
z
" clip-path="url(#p623a59486e)" style="fill: #1f77b4; opacity: 0.7"/>
   </g>
   <g id="patch_28">
    <path d="M 176.902009 307.584 
L 179.856479 307.584 
L 179.856479 307.584 
L 176.902009 307.584 
z
" clip-path="url(#p623a59486e)" style="fill: #1f77b4; opacity: 0.7"/>
   </g>
   <g id="patch_29">
    <path d="M 179.856479 307.584 
L 182.810949 307.584 
L 182.810949 307.584 
L 179.856479 307.584 
z
" clip-path="url(#p623a59486e)" style="fill: #1f77b4; opacity: 0.7"/>
   </g>
   <g id="patch_30">
    <path d="M 182.810949 307.584 
L 185.765419 307.584 
L 185.765419 307.584 
L 182.810949 307.584 
z
" clip-path="url(#p623a59486e)" style="fill: #1f77b4; opacity: 0.7"/>
   </g>
   <g id="patch_31">
    <path d="M 185.765419 307.584 
L 188.71989 307.584 
L 188.71989 307.584 
L 185.765419 307.584 
z
" clip-path="url(#p623a59486e)" style="fill: #1f77b4; opacity: 0.7"/>
   </g>
   <g id="patch_32">
    <path d="M 188.71989 307.584 
L 191.67436 307.584 
L 191.67436 307.584 
L 188.71989 307.584 
z
" clip-path="url(#p623a59486e)" style="fill: #1f77b4; opacity: 0.7"/>
   </g>
   <g id="patch_33">
    <path d="M 191.67436 307.584 
L 194.62883 307.584 
L 194.62883 307.584 
L 191.67436 307.584 
z
" clip-path="url(#p623a59486e)" style="fill: #1f77b4; opacity: 0.7"/>
   </g>
   <g id="patch_34">
    <path d="M 194.62883 307.584 
L 197.5833 307.584 
L 197.5833 307.584 
L 194.62883 307.584 
z
" clip-path="url(#p623a59486e)" style="fill: #1f77b4; opacity: 0.7"/>
   </g>
   <g id="patch_35">
    <path d="M 197.5833 307.584 
L 200.53777 307.584 
L 200.53777 307.584 
L 197.5833 307.584 
z
" clip-path="url(#p623a59486e)" style="fill: #1f77b4; opacity: 0.7"/>
   </g>
   <g id="patch_36">
    <path d="M 200.53777 307.584 
L 203.49224 307.584 
L 203.49224 306.601674 
L 200.53777 306.601674 
z
" clip-path="url(#p623a59486e)" style="fill: #1f77b4; opacity: 0.7"/>
   </g>
   <g id="patch_37">
    <path d="M 203.49224 307.584 
L 206.446711 307.584 
L 206.446711 305.619349 
L 203.49224 305.619349 
z
" clip-path="url(#p623a59486e)" style="fill: #1f77b4; opacity: 0.7"/>
   </g>
   <g id="patch_38">
    <path d="M 206.446711 307.584 
L 209.401181 307.584 
L 209.401181 305.619349 
L 206.446711 305.619349 
z
" clip-path="url(#p623a59486e)" style="fill: #1f77b4; opacity: 0.7"/>
   </g>
   <g id="patch_39">
    <path d="M 209.401181 307.584 
L 212.355651 307.584 
L 212.355651 303.654698 
L 209.401181 303.654698 
z
" clip-path="url(#p623a59486e)" style="fill: #1f77b4; opacity: 0.7"/>
   </g>
   <g id="patch_40">
    <path d="M 212.355651 307.584 
L 215.310121 307.584 
L 215.310121 303.654698 
L 212.355651 303.654698 
z
" clip-path="url(#p623a59486e)" style="fill: #1f77b4; opacity: 0.7"/>
   </g>
   <g id="patch_41">
    <path d="M 215.310121 307.584 
L 218.264591 307.584 
L 218.264591 293.831442 
L 215.310121 293.831442 
z
" clip-path="url(#p623a59486e)" style="fill: #1f77b4; opacity: 0.7"/>
   </g>
   <g id="patch_42">
    <path d="M 218.264591 307.584 
L 221.219062 307.584 
L 221.219062 284.990512 
L 218.264591 284.990512 
z
" clip-path="url(#p623a59486e)" style="fill: #1f77b4; opacity: 0.7"/>
   </g>
   <g id="patch_43">
    <path d="M 221.219062 307.584 
L 224.173532 307.584 
L 224.173532 270.255628 
L 221.219062 270.255628 
z
" clip-path="url(#p623a59486e)" style="fill: #1f77b4; opacity: 0.7"/>
   </g>
   <g id="patch_44">
    <path d="M 224.173532 307.584 
L 227.128002 307.584 
L 227.128002 241.768186 
L 224.173532 241.768186 
z
" clip-path="url(#p623a59486e)" style="fill: #1f77b4; opacity: 0.7"/>
   </g>
   <g id="patch_45">
    <path d="M 227.128002 307.584 
L 230.082472 307.584 
L 230.082472 235.874233 
L 227.128002 235.874233 
z
" clip-path="url(#p623a59486e)" style="fill: #1f77b4; opacity: 0.7"/>
   </g>
   <g id="patch_46">
    <path d="M 230.082472 307.584 
L 233.036942 307.584 
L 233.036942 191.669581 
L 230.082472 191.669581 
z
" clip-path="url(#p623a59486e)" style="fill: #1f77b4; opacity: 0.7"/>
   </g>
   <g id="patch_47">
    <path d="M 233.036942 307.584 
L 235.991413 307.584 
L 235.991413 189.70493 
L 233.036942 189.70493 
z
" clip-path="url(#p623a59486e)" style="fill: #1f77b4; opacity: 0.7"/>
   </g>
   <g id="patch_48">
    <path d="M 235.991413 307.584 
L 238.945883 307.584 
L 238.945883 168.093767 
L 235.991413 168.093767 
z
" clip-path="url(#p623a59486e)" style="fill: #1f77b4; opacity: 0.7"/>
   </g>
   <g id="patch_49">
    <path d="M 238.945883 307.584 
L 241.900353 307.584 
L 241.900353 138.624 
L 238.945883 138.624 
z
" clip-path="url(#p623a59486e)" style="fill: #1f77b4; opacity: 0.7"/>
   </g>
   <g id="patch_50">
    <path d="M 241.900353 307.584 
L 244.854823 307.584 
L 244.854823 152.376558 
L 241.900353 152.376558 
z
" clip-path="url(#p623a59486e)" style="fill: #1f77b4; opacity: 0.7"/>
   </g>
   <g id="patch_51">
    <path d="M 244.854823 307.584 
L 247.809293 307.584 
L 247.809293 160.235163 
L 244.854823 160.235163 
z
" clip-path="url(#p623a59486e)" style="fill: #1f77b4; opacity: 0.7"/>
   </g>
   <g id="patch_52">
    <path d="M 247.809293 307.584 
L 250.763763 307.584 
L 250.763763 173.005395 
L 247.809293 173.005395 
z
" clip-path="url(#p623a59486e)" style="fill: #1f77b4; opacity: 0.7"/>
   </g>
   <g id="patch_53">
    <path d="M 250.763763 307.584 
L 253.718234 307.584 
L 253.718234 206.404465 
L 250.763763 206.404465 
z
" clip-path="url(#p623a59486e)" style="fill: #1f77b4; opacity: 0.7"/>
   </g>
   <g id="patch_54">
    <path d="M 253.718234 307.584 
L 256.672704 307.584 
L 256.672704 202.475163 
L 253.718234 202.475163 
z
" clip-path="url(#p623a59486e)" style="fill: #1f77b4; opacity: 0.7"/>
   </g>
   <g id="patch_55">
    <path d="M 256.672704 307.584 
L 259.627174 307.584 
L 259.627174 224.086326 
L 256.672704 224.086326 
z
" clip-path="url(#p623a59486e)" style="fill: #1f77b4; opacity: 0.7"/>
   </g>
   <g id="patch_56">
    <path d="M 259.627174 307.584 
L 262.581644 307.584 
L 262.581644 237.838884 
L 259.627174 237.838884 
z
" clip-path="url(#p623a59486e)" style="fill: #1f77b4; opacity: 0.7"/>
   </g>
   <g id="patch_57">
    <path d="M 262.581644 307.584 
L 265.536114 307.584 
L 265.536114 259.450047 
L 262.581644 259.450047 
z
" clip-path="url(#p623a59486e)" style="fill: #1f77b4; opacity: 0.7"/>
   </g>
   <g id="patch_58">
    <path d="M 265.536114 307.584 
L 268.490585 307.584 
L 268.490585 282.043535 
L 265.536114 282.043535 
z
" clip-path="url(#p623a59486e)" style="fill: #1f77b4; opacity: 0.7"/>
   </g>
   <g id="patch_59">
    <path d="M 268.490585 307.584 
L 271.445055 307.584 
L 271.445055 280.078884 
L 268.490585 280.078884 
z
" clip-path="url(#p623a59486e)" style="fill: #1f77b4; opacity: 0.7"/>
   </g>
   <g id="patch_60">
    <path d="M 271.445055 307.584 
L 274.399525 307.584 
L 274.399525 295.796093 
L 271.445055 295.796093 
z
" clip-path="url(#p623a59486e)" style="fill: #1f77b4; opacity: 0.7"/>
   </g>
   <g id="patch_61">
    <path d="M 274.399525 307.584 
L 277.353995 307.584 
L 277.353995 291.866791 
L 274.399525 291.866791 
z
" clip-path="url(#p623a59486e)" style="fill: #1f77b4; opacity: 0.7"/>
   </g>
   <g id="patch_62">
    <path d="M 277.353995 307.584 
L 280.308465 307.584 
L 280.308465 296.778419 
L 277.353995 296.778419 
z
" clip-path="url(#p623a59486e)" style="fill: #1f77b4; opacity: 0.7"/>
   </g>
   <g id="patch_63">
    <path d="M 280.308465 307.584 
L 283.262935 307.584 
L 283.262935 302.672372 
L 280.308465 302.672372 
z
" clip-path="url(#p623a59486e)" style="fill: #1f77b4; opacity: 0.7"/>
   </g>
   <g id="patch_64">
    <path d="M 283.262935 307.584 
L 286.217406 307.584 
L 286.217406 303.654698 
L 283.262935 303.654698 
z
" clip-path="url(#p623a59486e)" style="fill: #1f77b4; opacity: 0.7"/>
   </g>
   <g id="patch_65">
    <path d="M 286.217406 307.584 
L 289.171876 307.584 
L 289.171876 305.619349 
L 286.217406 305.619349 
z
" clip-path="url(#p623a59486e)" style="fill: #1f77b4; opacity: 0.7"/>
   </g>
   <g id="patch_66">
    <path d="M 289.171876 307.584 
L 292.126346 307.584 
L 292.126346 305.619349 
L 289.171876 305.619349 
z
" clip-path="url(#p623a59486e)" style="fill: #1f77b4; opacity: 0.7"/>
   </g>
   <g id="patch_67">
    <path d="M 292.126346 307.584 
L 295.080816 307.584 
L 295.080816 307.584 
L 292.126346 307.584 
z
" clip-path="url(#p623a59486e)" style="fill: #1f77b4; opacity: 0.7"/>
   </g>
   <g id="patch_68">
    <path d="M 295.080816 307.584 
L 298.035286 307.584 
L 298.035286 307.584 
L 295.080816 307.584 
z
" clip-path="url(#p623a59486e)" style="fill: #1f77b4; opacity: 0.7"/>
   </g>
   <g id="patch_69">
    <path d="M 298.035286 307.584 
L 300.989757 307.584 
L 300.989757 307.584 
L 298.035286 307.584 
z
" clip-path="url(#p623a59486e)" style="fill: #1f77b4; opacity: 0.7"/>
   </g>
   <g id="patch_70">
    <path d="M 300.989757 307.584 
L 303.944227 307.584 
L 303.944227 307.584 
L 300.989757 307.584 
z
" clip-path="url(#p623a59486e)" style="fill: #1f77b4; opacity: 0.7"/>
   </g>
   <g id="patch_71">
    <path d="M 303.944227 307.584 
L 306.898697 307.584 
L 306.898697 307.584 
L 303.944227 307.584 
z
" clip-path="url(#p623a59486e)" style="fill: #1f77b4; opacity: 0.7"/>
   </g>
   <g id="patch_72">
    <path d="M 306.898697 307.584 
L 309.853167 307.584 
L 309.853167 307.584 
L 306.898697 307.584 
z
" clip-path="url(#p623a59486e)" style="fill: #1f77b4; opacity: 0.7"/>
   </g>
   <g id="patch_73">
    <path d="M 309.853167 307.584 
L 312.807637 307.584 
L 312.807637 307.584 
L 309.853167 307.584 
z
" clip-path="url(#p623a59486e)" style="fill: #1f77b4; opacity: 0.7"/>
   </g>
   <g id="patch_74">
    <path d="M 312.807637 307.584 
L 315.762108 307.584 
L 315.762108 307.584 
L 312.807637 307.584 
z
" clip-path="url(#p623a59486e)" style="fill: #1f77b4; opacity: 0.7"/>
   </g>
   <g id="patch_75">
    <path d="M 315.762108 307.584 
L 318.716578 307.584 
L 318.716578 307.584 
L 315.762108 307.584 
z
" clip-path="url(#p623a59486e)" style="fill: #1f77b4; opacity: 0.7"/>
   </g>
   <g id="patch_76">
    <path d="M 318.716578 307.584 
L 321.671048 307.584 
L 321.671048 306.601674 
L 318.716578 306.601674 
z
" clip-path="url(#p623a59486e)" style="fill: #1f77b4; opacity: 0.7"/>
   </g>
   <g id="patch_77">
    <path d="M 321.671048 307.584 
L 324.625518 307.584 
L 324.625518 307.584 
L 321.671048 307.584 
z
" clip-path="url(#p623a59486e)" style="fill: #1f77b4; opacity: 0.7"/>
   </g>
   <g id="patch_78">
    <path d="M 324.625518 307.584 
L 327.579988 307.584 
L 327.579988 307.584 
L 324.625518 307.584 
z
" clip-path="url(#p623a59486e)" style="fill: #1f77b4; opacity: 0.7"/>
   </g>
   <g id="patch_79">
    <path d="M 327.579988 307.584 
L 330.534458 307.584 
L 330.534458 306.601674 
L 327.579988 306.601674 
z
" clip-path="url(#p623a59486e)" style="fill: #1f77b4; opacity: 0.7"/>
   </g>
   <g id="patch_80">
    <path d="M 330.534458 307.584 
L 333.488929 307.584 
L 333.488929 307.584 
L 330.534458 307.584 
z
" clip-path="url(#p623a59486e)" style="fill: #1f77b4; opacity: 0.7"/>
   </g>
   <g id="patch_81">
    <path d="M 333.488929 307.584 
L 336.443399 307.584 
L 336.443399 305.619349 
L 333.488929 305.619349 
z
" clip-path="url(#p623a59486e)" style="fill: #1f77b4; opacity: 0.7"/>
   </g>
   <g id="patch_82">
    <path d="M 336.443399 307.584 
L 339.397869 307.584 
L 339.397869 307.584 
L 336.443399 307.584 
z
" clip-path="url(#p623a59486e)" style="fill: #1f77b4; opacity: 0.7"/>
   </g>
   <g id="patch_83">
    <path d="M 339.397869 307.584 
L 342.352339 307.584 
L 342.352339 307.584 
L 339.397869 307.584 
z
" clip-path="url(#p623a59486e)" style="fill: #1f77b4; opacity: 0.7"/>
   </g>
   <g id="patch_84">
    <path d="M 342.352339 307.584 
L 345.306809 307.584 
L 345.306809 307.584 
L 342.352339 307.584 
z
" clip-path="url(#p623a59486e)" style="fill: #1f77b4; opacity: 0.7"/>
   </g>
   <g id="patch_85">
    <path d="M 345.306809 307.584 
L 348.26128 307.584 
L 348.26128 307.584 
L 345.306809 307.584 
z
" clip-path="url(#p623a59486e)" style="fill: #1f77b4; opacity: 0.7"/>
   </g>
   <g id="patch_86">
    <path d="M 348.26128 307.584 
L 351.21575 307.584 
L 351.21575 307.584 
L 348.26128 307.584 
z
" clip-path="url(#p623a59486e)" style="fill: #1f77b4; opacity: 0.7"/>
   </g>
   <g id="patch_87">
    <path d="M 351.21575 307.584 
L 354.17022 307.584 
L 354.17022 307.584 
L 351.21575 307.584 
z
" clip-path="url(#p623a59486e)" style="fill: #1f77b4; opacity: 0.7"/>
   </g>
   <g id="patch_88">
    <path d="M 354.17022 307.584 
L 357.12469 307.584 
L 357.12469 307.584 
L 354.17022 307.584 
z
" clip-path="url(#p623a59486e)" style="fill: #1f77b4; opacity: 0.7"/>
   </g>
   <g id="patch_89">
    <path d="M 357.12469 307.584 
L 360.07916 307.584 
L 360.07916 307.584 
L 357.12469 307.584 
z
" clip-path="url(#p623a59486e)" style="fill: #1f77b4; opacity: 0.7"/>
   </g>
   <g id="patch_90">
    <path d="M 360.07916 307.584 
L 363.03363 307.584 
L 363.03363 307.584 
L 360.07916 307.584 
z
" clip-path="url(#p623a59486e)" style="fill: #1f77b4; opacity: 0.7"/>
   </g>
   <g id="patch_91">
    <path d="M 363.03363 307.584 
L 365.988101 307.584 
L 365.988101 307.584 
L 363.03363 307.584 
z
" clip-path="url(#p623a59486e)" style="fill: #1f77b4; opacity: 0.7"/>
   </g>
   <g id="patch_92">
    <path d="M 365.988101 307.584 
L 368.942571 307.584 
L 368.942571 307.584 
L 365.988101 307.584 
z
" clip-path="url(#p623a59486e)" style="fill: #1f77b4; opacity: 0.7"/>
   </g>
   <g id="patch_93">
    <path d="M 368.942571 307.584 
L 371.897041 307.584 
L 371.897041 307.584 
L 368.942571 307.584 
z
" clip-path="url(#p623a59486e)" style="fill: #1f77b4; opacity: 0.7"/>
   </g>
   <g id="patch_94">
    <path d="M 371.897041 307.584 
L 374.851511 307.584 
L 374.851511 307.584 
L 371.897041 307.584 
z
" clip-path="url(#p623a59486e)" style="fill: #1f77b4; opacity: 0.7"/>
   </g>
   <g id="patch_95">
    <path d="M 374.851511 307.584 
L 377.805981 307.584 
L 377.805981 307.584 
L 374.851511 307.584 
z
" clip-path="url(#p623a59486e)" style="fill: #1f77b4; opacity: 0.7"/>
   </g>
   <g id="patch_96">
    <path d="M 377.805981 307.584 
L 380.760452 307.584 
L 380.760452 307.584 
L 377.805981 307.584 
z
" clip-path="url(#p623a59486e)" style="fill: #1f77b4; opacity: 0.7"/>
   </g>
   <g id="patch_97">
    <path d="M 380.760452 307.584 
L 383.714922 307.584 
L 383.714922 307.584 
L 380.760452 307.584 
z
" clip-path="url(#p623a59486e)" style="fill: #1f77b4; opacity: 0.7"/>
   </g>
   <g id="patch_98">
    <path d="M 383.714922 307.584 
L 386.669392 307.584 
L 386.669392 307.584 
L 383.714922 307.584 
z
" clip-path="url(#p623a59486e)" style="fill: #1f77b4; opacity: 0.7"/>
   </g>
   <g id="patch_99">
    <path d="M 386.669392 307.584 
L 389.623862 307.584 
L 389.623862 307.584 
L 386.669392 307.584 
z
" clip-path="url(#p623a59486e)" style="fill: #1f77b4; opacity: 0.7"/>
   </g>
   <g id="patch_100">
    <path d="M 389.623862 307.584 
L 392.578332 307.584 
L 392.578332 307.584 
L 389.623862 307.584 
z
" clip-path="url(#p623a59486e)" style="fill: #1f77b4; opacity: 0.7"/>
   </g>
   <g id="patch_101">
    <path d="M 392.578332 307.584 
L 395.532803 307.584 
L 395.532803 307.584 
L 392.578332 307.584 
z
" clip-path="url(#p623a59486e)" style="fill: #1f77b4; opacity: 0.7"/>
   </g>
   <g id="patch_102">
    <path d="M 395.532803 307.584 
L 398.487273 307.584 
L 398.487273 306.601674 
L 395.532803 306.601674 
z
" clip-path="url(#p623a59486e)" style="fill: #1f77b4; opacity: 0.7"/>
   </g>
   <g id="patch_103">
    <path d="M 73.832727 307.584 
L 75.606371 307.584 
L 75.606371 306.601674 
L 73.832727 306.601674 
z
" clip-path="url(#p623a59486e)" style="fill: #ff7f0e; opacity: 0.7"/>
   </g>
   <g id="patch_104">
    <path d="M 75.606371 307.584 
L 77.380015 307.584 
L 77.380015 307.584 
L 75.606371 307.584 
z
" clip-path="url(#p623a59486e)" style="fill: #ff7f0e; opacity: 0.7"/>
   </g>
   <g id="patch_105">
    <path d="M 77.380015 307.584 
L 79.153658 307.584 
L 79.153658 307.584 
L 77.380015 307.584 
z
" clip-path="url(#p623a59486e)" style="fill: #ff7f0e; opacity: 0.7"/>
   </g>
   <g id="patch_106">
    <path d="M 79.153658 307.584 
L 80.927302 307.584 
L 80.927302 307.584 
L 79.153658 307.584 
z
" clip-path="url(#p623a59486e)" style="fill: #ff7f0e; opacity: 0.7"/>
   </g>
   <g id="patch_107">
    <path d="M 80.927302 307.584 
L 82.700946 307.584 
L 82.700946 307.584 
L 80.927302 307.584 
z
" clip-path="url(#p623a59486e)" style="fill: #ff7f0e; opacity: 0.7"/>
   </g>
   <g id="patch_108">
    <path d="M 82.700946 307.584 
L 84.47459 307.584 
L 84.47459 307.584 
L 82.700946 307.584 
z
" clip-path="url(#p623a59486e)" style="fill: #ff7f0e; opacity: 0.7"/>
   </g>
   <g id="patch_109">
    <path d="M 84.47459 307.584 
L 86.248233 307.584 
L 86.248233 307.584 
L 84.47459 307.584 
z
" clip-path="url(#p623a59486e)" style="fill: #ff7f0e; opacity: 0.7"/>
   </g>
   <g id="patch_110">
    <path d="M 86.248233 307.584 
L 88.021877 307.584 
L 88.021877 307.584 
L 86.248233 307.584 
z
" clip-path="url(#p623a59486e)" style="fill: #ff7f0e; opacity: 0.7"/>
   </g>
   <g id="patch_111">
    <path d="M 88.021877 307.584 
L 89.795521 307.584 
L 89.795521 307.584 
L 88.021877 307.584 
z
" clip-path="url(#p623a59486e)" style="fill: #ff7f0e; opacity: 0.7"/>
   </g>
   <g id="patch_112">
    <path d="M 89.795521 307.584 
L 91.569164 307.584 
L 91.569164 307.584 
L 89.795521 307.584 
z
" clip-path="url(#p623a59486e)" style="fill: #ff7f0e; opacity: 0.7"/>
   </g>
   <g id="patch_113">
    <path d="M 91.569164 307.584 
L 93.342808 307.584 
L 93.342808 307.584 
L 91.569164 307.584 
z
" clip-path="url(#p623a59486e)" style="fill: #ff7f0e; opacity: 0.7"/>
   </g>
   <g id="patch_114">
    <path d="M 93.342808 307.584 
L 95.116452 307.584 
L 95.116452 307.584 
L 93.342808 307.584 
z
" clip-path="url(#p623a59486e)" style="fill: #ff7f0e; opacity: 0.7"/>
   </g>
   <g id="patch_115">
    <path d="M 95.116452 307.584 
L 96.890096 307.584 
L 96.890096 307.584 
L 95.116452 307.584 
z
" clip-path="url(#p623a59486e)" style="fill: #ff7f0e; opacity: 0.7"/>
   </g>
   <g id="patch_116">
    <path d="M 96.890096 307.584 
L 98.663739 307.584 
L 98.663739 307.584 
L 96.890096 307.584 
z
" clip-path="url(#p623a59486e)" style="fill: #ff7f0e; opacity: 0.7"/>
   </g>
   <g id="patch_117">
    <path d="M 98.663739 307.584 
L 100.437383 307.584 
L 100.437383 307.584 
L 98.663739 307.584 
z
" clip-path="url(#p623a59486e)" style="fill: #ff7f0e; opacity: 0.7"/>
   </g>
   <g id="patch_118">
    <path d="M 100.437383 307.584 
L 102.211027 307.584 
L 102.211027 307.584 
L 100.437383 307.584 
z
" clip-path="url(#p623a59486e)" style="fill: #ff7f0e; opacity: 0.7"/>
   </g>
   <g id="patch_119">
    <path d="M 102.211027 307.584 
L 103.98467 307.584 
L 103.98467 307.584 
L 102.211027 307.584 
z
" clip-path="url(#p623a59486e)" style="fill: #ff7f0e; opacity: 0.7"/>
   </g>
   <g id="patch_120">
    <path d="M 103.98467 307.584 
L 105.758314 307.584 
L 105.758314 307.584 
L 103.98467 307.584 
z
" clip-path="url(#p623a59486e)" style="fill: #ff7f0e; opacity: 0.7"/>
   </g>
   <g id="patch_121">
    <path d="M 105.758314 307.584 
L 107.531958 307.584 
L 107.531958 307.584 
L 105.758314 307.584 
z
" clip-path="url(#p623a59486e)" style="fill: #ff7f0e; opacity: 0.7"/>
   </g>
   <g id="patch_122">
    <path d="M 107.531958 307.584 
L 109.305602 307.584 
L 109.305602 307.584 
L 107.531958 307.584 
z
" clip-path="url(#p623a59486e)" style="fill: #ff7f0e; opacity: 0.7"/>
   </g>
   <g id="patch_123">
    <path d="M 109.305602 307.584 
L 111.079245 307.584 
L 111.079245 307.584 
L 109.305602 307.584 
z
" clip-path="url(#p623a59486e)" style="fill: #ff7f0e; opacity: 0.7"/>
   </g>
   <g id="patch_124">
    <path d="M 111.079245 307.584 
L 112.852889 307.584 
L 112.852889 307.584 
L 111.079245 307.584 
z
" clip-path="url(#p623a59486e)" style="fill: #ff7f0e; opacity: 0.7"/>
   </g>
   <g id="patch_125">
    <path d="M 112.852889 307.584 
L 114.626533 307.584 
L 114.626533 307.584 
L 112.852889 307.584 
z
" clip-path="url(#p623a59486e)" style="fill: #ff7f0e; opacity: 0.7"/>
   </g>
   <g id="patch_126">
    <path d="M 114.626533 307.584 
L 116.400176 307.584 
L 116.400176 307.584 
L 114.626533 307.584 
z
" clip-path="url(#p623a59486e)" style="fill: #ff7f0e; opacity: 0.7"/>
   </g>
   <g id="patch_127">
    <path d="M 116.400176 307.584 
L 118.17382 307.584 
L 118.17382 307.584 
L 116.400176 307.584 
z
" clip-path="url(#p623a59486e)" style="fill: #ff7f0e; opacity: 0.7"/>
   </g>
   <g id="patch_128">
    <path d="M 118.17382 307.584 
L 119.947464 307.584 
L 119.947464 307.584 
L 118.17382 307.584 
z
" clip-path="url(#p623a59486e)" style="fill: #ff7f0e; opacity: 0.7"/>
   </g>
   <g id="patch_129">
    <path d="M 119.947464 307.584 
L 121.721108 307.584 
L 121.721108 307.584 
L 119.947464 307.584 
z
" clip-path="url(#p623a59486e)" style="fill: #ff7f0e; opacity: 0.7"/>
   </g>
   <g id="patch_130">
    <path d="M 121.721108 307.584 
L 123.494751 307.584 
L 123.494751 307.584 
L 121.721108 307.584 
z
" clip-path="url(#p623a59486e)" style="fill: #ff7f0e; opacity: 0.7"/>
   </g>
   <g id="patch_131">
    <path d="M 123.494751 307.584 
L 125.268395 307.584 
L 125.268395 307.584 
L 123.494751 307.584 
z
" clip-path="url(#p623a59486e)" style="fill: #ff7f0e; opacity: 0.7"/>
   </g>
   <g id="patch_132">
    <path d="M 125.268395 307.584 
L 127.042039 307.584 
L 127.042039 307.584 
L 125.268395 307.584 
z
" clip-path="url(#p623a59486e)" style="fill: #ff7f0e; opacity: 0.7"/>
   </g>
   <g id="patch_133">
    <path d="M 127.042039 307.584 
L 128.815682 307.584 
L 128.815682 307.584 
L 127.042039 307.584 
z
" clip-path="url(#p623a59486e)" style="fill: #ff7f0e; opacity: 0.7"/>
   </g>
   <g id="patch_134">
    <path d="M 128.815682 307.584 
L 130.589326 307.584 
L 130.589326 307.584 
L 128.815682 307.584 
z
" clip-path="url(#p623a59486e)" style="fill: #ff7f0e; opacity: 0.7"/>
   </g>
   <g id="patch_135">
    <path d="M 130.589326 307.584 
L 132.36297 307.584 
L 132.36297 307.584 
L 130.589326 307.584 
z
" clip-path="url(#p623a59486e)" style="fill: #ff7f0e; opacity: 0.7"/>
   </g>
   <g id="patch_136">
    <path d="M 132.36297 307.584 
L 134.136614 307.584 
L 134.136614 307.584 
L 132.36297 307.584 
z
" clip-path="url(#p623a59486e)" style="fill: #ff7f0e; opacity: 0.7"/>
   </g>
   <g id="patch_137">
    <path d="M 134.136614 307.584 
L 135.910257 307.584 
L 135.910257 307.584 
L 134.136614 307.584 
z
" clip-path="url(#p623a59486e)" style="fill: #ff7f0e; opacity: 0.7"/>
   </g>
   <g id="patch_138">
    <path d="M 135.910257 307.584 
L 137.683901 307.584 
L 137.683901 307.584 
L 135.910257 307.584 
z
" clip-path="url(#p623a59486e)" style="fill: #ff7f0e; opacity: 0.7"/>
   </g>
   <g id="patch_139">
    <path d="M 137.683901 307.584 
L 139.457545 307.584 
L 139.457545 307.584 
L 137.683901 307.584 
z
" clip-path="url(#p623a59486e)" style="fill: #ff7f0e; opacity: 0.7"/>
   </g>
   <g id="patch_140">
    <path d="M 139.457545 307.584 
L 141.231188 307.584 
L 141.231188 307.584 
L 139.457545 307.584 
z
" clip-path="url(#p623a59486e)" style="fill: #ff7f0e; opacity: 0.7"/>
   </g>
   <g id="patch_141">
    <path d="M 141.231188 307.584 
L 143.004832 307.584 
L 143.004832 307.584 
L 141.231188 307.584 
z
" clip-path="url(#p623a59486e)" style="fill: #ff7f0e; opacity: 0.7"/>
   </g>
   <g id="patch_142">
    <path d="M 143.004832 307.584 
L 144.778476 307.584 
L 144.778476 307.584 
L 143.004832 307.584 
z
" clip-path="url(#p623a59486e)" style="fill: #ff7f0e; opacity: 0.7"/>
   </g>
   <g id="patch_143">
    <path d="M 144.778476 307.584 
L 146.55212 307.584 
L 146.55212 307.584 
L 144.778476 307.584 
z
" clip-path="url(#p623a59486e)" style="fill: #ff7f0e; opacity: 0.7"/>
   </g>
   <g id="patch_144">
    <path d="M 146.55212 307.584 
L 148.325763 307.584 
L 148.325763 307.584 
L 146.55212 307.584 
z
" clip-path="url(#p623a59486e)" style="fill: #ff7f0e; opacity: 0.7"/>
   </g>
   <g id="patch_145">
    <path d="M 148.325763 307.584 
L 150.099407 307.584 
L 150.099407 307.584 
L 148.325763 307.584 
z
" clip-path="url(#p623a59486e)" style="fill: #ff7f0e; opacity: 0.7"/>
   </g>
   <g id="patch_146">
    <path d="M 150.099407 307.584 
L 151.873051 307.584 
L 151.873051 307.584 
L 150.099407 307.584 
z
" clip-path="url(#p623a59486e)" style="fill: #ff7f0e; opacity: 0.7"/>
   </g>
   <g id="patch_147">
    <path d="M 151.873051 307.584 
L 153.646694 307.584 
L 153.646694 307.584 
L 151.873051 307.584 
z
" clip-path="url(#p623a59486e)" style="fill: #ff7f0e; opacity: 0.7"/>
   </g>
   <g id="patch_148">
    <path d="M 153.646694 307.584 
L 155.420338 307.584 
L 155.420338 306.601674 
L 153.646694 306.601674 
z
" clip-path="url(#p623a59486e)" style="fill: #ff7f0e; opacity: 0.7"/>
   </g>
   <g id="patch_149">
    <path d="M 155.420338 307.584 
L 157.193982 307.584 
L 157.193982 307.584 
L 155.420338 307.584 
z
" clip-path="url(#p623a59486e)" style="fill: #ff7f0e; opacity: 0.7"/>
   </g>
   <g id="patch_150">
    <path d="M 157.193982 307.584 
L 158.967626 307.584 
L 158.967626 306.601674 
L 157.193982 306.601674 
z
" clip-path="url(#p623a59486e)" style="fill: #ff7f0e; opacity: 0.7"/>
   </g>
   <g id="patch_151">
    <path d="M 158.967626 307.584 
L 160.741269 307.584 
L 160.741269 307.584 
L 158.967626 307.584 
z
" clip-path="url(#p623a59486e)" style="fill: #ff7f0e; opacity: 0.7"/>
   </g>
   <g id="patch_152">
    <path d="M 160.741269 307.584 
L 162.514913 307.584 
L 162.514913 307.584 
L 160.741269 307.584 
z
" clip-path="url(#p623a59486e)" style="fill: #ff7f0e; opacity: 0.7"/>
   </g>
   <g id="patch_153">
    <path d="M 162.514913 307.584 
L 164.288557 307.584 
L 164.288557 307.584 
L 162.514913 307.584 
z
" clip-path="url(#p623a59486e)" style="fill: #ff7f0e; opacity: 0.7"/>
   </g>
   <g id="patch_154">
    <path d="M 164.288557 307.584 
L 166.0622 307.584 
L 166.0622 307.584 
L 164.288557 307.584 
z
" clip-path="url(#p623a59486e)" style="fill: #ff7f0e; opacity: 0.7"/>
   </g>
   <g id="patch_155">
    <path d="M 166.0622 307.584 
L 167.835844 307.584 
L 167.835844 306.601674 
L 166.0622 306.601674 
z
" clip-path="url(#p623a59486e)" style="fill: #ff7f0e; opacity: 0.7"/>
   </g>
   <g id="patch_156">
    <path d="M 167.835844 307.584 
L 169.609488 307.584 
L 169.609488 305.619349 
L 167.835844 305.619349 
z
" clip-path="url(#p623a59486e)" style="fill: #ff7f0e; opacity: 0.7"/>
   </g>
   <g id="patch_157">
    <path d="M 169.609488 307.584 
L 171.383132 307.584 
L 171.383132 304.637023 
L 169.609488 304.637023 
z
" clip-path="url(#p623a59486e)" style="fill: #ff7f0e; opacity: 0.7"/>
   </g>
   <g id="patch_158">
    <path d="M 171.383132 307.584 
L 173.156775 307.584 
L 173.156775 288.919814 
L 171.383132 288.919814 
z
" clip-path="url(#p623a59486e)" style="fill: #ff7f0e; opacity: 0.7"/>
   </g>
   <g id="patch_159">
    <path d="M 173.156775 307.584 
L 174.930419 307.584 
L 174.930419 267.308651 
L 173.156775 267.308651 
z
" clip-path="url(#p623a59486e)" style="fill: #ff7f0e; opacity: 0.7"/>
   </g>
   <g id="patch_160">
    <path d="M 174.930419 307.584 
L 176.704063 307.584 
L 176.704063 233.909581 
L 174.930419 233.909581 
z
" clip-path="url(#p623a59486e)" style="fill: #ff7f0e; opacity: 0.7"/>
   </g>
   <g id="patch_161">
    <path d="M 176.704063 307.584 
L 178.477706 307.584 
L 178.477706 194.616558 
L 176.704063 194.616558 
z
" clip-path="url(#p623a59486e)" style="fill: #ff7f0e; opacity: 0.7"/>
   </g>
   <g id="patch_162">
    <path d="M 178.477706 307.584 
L 180.25135 307.584 
L 180.25135 119.959814 
L 178.477706 119.959814 
z
" clip-path="url(#p623a59486e)" style="fill: #ff7f0e; opacity: 0.7"/>
   </g>
   <g id="patch_163">
    <path d="M 180.25135 307.584 
L 182.024994 307.584 
L 182.024994 73.790512 
L 180.25135 73.790512 
z
" clip-path="url(#p623a59486e)" style="fill: #ff7f0e; opacity: 0.7"/>
   </g>
   <g id="patch_164">
    <path d="M 182.024994 307.584 
L 183.798637 307.584 
L 183.798637 54.144 
L 182.024994 54.144 
z
" clip-path="url(#p623a59486e)" style="fill: #ff7f0e; opacity: 0.7"/>
   </g>
   <g id="patch_165">
    <path d="M 183.798637 307.584 
L 185.572281 307.584 
L 185.572281 77.719814 
L 183.798637 77.719814 
z
" clip-path="url(#p623a59486e)" style="fill: #ff7f0e; opacity: 0.7"/>
   </g>
   <g id="patch_166">
    <path d="M 185.572281 307.584 
L 187.345925 307.584 
L 187.345925 149.429581 
L 185.572281 149.429581 
z
" clip-path="url(#p623a59486e)" style="fill: #ff7f0e; opacity: 0.7"/>
   </g>
   <g id="patch_167">
    <path d="M 187.345925 307.584 
L 189.119569 307.584 
L 189.119569 165.146791 
L 187.345925 165.146791 
z
" clip-path="url(#p623a59486e)" style="fill: #ff7f0e; opacity: 0.7"/>
   </g>
   <g id="patch_168">
    <path d="M 189.119569 307.584 
L 190.893212 307.584 
L 190.893212 217.210047 
L 189.119569 217.210047 
z
" clip-path="url(#p623a59486e)" style="fill: #ff7f0e; opacity: 0.7"/>
   </g>
   <g id="patch_169">
    <path d="M 190.893212 307.584 
L 192.666856 307.584 
L 192.666856 234.891907 
L 190.893212 234.891907 
z
" clip-path="url(#p623a59486e)" style="fill: #ff7f0e; opacity: 0.7"/>
   </g>
   <g id="patch_170">
    <path d="M 192.666856 307.584 
L 194.4405 307.584 
L 194.4405 264.361674 
L 192.666856 264.361674 
z
" clip-path="url(#p623a59486e)" style="fill: #ff7f0e; opacity: 0.7"/>
   </g>
   <g id="patch_171">
    <path d="M 194.4405 307.584 
L 196.214143 307.584 
L 196.214143 284.990512 
L 194.4405 284.990512 
z
" clip-path="url(#p623a59486e)" style="fill: #ff7f0e; opacity: 0.7"/>
   </g>
   <g id="patch_172">
    <path d="M 196.214143 307.584 
L 197.987787 307.584 
L 197.987787 294.813767 
L 196.214143 294.813767 
z
" clip-path="url(#p623a59486e)" style="fill: #ff7f0e; opacity: 0.7"/>
   </g>
   <g id="patch_173">
    <path d="M 197.987787 307.584 
L 199.761431 307.584 
L 199.761431 298.74307 
L 197.987787 298.74307 
z
" clip-path="url(#p623a59486e)" style="fill: #ff7f0e; opacity: 0.7"/>
   </g>
   <g id="patch_174">
    <path d="M 199.761431 307.584 
L 201.535075 307.584 
L 201.535075 303.654698 
L 199.761431 303.654698 
z
" clip-path="url(#p623a59486e)" style="fill: #ff7f0e; opacity: 0.7"/>
   </g>
   <g id="patch_175">
    <path d="M 201.535075 307.584 
L 203.308718 307.584 
L 203.308718 305.619349 
L 201.535075 305.619349 
z
" clip-path="url(#p623a59486e)" style="fill: #ff7f0e; opacity: 0.7"/>
   </g>
   <g id="patch_176">
    <path d="M 203.308718 307.584 
L 205.082362 307.584 
L 205.082362 307.584 
L 203.308718 307.584 
z
" clip-path="url(#p623a59486e)" style="fill: #ff7f0e; opacity: 0.7"/>
   </g>
   <g id="patch_177">
    <path d="M 205.082362 307.584 
L 206.856006 307.584 
L 206.856006 307.584 
L 205.082362 307.584 
z
" clip-path="url(#p623a59486e)" style="fill: #ff7f0e; opacity: 0.7"/>
   </g>
   <g id="patch_178">
    <path d="M 206.856006 307.584 
L 208.629649 307.584 
L 208.629649 307.584 
L 206.856006 307.584 
z
" clip-path="url(#p623a59486e)" style="fill: #ff7f0e; opacity: 0.7"/>
   </g>
   <g id="patch_179">
    <path d="M 208.629649 307.584 
L 210.403293 307.584 
L 210.403293 307.584 
L 208.629649 307.584 
z
" clip-path="url(#p623a59486e)" style="fill: #ff7f0e; opacity: 0.7"/>
   </g>
   <g id="patch_180">
    <path d="M 210.403293 307.584 
L 212.176937 307.584 
L 212.176937 307.584 
L 210.403293 307.584 
z
" clip-path="url(#p623a59486e)" style="fill: #ff7f0e; opacity: 0.7"/>
   </g>
   <g id="patch_181">
    <path d="M 212.176937 307.584 
L 213.950581 307.584 
L 213.950581 306.601674 
L 212.176937 306.601674 
z
" clip-path="url(#p623a59486e)" style="fill: #ff7f0e; opacity: 0.7"/>
   </g>
   <g id="patch_182">
    <path d="M 213.950581 307.584 
L 215.724224 307.584 
L 215.724224 307.584 
L 213.950581 307.584 
z
" clip-path="url(#p623a59486e)" style="fill: #ff7f0e; opacity: 0.7"/>
   </g>
   <g id="patch_183">
    <path d="M 215.724224 307.584 
L 217.497868 307.584 
L 217.497868 307.584 
L 215.724224 307.584 
z
" clip-path="url(#p623a59486e)" style="fill: #ff7f0e; opacity: 0.7"/>
   </g>
   <g id="patch_184">
    <path d="M 217.497868 307.584 
L 219.271512 307.584 
L 219.271512 307.584 
L 217.497868 307.584 
z
" clip-path="url(#p623a59486e)" style="fill: #ff7f0e; opacity: 0.7"/>
   </g>
   <g id="patch_185">
    <path d="M 219.271512 307.584 
L 221.045155 307.584 
L 221.045155 306.601674 
L 219.271512 306.601674 
z
" clip-path="url(#p623a59486e)" style="fill: #ff7f0e; opacity: 0.7"/>
   </g>
   <g id="patch_186">
    <path d="M 221.045155 307.584 
L 222.818799 307.584 
L 222.818799 306.601674 
L 221.045155 306.601674 
z
" clip-path="url(#p623a59486e)" style="fill: #ff7f0e; opacity: 0.7"/>
   </g>
   <g id="patch_187">
    <path d="M 222.818799 307.584 
L 224.592443 307.584 
L 224.592443 306.601674 
L 222.818799 306.601674 
z
" clip-path="url(#p623a59486e)" style="fill: #ff7f0e; opacity: 0.7"/>
   </g>
   <g id="patch_188">
    <path d="M 224.592443 307.584 
L 226.366087 307.584 
L 226.366087 307.584 
L 224.592443 307.584 
z
" clip-path="url(#p623a59486e)" style="fill: #ff7f0e; opacity: 0.7"/>
   </g>
   <g id="patch_189">
    <path d="M 226.366087 307.584 
L 228.13973 307.584 
L 228.13973 307.584 
L 226.366087 307.584 
z
" clip-path="url(#p623a59486e)" style="fill: #ff7f0e; opacity: 0.7"/>
   </g>
   <g id="patch_190">
    <path d="M 228.13973 307.584 
L 229.913374 307.584 
L 229.913374 307.584 
L 228.13973 307.584 
z
" clip-path="url(#p623a59486e)" style="fill: #ff7f0e; opacity: 0.7"/>
   </g>
   <g id="patch_191">
    <path d="M 229.913374 307.584 
L 231.687018 307.584 
L 231.687018 307.584 
L 229.913374 307.584 
z
" clip-path="url(#p623a59486e)" style="fill: #ff7f0e; opacity: 0.7"/>
   </g>
   <g id="patch_192">
    <path d="M 231.687018 307.584 
L 233.460661 307.584 
L 233.460661 307.584 
L 231.687018 307.584 
z
" clip-path="url(#p623a59486e)" style="fill: #ff7f0e; opacity: 0.7"/>
   </g>
   <g id="patch_193">
    <path d="M 233.460661 307.584 
L 235.234305 307.584 
L 235.234305 307.584 
L 233.460661 307.584 
z
" clip-path="url(#p623a59486e)" style="fill: #ff7f0e; opacity: 0.7"/>
   </g>
   <g id="patch_194">
    <path d="M 235.234305 307.584 
L 237.007949 307.584 
L 237.007949 307.584 
L 235.234305 307.584 
z
" clip-path="url(#p623a59486e)" style="fill: #ff7f0e; opacity: 0.7"/>
   </g>
   <g id="patch_195">
    <path d="M 237.007949 307.584 
L 238.781593 307.584 
L 238.781593 307.584 
L 237.007949 307.584 
z
" clip-path="url(#p623a59486e)" style="fill: #ff7f0e; opacity: 0.7"/>
   </g>
   <g id="patch_196">
    <path d="M 238.781593 307.584 
L 240.555236 307.584 
L 240.555236 307.584 
L 238.781593 307.584 
z
" clip-path="url(#p623a59486e)" style="fill: #ff7f0e; opacity: 0.7"/>
   </g>
   <g id="patch_197">
    <path d="M 240.555236 307.584 
L 242.32888 307.584 
L 242.32888 307.584 
L 240.555236 307.584 
z
" clip-path="url(#p623a59486e)" style="fill: #ff7f0e; opacity: 0.7"/>
   </g>
   <g id="patch_198">
    <path d="M 242.32888 307.584 
L 244.102524 307.584 
L 244.102524 307.584 
L 242.32888 307.584 
z
" clip-path="url(#p623a59486e)" style="fill: #ff7f0e; opacity: 0.7"/>
   </g>
   <g id="patch_199">
    <path d="M 244.102524 307.584 
L 245.876167 307.584 
L 245.876167 307.584 
L 244.102524 307.584 
z
" clip-path="url(#p623a59486e)" style="fill: #ff7f0e; opacity: 0.7"/>
   </g>
   <g id="patch_200">
    <path d="M 245.876167 307.584 
L 247.649811 307.584 
L 247.649811 307.584 
L 245.876167 307.584 
z
" clip-path="url(#p623a59486e)" style="fill: #ff7f0e; opacity: 0.7"/>
   </g>
   <g id="patch_201">
    <path d="M 247.649811 307.584 
L 249.423455 307.584 
L 249.423455 307.584 
L 247.649811 307.584 
z
" clip-path="url(#p623a59486e)" style="fill: #ff7f0e; opacity: 0.7"/>
   </g>
   <g id="patch_202">
    <path d="M 249.423455 307.584 
L 251.197099 307.584 
L 251.197099 306.601674 
L 249.423455 306.601674 
z
" clip-path="url(#p623a59486e)" style="fill: #ff7f0e; opacity: 0.7"/>
   </g>
   <g id="matplotlib.axis_1">
    <g id="xtick_1">
     <g id="line2d_1">
      <defs>
       <path id="m128b9a000c" d="M 0 0 
L 0 3.5 
" style="stroke: #000000; stroke-width: 0.8"/>
      </defs>
      <g>
       <use xlink:href="#m128b9a000c" x="102.330198" y="307.584" style="stroke: #000000; stroke-width: 0.8"/>
      </g>
     </g>
     <g id="text_1">
      <!-- 3.75 -->
      <g transform="translate(91.197386 322.182437) scale(0.1 -0.1)">
       <defs>
        <path id="DejaVuSans-33" d="M 2597 2516 
Q 3050 2419 3304 2112 
Q 3559 1806 3559 1356 
Q 3559 666 3084 287 
Q 2609 -91 1734 -91 
Q 1441 -91 1130 -33 
Q 819 25 488 141 
L 488 750 
Q 750 597 1062 519 
Q 1375 441 1716 441 
Q 2309 441 2620 675 
Q 2931 909 2931 1356 
Q 2931 1769 2642 2001 
Q 2353 2234 1838 2234 
L 1294 2234 
L 1294 2753 
L 1863 2753 
Q 2328 2753 2575 2939 
Q 2822 3125 2822 3475 
Q 2822 3834 2567 4026 
Q 2313 4219 1838 4219 
Q 1578 4219 1281 4162 
Q 984 4106 628 3988 
L 628 4550 
Q 988 4650 1302 4700 
Q 1616 4750 1894 4750 
Q 2613 4750 3031 4423 
Q 3450 4097 3450 3541 
Q 3450 3153 3228 2886 
Q 3006 2619 2597 2516 
z
" transform="scale(0.015625)"/>
        <path id="DejaVuSans-2e" d="M 684 794 
L 1344 794 
L 1344 0 
L 684 0 
L 684 794 
z
" transform="scale(0.015625)"/>
        <path id="DejaVuSans-37" d="M 525 4666 
L 3525 4666 
L 3525 4397 
L 1831 0 
L 1172 0 
L 2766 4134 
L 525 4134 
L 525 4666 
z
" transform="scale(0.015625)"/>
        <path id="DejaVuSans-35" d="M 691 4666 
L 3169 4666 
L 3169 4134 
L 1269 4134 
L 1269 2991 
Q 1406 3038 1543 3061 
Q 1681 3084 1819 3084 
Q 2600 3084 3056 2656 
Q 3513 2228 3513 1497 
Q 3513 744 3044 326 
Q 2575 -91 1722 -91 
Q 1428 -91 1123 -41 
Q 819 9 494 109 
L 494 744 
Q 775 591 1075 516 
Q 1375 441 1709 441 
Q 2250 441 2565 725 
Q 2881 1009 2881 1497 
Q 2881 1984 2565 2268 
Q 2250 2553 1709 2553 
Q 1456 2553 1204 2497 
Q 953 2441 691 2322 
L 691 4666 
z
" transform="scale(0.015625)"/>
       </defs>
       <use xlink:href="#DejaVuSans-33"/>
       <use xlink:href="#DejaVuSans-2e" transform="translate(63.623047 0)"/>
       <use xlink:href="#DejaVuSans-37" transform="translate(95.410156 0)"/>
       <use xlink:href="#DejaVuSans-35" transform="translate(159.033203 0)"/>
      </g>
     </g>
    </g>
    <g id="xtick_2">
     <g id="line2d_2">
      <g>
       <use xlink:href="#m128b9a000c" x="148.037828" y="307.584" style="stroke: #000000; stroke-width: 0.8"/>
      </g>
     </g>
     <g id="text_2">
      <!-- 4.00 -->
      <g transform="translate(136.905015 322.182437) scale(0.1 -0.1)">
       <defs>
        <path id="DejaVuSans-34" d="M 2419 4116 
L 825 1625 
L 2419 1625 
L 2419 4116 
z
M 2253 4666 
L 3047 4666 
L 3047 1625 
L 3713 1625 
L 3713 1100 
L 3047 1100 
L 3047 0 
L 2419 0 
L 2419 1100 
L 313 1100 
L 313 1709 
L 2253 4666 
z
" transform="scale(0.015625)"/>
        <path id="DejaVuSans-30" d="M 2034 4250 
Q 1547 4250 1301 3770 
Q 1056 3291 1056 2328 
Q 1056 1369 1301 889 
Q 1547 409 2034 409 
Q 2525 409 2770 889 
Q 3016 1369 3016 2328 
Q 3016 3291 2770 3770 
Q 2525 4250 2034 4250 
z
M 2034 4750 
Q 2819 4750 3233 4129 
Q 3647 3509 3647 2328 
Q 3647 1150 3233 529 
Q 2819 -91 2034 -91 
Q 1250 -91 836 529 
Q 422 1150 422 2328 
Q 422 3509 836 4129 
Q 1250 4750 2034 4750 
z
" transform="scale(0.015625)"/>
       </defs>
       <use xlink:href="#DejaVuSans-34"/>
       <use xlink:href="#DejaVuSans-2e" transform="translate(63.623047 0)"/>
       <use xlink:href="#DejaVuSans-30" transform="translate(95.410156 0)"/>
       <use xlink:href="#DejaVuSans-30" transform="translate(159.033203 0)"/>
      </g>
     </g>
    </g>
    <g id="xtick_3">
     <g id="line2d_3">
      <g>
       <use xlink:href="#m128b9a000c" x="193.745457" y="307.584" style="stroke: #000000; stroke-width: 0.8"/>
      </g>
     </g>
     <g id="text_3">
      <!-- 4.25 -->
      <g transform="translate(182.612645 322.182437) scale(0.1 -0.1)">
       <defs>
        <path id="DejaVuSans-32" d="M 1228 531 
L 3431 531 
L 3431 0 
L 469 0 
L 469 531 
Q 828 903 1448 1529 
Q 2069 2156 2228 2338 
Q 2531 2678 2651 2914 
Q 2772 3150 2772 3378 
Q 2772 3750 2511 3984 
Q 2250 4219 1831 4219 
Q 1534 4219 1204 4116 
Q 875 4013 500 3803 
L 500 4441 
Q 881 4594 1212 4672 
Q 1544 4750 1819 4750 
Q 2544 4750 2975 4387 
Q 3406 4025 3406 3419 
Q 3406 3131 3298 2873 
Q 3191 2616 2906 2266 
Q 2828 2175 2409 1742 
Q 1991 1309 1228 531 
z
" transform="scale(0.015625)"/>
       </defs>
       <use xlink:href="#DejaVuSans-34"/>
       <use xlink:href="#DejaVuSans-2e" transform="translate(63.623047 0)"/>
       <use xlink:href="#DejaVuSans-32" transform="translate(95.410156 0)"/>
       <use xlink:href="#DejaVuSans-35" transform="translate(159.033203 0)"/>
      </g>
     </g>
    </g>
    <g id="xtick_4">
     <g id="line2d_4">
      <g>
       <use xlink:href="#m128b9a000c" x="239.453087" y="307.584" style="stroke: #000000; stroke-width: 0.8"/>
      </g>
     </g>
     <g id="text_4">
      <!-- 4.50 -->
      <g transform="translate(228.320274 322.182437) scale(0.1 -0.1)">
       <use xlink:href="#DejaVuSans-34"/>
       <use xlink:href="#DejaVuSans-2e" transform="translate(63.623047 0)"/>
       <use xlink:href="#DejaVuSans-35" transform="translate(95.410156 0)"/>
       <use xlink:href="#DejaVuSans-30" transform="translate(159.033203 0)"/>
      </g>
     </g>
    </g>
    <g id="xtick_5">
     <g id="line2d_5">
      <g>
       <use xlink:href="#m128b9a000c" x="285.160716" y="307.584" style="stroke: #000000; stroke-width: 0.8"/>
      </g>
     </g>
     <g id="text_5">
      <!-- 4.75 -->
      <g transform="translate(274.027904 322.182437) scale(0.1 -0.1)">
       <use xlink:href="#DejaVuSans-34"/>
       <use xlink:href="#DejaVuSans-2e" transform="translate(63.623047 0)"/>
       <use xlink:href="#DejaVuSans-37" transform="translate(95.410156 0)"/>
       <use xlink:href="#DejaVuSans-35" transform="translate(159.033203 0)"/>
      </g>
     </g>
    </g>
    <g id="xtick_6">
     <g id="line2d_6">
      <g>
       <use xlink:href="#m128b9a000c" x="330.868346" y="307.584" style="stroke: #000000; stroke-width: 0.8"/>
      </g>
     </g>
     <g id="text_6">
      <!-- 5.00 -->
      <g transform="translate(319.735533 322.182437) scale(0.1 -0.1)">
       <use xlink:href="#DejaVuSans-35"/>
       <use xlink:href="#DejaVuSans-2e" transform="translate(63.623047 0)"/>
       <use xlink:href="#DejaVuSans-30" transform="translate(95.410156 0)"/>
       <use xlink:href="#DejaVuSans-30" transform="translate(159.033203 0)"/>
      </g>
     </g>
    </g>
    <g id="xtick_7">
     <g id="line2d_7">
      <g>
       <use xlink:href="#m128b9a000c" x="376.575975" y="307.584" style="stroke: #000000; stroke-width: 0.8"/>
      </g>
     </g>
     <g id="text_7">
      <!-- 5.25 -->
      <g transform="translate(365.443163 322.182437) scale(0.1 -0.1)">
       <use xlink:href="#DejaVuSans-35"/>
       <use xlink:href="#DejaVuSans-2e" transform="translate(63.623047 0)"/>
       <use xlink:href="#DejaVuSans-32" transform="translate(95.410156 0)"/>
       <use xlink:href="#DejaVuSans-35" transform="translate(159.033203 0)"/>
      </g>
     </g>
    </g>
    <g id="text_8">
     <!-- Entropy -->
     <g transform="translate(216.735781 335.860562) scale(0.1 -0.1)">
      <defs>
       <path id="DejaVuSans-45" d="M 628 4666 
L 3578 4666 
L 3578 4134 
L 1259 4134 
L 1259 2753 
L 3481 2753 
L 3481 2222 
L 1259 2222 
L 1259 531 
L 3634 531 
L 3634 0 
L 628 0 
L 628 4666 
z
" transform="scale(0.015625)"/>
       <path id="DejaVuSans-6e" d="M 3513 2113 
L 3513 0 
L 2938 0 
L 2938 2094 
Q 2938 2591 2744 2837 
Q 2550 3084 2163 3084 
Q 1697 3084 1428 2787 
Q 1159 2491 1159 1978 
L 1159 0 
L 581 0 
L 581 3500 
L 1159 3500 
L 1159 2956 
Q 1366 3272 1645 3428 
Q 1925 3584 2291 3584 
Q 2894 3584 3203 3211 
Q 3513 2838 3513 2113 
z
" transform="scale(0.015625)"/>
       <path id="DejaVuSans-74" d="M 1172 4494 
L 1172 3500 
L 2356 3500 
L 2356 3053 
L 1172 3053 
L 1172 1153 
Q 1172 725 1289 603 
Q 1406 481 1766 481 
L 2356 481 
L 2356 0 
L 1766 0 
Q 1100 0 847 248 
Q 594 497 594 1153 
L 594 3053 
L 172 3053 
L 172 3500 
L 594 3500 
L 594 4494 
L 1172 4494 
z
" transform="scale(0.015625)"/>
       <path id="DejaVuSans-72" d="M 2631 2963 
Q 2534 3019 2420 3045 
Q 2306 3072 2169 3072 
Q 1681 3072 1420 2755 
Q 1159 2438 1159 1844 
L 1159 0 
L 581 0 
L 581 3500 
L 1159 3500 
L 1159 2956 
Q 1341 3275 1631 3429 
Q 1922 3584 2338 3584 
Q 2397 3584 2469 3576 
Q 2541 3569 2628 3553 
L 2631 2963 
z
" transform="scale(0.015625)"/>
       <path id="DejaVuSans-6f" d="M 1959 3097 
Q 1497 3097 1228 2736 
Q 959 2375 959 1747 
Q 959 1119 1226 758 
Q 1494 397 1959 397 
Q 2419 397 2687 759 
Q 2956 1122 2956 1747 
Q 2956 2369 2687 2733 
Q 2419 3097 1959 3097 
z
M 1959 3584 
Q 2709 3584 3137 3096 
Q 3566 2609 3566 1747 
Q 3566 888 3137 398 
Q 2709 -91 1959 -91 
Q 1206 -91 779 398 
Q 353 888 353 1747 
Q 353 2609 779 3096 
Q 1206 3584 1959 3584 
z
" transform="scale(0.015625)"/>
       <path id="DejaVuSans-70" d="M 1159 525 
L 1159 -1331 
L 581 -1331 
L 581 3500 
L 1159 3500 
L 1159 2969 
Q 1341 3281 1617 3432 
Q 1894 3584 2278 3584 
Q 2916 3584 3314 3078 
Q 3713 2572 3713 1747 
Q 3713 922 3314 415 
Q 2916 -91 2278 -91 
Q 1894 -91 1617 61 
Q 1341 213 1159 525 
z
M 3116 1747 
Q 3116 2381 2855 2742 
Q 2594 3103 2138 3103 
Q 1681 3103 1420 2742 
Q 1159 2381 1159 1747 
Q 1159 1113 1420 752 
Q 1681 391 2138 391 
Q 2594 391 2855 752 
Q 3116 1113 3116 1747 
z
" transform="scale(0.015625)"/>
       <path id="DejaVuSans-79" d="M 2059 -325 
Q 1816 -950 1584 -1140 
Q 1353 -1331 966 -1331 
L 506 -1331 
L 506 -850 
L 844 -850 
Q 1081 -850 1212 -737 
Q 1344 -625 1503 -206 
L 1606 56 
L 191 3500 
L 800 3500 
L 1894 763 
L 2988 3500 
L 3597 3500 
L 2059 -325 
z
" transform="scale(0.015625)"/>
      </defs>
      <use xlink:href="#DejaVuSans-45"/>
      <use xlink:href="#DejaVuSans-6e" transform="translate(63.183594 0)"/>
      <use xlink:href="#DejaVuSans-74" transform="translate(126.5625 0)"/>
      <use xlink:href="#DejaVuSans-72" transform="translate(165.771484 0)"/>
      <use xlink:href="#DejaVuSans-6f" transform="translate(204.634766 0)"/>
      <use xlink:href="#DejaVuSans-70" transform="translate(265.816406 0)"/>
      <use xlink:href="#DejaVuSans-79" transform="translate(329.292969 0)"/>
     </g>
    </g>
   </g>
   <g id="matplotlib.axis_2">
    <g id="ytick_1">
     <g id="line2d_8">
      <defs>
       <path id="medefe2ee07" d="M 0 0 
L -3.5 0 
" style="stroke: #000000; stroke-width: 0.8"/>
      </defs>
      <g>
       <use xlink:href="#medefe2ee07" x="57.6" y="307.584" style="stroke: #000000; stroke-width: 0.8"/>
      </g>
     </g>
     <g id="text_9">
      <!-- 0 -->
      <g transform="translate(44.2375 311.383219) scale(0.1 -0.1)">
       <use xlink:href="#DejaVuSans-30"/>
      </g>
     </g>
    </g>
    <g id="ytick_2">
     <g id="line2d_9">
      <g>
       <use xlink:href="#medefe2ee07" x="57.6" y="258.467721" style="stroke: #000000; stroke-width: 0.8"/>
      </g>
     </g>
     <g id="text_10">
      <!-- 50 -->
      <g transform="translate(37.875 262.26694) scale(0.1 -0.1)">
       <use xlink:href="#DejaVuSans-35"/>
       <use xlink:href="#DejaVuSans-30" transform="translate(63.623047 0)"/>
      </g>
     </g>
    </g>
    <g id="ytick_3">
     <g id="line2d_10">
      <g>
       <use xlink:href="#medefe2ee07" x="57.6" y="209.351442" style="stroke: #000000; stroke-width: 0.8"/>
      </g>
     </g>
     <g id="text_11">
      <!-- 100 -->
      <g transform="translate(31.5125 213.150661) scale(0.1 -0.1)">
       <defs>
        <path id="DejaVuSans-31" d="M 794 531 
L 1825 531 
L 1825 4091 
L 703 3866 
L 703 4441 
L 1819 4666 
L 2450 4666 
L 2450 531 
L 3481 531 
L 3481 0 
L 794 0 
L 794 531 
z
" transform="scale(0.015625)"/>
       </defs>
       <use xlink:href="#DejaVuSans-31"/>
       <use xlink:href="#DejaVuSans-30" transform="translate(63.623047 0)"/>
       <use xlink:href="#DejaVuSans-30" transform="translate(127.246094 0)"/>
      </g>
     </g>
    </g>
    <g id="ytick_4">
     <g id="line2d_11">
      <g>
       <use xlink:href="#medefe2ee07" x="57.6" y="160.235163" style="stroke: #000000; stroke-width: 0.8"/>
      </g>
     </g>
     <g id="text_12">
      <!-- 150 -->
      <g transform="translate(31.5125 164.034382) scale(0.1 -0.1)">
       <use xlink:href="#DejaVuSans-31"/>
       <use xlink:href="#DejaVuSans-35" transform="translate(63.623047 0)"/>
       <use xlink:href="#DejaVuSans-30" transform="translate(127.246094 0)"/>
      </g>
     </g>
    </g>
    <g id="ytick_5">
     <g id="line2d_12">
      <g>
       <use xlink:href="#medefe2ee07" x="57.6" y="111.118884" style="stroke: #000000; stroke-width: 0.8"/>
      </g>
     </g>
     <g id="text_13">
      <!-- 200 -->
      <g transform="translate(31.5125 114.918102) scale(0.1 -0.1)">
       <use xlink:href="#DejaVuSans-32"/>
       <use xlink:href="#DejaVuSans-30" transform="translate(63.623047 0)"/>
       <use xlink:href="#DejaVuSans-30" transform="translate(127.246094 0)"/>
      </g>
     </g>
    </g>
    <g id="ytick_6">
     <g id="line2d_13">
      <g>
       <use xlink:href="#medefe2ee07" x="57.6" y="62.002605" style="stroke: #000000; stroke-width: 0.8"/>
      </g>
     </g>
     <g id="text_14">
      <!-- 250 -->
      <g transform="translate(31.5125 65.801823) scale(0.1 -0.1)">
       <use xlink:href="#DejaVuSans-32"/>
       <use xlink:href="#DejaVuSans-35" transform="translate(63.623047 0)"/>
       <use xlink:href="#DejaVuSans-30" transform="translate(127.246094 0)"/>
      </g>
     </g>
    </g>
    <g id="text_15">
     <!-- Frequency -->
     <g transform="translate(25.432812 200.357687) rotate(-90) scale(0.1 -0.1)">
      <defs>
       <path id="DejaVuSans-46" d="M 628 4666 
L 3309 4666 
L 3309 4134 
L 1259 4134 
L 1259 2759 
L 3109 2759 
L 3109 2228 
L 1259 2228 
L 1259 0 
L 628 0 
L 628 4666 
z
" transform="scale(0.015625)"/>
       <path id="DejaVuSans-65" d="M 3597 1894 
L 3597 1613 
L 953 1613 
Q 991 1019 1311 708 
Q 1631 397 2203 397 
Q 2534 397 2845 478 
Q 3156 559 3463 722 
L 3463 178 
Q 3153 47 2828 -22 
Q 2503 -91 2169 -91 
Q 1331 -91 842 396 
Q 353 884 353 1716 
Q 353 2575 817 3079 
Q 1281 3584 2069 3584 
Q 2775 3584 3186 3129 
Q 3597 2675 3597 1894 
z
M 3022 2063 
Q 3016 2534 2758 2815 
Q 2500 3097 2075 3097 
Q 1594 3097 1305 2825 
Q 1016 2553 972 2059 
L 3022 2063 
z
" transform="scale(0.015625)"/>
       <path id="DejaVuSans-71" d="M 947 1747 
Q 947 1113 1208 752 
Q 1469 391 1925 391 
Q 2381 391 2643 752 
Q 2906 1113 2906 1747 
Q 2906 2381 2643 2742 
Q 2381 3103 1925 3103 
Q 1469 3103 1208 2742 
Q 947 2381 947 1747 
z
M 2906 525 
Q 2725 213 2448 61 
Q 2172 -91 1784 -91 
Q 1150 -91 751 415 
Q 353 922 353 1747 
Q 353 2572 751 3078 
Q 1150 3584 1784 3584 
Q 2172 3584 2448 3432 
Q 2725 3281 2906 2969 
L 2906 3500 
L 3481 3500 
L 3481 -1331 
L 2906 -1331 
L 2906 525 
z
" transform="scale(0.015625)"/>
       <path id="DejaVuSans-75" d="M 544 1381 
L 544 3500 
L 1119 3500 
L 1119 1403 
Q 1119 906 1312 657 
Q 1506 409 1894 409 
Q 2359 409 2629 706 
Q 2900 1003 2900 1516 
L 2900 3500 
L 3475 3500 
L 3475 0 
L 2900 0 
L 2900 538 
Q 2691 219 2414 64 
Q 2138 -91 1772 -91 
Q 1169 -91 856 284 
Q 544 659 544 1381 
z
M 1991 3584 
L 1991 3584 
z
" transform="scale(0.015625)"/>
       <path id="DejaVuSans-63" d="M 3122 3366 
L 3122 2828 
Q 2878 2963 2633 3030 
Q 2388 3097 2138 3097 
Q 1578 3097 1268 2742 
Q 959 2388 959 1747 
Q 959 1106 1268 751 
Q 1578 397 2138 397 
Q 2388 397 2633 464 
Q 2878 531 3122 666 
L 3122 134 
Q 2881 22 2623 -34 
Q 2366 -91 2075 -91 
Q 1284 -91 818 406 
Q 353 903 353 1747 
Q 353 2603 823 3093 
Q 1294 3584 2113 3584 
Q 2378 3584 2631 3529 
Q 2884 3475 3122 3366 
z
" transform="scale(0.015625)"/>
      </defs>
      <use xlink:href="#DejaVuSans-46"/>
      <use xlink:href="#DejaVuSans-72" transform="translate(50.269531 0)"/>
      <use xlink:href="#DejaVuSans-65" transform="translate(89.132812 0)"/>
      <use xlink:href="#DejaVuSans-71" transform="translate(150.65625 0)"/>
      <use xlink:href="#DejaVuSans-75" transform="translate(214.132812 0)"/>
      <use xlink:href="#DejaVuSans-65" transform="translate(277.511719 0)"/>
      <use xlink:href="#DejaVuSans-6e" transform="translate(339.035156 0)"/>
      <use xlink:href="#DejaVuSans-63" transform="translate(402.414062 0)"/>
      <use xlink:href="#DejaVuSans-79" transform="translate(457.394531 0)"/>
     </g>
    </g>
   </g>
   <g id="patch_203">
    <path d="M 57.6 307.584 
L 57.6 41.472 
" style="fill: none; stroke: #000000; stroke-width: 0.8; stroke-linejoin: miter; stroke-linecap: square"/>
   </g>
   <g id="patch_204">
    <path d="M 414.72 307.584 
L 414.72 41.472 
" style="fill: none; stroke: #000000; stroke-width: 0.8; stroke-linejoin: miter; stroke-linecap: square"/>
   </g>
   <g id="patch_205">
    <path d="M 57.6 307.584 
L 414.72 307.584 
" style="fill: none; stroke: #000000; stroke-width: 0.8; stroke-linejoin: miter; stroke-linecap: square"/>
   </g>
   <g id="patch_206">
    <path d="M 57.6 41.472 
L 414.72 41.472 
" style="fill: none; stroke: #000000; stroke-width: 0.8; stroke-linejoin: miter; stroke-linecap: square"/>
   </g>
   <g id="text_16">
    <!-- Distribution of Entropy for English Tokens -->
    <g transform="translate(112.423125 35.472) scale(0.12 -0.12)">
     <defs>
      <path id="DejaVuSans-44" d="M 1259 4147 
L 1259 519 
L 2022 519 
Q 2988 519 3436 956 
Q 3884 1394 3884 2338 
Q 3884 3275 3436 3711 
Q 2988 4147 2022 4147 
L 1259 4147 
z
M 628 4666 
L 1925 4666 
Q 3281 4666 3915 4102 
Q 4550 3538 4550 2338 
Q 4550 1131 3912 565 
Q 3275 0 1925 0 
L 628 0 
L 628 4666 
z
" transform="scale(0.015625)"/>
      <path id="DejaVuSans-69" d="M 603 3500 
L 1178 3500 
L 1178 0 
L 603 0 
L 603 3500 
z
M 603 4863 
L 1178 4863 
L 1178 4134 
L 603 4134 
L 603 4863 
z
" transform="scale(0.015625)"/>
      <path id="DejaVuSans-73" d="M 2834 3397 
L 2834 2853 
Q 2591 2978 2328 3040 
Q 2066 3103 1784 3103 
Q 1356 3103 1142 2972 
Q 928 2841 928 2578 
Q 928 2378 1081 2264 
Q 1234 2150 1697 2047 
L 1894 2003 
Q 2506 1872 2764 1633 
Q 3022 1394 3022 966 
Q 3022 478 2636 193 
Q 2250 -91 1575 -91 
Q 1294 -91 989 -36 
Q 684 19 347 128 
L 347 722 
Q 666 556 975 473 
Q 1284 391 1588 391 
Q 1994 391 2212 530 
Q 2431 669 2431 922 
Q 2431 1156 2273 1281 
Q 2116 1406 1581 1522 
L 1381 1569 
Q 847 1681 609 1914 
Q 372 2147 372 2553 
Q 372 3047 722 3315 
Q 1072 3584 1716 3584 
Q 2034 3584 2315 3537 
Q 2597 3491 2834 3397 
z
" transform="scale(0.015625)"/>
      <path id="DejaVuSans-62" d="M 3116 1747 
Q 3116 2381 2855 2742 
Q 2594 3103 2138 3103 
Q 1681 3103 1420 2742 
Q 1159 2381 1159 1747 
Q 1159 1113 1420 752 
Q 1681 391 2138 391 
Q 2594 391 2855 752 
Q 3116 1113 3116 1747 
z
M 1159 2969 
Q 1341 3281 1617 3432 
Q 1894 3584 2278 3584 
Q 2916 3584 3314 3078 
Q 3713 2572 3713 1747 
Q 3713 922 3314 415 
Q 2916 -91 2278 -91 
Q 1894 -91 1617 61 
Q 1341 213 1159 525 
L 1159 0 
L 581 0 
L 581 4863 
L 1159 4863 
L 1159 2969 
z
" transform="scale(0.015625)"/>
      <path id="DejaVuSans-20" transform="scale(0.015625)"/>
      <path id="DejaVuSans-66" d="M 2375 4863 
L 2375 4384 
L 1825 4384 
Q 1516 4384 1395 4259 
Q 1275 4134 1275 3809 
L 1275 3500 
L 2222 3500 
L 2222 3053 
L 1275 3053 
L 1275 0 
L 697 0 
L 697 3053 
L 147 3053 
L 147 3500 
L 697 3500 
L 697 3744 
Q 697 4328 969 4595 
Q 1241 4863 1831 4863 
L 2375 4863 
z
" transform="scale(0.015625)"/>
      <path id="DejaVuSans-67" d="M 2906 1791 
Q 2906 2416 2648 2759 
Q 2391 3103 1925 3103 
Q 1463 3103 1205 2759 
Q 947 2416 947 1791 
Q 947 1169 1205 825 
Q 1463 481 1925 481 
Q 2391 481 2648 825 
Q 2906 1169 2906 1791 
z
M 3481 434 
Q 3481 -459 3084 -895 
Q 2688 -1331 1869 -1331 
Q 1566 -1331 1297 -1286 
Q 1028 -1241 775 -1147 
L 775 -588 
Q 1028 -725 1275 -790 
Q 1522 -856 1778 -856 
Q 2344 -856 2625 -561 
Q 2906 -266 2906 331 
L 2906 616 
Q 2728 306 2450 153 
Q 2172 0 1784 0 
Q 1141 0 747 490 
Q 353 981 353 1791 
Q 353 2603 747 3093 
Q 1141 3584 1784 3584 
Q 2172 3584 2450 3431 
Q 2728 3278 2906 2969 
L 2906 3500 
L 3481 3500 
L 3481 434 
z
" transform="scale(0.015625)"/>
      <path id="DejaVuSans-6c" d="M 603 4863 
L 1178 4863 
L 1178 0 
L 603 0 
L 603 4863 
z
" transform="scale(0.015625)"/>
      <path id="DejaVuSans-68" d="M 3513 2113 
L 3513 0 
L 2938 0 
L 2938 2094 
Q 2938 2591 2744 2837 
Q 2550 3084 2163 3084 
Q 1697 3084 1428 2787 
Q 1159 2491 1159 1978 
L 1159 0 
L 581 0 
L 581 4863 
L 1159 4863 
L 1159 2956 
Q 1366 3272 1645 3428 
Q 1925 3584 2291 3584 
Q 2894 3584 3203 3211 
Q 3513 2838 3513 2113 
z
" transform="scale(0.015625)"/>
      <path id="DejaVuSans-54" d="M -19 4666 
L 3928 4666 
L 3928 4134 
L 2272 4134 
L 2272 0 
L 1638 0 
L 1638 4134 
L -19 4134 
L -19 4666 
z
" transform="scale(0.015625)"/>
      <path id="DejaVuSans-6b" d="M 581 4863 
L 1159 4863 
L 1159 1991 
L 2875 3500 
L 3609 3500 
L 1753 1863 
L 3688 0 
L 2938 0 
L 1159 1709 
L 1159 0 
L 581 0 
L 581 4863 
z
" transform="scale(0.015625)"/>
     </defs>
     <use xlink:href="#DejaVuSans-44"/>
     <use xlink:href="#DejaVuSans-69" transform="translate(77.001953 0)"/>
     <use xlink:href="#DejaVuSans-73" transform="translate(104.785156 0)"/>
     <use xlink:href="#DejaVuSans-74" transform="translate(156.884766 0)"/>
     <use xlink:href="#DejaVuSans-72" transform="translate(196.09375 0)"/>
     <use xlink:href="#DejaVuSans-69" transform="translate(237.207031 0)"/>
     <use xlink:href="#DejaVuSans-62" transform="translate(264.990234 0)"/>
     <use xlink:href="#DejaVuSans-75" transform="translate(328.466797 0)"/>
     <use xlink:href="#DejaVuSans-74" transform="translate(391.845703 0)"/>
     <use xlink:href="#DejaVuSans-69" transform="translate(431.054688 0)"/>
     <use xlink:href="#DejaVuSans-6f" transform="translate(458.837891 0)"/>
     <use xlink:href="#DejaVuSans-6e" transform="translate(520.019531 0)"/>
     <use xlink:href="#DejaVuSans-20" transform="translate(583.398438 0)"/>
     <use xlink:href="#DejaVuSans-6f" transform="translate(615.185547 0)"/>
     <use xlink:href="#DejaVuSans-66" transform="translate(676.367188 0)"/>
     <use xlink:href="#DejaVuSans-20" transform="translate(711.572266 0)"/>
     <use xlink:href="#DejaVuSans-45" transform="translate(743.359375 0)"/>
     <use xlink:href="#DejaVuSans-6e" transform="translate(806.542969 0)"/>
     <use xlink:href="#DejaVuSans-74" transform="translate(869.921875 0)"/>
     <use xlink:href="#DejaVuSans-72" transform="translate(909.130859 0)"/>
     <use xlink:href="#DejaVuSans-6f" transform="translate(947.994141 0)"/>
     <use xlink:href="#DejaVuSans-70" transform="translate(1009.175781 0)"/>
     <use xlink:href="#DejaVuSans-79" transform="translate(1072.652344 0)"/>
     <use xlink:href="#DejaVuSans-20" transform="translate(1131.832031 0)"/>
     <use xlink:href="#DejaVuSans-66" transform="translate(1163.619141 0)"/>
     <use xlink:href="#DejaVuSans-6f" transform="translate(1198.824219 0)"/>
     <use xlink:href="#DejaVuSans-72" transform="translate(1260.005859 0)"/>
     <use xlink:href="#DejaVuSans-20" transform="translate(1301.119141 0)"/>
     <use xlink:href="#DejaVuSans-45" transform="translate(1332.90625 0)"/>
     <use xlink:href="#DejaVuSans-6e" transform="translate(1396.089844 0)"/>
     <use xlink:href="#DejaVuSans-67" transform="translate(1459.46875 0)"/>
     <use xlink:href="#DejaVuSans-6c" transform="translate(1522.945312 0)"/>
     <use xlink:href="#DejaVuSans-69" transform="translate(1550.728516 0)"/>
     <use xlink:href="#DejaVuSans-73" transform="translate(1578.511719 0)"/>
     <use xlink:href="#DejaVuSans-68" transform="translate(1630.611328 0)"/>
     <use xlink:href="#DejaVuSans-20" transform="translate(1693.990234 0)"/>
     <use xlink:href="#DejaVuSans-54" transform="translate(1725.777344 0)"/>
     <use xlink:href="#DejaVuSans-6f" transform="translate(1769.861328 0)"/>
     <use xlink:href="#DejaVuSans-6b" transform="translate(1831.042969 0)"/>
     <use xlink:href="#DejaVuSans-65" transform="translate(1885.328125 0)"/>
     <use xlink:href="#DejaVuSans-6e" transform="translate(1946.851562 0)"/>
     <use xlink:href="#DejaVuSans-73" transform="translate(2010.230469 0)"/>
    </g>
   </g>
   <g id="legend_1">
    <g id="patch_207">
     <path d="M 322.998125 78.82825 
L 407.72 78.82825 
Q 409.72 78.82825 409.72 76.82825 
L 409.72 48.472 
Q 409.72 46.472 407.72 46.472 
L 322.998125 46.472 
Q 320.998125 46.472 320.998125 48.472 
L 320.998125 76.82825 
Q 320.998125 78.82825 322.998125 78.82825 
z
" style="fill: #ffffff; opacity: 0.8; stroke: #cccccc; stroke-linejoin: miter"/>
    </g>
    <g id="patch_208">
     <path d="M 324.998125 58.070437 
L 344.998125 58.070437 
L 344.998125 51.070437 
L 324.998125 51.070437 
z
" style="fill: #1f77b4; opacity: 0.7"/>
    </g>
    <g id="text_17">
     <!-- Normal -->
     <g transform="translate(352.998125 58.070437) scale(0.1 -0.1)">
      <defs>
       <path id="DejaVuSans-4e" d="M 628 4666 
L 1478 4666 
L 3547 763 
L 3547 4666 
L 4159 4666 
L 4159 0 
L 3309 0 
L 1241 3903 
L 1241 0 
L 628 0 
L 628 4666 
z
" transform="scale(0.015625)"/>
       <path id="DejaVuSans-6d" d="M 3328 2828 
Q 3544 3216 3844 3400 
Q 4144 3584 4550 3584 
Q 5097 3584 5394 3201 
Q 5691 2819 5691 2113 
L 5691 0 
L 5113 0 
L 5113 2094 
Q 5113 2597 4934 2840 
Q 4756 3084 4391 3084 
Q 3944 3084 3684 2787 
Q 3425 2491 3425 1978 
L 3425 0 
L 2847 0 
L 2847 2094 
Q 2847 2600 2669 2842 
Q 2491 3084 2119 3084 
Q 1678 3084 1418 2786 
Q 1159 2488 1159 1978 
L 1159 0 
L 581 0 
L 581 3500 
L 1159 3500 
L 1159 2956 
Q 1356 3278 1631 3431 
Q 1906 3584 2284 3584 
Q 2666 3584 2933 3390 
Q 3200 3197 3328 2828 
z
" transform="scale(0.015625)"/>
       <path id="DejaVuSans-61" d="M 2194 1759 
Q 1497 1759 1228 1600 
Q 959 1441 959 1056 
Q 959 750 1161 570 
Q 1363 391 1709 391 
Q 2188 391 2477 730 
Q 2766 1069 2766 1631 
L 2766 1759 
L 2194 1759 
z
M 3341 1997 
L 3341 0 
L 2766 0 
L 2766 531 
Q 2569 213 2275 61 
Q 1981 -91 1556 -91 
Q 1019 -91 701 211 
Q 384 513 384 1019 
Q 384 1609 779 1909 
Q 1175 2209 1959 2209 
L 2766 2209 
L 2766 2266 
Q 2766 2663 2505 2880 
Q 2244 3097 1772 3097 
Q 1472 3097 1187 3025 
Q 903 2953 641 2809 
L 641 3341 
Q 956 3463 1253 3523 
Q 1550 3584 1831 3584 
Q 2591 3584 2966 3190 
Q 3341 2797 3341 1997 
z
" transform="scale(0.015625)"/>
      </defs>
      <use xlink:href="#DejaVuSans-4e"/>
      <use xlink:href="#DejaVuSans-6f" transform="translate(74.804688 0)"/>
      <use xlink:href="#DejaVuSans-72" transform="translate(135.986328 0)"/>
      <use xlink:href="#DejaVuSans-6d" transform="translate(175.349609 0)"/>
      <use xlink:href="#DejaVuSans-61" transform="translate(272.761719 0)"/>
      <use xlink:href="#DejaVuSans-6c" transform="translate(334.041016 0)"/>
     </g>
    </g>
    <g id="patch_209">
     <path d="M 324.998125 72.748562 
L 344.998125 72.748562 
L 344.998125 65.748562 
L 324.998125 65.748562 
z
" style="fill: #ff7f0e; opacity: 0.7"/>
    </g>
    <g id="text_18">
     <!-- Lowercase -->
     <g transform="translate(352.998125 72.748562) scale(0.1 -0.1)">
      <defs>
       <path id="DejaVuSans-4c" d="M 628 4666 
L 1259 4666 
L 1259 531 
L 3531 531 
L 3531 0 
L 628 0 
L 628 4666 
z
" transform="scale(0.015625)"/>
       <path id="DejaVuSans-77" d="M 269 3500 
L 844 3500 
L 1563 769 
L 2278 3500 
L 2956 3500 
L 3675 769 
L 4391 3500 
L 4966 3500 
L 4050 0 
L 3372 0 
L 2619 2869 
L 1863 0 
L 1184 0 
L 269 3500 
z
" transform="scale(0.015625)"/>
      </defs>
      <use xlink:href="#DejaVuSans-4c"/>
      <use xlink:href="#DejaVuSans-6f" transform="translate(53.962891 0)"/>
      <use xlink:href="#DejaVuSans-77" transform="translate(115.144531 0)"/>
      <use xlink:href="#DejaVuSans-65" transform="translate(196.931641 0)"/>
      <use xlink:href="#DejaVuSans-72" transform="translate(258.455078 0)"/>
      <use xlink:href="#DejaVuSans-63" transform="translate(297.318359 0)"/>
      <use xlink:href="#DejaVuSans-61" transform="translate(352.298828 0)"/>
      <use xlink:href="#DejaVuSans-73" transform="translate(413.578125 0)"/>
      <use xlink:href="#DejaVuSans-65" transform="translate(465.677734 0)"/>
     </g>
    </g>
   </g>
  </g>
 </g>
 <defs>
  <clipPath id="p623a59486e">
   <rect x="57.6" y="41.472" width="357.12" height="266.112"/>
  </clipPath>
 </defs>
</svg>
