<?xml version="1.0" encoding="utf-8" standalone="no"?>
<!DOCTYPE svg PUBLIC "-//W3C//DTD SVG 1.1//EN"
  "http://www.w3.org/Graphics/SVG/1.1/DTD/svg11.dtd">
<svg xmlns:xlink="http://www.w3.org/1999/xlink" width="864pt" height="288pt" viewBox="0 0 864 288" xmlns="http://www.w3.org/2000/svg" version="1.1">
 <metadata>
  <rdf:RDF xmlns:dc="http://purl.org/dc/elements/1.1/" xmlns:cc="http://creativecommons.org/ns#" xmlns:rdf="http://www.w3.org/1999/02/22-rdf-syntax-ns#">
   <cc:Work>
    <dc:type rdf:resource="http://purl.org/dc/dcmitype/StillImage"/>
    <dc:date>2025-03-22T15:28:13.945622</dc:date>
    <dc:format>image/svg+xml</dc:format>
    <dc:creator>
     <cc:Agent>
      <dc:title>Matplotlib v3.10.0, https://matplotlib.org/</dc:title>
     </cc:Agent>
    </dc:creator>
   </cc:Work>
  </rdf:RDF>
 </metadata>
 <defs>
  <style type="text/css">*{stroke-linejoin: round; stroke-linecap: butt}</style>
 </defs>
 <g id="figure_1">
  <g id="patch_1">
   <path d="M 0 288 
L 864 288 
L 864 0 
L 0 0 
z
" style="fill: #ffffff"/>
  </g>
  <g id="axes_1">
   <g id="patch_2">
    <path d="M 108 256.32 
L 777.6 256.32 
L 777.6 34.56 
L 108 34.56 
z
" style="fill: #ffffff"/>
   </g>
   <g id="FillBetweenPolyCollection_1">
    <path d="M 138.436364 24.042563 
L 138.436364 556.30758 
L 139.061983 409.115931 
L 139.687602 329.84508 
L 140.313221 313.566497 
L 140.93884 275.373801 
L 141.564459 266.149662 
L 142.190078 254.425062 
L 142.815697 244.943746 
L 143.441316 230.580667 
L 144.066935 223.08678 
L 144.692553 220.64935 
L 145.318172 221.324114 
L 145.943791 218.759844 
L 146.56941 210.043625 
L 147.195029 205.343105 
L 147.820648 208.082835 
L 148.446267 205.774547 
L 149.071886 198.386221 
L 149.697505 198.9077 
L 150.323124 201.085519 
L 150.948743 199.882032 
L 151.574362 205.687608 
L 152.199981 206.257472 
L 152.8256 205.091916 
L 153.451219 204.535871 
L 154.076838 194.213554 
L 154.702457 193.373409 
L 155.328076 192.921828 
L 155.953695 192.45581 
L 156.579314 194.875296 
L 157.204933 192.890129 
L 157.830552 190.567533 
L 158.456171 188.936956 
L 159.08179 183.021859 
L 159.707409 180.222695 
L 160.333028 178.627563 
L 160.958647 177.882914 
L 161.584266 180.404509 
L 162.209885 179.077616 
L 162.835504 181.672294 
L 163.461123 178.913499 
L 164.086742 177.419945 
L 164.712361 175.860289 
L 165.33798 175.348958 
L 165.963599 176.291927 
L 166.589218 175.33584 
L 167.214837 173.771527 
L 167.840456 173.721536 
L 168.466075 173.299129 
L 169.091694 172.948942 
L 169.717313 173.353036 
L 170.342932 172.644152 
L 170.968551 171.438226 
L 171.59417 171.721167 
L 172.219789 170.064028 
L 172.845408 169.750667 
L 173.471027 169.708183 
L 174.096646 170.971091 
L 174.722265 170.385221 
L 175.347884 169.376581 
L 175.973503 167.191174 
L 176.599122 168.044162 
L 177.224741 166.944917 
L 177.85036 166.789353 
L 178.475979 165.665438 
L 179.101598 164.480353 
L 179.727217 164.272914 
L 180.352836 166.022903 
L 180.978455 165.773076 
L 181.604074 165.728956 
L 182.229693 165.495283 
L 182.855312 166.293615 
L 183.480931 164.880062 
L 184.10655 164.058276 
L 184.732169 164.325748 
L 185.357788 163.280519 
L 185.983407 163.146448 
L 186.609026 162.292144 
L 187.234644 163.555212 
L 187.860263 163.6862 
L 188.485882 162.829628 
L 189.111501 163.239014 
L 189.73712 162.918212 
L 190.362739 162.210377 
L 190.988358 163.679194 
L 191.613977 162.941362 
L 192.239596 162.684888 
L 192.865215 160.876174 
L 193.490834 159.691367 
L 194.116453 160.33503 
L 194.742072 159.712254 
L 195.367691 159.154865 
L 195.99331 159.533 
L 196.618929 158.843976 
L 197.244548 159.432249 
L 197.870167 158.970341 
L 198.495786 158.204083 
L 199.121405 157.986232 
L 199.747024 157.303714 
L 200.372643 157.773546 
L 200.998262 157.455959 
L 201.623881 156.657963 
L 202.2495 156.135044 
L 202.875119 155.781757 
L 203.500738 156.015644 
L 204.126357 156.596898 
L 204.751976 157.014161 
L 205.377595 157.46719 
L 206.003214 157.171585 
L 206.628833 157.241892 
L 207.254452 157.643576 
L 207.880071 158.597767 
L 208.50569 158.366979 
L 209.131309 158.897198 
L 209.756928 158.589563 
L 210.382547 158.846998 
L 211.008166 158.616165 
L 211.633785 157.12269 
L 212.259404 158.060738 
L 212.885023 157.986327 
L 213.510642 156.639529 
L 214.136261 156.098566 
L 214.76188 156.373428 
L 215.387499 157.082898 
L 216.013118 157.024957 
L 216.638737 157.275626 
L 217.264356 157.762842 
L 217.889975 157.95602 
L 218.515594 158.806657 
L 219.141213 157.694622 
L 219.766832 156.988982 
L 220.392451 157.513967 
L 221.01807 156.741579 
L 221.643689 157.091176 
L 222.269308 156.756406 
L 222.894927 156.790202 
L 223.520546 156.436521 
L 224.146165 157.143121 
L 224.771784 156.594424 
L 225.397403 156.555543 
L 226.023022 156.127538 
L 226.648641 156.271033 
L 227.27426 156.838055 
L 227.899879 156.186288 
L 228.525498 156.210727 
L 229.151117 156.563869 
L 229.776735 156.071332 
L 230.402354 156.147055 
L 231.027973 156.389041 
L 231.653592 155.914998 
L 232.279211 155.933226 
L 232.90483 156.255276 
L 233.530449 156.049191 
L 234.156068 156.14008 
L 234.781687 156.381722 
L 235.407306 156.405168 
L 236.032925 156.257485 
L 236.658544 155.515575 
L 237.284163 155.229711 
L 237.909782 154.590906 
L 238.535401 154.294647 
L 239.16102 154.655083 
L 239.786639 154.82787 
L 240.412258 154.432006 
L 241.037877 154.220108 
L 241.663496 154.106237 
L 242.289115 154.688952 
L 242.914734 154.894862 
L 243.540353 154.596993 
L 244.165972 154.484693 
L 244.791591 154.590059 
L 245.41721 154.069547 
L 246.042829 154.142643 
L 246.668448 154.249899 
L 247.294067 153.84637 
L 247.919686 153.8443 
L 248.545305 153.879565 
L 249.170924 153.302391 
L 249.796543 152.946773 
L 250.422162 152.579788 
L 251.047781 152.48396 
L 251.6734 152.586139 
L 252.299019 152.476803 
L 252.924638 152.823724 
L 253.550257 153.045347 
L 254.175876 153.17503 
L 254.801495 153.155548 
L 255.427114 153.123246 
L 256.052733 152.790221 
L 256.678352 153.005044 
L 257.303971 152.885302 
L 257.92959 152.22162 
L 258.555209 151.843747 
L 259.180828 151.832113 
L 259.806447 151.977321 
L 260.432066 151.515793 
L 261.057685 151.211776 
L 261.683304 151.18975 
L 262.308923 150.939504 
L 262.934542 150.869551 
L 263.560161 150.576632 
L 264.18578 150.895996 
L 264.811399 151.219447 
L 265.437018 151.1871 
L 266.062637 150.840184 
L 266.688256 151.171085 
L 267.313875 151.147792 
L 267.939494 151.136606 
L 268.565113 151.374858 
L 269.190732 151.502498 
L 269.816351 151.761494 
L 270.44197 151.727342 
L 271.067589 151.857671 
L 271.693208 151.649745 
L 272.318826 151.235888 
L 272.944445 151.118368 
L 273.570064 151.227722 
L 274.195683 150.797404 
L 274.821302 150.868286 
L 275.446921 151.110274 
L 276.07254 151.461657 
L 276.698159 151.357845 
L 277.323778 151.184136 
L 277.949397 150.745669 
L 278.575016 150.886729 
L 279.200635 150.72782 
L 279.826254 150.976558 
L 280.451873 150.8139 
L 281.077492 150.871135 
L 281.703111 150.977839 
L 282.32873 151.217156 
L 282.954349 151.242386 
L 283.579968 151.48992 
L 284.205587 151.131988 
L 284.831206 150.79445 
L 285.456825 150.720709 
L 286.082444 150.428809 
L 286.708063 150.295626 
L 287.333682 150.221082 
L 287.959301 150.222106 
L 288.58492 149.962312 
L 289.210539 149.828209 
L 289.836158 149.773181 
L 290.461777 150.041121 
L 291.087396 149.94244 
L 291.713015 149.743057 
L 292.338634 149.542405 
L 292.964253 149.326483 
L 293.589872 148.975658 
L 294.215491 148.72441 
L 294.84111 148.69393 
L 295.466729 148.855349 
L 296.092348 148.803064 
L 296.717967 148.545636 
L 297.343586 148.471776 
L 297.969205 148.23361 
L 298.594824 148.350274 
L 299.220443 148.650714 
L 299.846062 148.629276 
L 300.471681 148.60542 
L 301.0973 148.470987 
L 301.722919 148.782629 
L 302.348538 149.120143 
L 302.974157 149.311701 
L 303.599776 149.63628 
L 304.225395 149.705599 
L 304.851014 149.152647 
L 305.476633 149.232496 
L 306.102252 149.25205 
L 306.727871 149.575507 
L 307.35349 149.666764 
L 307.979109 149.687111 
L 308.604728 149.804441 
L 309.230347 149.731564 
L 309.855966 149.838201 
L 310.481585 149.626756 
L 311.107204 149.151666 
L 311.732823 149.230347 
L 312.358442 149.151302 
L 312.984061 149.168652 
L 313.60968 149.222326 
L 314.235299 148.73477 
L 314.860917 148.687785 
L 315.486536 148.461749 
L 316.112155 148.492494 
L 316.737774 148.783267 
L 317.363393 148.437331 
L 317.989012 148.565049 
L 318.614631 148.426039 
L 319.24025 148.256239 
L 319.865869 148.153473 
L 320.491488 148.201213 
L 321.117107 148.161166 
L 321.742726 148.146601 
L 322.368345 148.281856 
L 322.993964 147.932197 
L 323.619583 147.798499 
L 324.245202 147.885809 
L 324.870821 147.380616 
L 325.49644 147.842601 
L 326.122059 147.831085 
L 326.747678 147.818429 
L 327.373297 147.579606 
L 327.998916 147.394908 
L 328.624535 147.632976 
L 329.250154 147.520282 
L 329.875773 147.514327 
L 330.501392 147.582424 
L 331.127011 147.573653 
L 331.75263 147.206788 
L 332.378249 146.983706 
L 333.003868 146.760018 
L 333.629487 146.644528 
L 334.255106 146.621758 
L 334.880725 146.526419 
L 335.506344 146.249761 
L 336.131963 146.615833 
L 336.757582 146.273065 
L 337.383201 146.101766 
L 338.00882 146.092695 
L 338.634439 145.968695 
L 339.260058 145.904969 
L 339.885677 145.874177 
L 340.511296 145.81266 
L 341.136915 145.900606 
L 341.762534 145.813918 
L 342.388153 145.790754 
L 343.013772 145.720773 
L 343.639391 145.552752 
L 344.26501 146.178009 
L 344.890629 145.95582 
L 345.516248 145.932879 
L 346.141867 145.912308 
L 346.767486 146.052597 
L 347.393105 146.199227 
L 348.018724 146.424661 
L 348.644343 146.41517 
L 349.269962 146.243107 
L 349.895581 146.034448 
L 350.5212 145.841767 
L 351.146819 145.626831 
L 351.772438 145.736064 
L 352.398057 145.621847 
L 353.023676 145.533841 
L 353.649295 145.641917 
L 354.274914 145.185183 
L 354.900533 145.095103 
L 355.526152 144.854115 
L 356.151771 145.117572 
L 356.77739 145.193761 
L 357.403009 145.328936 
L 358.028627 145.337873 
L 358.654246 145.260067 
L 359.279865 145.411303 
L 359.905484 145.18199 
L 360.531103 145.053818 
L 361.156722 145.149199 
L 361.782341 144.757183 
L 362.40796 144.720119 
L 363.033579 144.848026 
L 363.659198 144.656819 
L 364.284817 144.627281 
L 364.910436 144.601939 
L 365.536055 144.583948 
L 366.161674 144.732318 
L 366.787293 144.872693 
L 367.412912 145.297987 
L 368.038531 145.299918 
L 368.66415 145.38802 
L 369.289769 145.041954 
L 369.915388 144.886065 
L 370.541007 144.857839 
L 371.166626 144.788605 
L 371.792245 144.522768 
L 372.417864 144.199223 
L 373.043483 143.803693 
L 373.669102 143.910531 
L 374.294721 144.035866 
L 374.92034 143.642725 
L 375.545959 144.034685 
L 376.171578 143.898667 
L 376.797197 143.877008 
L 377.422816 143.79357 
L 378.048435 143.711514 
L 378.674054 143.829279 
L 379.299673 143.806784 
L 379.925292 143.851568 
L 380.550911 143.949967 
L 381.17653 143.904453 
L 381.802149 143.790567 
L 382.427768 143.769503 
L 383.053387 143.981875 
L 383.679006 144.013305 
L 384.304625 144.194359 
L 384.930244 143.920468 
L 385.555863 143.895179 
L 386.181482 143.894943 
L 386.807101 143.93716 
L 387.43272 143.953724 
L 388.058339 143.843206 
L 388.683958 143.894121 
L 389.309577 143.799084 
L 389.935196 143.744514 
L 390.560815 143.784802 
L 391.186434 143.607636 
L 391.812053 143.94546 
L 392.437672 143.982456 
L 393.063291 143.727471 
L 393.68891 143.640446 
L 394.314529 142.379487 
L 394.940148 142.306258 
L 395.565767 141.972353 
L 396.191386 141.88168 
L 396.817005 141.837964 
L 397.442624 141.931684 
L 398.068243 141.794104 
L 398.693862 141.638673 
L 399.319481 141.812445 
L 399.9451 142.000069 
L 400.570718 142.063327 
L 401.196337 142.183608 
L 401.821956 142.071619 
L 402.447575 142.097052 
L 403.073194 142.184095 
L 403.698813 142.446441 
L 404.324432 142.58158 
L 404.950051 142.646167 
L 405.57567 142.871739 
L 406.201289 142.806179 
L 406.826908 142.894928 
L 407.452527 143.393492 
L 408.078146 143.226098 
L 408.703765 143.125037 
L 409.329384 143.2446 
L 409.955003 143.717607 
L 410.580622 143.54058 
L 411.206241 143.668364 
L 411.83186 143.350838 
L 412.457479 143.418026 
L 413.083098 143.421517 
L 413.708717 143.519745 
L 414.334336 143.487949 
L 414.959955 143.420486 
L 415.585574 143.198224 
L 416.211193 143.034549 
L 416.836812 142.952466 
L 417.462431 142.690582 
L 418.08805 142.818605 
L 418.713669 142.841836 
L 419.339288 142.673423 
L 419.964907 142.646042 
L 420.590526 142.649478 
L 421.216145 142.745544 
L 421.841764 142.746678 
L 422.467383 142.602126 
L 423.093002 142.250375 
L 423.718621 142.22869 
L 424.34424 142.213544 
L 424.969859 142.221513 
L 425.595478 142.185991 
L 426.221097 142.153475 
L 426.846716 142.244105 
L 427.472335 142.365559 
L 428.097954 142.149748 
L 428.723573 141.775072 
L 429.349192 141.765788 
L 429.974811 141.757103 
L 430.60043 141.636354 
L 431.226049 141.809566 
L 431.851668 141.998675 
L 432.477287 142.267134 
L 433.102906 142.434211 
L 433.728525 142.32618 
L 434.354144 142.241562 
L 434.979763 142.256977 
L 435.605382 142.041483 
L 436.231001 141.924708 
L 436.85662 142.01301 
L 437.482239 141.885826 
L 438.107858 141.938898 
L 438.733477 141.855982 
L 439.359096 141.414799 
L 439.984715 141.367505 
L 440.610334 141.451924 
L 441.235953 141.457635 
L 441.861572 141.61474 
L 442.487191 141.536991 
L 443.112809 141.399683 
L 443.738428 141.185774 
L 444.364047 141.338699 
L 444.989666 141.198245 
L 445.615285 141.214545 
L 446.240904 141.259554 
L 446.866523 141.335566 
L 447.492142 141.069476 
L 448.117761 141.218846 
L 448.74338 141.112054 
L 449.368999 140.962369 
L 449.994618 140.834388 
L 450.620237 140.772267 
L 451.245856 140.759599 
L 451.871475 140.827188 
L 452.497094 140.798191 
L 453.122713 140.878248 
L 453.748332 141.012793 
L 454.373951 141.205475 
L 454.99957 141.2279 
L 455.625189 141.443976 
L 456.250808 141.503604 
L 456.876427 141.451194 
L 457.502046 141.666417 
L 458.127665 141.683986 
L 458.753284 141.382139 
L 459.378903 141.417688 
L 460.004522 141.557292 
L 460.630141 141.5338 
L 461.25576 141.383267 
L 461.881379 141.520974 
L 462.506998 141.414783 
L 463.132617 141.537738 
L 463.758236 141.328018 
L 464.383855 141.455454 
L 465.009474 141.407444 
L 465.635093 141.388844 
L 466.260712 141.440057 
L 466.886331 141.301095 
L 467.51195 141.338218 
L 468.137569 141.320694 
L 468.763188 141.489851 
L 469.388807 141.68991 
L 470.014426 141.695904 
L 470.640045 141.786391 
L 471.265664 141.94621 
L 471.891283 141.921473 
L 472.516902 141.917881 
L 473.142521 141.95548 
L 473.76814 141.312171 
L 474.393759 141.343938 
L 475.019378 141.421873 
L 475.644997 141.396839 
L 476.270616 141.27665 
L 476.896235 141.232498 
L 477.521854 141.417458 
L 478.147473 141.394563 
L 478.773092 141.68286 
L 479.398711 141.722585 
L 480.02433 141.656108 
L 480.649949 141.507457 
L 481.275568 141.557954 
L 481.901187 141.670874 
L 482.526806 141.773298 
L 483.152425 141.833583 
L 483.778044 141.774878 
L 484.403663 141.653138 
L 485.029282 141.764627 
L 485.6549 141.683189 
L 486.280519 141.752267 
L 486.906138 141.510083 
L 487.531757 141.645318 
L 488.157376 141.708827 
L 488.782995 141.51733 
L 489.408614 141.400855 
L 490.034233 141.261014 
L 490.659852 141.129932 
L 491.285471 141.142305 
L 491.91109 141.298824 
L 492.536709 141.417179 
L 493.162328 141.237828 
L 493.787947 141.265305 
L 494.413566 141.143543 
L 495.039185 141.039541 
L 495.664804 141.064794 
L 496.290423 141.194893 
L 496.916042 141.191677 
L 497.541661 141.087252 
L 498.16728 140.977632 
L 498.792899 140.922786 
L 499.418518 140.896132 
L 500.044137 140.817272 
L 500.669756 140.7447 
L 501.295375 140.772353 
L 501.920994 140.703581 
L 502.546613 140.645065 
L 503.172232 140.559232 
L 503.797851 140.361996 
L 504.42347 140.325005 
L 505.049089 140.360308 
L 505.674708 140.187581 
L 506.300327 140.067894 
L 506.925946 139.989816 
L 507.551565 140.031258 
L 508.177184 140.074105 
L 508.802803 140.038142 
L 509.428422 139.968518 
L 510.054041 139.948072 
L 510.67966 139.991463 
L 511.305279 139.96524 
L 511.930898 139.979327 
L 512.556517 140.11647 
L 513.182136 140.080066 
L 513.807755 140.037353 
L 514.433374 140.056722 
L 515.058993 140.017793 
L 515.684612 140.043846 
L 516.310231 140.186768 
L 516.93585 140.211527 
L 517.561469 140.281366 
L 518.187088 140.510964 
L 518.812707 140.517451 
L 519.438326 140.615206 
L 520.063945 140.586867 
L 520.689564 140.62007 
L 521.315183 140.624994 
L 521.940802 140.477539 
L 522.566421 140.470356 
L 523.19204 140.057529 
L 523.817659 139.995671 
L 524.443278 140.187053 
L 525.068897 140.158773 
L 525.694516 140.001917 
L 526.320135 140.100416 
L 526.945754 139.962101 
L 527.571373 139.911836 
L 528.196991 139.786293 
L 528.82261 139.794432 
L 529.448229 139.990937 
L 530.073848 139.934244 
L 530.699467 139.796878 
L 531.325086 139.894193 
L 531.950705 139.804828 
L 532.576324 139.711797 
L 533.201943 139.761855 
L 533.827562 139.769509 
L 534.453181 139.919247 
L 535.0788 139.918695 
L 535.704419 139.868375 
L 536.330038 139.779596 
L 536.955657 139.878796 
L 537.581276 139.966573 
L 538.206895 140.237097 
L 538.832514 140.238798 
L 539.458133 140.287601 
L 540.083752 140.217857 
L 540.709371 140.535761 
L 541.33499 140.434816 
L 541.960609 140.378702 
L 542.586228 140.378316 
L 543.211847 140.325567 
L 543.837466 140.41245 
L 544.463085 140.184648 
L 545.088704 140.340103 
L 545.714323 140.351299 
L 546.339942 140.462551 
L 546.965561 140.455607 
L 547.59118 140.347862 
L 548.216799 140.391437 
L 548.842418 140.476069 
L 549.468037 140.381657 
L 550.093656 140.195223 
L 550.719275 140.271509 
L 551.344894 140.327338 
L 551.970513 140.421249 
L 552.596132 140.383245 
L 553.221751 140.365847 
L 553.84737 140.275489 
L 554.472989 140.271742 
L 555.098608 140.370299 
L 555.724227 140.420193 
L 556.349846 140.18892 
L 556.975465 140.196255 
L 557.601084 140.295904 
L 558.226703 140.249533 
L 558.852322 140.147688 
L 559.477941 140.116047 
L 560.10356 140.265156 
L 560.729179 140.362233 
L 561.354798 140.462761 
L 561.980417 140.289981 
L 562.606036 140.145348 
L 563.231655 140.179279 
L 563.857274 140.285683 
L 564.482893 140.286191 
L 565.108512 140.210893 
L 565.734131 140.204141 
L 566.35975 140.251901 
L 566.985369 140.225696 
L 567.610988 140.057886 
L 568.236607 139.947412 
L 568.862226 140.082758 
L 569.487845 140.112191 
L 570.113464 140.083578 
L 570.739083 140.012811 
L 571.364701 139.943434 
L 571.99032 139.913911 
L 572.615939 139.809094 
L 573.241558 139.867255 
L 573.867177 139.764513 
L 574.492796 139.691669 
L 575.118415 139.747195 
L 575.744034 139.690034 
L 576.369653 139.573747 
L 576.995272 139.732722 
L 577.620891 139.650964 
L 578.24651 139.477331 
L 578.872129 139.443389 
L 579.497748 139.454633 
L 580.123367 139.492395 
L 580.748986 139.370442 
L 581.374605 139.219753 
L 582.000224 139.147431 
L 582.625843 139.121879 
L 583.251462 139.049252 
L 583.877081 138.891868 
L 584.5027 138.955353 
L 585.128319 139.01914 
L 585.753938 139.005034 
L 586.379557 138.828392 
L 587.005176 138.759376 
L 587.630795 138.779554 
L 588.256414 138.768968 
L 588.882033 138.732184 
L 589.507652 138.644125 
L 590.133271 138.722315 
L 590.75889 138.686676 
L 591.384509 138.603199 
L 592.010128 138.513764 
L 592.635747 138.583273 
L 593.261366 138.686538 
L 593.886985 138.735166 
L 594.512604 138.771948 
L 595.138223 138.708116 
L 595.763842 138.738064 
L 596.389461 138.833626 
L 597.01508 138.918081 
L 597.640699 138.930397 
L 598.266318 138.934119 
L 598.891937 138.785411 
L 599.517556 138.834761 
L 600.143175 138.590729 
L 600.768794 138.703975 
L 601.394413 138.737617 
L 602.020032 138.729292 
L 602.645651 138.735533 
L 603.27127 138.752626 
L 603.896889 138.846559 
L 604.522508 138.913542 
L 605.148127 138.839421 
L 605.773746 139.02617 
L 606.399365 138.937825 
L 607.024984 138.909014 
L 607.650603 138.8327 
L 608.276222 138.857641 
L 608.901841 138.940673 
L 609.52746 138.915705 
L 610.153079 138.897108 
L 610.778698 138.965438 
L 611.404317 139.040637 
L 612.029936 139.061338 
L 612.655555 138.480002 
L 613.281174 138.471577 
L 613.906792 138.311492 
L 614.532411 138.404932 
L 615.15803 138.491725 
L 615.783649 138.381371 
L 616.409268 138.347955 
L 617.034887 138.253632 
L 617.660506 138.197108 
L 618.286125 138.15544 
L 618.911744 138.153349 
L 619.537363 138.314343 
L 620.162982 138.231903 
L 620.788601 138.13258 
L 621.41422 138.169493 
L 622.039839 138.271464 
L 622.665458 138.137417 
L 623.291077 138.136633 
L 623.916696 138.125823 
L 624.542315 138.088518 
L 625.167934 138.215821 
L 625.793553 138.186612 
L 626.419172 138.301358 
L 627.044791 138.211074 
L 627.67041 138.184836 
L 628.296029 138.277619 
L 628.921648 138.178582 
L 629.547267 138.19853 
L 630.172886 138.203797 
L 630.798505 138.175028 
L 631.424124 138.114169 
L 632.049743 138.08584 
L 632.675362 138.126895 
L 633.300981 138.163417 
L 633.9266 138.117439 
L 634.552219 138.13499 
L 635.177838 138.145353 
L 635.803457 138.091243 
L 636.429076 138.099652 
L 637.054695 138.079996 
L 637.680314 138.103241 
L 638.305933 138.105338 
L 638.931552 138.123351 
L 639.557171 138.263848 
L 640.18279 138.207733 
L 640.808409 138.072588 
L 641.434028 137.815716 
L 642.059647 137.845227 
L 642.685266 137.706502 
L 643.310885 137.836677 
L 643.936504 137.862904 
L 644.562123 137.879546 
L 645.187742 137.770736 
L 645.813361 137.815641 
L 646.43898 137.660259 
L 647.064599 137.802031 
L 647.690218 137.791966 
L 648.315837 137.746171 
L 648.941456 137.742617 
L 649.567075 137.661726 
L 650.192694 137.740622 
L 650.818313 137.730314 
L 651.443932 137.775279 
L 652.069551 137.693064 
L 652.69517 137.676886 
L 653.320789 137.630428 
L 653.946408 137.69762 
L 654.572027 137.584798 
L 655.197646 137.631411 
L 655.823265 137.69199 
L 656.448883 137.623309 
L 657.074502 137.447921 
L 657.700121 137.429973 
L 658.32574 137.410144 
L 658.951359 137.536788 
L 659.576978 137.41334 
L 660.202597 137.379603 
L 660.828216 137.354753 
L 661.453835 137.354037 
L 662.079454 137.275523 
L 662.705073 137.186527 
L 663.330692 137.153347 
L 663.956311 137.087685 
L 664.58193 137.116738 
L 665.207549 137.029618 
L 665.833168 137.076055 
L 666.458787 137.019482 
L 667.084406 137.069316 
L 667.710025 137.069587 
L 668.335644 137.007378 
L 668.961263 137.095226 
L 669.586882 137.06545 
L 670.212501 137.115506 
L 670.83812 137.140406 
L 671.463739 137.135624 
L 672.089358 137.057355 
L 672.714977 136.887022 
L 673.340596 136.888544 
L 673.966215 136.815336 
L 674.591834 136.828944 
L 675.217453 136.854003 
L 675.843072 136.890188 
L 676.468691 136.824574 
L 677.09431 136.936183 
L 677.719929 137.014858 
L 678.345548 137.00673 
L 678.971167 137.078596 
L 679.596786 137.081083 
L 680.222405 137.084045 
L 680.848024 137.065976 
L 681.473643 137.07185 
L 682.099262 137.057737 
L 682.724881 137.188915 
L 683.3505 137.161805 
L 683.976119 137.201203 
L 684.601738 137.262281 
L 685.227357 137.207298 
L 685.852976 137.144227 
L 686.478595 137.019798 
L 687.104214 136.971716 
L 687.729833 136.964284 
L 688.355452 137.065318 
L 688.981071 137.065079 
L 689.60669 137.074667 
L 690.232309 136.92763 
L 690.857928 136.962851 
L 691.483547 137.038017 
L 692.109166 137.069077 
L 692.734785 136.960985 
L 693.360404 137.078201 
L 693.986023 137.096932 
L 694.611642 137.092863 
L 695.237261 137.041868 
L 695.86288 137.027837 
L 696.488499 137.062895 
L 697.114118 137.065105 
L 697.739737 136.991969 
L 698.365356 137.041799 
L 698.990974 136.960043 
L 699.616593 136.828951 
L 700.242212 136.82488 
L 700.867831 136.814598 
L 701.49345 136.819995 
L 702.119069 136.822721 
L 702.744688 136.679525 
L 703.370307 136.639625 
L 703.995926 136.667789 
L 704.621545 136.649131 
L 705.247164 136.578738 
L 705.872783 136.556429 
L 706.498402 136.558042 
L 707.124021 136.606118 
L 707.74964 136.621644 
L 708.375259 136.528308 
L 709.000878 136.489129 
L 709.626497 136.482903 
L 710.252116 136.497397 
L 710.877735 136.61965 
L 711.503354 136.64069 
L 712.128973 136.689363 
L 712.754592 136.615248 
L 713.380211 136.475231 
L 714.00583 136.498877 
L 714.631449 136.55748 
L 715.257068 136.664044 
L 715.882687 136.579524 
L 716.508306 136.599809 
L 717.133925 136.548133 
L 717.759544 136.556949 
L 718.385163 136.576993 
L 719.010782 136.523547 
L 719.636401 136.569716 
L 720.26202 136.428672 
L 720.887639 136.421415 
L 721.513258 136.445822 
L 722.138877 136.374332 
L 722.764496 136.376568 
L 723.390115 136.164631 
L 724.015734 136.185803 
L 724.641353 136.209648 
L 725.266972 136.228993 
L 725.892591 136.117173 
L 726.51821 136.122767 
L 727.143829 136.120175 
L 727.769448 136.193128 
L 728.395067 136.117804 
L 729.020686 136.080988 
L 729.646305 136.145821 
L 730.271924 136.274495 
L 730.897543 136.206843 
L 731.523162 136.181042 
L 732.148781 136.111044 
L 732.7744 135.972369 
L 733.400019 135.912022 
L 734.025638 135.947772 
L 734.651257 135.827102 
L 735.276876 135.786903 
L 735.902495 135.697591 
L 736.528114 135.718188 
L 737.153733 135.591044 
L 737.779352 135.576059 
L 738.404971 135.652586 
L 739.03059 135.635422 
L 739.656209 135.647733 
L 740.281828 135.688336 
L 740.907447 135.679256 
L 741.533065 135.61741 
L 742.158684 135.59418 
L 742.784303 135.363197 
L 743.409922 135.29609 
L 744.035541 135.176202 
L 744.66116 135.112443 
L 745.286779 135.127392 
L 745.912398 135.065781 
L 746.538017 134.931735 
L 747.163636 134.57254 
L 747.163636 134.57254 
L 747.163636 134.57254 
L 746.538017 134.340037 
L 745.912398 134.253027 
L 745.286779 133.977301 
L 744.66116 133.939247 
L 744.035541 133.926331 
L 743.409922 133.917023 
L 742.784303 133.935969 
L 742.158684 133.897346 
L 741.533065 133.875611 
L 740.907447 133.797554 
L 740.281828 133.800217 
L 739.656209 133.725292 
L 739.03059 133.62854 
L 738.404971 133.494827 
L 737.779352 133.489905 
L 737.153733 133.542159 
L 736.528114 133.49734 
L 735.902495 133.508402 
L 735.276876 133.458135 
L 734.651257 133.368615 
L 734.025638 133.355418 
L 733.400019 133.34931 
L 732.7744 133.355041 
L 732.148781 133.439712 
L 731.523162 133.408572 
L 730.897543 133.323903 
L 730.271924 133.301533 
L 729.646305 133.248628 
L 729.020686 133.257725 
L 728.395067 133.217678 
L 727.769448 133.168499 
L 727.143829 133.173239 
L 726.51821 133.216356 
L 725.892591 133.162643 
L 725.266972 133.129974 
L 724.641353 133.136192 
L 724.015734 133.152527 
L 723.390115 133.1321 
L 722.764496 133.120412 
L 722.138877 133.217132 
L 721.513258 133.156844 
L 720.887639 133.098411 
L 720.26202 133.058287 
L 719.636401 133.090079 
L 719.010782 132.945734 
L 718.385163 132.928556 
L 717.759544 132.960234 
L 717.133925 132.810698 
L 716.508306 132.871321 
L 715.882687 132.873907 
L 715.257068 132.752541 
L 714.631449 132.711051 
L 714.00583 132.625297 
L 713.380211 132.546521 
L 712.754592 132.46978 
L 712.128973 132.33404 
L 711.503354 132.38311 
L 710.877735 132.362946 
L 710.252116 132.4012 
L 709.626497 132.27206 
L 709.000878 132.248072 
L 708.375259 132.326582 
L 707.74964 132.378404 
L 707.124021 132.505475 
L 706.498402 132.361941 
L 705.872783 132.349722 
L 705.247164 132.388531 
L 704.621545 132.346843 
L 703.995926 132.391869 
L 703.370307 132.281085 
L 702.744688 132.271964 
L 702.119069 132.287904 
L 701.49345 132.332372 
L 700.867831 132.30025 
L 700.242212 132.195173 
L 699.616593 132.152132 
L 698.990974 132.239374 
L 698.365356 132.169359 
L 697.739737 132.139795 
L 697.114118 132.160632 
L 696.488499 132.304684 
L 695.86288 132.296677 
L 695.237261 132.224459 
L 694.611642 132.062189 
L 693.986023 132.058864 
L 693.360404 132.113161 
L 692.734785 131.996349 
L 692.109166 131.852276 
L 691.483547 131.923844 
L 690.857928 131.990794 
L 690.232309 132.02419 
L 689.60669 131.957565 
L 688.981071 131.859246 
L 688.355452 131.802581 
L 687.729833 131.647132 
L 687.104214 131.70995 
L 686.478595 131.672436 
L 685.852976 131.541073 
L 685.227357 131.480987 
L 684.601738 131.354672 
L 683.976119 131.418016 
L 683.3505 131.416968 
L 682.724881 131.322314 
L 682.099262 131.281599 
L 681.473643 131.253138 
L 680.848024 131.145583 
L 680.222405 131.13635 
L 679.596786 131.192702 
L 678.971167 131.331582 
L 678.345548 131.317018 
L 677.719929 131.224373 
L 677.09431 131.139557 
L 676.468691 131.089846 
L 675.843072 131.199865 
L 675.217453 131.265196 
L 674.591834 131.169975 
L 673.966215 131.056202 
L 673.340596 131.03977 
L 672.714977 131.103159 
L 672.089358 131.118744 
L 671.463739 131.107605 
L 670.83812 131.136519 
L 670.212501 131.09901 
L 669.586882 131.161658 
L 668.961263 131.150463 
L 668.335644 131.09711 
L 667.710025 131.19086 
L 667.084406 131.090301 
L 666.458787 131.044582 
L 665.833168 130.90953 
L 665.207549 131.047246 
L 664.58193 131.065486 
L 663.956311 131.100865 
L 663.330692 130.909476 
L 662.705073 131.05835 
L 662.079454 131.021454 
L 661.453835 131.024364 
L 660.828216 130.936164 
L 660.202597 130.921175 
L 659.576978 130.895287 
L 658.951359 130.781638 
L 658.32574 130.829326 
L 657.700121 130.733426 
L 657.074502 130.630573 
L 656.448883 130.523938 
L 655.823265 130.533133 
L 655.197646 130.467234 
L 654.572027 130.546666 
L 653.946408 130.456083 
L 653.320789 130.309194 
L 652.69517 130.157904 
L 652.069551 130.241828 
L 651.443932 130.271618 
L 650.818313 130.262051 
L 650.192694 130.345169 
L 649.567075 130.344667 
L 648.941456 130.265536 
L 648.315837 130.491923 
L 647.690218 130.360072 
L 647.064599 130.323086 
L 646.43898 130.196221 
L 645.813361 130.181963 
L 645.187742 130.226129 
L 644.562123 130.225756 
L 643.936504 130.320013 
L 643.310885 130.386997 
L 642.685266 130.453348 
L 642.059647 130.340271 
L 641.434028 130.34128 
L 640.808409 130.389613 
L 640.18279 130.299551 
L 639.557171 130.194632 
L 638.931552 130.311997 
L 638.305933 130.325772 
L 637.680314 130.2627 
L 637.054695 130.292601 
L 636.429076 130.194987 
L 635.803457 130.182638 
L 635.177838 130.193706 
L 634.552219 130.26354 
L 633.9266 130.280294 
L 633.300981 130.204689 
L 632.675362 130.200032 
L 632.049743 130.136077 
L 631.424124 130.058653 
L 630.798505 129.909587 
L 630.172886 129.702543 
L 629.547267 129.726133 
L 628.921648 129.666037 
L 628.296029 129.96553 
L 627.67041 129.751009 
L 627.044791 129.703602 
L 626.419172 129.708614 
L 625.793553 129.739669 
L 625.167934 129.765022 
L 624.542315 129.830139 
L 623.916696 129.825343 
L 623.291077 129.904942 
L 622.665458 130.24599 
L 622.039839 130.28339 
L 621.41422 130.176053 
L 620.788601 130.160476 
L 620.162982 130.152586 
L 619.537363 130.126797 
L 618.911744 130.200274 
L 618.286125 130.184145 
L 617.660506 130.099803 
L 617.034887 130.257867 
L 616.409268 130.152488 
L 615.783649 130.154443 
L 615.15803 130.264265 
L 614.532411 130.184885 
L 613.906792 130.442172 
L 613.281174 130.399916 
L 612.655555 130.255253 
L 612.029936 130.289334 
L 611.404317 130.319517 
L 610.778698 130.212491 
L 610.153079 130.096821 
L 609.52746 130.100601 
L 608.901841 130.050173 
L 608.276222 129.960841 
L 607.650603 129.952012 
L 607.024984 130.080075 
L 606.399365 130.086547 
L 605.773746 130.038348 
L 605.148127 130.144232 
L 604.522508 130.106674 
L 603.896889 130.010774 
L 603.27127 129.810586 
L 602.645651 129.846276 
L 602.020032 129.75099 
L 601.394413 129.761072 
L 600.768794 129.75155 
L 600.143175 129.803678 
L 599.517556 129.766677 
L 598.891937 129.795983 
L 598.266318 129.791098 
L 597.640699 129.608343 
L 597.01508 129.739384 
L 596.389461 129.681511 
L 595.763842 129.771151 
L 595.138223 129.837324 
L 594.512604 129.776823 
L 593.886985 129.645223 
L 593.261366 129.611683 
L 592.635747 129.654717 
L 592.010128 129.860737 
L 591.384509 129.99387 
L 590.75889 129.972593 
L 590.133271 130.050352 
L 589.507652 130.087424 
L 588.882033 130.057378 
L 588.256414 130.040062 
L 587.630795 130.13537 
L 587.005176 130.107801 
L 586.379557 130.130576 
L 585.753938 129.918639 
L 585.128319 129.873266 
L 584.5027 129.726284 
L 583.877081 129.606005 
L 583.251462 129.763635 
L 582.625843 129.781914 
L 582.000224 129.785045 
L 581.374605 129.72293 
L 580.748986 129.668532 
L 580.123367 129.617385 
L 579.497748 129.664398 
L 578.872129 129.506799 
L 578.24651 129.440861 
L 577.620891 129.460759 
L 576.995272 129.46705 
L 576.369653 129.439282 
L 575.744034 129.446018 
L 575.118415 129.33305 
L 574.492796 129.256579 
L 573.867177 129.342426 
L 573.241558 129.351025 
L 572.615939 129.25676 
L 571.99032 129.235233 
L 571.364701 129.159509 
L 570.739083 129.195856 
L 570.113464 129.211918 
L 569.487845 129.213891 
L 568.862226 129.254321 
L 568.236607 129.309735 
L 567.610988 129.811341 
L 566.985369 129.813049 
L 566.35975 129.813847 
L 565.734131 129.759965 
L 565.108512 129.828517 
L 564.482893 129.717468 
L 563.857274 129.672881 
L 563.231655 129.751243 
L 562.606036 129.7301 
L 561.980417 129.616729 
L 561.354798 129.729763 
L 560.729179 129.69881 
L 560.10356 129.689256 
L 559.477941 129.675544 
L 558.852322 129.659507 
L 558.226703 129.633671 
L 557.601084 129.730753 
L 556.975465 129.835048 
L 556.349846 129.776611 
L 555.724227 129.601687 
L 555.098608 129.430361 
L 554.472989 129.516897 
L 553.84737 129.550806 
L 553.221751 129.598815 
L 552.596132 129.566162 
L 551.970513 129.580553 
L 551.344894 129.687417 
L 550.719275 129.645562 
L 550.093656 129.678205 
L 549.468037 129.523447 
L 548.842418 129.487696 
L 548.216799 129.419198 
L 547.59118 129.545763 
L 546.965561 129.416645 
L 546.339942 129.52497 
L 545.714323 129.437777 
L 545.088704 129.536201 
L 544.463085 129.403542 
L 543.837466 129.357038 
L 543.211847 129.371234 
L 542.586228 129.187656 
L 541.960609 129.220466 
L 541.33499 129.120268 
L 540.709371 129.208151 
L 540.083752 129.107771 
L 539.458133 129.02217 
L 538.832514 129.011086 
L 538.206895 129.063392 
L 537.581276 129.044453 
L 536.955657 129.097881 
L 536.330038 129.263274 
L 535.704419 129.170021 
L 535.0788 129.103742 
L 534.453181 129.175641 
L 533.827562 129.195765 
L 533.201943 129.248288 
L 532.576324 129.081602 
L 531.950705 129.055702 
L 531.325086 129.232587 
L 530.699467 129.102703 
L 530.073848 128.991884 
L 529.448229 128.931807 
L 528.82261 128.854458 
L 528.196991 129.099374 
L 527.571373 129.14513 
L 526.945754 129.287184 
L 526.320135 129.259478 
L 525.694516 129.450964 
L 525.068897 129.421171 
L 524.443278 129.516743 
L 523.817659 129.47684 
L 523.19204 129.411822 
L 522.566421 129.44935 
L 521.940802 129.428161 
L 521.315183 129.460545 
L 520.689564 129.459294 
L 520.063945 129.393023 
L 519.438326 129.367254 
L 518.812707 129.304813 
L 518.187088 129.157996 
L 517.561469 129.142078 
L 516.93585 129.107249 
L 516.310231 129.105142 
L 515.684612 128.908868 
L 515.058993 128.813918 
L 514.433374 128.667219 
L 513.807755 128.650253 
L 513.182136 128.4933 
L 512.556517 128.434782 
L 511.930898 128.64987 
L 511.305279 128.556936 
L 510.67966 128.439727 
L 510.054041 128.421146 
L 509.428422 128.647228 
L 508.802803 128.679873 
L 508.177184 128.72627 
L 507.551565 128.565965 
L 506.925946 128.434306 
L 506.300327 128.620811 
L 505.674708 128.692411 
L 505.049089 128.77615 
L 504.42347 128.72085 
L 503.797851 128.673974 
L 503.172232 128.561426 
L 502.546613 128.416013 
L 501.920994 128.337425 
L 501.295375 128.447555 
L 500.669756 128.450806 
L 500.044137 128.487219 
L 499.418518 128.61182 
L 498.792899 128.554188 
L 498.16728 128.586705 
L 497.541661 128.612058 
L 496.916042 128.519434 
L 496.290423 128.626079 
L 495.664804 128.622248 
L 495.039185 128.512908 
L 494.413566 128.616092 
L 493.787947 128.613288 
L 493.162328 128.503011 
L 492.536709 128.389008 
L 491.91109 128.368314 
L 491.285471 128.177481 
L 490.659852 128.134497 
L 490.034233 127.934669 
L 489.408614 127.965783 
L 488.782995 128.029814 
L 488.157376 128.065731 
L 487.531757 128.209445 
L 486.906138 128.294814 
L 486.280519 128.344724 
L 485.6549 128.43997 
L 485.029282 128.559658 
L 484.403663 128.427529 
L 483.778044 128.394786 
L 483.152425 128.384147 
L 482.526806 128.725339 
L 481.901187 128.705739 
L 481.275568 128.554591 
L 480.649949 128.595085 
L 480.02433 128.213645 
L 479.398711 128.268581 
L 478.773092 128.184564 
L 478.147473 128.384941 
L 477.521854 128.313295 
L 476.896235 128.106071 
L 476.270616 128.067632 
L 475.644997 128.029519 
L 475.019378 128.063216 
L 474.393759 128.083333 
L 473.76814 128.104442 
L 473.142521 128.127797 
L 472.516902 128.169879 
L 471.891283 128.143468 
L 471.265664 127.969321 
L 470.640045 128.002542 
L 470.014426 127.904125 
L 469.388807 127.930759 
L 468.763188 127.849647 
L 468.137569 127.646229 
L 467.51195 127.758984 
L 466.886331 127.554506 
L 466.260712 127.616847 
L 465.635093 127.69322 
L 465.009474 127.620324 
L 464.383855 127.317632 
L 463.758236 127.1082 
L 463.132617 127.167379 
L 462.506998 127.098163 
L 461.881379 127.232452 
L 461.25576 127.120805 
L 460.630141 127.250507 
L 460.004522 127.22239 
L 459.378903 127.085949 
L 458.753284 126.942345 
L 458.127665 127.089858 
L 457.502046 127.159321 
L 456.876427 127.01716 
L 456.250808 127.068304 
L 455.625189 127.11737 
L 454.99957 127.27828 
L 454.373951 127.400017 
L 453.748332 127.260117 
L 453.122713 127.147846 
L 452.497094 127.045557 
L 451.871475 127.030907 
L 451.245856 126.904671 
L 450.620237 126.879506 
L 449.994618 126.687901 
L 449.368999 126.567078 
L 448.74338 126.445237 
L 448.117761 126.434851 
L 447.492142 126.533778 
L 446.866523 126.683493 
L 446.240904 126.863254 
L 445.615285 126.84342 
L 444.989666 126.882818 
L 444.364047 126.988165 
L 443.738428 127.080451 
L 443.112809 127.041269 
L 442.487191 127.056585 
L 441.861572 127.063991 
L 441.235953 127.009912 
L 440.610334 126.999335 
L 439.984715 127.059432 
L 439.359096 127.072753 
L 438.733477 127.032677 
L 438.107858 127.036204 
L 437.482239 126.980854 
L 436.85662 126.71944 
L 436.231001 126.712944 
L 435.605382 126.501605 
L 434.979763 126.469873 
L 434.354144 126.58428 
L 433.728525 126.339966 
L 433.102906 126.202926 
L 432.477287 126.226311 
L 431.851668 126.256312 
L 431.226049 126.216684 
L 430.60043 126.186022 
L 429.974811 126.356032 
L 429.349192 126.311523 
L 428.723573 126.431526 
L 428.097954 126.401513 
L 427.472335 126.152998 
L 426.846716 126.189706 
L 426.221097 126.261992 
L 425.595478 126.436361 
L 424.969859 126.563457 
L 424.34424 126.568186 
L 423.718621 126.419959 
L 423.093002 126.350573 
L 422.467383 126.184177 
L 421.841764 126.302276 
L 421.216145 126.068901 
L 420.590526 125.495627 
L 419.964907 125.609881 
L 419.339288 125.48901 
L 418.713669 125.567284 
L 418.08805 125.940828 
L 417.462431 126.01593 
L 416.836812 125.767692 
L 416.211193 126.032109 
L 415.585574 126.0488 
L 414.959955 126.041602 
L 414.334336 126.065106 
L 413.708717 125.967449 
L 413.083098 126.077111 
L 412.457479 126.051551 
L 411.83186 125.986834 
L 411.206241 126.170201 
L 410.580622 125.956123 
L 409.955003 125.792776 
L 409.329384 125.804396 
L 408.703765 125.581796 
L 408.078146 125.485267 
L 407.452527 125.372071 
L 406.826908 125.385936 
L 406.201289 125.329219 
L 405.57567 125.550706 
L 404.950051 125.58208 
L 404.324432 125.676734 
L 403.698813 125.848908 
L 403.073194 125.962983 
L 402.447575 126.135368 
L 401.821956 126.310885 
L 401.196337 126.142796 
L 400.570718 126.344133 
L 399.9451 126.265438 
L 399.319481 126.295541 
L 398.693862 126.05535 
L 398.068243 125.830987 
L 397.442624 125.895292 
L 396.817005 126.024861 
L 396.191386 126.203497 
L 395.565767 125.992414 
L 394.940148 125.883537 
L 394.314529 125.869343 
L 393.68891 125.868217 
L 393.063291 125.873497 
L 392.437672 125.913078 
L 391.812053 126.07023 
L 391.186434 125.861831 
L 390.560815 125.584388 
L 389.935196 125.500739 
L 389.309577 125.256215 
L 388.683958 125.390905 
L 388.058339 125.53587 
L 387.43272 125.663418 
L 386.807101 125.709201 
L 386.181482 125.75632 
L 385.555863 126.153024 
L 384.930244 125.871532 
L 384.304625 126.010336 
L 383.679006 126.009776 
L 383.053387 125.97569 
L 382.427768 125.953411 
L 381.802149 125.994679 
L 381.17653 126.025944 
L 380.550911 126.054218 
L 379.925292 126.235925 
L 379.299673 126.298041 
L 378.674054 126.304563 
L 378.048435 126.158149 
L 377.422816 125.985831 
L 376.797197 125.813604 
L 376.171578 125.875707 
L 375.545959 125.672791 
L 374.92034 125.566189 
L 374.294721 125.322943 
L 373.669102 125.139927 
L 373.043483 125.106876 
L 372.417864 125.544823 
L 371.792245 125.732963 
L 371.166626 125.700112 
L 370.541007 125.386782 
L 369.915388 125.203085 
L 369.289769 125.286369 
L 368.66415 125.149085 
L 368.038531 125.467892 
L 367.412912 125.408634 
L 366.787293 125.43244 
L 366.161674 125.278275 
L 365.536055 125.260117 
L 364.910436 125.192396 
L 364.284817 125.262533 
L 363.659198 125.264786 
L 363.033579 125.301598 
L 362.40796 124.973722 
L 361.782341 124.921816 
L 361.156722 125.152603 
L 360.531103 125.026584 
L 359.905484 124.882739 
L 359.279865 125.089754 
L 358.654246 125.109078 
L 358.028627 125.716581 
L 357.403009 125.431564 
L 356.77739 126.211341 
L 356.151771 126.17319 
L 355.526152 125.889517 
L 354.900533 125.682509 
L 354.274914 125.776647 
L 353.649295 125.866018 
L 353.023676 125.779552 
L 352.398057 125.570391 
L 351.772438 125.500471 
L 351.146819 125.63388 
L 350.5212 125.476522 
L 349.895581 125.762308 
L 349.269962 125.668661 
L 348.644343 125.354208 
L 348.018724 125.809607 
L 347.393105 125.788049 
L 346.767486 125.703955 
L 346.141867 125.675532 
L 345.516248 125.900542 
L 344.890629 125.669253 
L 344.26501 125.75197 
L 343.639391 125.57304 
L 343.013772 125.341045 
L 342.388153 125.2232 
L 341.762534 125.175217 
L 341.136915 124.705577 
L 340.511296 124.453672 
L 339.885677 123.9271 
L 339.260058 124.124498 
L 338.634439 124.343416 
L 338.00882 124.107447 
L 337.383201 124.319206 
L 336.757582 124.356561 
L 336.131963 124.183888 
L 335.506344 124.251931 
L 334.880725 124.504236 
L 334.255106 125.169081 
L 333.629487 125.23248 
L 333.003868 125.124245 
L 332.378249 124.9531 
L 331.75263 124.894891 
L 331.127011 124.698913 
L 330.501392 124.640153 
L 329.875773 124.503766 
L 329.250154 124.402237 
L 328.624535 124.226951 
L 327.998916 123.886547 
L 327.373297 123.753528 
L 326.747678 123.917544 
L 326.122059 123.920677 
L 325.49644 123.821545 
L 324.870821 123.483852 
L 324.245202 123.527226 
L 323.619583 123.484204 
L 322.993964 123.481976 
L 322.368345 123.336923 
L 321.742726 123.342788 
L 321.117107 123.368406 
L 320.491488 123.447454 
L 319.865869 123.489736 
L 319.24025 123.712212 
L 318.614631 123.92997 
L 317.989012 123.829993 
L 317.363393 123.825977 
L 316.737774 123.917729 
L 316.112155 123.828067 
L 315.486536 123.702137 
L 314.860917 123.769213 
L 314.235299 123.485554 
L 313.60968 123.305881 
L 312.984061 123.53582 
L 312.358442 123.548128 
L 311.732823 123.381288 
L 311.107204 123.177175 
L 310.481585 123.652607 
L 309.855966 123.856147 
L 309.230347 123.899241 
L 308.604728 123.673242 
L 307.979109 123.217814 
L 307.35349 123.380282 
L 306.727871 123.620834 
L 306.102252 123.748997 
L 305.476633 123.699692 
L 304.851014 123.659365 
L 304.225395 123.491037 
L 303.599776 124.208019 
L 302.974157 124.088431 
L 302.348538 124.09389 
L 301.722919 124.032952 
L 301.0973 123.780607 
L 300.471681 123.703371 
L 299.846062 123.052036 
L 299.220443 123.276091 
L 298.594824 123.305373 
L 297.969205 123.156502 
L 297.343586 123.0565 
L 296.717967 123.43217 
L 296.092348 123.256549 
L 295.466729 123.430666 
L 294.84111 123.340784 
L 294.215491 122.918386 
L 293.589872 122.988498 
L 292.964253 122.648984 
L 292.338634 122.493188 
L 291.713015 122.578124 
L 291.087396 122.961966 
L 290.461777 122.650062 
L 289.836158 122.812209 
L 289.210539 122.873893 
L 288.58492 122.831121 
L 287.959301 122.821976 
L 287.333682 122.065263 
L 286.708063 122.05646 
L 286.082444 122.402895 
L 285.456825 122.203591 
L 284.831206 122.016417 
L 284.205587 121.98536 
L 283.579968 122.228419 
L 282.954349 122.710985 
L 282.32873 122.271322 
L 281.703111 122.333861 
L 281.077492 122.37934 
L 280.451873 121.637789 
L 279.826254 121.668541 
L 279.200635 121.645666 
L 278.575016 121.635071 
L 277.949397 122.00946 
L 277.323778 122.048877 
L 276.698159 122.042941 
L 276.07254 121.976943 
L 275.446921 121.758852 
L 274.821302 121.117336 
L 274.195683 121.249546 
L 273.570064 121.148263 
L 272.944445 120.767484 
L 272.318826 120.383278 
L 271.693208 120.348197 
L 271.067589 120.827049 
L 270.44197 120.424862 
L 269.816351 120.321212 
L 269.190732 120.169498 
L 268.565113 120.459199 
L 267.939494 120.004199 
L 267.313875 119.869627 
L 266.688256 119.60579 
L 266.062637 119.829446 
L 265.437018 119.904088 
L 264.811399 120.002458 
L 264.18578 120.122652 
L 263.560161 120.457381 
L 262.934542 119.935679 
L 262.308923 119.231344 
L 261.683304 119.369179 
L 261.057685 119.943664 
L 260.432066 119.842628 
L 259.806447 119.090823 
L 259.180828 120.370487 
L 258.555209 120.475243 
L 257.92959 120.276159 
L 257.303971 120.734796 
L 256.678352 120.548497 
L 256.052733 120.770999 
L 255.427114 120.757316 
L 254.801495 120.862054 
L 254.175876 120.435987 
L 253.550257 120.407443 
L 252.924638 120.461199 
L 252.299019 120.421263 
L 251.6734 120.29214 
L 251.047781 120.267639 
L 250.422162 120.754125 
L 249.796543 120.385682 
L 249.170924 120.807477 
L 248.545305 120.64049 
L 247.919686 120.835969 
L 247.294067 120.702566 
L 246.668448 120.515269 
L 246.042829 120.38842 
L 245.41721 120.374704 
L 244.791591 120.321732 
L 244.165972 120.631664 
L 243.540353 120.743685 
L 242.914734 121.015906 
L 242.289115 120.755173 
L 241.663496 120.75922 
L 241.037877 120.450482 
L 240.412258 120.325179 
L 239.786639 120.118024 
L 239.16102 119.422497 
L 238.535401 118.879613 
L 237.909782 119.255954 
L 237.284163 118.34488 
L 236.658544 118.595351 
L 236.032925 118.390871 
L 235.407306 118.799712 
L 234.781687 119.297557 
L 234.156068 119.594272 
L 233.530449 119.423013 
L 232.90483 119.468139 
L 232.279211 119.881388 
L 231.653592 119.391807 
L 231.027973 119.405529 
L 230.402354 119.420826 
L 229.776735 119.322802 
L 229.151117 119.723106 
L 228.525498 119.270488 
L 227.899879 118.928728 
L 227.27426 118.830832 
L 226.648641 118.765136 
L 226.023022 118.122234 
L 225.397403 117.970392 
L 224.771784 116.966443 
L 224.146165 116.578138 
L 223.520546 116.753387 
L 222.894927 117.269468 
L 222.269308 117.666242 
L 221.643689 118.17136 
L 221.01807 118.578172 
L 220.392451 118.580187 
L 219.766832 118.737295 
L 219.141213 118.799462 
L 218.515594 118.419844 
L 217.889975 118.350288 
L 217.264356 118.251664 
L 216.638737 117.91281 
L 216.013118 117.55893 
L 215.387499 117.727039 
L 214.76188 116.914402 
L 214.136261 117.370514 
L 213.510642 117.653607 
L 212.885023 117.748227 
L 212.259404 117.033087 
L 211.633785 118.166591 
L 211.008166 117.640507 
L 210.382547 116.734129 
L 209.756928 117.137197 
L 209.131309 117.374179 
L 208.50569 117.114395 
L 207.880071 116.318918 
L 207.254452 116.570441 
L 206.628833 117.133249 
L 206.003214 117.525755 
L 205.377595 117.730458 
L 204.751976 118.110728 
L 204.126357 118.213674 
L 203.500738 117.641491 
L 202.875119 117.181945 
L 202.2495 117.235178 
L 201.623881 117.052928 
L 200.998262 115.914929 
L 200.372643 115.671361 
L 199.747024 116.077671 
L 199.121405 116.613837 
L 198.495786 116.25938 
L 197.870167 114.971778 
L 197.244548 114.574578 
L 196.618929 114.501635 
L 195.99331 113.708714 
L 195.367691 113.895261 
L 194.742072 113.127193 
L 194.116453 112.234212 
L 193.490834 111.534785 
L 192.865215 110.593494 
L 192.239596 111.13484 
L 191.613977 110.764205 
L 190.988358 110.66202 
L 190.362739 110.953017 
L 189.73712 109.401139 
L 189.111501 109.400519 
L 188.485882 110.111796 
L 187.860263 113.835112 
L 187.234644 112.618543 
L 186.609026 112.349804 
L 185.983407 110.594316 
L 185.357788 108.724755 
L 184.732169 108.733314 
L 184.10655 108.600022 
L 183.480931 107.165723 
L 182.855312 107.318135 
L 182.229693 107.685291 
L 181.604074 107.820138 
L 180.978455 107.304648 
L 180.352836 107.781492 
L 179.727217 106.048378 
L 179.101598 108.400112 
L 178.475979 110.441679 
L 177.85036 110.877826 
L 177.224741 109.852544 
L 176.599122 111.834122 
L 175.973503 110.496194 
L 175.347884 110.445679 
L 174.722265 110.127435 
L 174.096646 109.945637 
L 173.471027 109.140244 
L 172.845408 108.961238 
L 172.219789 109.854883 
L 171.59417 109.483608 
L 170.968551 109.114905 
L 170.342932 108.191544 
L 169.717313 107.906614 
L 169.091694 106.434657 
L 168.466075 105.919015 
L 167.840456 106.138198 
L 167.214837 105.610408 
L 166.589218 102.648578 
L 165.963599 102.987404 
L 165.33798 103.515919 
L 164.712361 103.158822 
L 164.086742 103.353163 
L 163.461123 103.131532 
L 162.835504 103.434275 
L 162.209885 102.605463 
L 161.584266 103.425411 
L 160.958647 104.162368 
L 160.333028 103.968458 
L 159.707409 101.718471 
L 159.08179 100.037639 
L 158.456171 100.747849 
L 157.830552 101.223679 
L 157.204933 102.989456 
L 156.579314 102.340981 
L 155.953695 98.914541 
L 155.328076 93.282717 
L 154.702457 91.64341 
L 154.076838 94.038205 
L 153.451219 92.515915 
L 152.8256 86.564714 
L 152.199981 89.635218 
L 151.574362 90.411382 
L 150.948743 92.072813 
L 150.323124 89.163943 
L 149.697505 88.349985 
L 149.071886 89.576482 
L 148.446267 86.69891 
L 147.820648 86.927417 
L 147.195029 79.455641 
L 146.56941 79.455613 
L 145.943791 82.827713 
L 145.318172 76.309785 
L 144.692553 87.343856 
L 144.066935 79.312297 
L 143.441316 75.040231 
L 142.815697 62.50759 
L 142.190078 62.490271 
L 141.564459 58.556379 
L 140.93884 41.722813 
L 140.313221 44.606175 
L 139.687602 47.028992 
L 139.061983 50.736659 
L 138.436364 24.042563 
z
" clip-path="url(#p491feaa942)" style="fill: #1f77b4; fill-opacity: 0.5"/>
   </g>
   <g id="matplotlib.axis_1">
    <g id="xtick_1">
     <g id="line2d_1">
      <defs>
       <path id="mf52ffacaff" d="M 0 0 
L 0 3.5 
" style="stroke: #000000; stroke-width: 0.8"/>
      </defs>
      <g>
       <use xlink:href="#mf52ffacaff" x="138.436364" y="256.32" style="stroke: #000000; stroke-width: 0.8"/>
      </g>
     </g>
     <g id="text_1">
      <!-- 0.0 -->
      <g transform="translate(130.484801 270.918437) scale(0.1 -0.1)">
       <defs>
        <path id="DejaVuSans-30" d="M 2034 4250 
Q 1547 4250 1301 3770 
Q 1056 3291 1056 2328 
Q 1056 1369 1301 889 
Q 1547 409 2034 409 
Q 2525 409 2770 889 
Q 3016 1369 3016 2328 
Q 3016 3291 2770 3770 
Q 2525 4250 2034 4250 
z
M 2034 4750 
Q 2819 4750 3233 4129 
Q 3647 3509 3647 2328 
Q 3647 1150 3233 529 
Q 2819 -91 2034 -91 
Q 1250 -91 836 529 
Q 422 1150 422 2328 
Q 422 3509 836 4129 
Q 1250 4750 2034 4750 
z
" transform="scale(0.015625)"/>
        <path id="DejaVuSans-2e" d="M 684 794 
L 1344 794 
L 1344 0 
L 684 0 
L 684 794 
z
" transform="scale(0.015625)"/>
       </defs>
       <use xlink:href="#DejaVuSans-30"/>
       <use xlink:href="#DejaVuSans-2e" transform="translate(63.623047 0)"/>
       <use xlink:href="#DejaVuSans-30" transform="translate(95.410156 0)"/>
      </g>
     </g>
    </g>
    <g id="xtick_2">
     <g id="line2d_2">
      <g>
       <use xlink:href="#mf52ffacaff" x="263.560161" y="256.32" style="stroke: #000000; stroke-width: 0.8"/>
      </g>
     </g>
     <g id="text_2">
      <!-- 0.2 -->
      <g transform="translate(255.608598 270.918437) scale(0.1 -0.1)">
       <defs>
        <path id="DejaVuSans-32" d="M 1228 531 
L 3431 531 
L 3431 0 
L 469 0 
L 469 531 
Q 828 903 1448 1529 
Q 2069 2156 2228 2338 
Q 2531 2678 2651 2914 
Q 2772 3150 2772 3378 
Q 2772 3750 2511 3984 
Q 2250 4219 1831 4219 
Q 1534 4219 1204 4116 
Q 875 4013 500 3803 
L 500 4441 
Q 881 4594 1212 4672 
Q 1544 4750 1819 4750 
Q 2544 4750 2975 4387 
Q 3406 4025 3406 3419 
Q 3406 3131 3298 2873 
Q 3191 2616 2906 2266 
Q 2828 2175 2409 1742 
Q 1991 1309 1228 531 
z
" transform="scale(0.015625)"/>
       </defs>
       <use xlink:href="#DejaVuSans-30"/>
       <use xlink:href="#DejaVuSans-2e" transform="translate(63.623047 0)"/>
       <use xlink:href="#DejaVuSans-32" transform="translate(95.410156 0)"/>
      </g>
     </g>
    </g>
    <g id="xtick_3">
     <g id="line2d_3">
      <g>
       <use xlink:href="#mf52ffacaff" x="388.683958" y="256.32" style="stroke: #000000; stroke-width: 0.8"/>
      </g>
     </g>
     <g id="text_3">
      <!-- 0.4 -->
      <g transform="translate(380.732395 270.918437) scale(0.1 -0.1)">
       <defs>
        <path id="DejaVuSans-34" d="M 2419 4116 
L 825 1625 
L 2419 1625 
L 2419 4116 
z
M 2253 4666 
L 3047 4666 
L 3047 1625 
L 3713 1625 
L 3713 1100 
L 3047 1100 
L 3047 0 
L 2419 0 
L 2419 1100 
L 313 1100 
L 313 1709 
L 2253 4666 
z
" transform="scale(0.015625)"/>
       </defs>
       <use xlink:href="#DejaVuSans-30"/>
       <use xlink:href="#DejaVuSans-2e" transform="translate(63.623047 0)"/>
       <use xlink:href="#DejaVuSans-34" transform="translate(95.410156 0)"/>
      </g>
     </g>
    </g>
    <g id="xtick_4">
     <g id="line2d_4">
      <g>
       <use xlink:href="#mf52ffacaff" x="513.807755" y="256.32" style="stroke: #000000; stroke-width: 0.8"/>
      </g>
     </g>
     <g id="text_4">
      <!-- 0.6 -->
      <g transform="translate(505.856192 270.918437) scale(0.1 -0.1)">
       <defs>
        <path id="DejaVuSans-36" d="M 2113 2584 
Q 1688 2584 1439 2293 
Q 1191 2003 1191 1497 
Q 1191 994 1439 701 
Q 1688 409 2113 409 
Q 2538 409 2786 701 
Q 3034 994 3034 1497 
Q 3034 2003 2786 2293 
Q 2538 2584 2113 2584 
z
M 3366 4563 
L 3366 3988 
Q 3128 4100 2886 4159 
Q 2644 4219 2406 4219 
Q 1781 4219 1451 3797 
Q 1122 3375 1075 2522 
Q 1259 2794 1537 2939 
Q 1816 3084 2150 3084 
Q 2853 3084 3261 2657 
Q 3669 2231 3669 1497 
Q 3669 778 3244 343 
Q 2819 -91 2113 -91 
Q 1303 -91 875 529 
Q 447 1150 447 2328 
Q 447 3434 972 4092 
Q 1497 4750 2381 4750 
Q 2619 4750 2861 4703 
Q 3103 4656 3366 4563 
z
" transform="scale(0.015625)"/>
       </defs>
       <use xlink:href="#DejaVuSans-30"/>
       <use xlink:href="#DejaVuSans-2e" transform="translate(63.623047 0)"/>
       <use xlink:href="#DejaVuSans-36" transform="translate(95.410156 0)"/>
      </g>
     </g>
    </g>
    <g id="xtick_5">
     <g id="line2d_5">
      <g>
       <use xlink:href="#mf52ffacaff" x="638.931552" y="256.32" style="stroke: #000000; stroke-width: 0.8"/>
      </g>
     </g>
     <g id="text_5">
      <!-- 0.8 -->
      <g transform="translate(630.979989 270.918437) scale(0.1 -0.1)">
       <defs>
        <path id="DejaVuSans-38" d="M 2034 2216 
Q 1584 2216 1326 1975 
Q 1069 1734 1069 1313 
Q 1069 891 1326 650 
Q 1584 409 2034 409 
Q 2484 409 2743 651 
Q 3003 894 3003 1313 
Q 3003 1734 2745 1975 
Q 2488 2216 2034 2216 
z
M 1403 2484 
Q 997 2584 770 2862 
Q 544 3141 544 3541 
Q 544 4100 942 4425 
Q 1341 4750 2034 4750 
Q 2731 4750 3128 4425 
Q 3525 4100 3525 3541 
Q 3525 3141 3298 2862 
Q 3072 2584 2669 2484 
Q 3125 2378 3379 2068 
Q 3634 1759 3634 1313 
Q 3634 634 3220 271 
Q 2806 -91 2034 -91 
Q 1263 -91 848 271 
Q 434 634 434 1313 
Q 434 1759 690 2068 
Q 947 2378 1403 2484 
z
M 1172 3481 
Q 1172 3119 1398 2916 
Q 1625 2713 2034 2713 
Q 2441 2713 2670 2916 
Q 2900 3119 2900 3481 
Q 2900 3844 2670 4047 
Q 2441 4250 2034 4250 
Q 1625 4250 1398 4047 
Q 1172 3844 1172 3481 
z
" transform="scale(0.015625)"/>
       </defs>
       <use xlink:href="#DejaVuSans-30"/>
       <use xlink:href="#DejaVuSans-2e" transform="translate(63.623047 0)"/>
       <use xlink:href="#DejaVuSans-38" transform="translate(95.410156 0)"/>
      </g>
     </g>
    </g>
    <g id="xtick_6">
     <g id="line2d_6">
      <g>
       <use xlink:href="#mf52ffacaff" x="764.055349" y="256.32" style="stroke: #000000; stroke-width: 0.8"/>
      </g>
     </g>
     <g id="text_6">
      <!-- 1.0 -->
      <g transform="translate(756.103786 270.918437) scale(0.1 -0.1)">
       <defs>
        <path id="DejaVuSans-31" d="M 794 531 
L 1825 531 
L 1825 4091 
L 703 3866 
L 703 4441 
L 1819 4666 
L 2450 4666 
L 2450 531 
L 3481 531 
L 3481 0 
L 794 0 
L 794 531 
z
" transform="scale(0.015625)"/>
       </defs>
       <use xlink:href="#DejaVuSans-31"/>
       <use xlink:href="#DejaVuSans-2e" transform="translate(63.623047 0)"/>
       <use xlink:href="#DejaVuSans-30" transform="translate(95.410156 0)"/>
      </g>
     </g>
    </g>
    <g id="text_7">
     <!-- nTokens -->
     <g transform="translate(422.803906 284.596563) scale(0.1 -0.1)">
      <defs>
       <path id="DejaVuSans-6e" d="M 3513 2113 
L 3513 0 
L 2938 0 
L 2938 2094 
Q 2938 2591 2744 2837 
Q 2550 3084 2163 3084 
Q 1697 3084 1428 2787 
Q 1159 2491 1159 1978 
L 1159 0 
L 581 0 
L 581 3500 
L 1159 3500 
L 1159 2956 
Q 1366 3272 1645 3428 
Q 1925 3584 2291 3584 
Q 2894 3584 3203 3211 
Q 3513 2838 3513 2113 
z
" transform="scale(0.015625)"/>
       <path id="DejaVuSans-54" d="M -19 4666 
L 3928 4666 
L 3928 4134 
L 2272 4134 
L 2272 0 
L 1638 0 
L 1638 4134 
L -19 4134 
L -19 4666 
z
" transform="scale(0.015625)"/>
       <path id="DejaVuSans-6f" d="M 1959 3097 
Q 1497 3097 1228 2736 
Q 959 2375 959 1747 
Q 959 1119 1226 758 
Q 1494 397 1959 397 
Q 2419 397 2687 759 
Q 2956 1122 2956 1747 
Q 2956 2369 2687 2733 
Q 2419 3097 1959 3097 
z
M 1959 3584 
Q 2709 3584 3137 3096 
Q 3566 2609 3566 1747 
Q 3566 888 3137 398 
Q 2709 -91 1959 -91 
Q 1206 -91 779 398 
Q 353 888 353 1747 
Q 353 2609 779 3096 
Q 1206 3584 1959 3584 
z
" transform="scale(0.015625)"/>
       <path id="DejaVuSans-6b" d="M 581 4863 
L 1159 4863 
L 1159 1991 
L 2875 3500 
L 3609 3500 
L 1753 1863 
L 3688 0 
L 2938 0 
L 1159 1709 
L 1159 0 
L 581 0 
L 581 4863 
z
" transform="scale(0.015625)"/>
       <path id="DejaVuSans-65" d="M 3597 1894 
L 3597 1613 
L 953 1613 
Q 991 1019 1311 708 
Q 1631 397 2203 397 
Q 2534 397 2845 478 
Q 3156 559 3463 722 
L 3463 178 
Q 3153 47 2828 -22 
Q 2503 -91 2169 -91 
Q 1331 -91 842 396 
Q 353 884 353 1716 
Q 353 2575 817 3079 
Q 1281 3584 2069 3584 
Q 2775 3584 3186 3129 
Q 3597 2675 3597 1894 
z
M 3022 2063 
Q 3016 2534 2758 2815 
Q 2500 3097 2075 3097 
Q 1594 3097 1305 2825 
Q 1016 2553 972 2059 
L 3022 2063 
z
" transform="scale(0.015625)"/>
       <path id="DejaVuSans-73" d="M 2834 3397 
L 2834 2853 
Q 2591 2978 2328 3040 
Q 2066 3103 1784 3103 
Q 1356 3103 1142 2972 
Q 928 2841 928 2578 
Q 928 2378 1081 2264 
Q 1234 2150 1697 2047 
L 1894 2003 
Q 2506 1872 2764 1633 
Q 3022 1394 3022 966 
Q 3022 478 2636 193 
Q 2250 -91 1575 -91 
Q 1294 -91 989 -36 
Q 684 19 347 128 
L 347 722 
Q 666 556 975 473 
Q 1284 391 1588 391 
Q 1994 391 2212 530 
Q 2431 669 2431 922 
Q 2431 1156 2273 1281 
Q 2116 1406 1581 1522 
L 1381 1569 
Q 847 1681 609 1914 
Q 372 2147 372 2553 
Q 372 3047 722 3315 
Q 1072 3584 1716 3584 
Q 2034 3584 2315 3537 
Q 2597 3491 2834 3397 
z
" transform="scale(0.015625)"/>
      </defs>
      <use xlink:href="#DejaVuSans-6e"/>
      <use xlink:href="#DejaVuSans-54" transform="translate(63.378906 0)"/>
      <use xlink:href="#DejaVuSans-6f" transform="translate(107.462891 0)"/>
      <use xlink:href="#DejaVuSans-6b" transform="translate(168.644531 0)"/>
      <use xlink:href="#DejaVuSans-65" transform="translate(222.929688 0)"/>
      <use xlink:href="#DejaVuSans-6e" transform="translate(284.453125 0)"/>
      <use xlink:href="#DejaVuSans-73" transform="translate(347.832031 0)"/>
     </g>
    </g>
    <g id="text_8">
     <!-- 1e8 -->
     <g transform="translate(758.721875 283.596563) scale(0.1 -0.1)">
      <use xlink:href="#DejaVuSans-31"/>
      <use xlink:href="#DejaVuSans-65" transform="translate(63.623047 0)"/>
      <use xlink:href="#DejaVuSans-38" transform="translate(125.146484 0)"/>
     </g>
    </g>
   </g>
   <g id="matplotlib.axis_2">
    <g id="ytick_1">
     <g id="line2d_7">
      <defs>
       <path id="m06fdbb3cea" d="M 0 0 
L -3.5 0 
" style="stroke: #000000; stroke-width: 0.8"/>
      </defs>
      <g>
       <use xlink:href="#m06fdbb3cea" x="108" y="256.32" style="stroke: #000000; stroke-width: 0.8"/>
      </g>
     </g>
     <g id="text_9">
      <!-- 9.500 -->
      <g transform="translate(72.371875 260.119219) scale(0.1 -0.1)">
       <defs>
        <path id="DejaVuSans-39" d="M 703 97 
L 703 672 
Q 941 559 1184 500 
Q 1428 441 1663 441 
Q 2288 441 2617 861 
Q 2947 1281 2994 2138 
Q 2813 1869 2534 1725 
Q 2256 1581 1919 1581 
Q 1219 1581 811 2004 
Q 403 2428 403 3163 
Q 403 3881 828 4315 
Q 1253 4750 1959 4750 
Q 2769 4750 3195 4129 
Q 3622 3509 3622 2328 
Q 3622 1225 3098 567 
Q 2575 -91 1691 -91 
Q 1453 -91 1209 -44 
Q 966 3 703 97 
z
M 1959 2075 
Q 2384 2075 2632 2365 
Q 2881 2656 2881 3163 
Q 2881 3666 2632 3958 
Q 2384 4250 1959 4250 
Q 1534 4250 1286 3958 
Q 1038 3666 1038 3163 
Q 1038 2656 1286 2365 
Q 1534 2075 1959 2075 
z
" transform="scale(0.015625)"/>
        <path id="DejaVuSans-35" d="M 691 4666 
L 3169 4666 
L 3169 4134 
L 1269 4134 
L 1269 2991 
Q 1406 3038 1543 3061 
Q 1681 3084 1819 3084 
Q 2600 3084 3056 2656 
Q 3513 2228 3513 1497 
Q 3513 744 3044 326 
Q 2575 -91 1722 -91 
Q 1428 -91 1123 -41 
Q 819 9 494 109 
L 494 744 
Q 775 591 1075 516 
Q 1375 441 1709 441 
Q 2250 441 2565 725 
Q 2881 1009 2881 1497 
Q 2881 1984 2565 2268 
Q 2250 2553 1709 2553 
Q 1456 2553 1204 2497 
Q 953 2441 691 2322 
L 691 4666 
z
" transform="scale(0.015625)"/>
       </defs>
       <use xlink:href="#DejaVuSans-39"/>
       <use xlink:href="#DejaVuSans-2e" transform="translate(63.623047 0)"/>
       <use xlink:href="#DejaVuSans-35" transform="translate(95.410156 0)"/>
       <use xlink:href="#DejaVuSans-30" transform="translate(159.033203 0)"/>
       <use xlink:href="#DejaVuSans-30" transform="translate(222.65625 0)"/>
      </g>
     </g>
    </g>
    <g id="ytick_2">
     <g id="line2d_8">
      <g>
       <use xlink:href="#m06fdbb3cea" x="108" y="228.6" style="stroke: #000000; stroke-width: 0.8"/>
      </g>
     </g>
     <g id="text_10">
      <!-- 9.525 -->
      <g transform="translate(72.371875 232.399219) scale(0.1 -0.1)">
       <use xlink:href="#DejaVuSans-39"/>
       <use xlink:href="#DejaVuSans-2e" transform="translate(63.623047 0)"/>
       <use xlink:href="#DejaVuSans-35" transform="translate(95.410156 0)"/>
       <use xlink:href="#DejaVuSans-32" transform="translate(159.033203 0)"/>
       <use xlink:href="#DejaVuSans-35" transform="translate(222.65625 0)"/>
      </g>
     </g>
    </g>
    <g id="ytick_3">
     <g id="line2d_9">
      <g>
       <use xlink:href="#m06fdbb3cea" x="108" y="200.88" style="stroke: #000000; stroke-width: 0.8"/>
      </g>
     </g>
     <g id="text_11">
      <!-- 9.550 -->
      <g transform="translate(72.371875 204.679219) scale(0.1 -0.1)">
       <use xlink:href="#DejaVuSans-39"/>
       <use xlink:href="#DejaVuSans-2e" transform="translate(63.623047 0)"/>
       <use xlink:href="#DejaVuSans-35" transform="translate(95.410156 0)"/>
       <use xlink:href="#DejaVuSans-35" transform="translate(159.033203 0)"/>
       <use xlink:href="#DejaVuSans-30" transform="translate(222.65625 0)"/>
      </g>
     </g>
    </g>
    <g id="ytick_4">
     <g id="line2d_10">
      <g>
       <use xlink:href="#m06fdbb3cea" x="108" y="173.16" style="stroke: #000000; stroke-width: 0.8"/>
      </g>
     </g>
     <g id="text_12">
      <!-- 9.575 -->
      <g transform="translate(72.371875 176.959219) scale(0.1 -0.1)">
       <defs>
        <path id="DejaVuSans-37" d="M 525 4666 
L 3525 4666 
L 3525 4397 
L 1831 0 
L 1172 0 
L 2766 4134 
L 525 4134 
L 525 4666 
z
" transform="scale(0.015625)"/>
       </defs>
       <use xlink:href="#DejaVuSans-39"/>
       <use xlink:href="#DejaVuSans-2e" transform="translate(63.623047 0)"/>
       <use xlink:href="#DejaVuSans-35" transform="translate(95.410156 0)"/>
       <use xlink:href="#DejaVuSans-37" transform="translate(159.033203 0)"/>
       <use xlink:href="#DejaVuSans-35" transform="translate(222.65625 0)"/>
      </g>
     </g>
    </g>
    <g id="ytick_5">
     <g id="line2d_11">
      <g>
       <use xlink:href="#m06fdbb3cea" x="108" y="145.44" style="stroke: #000000; stroke-width: 0.8"/>
      </g>
     </g>
     <g id="text_13">
      <!-- 9.600 -->
      <g transform="translate(72.371875 149.239219) scale(0.1 -0.1)">
       <use xlink:href="#DejaVuSans-39"/>
       <use xlink:href="#DejaVuSans-2e" transform="translate(63.623047 0)"/>
       <use xlink:href="#DejaVuSans-36" transform="translate(95.410156 0)"/>
       <use xlink:href="#DejaVuSans-30" transform="translate(159.033203 0)"/>
       <use xlink:href="#DejaVuSans-30" transform="translate(222.65625 0)"/>
      </g>
     </g>
    </g>
    <g id="ytick_6">
     <g id="line2d_12">
      <g>
       <use xlink:href="#m06fdbb3cea" x="108" y="117.72" style="stroke: #000000; stroke-width: 0.8"/>
      </g>
     </g>
     <g id="text_14">
      <!-- 9.625 -->
      <g transform="translate(72.371875 121.519219) scale(0.1 -0.1)">
       <use xlink:href="#DejaVuSans-39"/>
       <use xlink:href="#DejaVuSans-2e" transform="translate(63.623047 0)"/>
       <use xlink:href="#DejaVuSans-36" transform="translate(95.410156 0)"/>
       <use xlink:href="#DejaVuSans-32" transform="translate(159.033203 0)"/>
       <use xlink:href="#DejaVuSans-35" transform="translate(222.65625 0)"/>
      </g>
     </g>
    </g>
    <g id="ytick_7">
     <g id="line2d_13">
      <g>
       <use xlink:href="#m06fdbb3cea" x="108" y="90" style="stroke: #000000; stroke-width: 0.8"/>
      </g>
     </g>
     <g id="text_15">
      <!-- 9.650 -->
      <g transform="translate(72.371875 93.799219) scale(0.1 -0.1)">
       <use xlink:href="#DejaVuSans-39"/>
       <use xlink:href="#DejaVuSans-2e" transform="translate(63.623047 0)"/>
       <use xlink:href="#DejaVuSans-36" transform="translate(95.410156 0)"/>
       <use xlink:href="#DejaVuSans-35" transform="translate(159.033203 0)"/>
       <use xlink:href="#DejaVuSans-30" transform="translate(222.65625 0)"/>
      </g>
     </g>
    </g>
    <g id="ytick_8">
     <g id="line2d_14">
      <g>
       <use xlink:href="#m06fdbb3cea" x="108" y="62.28" style="stroke: #000000; stroke-width: 0.8"/>
      </g>
     </g>
     <g id="text_16">
      <!-- 9.675 -->
      <g transform="translate(72.371875 66.079219) scale(0.1 -0.1)">
       <use xlink:href="#DejaVuSans-39"/>
       <use xlink:href="#DejaVuSans-2e" transform="translate(63.623047 0)"/>
       <use xlink:href="#DejaVuSans-36" transform="translate(95.410156 0)"/>
       <use xlink:href="#DejaVuSans-37" transform="translate(159.033203 0)"/>
       <use xlink:href="#DejaVuSans-35" transform="translate(222.65625 0)"/>
      </g>
     </g>
    </g>
    <g id="ytick_9">
     <g id="line2d_15">
      <g>
       <use xlink:href="#m06fdbb3cea" x="108" y="34.56" style="stroke: #000000; stroke-width: 0.8"/>
      </g>
     </g>
     <g id="text_17">
      <!-- 9.700 -->
      <g transform="translate(72.371875 38.359219) scale(0.1 -0.1)">
       <use xlink:href="#DejaVuSans-39"/>
       <use xlink:href="#DejaVuSans-2e" transform="translate(63.623047 0)"/>
       <use xlink:href="#DejaVuSans-37" transform="translate(95.410156 0)"/>
       <use xlink:href="#DejaVuSans-30" transform="translate(159.033203 0)"/>
       <use xlink:href="#DejaVuSans-30" transform="translate(222.65625 0)"/>
      </g>
     </g>
    </g>
    <g id="text_18">
     <!-- Entropy -->
     <g transform="translate(66.292187 164.864219) rotate(-90) scale(0.1 -0.1)">
      <defs>
       <path id="DejaVuSans-45" d="M 628 4666 
L 3578 4666 
L 3578 4134 
L 1259 4134 
L 1259 2753 
L 3481 2753 
L 3481 2222 
L 1259 2222 
L 1259 531 
L 3634 531 
L 3634 0 
L 628 0 
L 628 4666 
z
" transform="scale(0.015625)"/>
       <path id="DejaVuSans-74" d="M 1172 4494 
L 1172 3500 
L 2356 3500 
L 2356 3053 
L 1172 3053 
L 1172 1153 
Q 1172 725 1289 603 
Q 1406 481 1766 481 
L 2356 481 
L 2356 0 
L 1766 0 
Q 1100 0 847 248 
Q 594 497 594 1153 
L 594 3053 
L 172 3053 
L 172 3500 
L 594 3500 
L 594 4494 
L 1172 4494 
z
" transform="scale(0.015625)"/>
       <path id="DejaVuSans-72" d="M 2631 2963 
Q 2534 3019 2420 3045 
Q 2306 3072 2169 3072 
Q 1681 3072 1420 2755 
Q 1159 2438 1159 1844 
L 1159 0 
L 581 0 
L 581 3500 
L 1159 3500 
L 1159 2956 
Q 1341 3275 1631 3429 
Q 1922 3584 2338 3584 
Q 2397 3584 2469 3576 
Q 2541 3569 2628 3553 
L 2631 2963 
z
" transform="scale(0.015625)"/>
       <path id="DejaVuSans-70" d="M 1159 525 
L 1159 -1331 
L 581 -1331 
L 581 3500 
L 1159 3500 
L 1159 2969 
Q 1341 3281 1617 3432 
Q 1894 3584 2278 3584 
Q 2916 3584 3314 3078 
Q 3713 2572 3713 1747 
Q 3713 922 3314 415 
Q 2916 -91 2278 -91 
Q 1894 -91 1617 61 
Q 1341 213 1159 525 
z
M 3116 1747 
Q 3116 2381 2855 2742 
Q 2594 3103 2138 3103 
Q 1681 3103 1420 2742 
Q 1159 2381 1159 1747 
Q 1159 1113 1420 752 
Q 1681 391 2138 391 
Q 2594 391 2855 752 
Q 3116 1113 3116 1747 
z
" transform="scale(0.015625)"/>
       <path id="DejaVuSans-79" d="M 2059 -325 
Q 1816 -950 1584 -1140 
Q 1353 -1331 966 -1331 
L 506 -1331 
L 506 -850 
L 844 -850 
Q 1081 -850 1212 -737 
Q 1344 -625 1503 -206 
L 1606 56 
L 191 3500 
L 800 3500 
L 1894 763 
L 2988 3500 
L 3597 3500 
L 2059 -325 
z
" transform="scale(0.015625)"/>
      </defs>
      <use xlink:href="#DejaVuSans-45"/>
      <use xlink:href="#DejaVuSans-6e" transform="translate(63.183594 0)"/>
      <use xlink:href="#DejaVuSans-74" transform="translate(126.5625 0)"/>
      <use xlink:href="#DejaVuSans-72" transform="translate(165.771484 0)"/>
      <use xlink:href="#DejaVuSans-6f" transform="translate(204.634766 0)"/>
      <use xlink:href="#DejaVuSans-70" transform="translate(265.816406 0)"/>
      <use xlink:href="#DejaVuSans-79" transform="translate(329.292969 0)"/>
     </g>
    </g>
   </g>
   <g id="line2d_16">
    <path d="M 139.341511 289 
L 139.687602 253.680869 
L 140.313221 272.177207 
L 140.93884 242.55311 
L 141.564459 203.161028 
L 142.190078 178.377426 
L 142.815697 173.247041 
L 143.441316 164.100783 
L 144.066935 165.99016 
L 144.692553 154.449698 
L 145.318172 154.707594 
L 145.943791 164.198823 
L 146.56941 162.735962 
L 147.820648 154.579274 
L 148.446267 160.107349 
L 149.071886 156.888533 
L 149.697505 149.61473 
L 150.323124 147.970882 
L 151.574362 139.251187 
L 152.199981 141.959997 
L 152.8256 139.53226 
L 153.451219 132.598575 
L 154.076838 136.088955 
L 154.702457 131.46063 
L 155.328076 129.316754 
L 155.953695 131.091136 
L 156.579314 131.253265 
L 157.204933 129.483356 
L 157.830552 125.831077 
L 159.707409 120.093779 
L 160.333028 124.840992 
L 160.958647 124.40705 
L 161.584266 121.993425 
L 162.835504 118.368465 
L 163.461123 120.203917 
L 164.086742 121.627705 
L 164.712361 119.247711 
L 165.33798 120.089281 
L 165.963599 119.928825 
L 166.589218 121.449089 
L 167.214837 123.687861 
L 167.840456 123.381189 
L 168.466075 124.289064 
L 169.091694 127.24971 
L 169.717313 127.186367 
L 170.342932 121.23873 
L 170.968551 120.623219 
L 171.59417 118.799563 
L 172.219789 118.886085 
L 172.845408 120.824298 
L 173.471027 121.803886 
L 174.722265 119.032415 
L 175.347884 119.721462 
L 175.973503 121.209259 
L 176.599122 121.776918 
L 177.224741 119.140676 
L 177.85036 118.176788 
L 178.475979 117.585419 
L 179.101598 117.182264 
L 179.727217 117.321685 
L 180.352836 116.956185 
L 180.978455 116.329284 
L 181.604074 114.831775 
L 182.855312 116.176506 
L 183.480931 113.689436 
L 184.10655 114.129351 
L 184.732169 114.046055 
L 185.357788 114.625506 
L 185.983407 113.558505 
L 186.609026 114.203732 
L 187.234644 113.71401 
L 187.860263 112.8484 
L 188.485882 104.928122 
L 189.111501 104.631879 
L 190.362739 105.839244 
L 190.988358 105.861773 
L 191.613977 106.043213 
L 192.239596 105.287304 
L 192.865215 106.033227 
L 193.490834 104.856262 
L 194.742072 104.545609 
L 195.367691 106.260727 
L 195.99331 106.694334 
L 196.618929 105.677184 
L 197.244548 105.753544 
L 197.870167 105.338514 
L 199.121405 105.362412 
L 200.372643 103.576174 
L 201.623881 107.081008 
L 202.2495 107.344913 
L 202.875119 106.790668 
L 203.500738 106.865239 
L 204.126357 106.293004 
L 204.751976 106.87358 
L 205.377595 106.535731 
L 206.628833 106.758724 
L 207.254452 107.724424 
L 209.131309 107.72186 
L 210.382547 105.847842 
L 211.008166 105.015979 
L 211.633785 104.774371 
L 212.259404 103.822851 
L 212.885023 103.788298 
L 213.510642 103.974839 
L 214.136261 106.735394 
L 214.76188 107.030555 
L 215.387499 108.435981 
L 216.013118 108.346431 
L 216.638737 108.374288 
L 217.264356 107.372506 
L 217.889975 107.159334 
L 218.515594 107.223169 
L 219.141213 107.449805 
L 220.392451 107.10594 
L 221.01807 106.745906 
L 221.643689 107.368188 
L 222.269308 107.730106 
L 222.894927 108.513231 
L 223.520546 108.696113 
L 224.771784 109.935509 
L 225.397403 110.648774 
L 226.023022 110.870815 
L 226.648641 110.123428 
L 227.27426 110.302197 
L 227.899879 110.099466 
L 228.525498 110.126867 
L 229.151117 109.417655 
L 229.776735 109.435483 
L 230.402354 109.986859 
L 231.027973 110.73487 
L 231.653592 110.615417 
L 232.279211 110.811832 
L 232.90483 110.125624 
L 233.530449 110.013528 
L 234.156068 110.27231 
L 234.781687 109.563651 
L 236.032925 108.373859 
L 236.658544 108.912632 
L 237.284163 109.760319 
L 237.909782 109.605042 
L 238.535401 109.58635 
L 239.16102 109.954831 
L 239.786639 109.718926 
L 241.037877 109.82717 
L 241.663496 110.447547 
L 242.289115 110.21691 
L 242.914734 110.360822 
L 243.540353 110.849649 
L 244.791591 111.345251 
L 245.41721 110.648539 
L 246.042829 110.196253 
L 246.668448 110.098506 
L 247.919686 110.555116 
L 248.545305 109.690312 
L 249.170924 109.602689 
L 249.796543 108.829701 
L 250.422162 108.683609 
L 251.047781 108.70876 
L 252.299019 109.362082 
L 252.924638 109.489689 
L 254.175876 109.511564 
L 255.427114 108.183545 
L 256.052733 108.358234 
L 256.678352 107.350683 
L 257.92959 108.074035 
L 258.555209 107.468337 
L 259.180828 107.75457 
L 259.806447 108.503951 
L 260.432066 108.865269 
L 262.934542 109.16094 
L 263.560161 106.610188 
L 264.811399 107.329901 
L 265.437018 108.194136 
L 266.062637 108.095026 
L 267.313875 107.527865 
L 267.939494 107.628634 
L 268.565113 107.110203 
L 269.190732 106.973136 
L 270.44197 106.538828 
L 271.067589 106.991662 
L 271.693208 107.200778 
L 272.318826 107.043608 
L 273.570064 106.24581 
L 274.195683 106.439815 
L 274.821302 106.285518 
L 275.446921 106.462964 
L 276.07254 106.501929 
L 276.698159 106.399161 
L 277.323778 105.921768 
L 277.949397 106.271216 
L 278.575016 105.973219 
L 279.200635 106.052429 
L 281.077492 105.81938 
L 281.703111 105.945076 
L 282.32873 105.717726 
L 282.954349 105.158074 
L 283.579968 104.903745 
L 284.205587 104.826145 
L 284.831206 104.919444 
L 285.456825 105.821365 
L 286.082444 105.999111 
L 286.708063 106.821778 
L 287.959301 107.161874 
L 288.58492 106.410829 
L 289.210539 106.620309 
L 289.836158 106.011994 
L 290.461777 106.524431 
L 291.087396 106.255573 
L 291.713015 106.193561 
L 292.338634 106.245608 
L 292.964253 106.73228 
L 293.589872 107.49432 
L 294.215491 107.750368 
L 294.84111 107.336455 
L 295.466729 107.388879 
L 296.092348 107.315515 
L 296.717967 107.414964 
L 297.343586 107.280557 
L 297.969205 107.663385 
L 298.594824 107.431686 
L 299.220443 107.32473 
L 299.846062 107.615454 
L 300.471681 107.299368 
L 301.0973 107.638893 
L 302.348538 107.334636 
L 302.974157 106.890335 
L 303.599776 106.844805 
L 304.225395 106.572636 
L 304.851014 105.81467 
L 305.476633 106.075188 
L 306.102252 106.147447 
L 306.727871 106.997481 
L 307.35349 107.236006 
L 307.979109 106.984126 
L 308.604728 107.123337 
L 309.855966 107.861157 
L 311.732823 107.512377 
L 312.984061 107.795563 
L 313.60968 107.634659 
L 315.486536 108.246051 
L 316.112155 108.291102 
L 316.737774 108.674633 
L 317.363393 108.857064 
L 317.989012 109.435696 
L 318.614631 108.970628 
L 319.865869 109.471514 
L 320.491488 109.81145 
L 321.117107 109.851889 
L 321.742726 110.410634 
L 322.368345 109.987814 
L 322.993964 110.141966 
L 323.619583 109.831062 
L 324.245202 109.720371 
L 326.122059 111.086131 
L 327.998916 110.94303 
L 328.624535 110.713404 
L 329.875773 110.500181 
L 331.75263 111.20878 
L 332.378249 112.077744 
L 333.003868 112.67428 
L 333.629487 112.744882 
L 334.880725 111.898254 
L 335.506344 112.452992 
L 336.757582 111.91774 
L 337.383201 112.437849 
L 339.260058 112.770448 
L 339.885677 112.26437 
L 341.136915 111.61138 
L 341.762534 111.395298 
L 343.013772 111.871011 
L 343.639391 111.501869 
L 344.890629 110.296721 
L 345.516248 110.419163 
L 346.767486 110.365947 
L 347.393105 110.52162 
L 348.018724 110.433893 
L 348.644343 110.165578 
L 349.269962 110.331515 
L 349.895581 109.862056 
L 350.5212 110.334918 
L 351.146819 110.043634 
L 351.772438 109.930011 
L 352.398057 109.362653 
L 353.023676 110.010212 
L 353.649295 110.242295 
L 354.274914 110.218053 
L 354.900533 109.807135 
L 356.151771 109.381621 
L 356.77739 109.314115 
L 357.403009 109.042762 
L 358.028627 109.417017 
L 358.654246 109.320346 
L 359.905484 109.380738 
L 360.531103 109.289784 
L 361.156722 109.439222 
L 362.40796 109.067801 
L 363.033579 109.251194 
L 363.659198 109.020625 
L 364.284817 109.097014 
L 365.536055 110.271801 
L 367.412912 111.626254 
L 368.038531 111.75633 
L 368.66415 112.077746 
L 369.289769 112.171197 
L 369.915388 111.726211 
L 371.166626 111.761544 
L 372.417864 111.995401 
L 373.669102 112.427116 
L 374.294721 112.544531 
L 374.92034 112.503706 
L 376.171578 113.036606 
L 377.422816 112.918489 
L 378.048435 112.981603 
L 379.299673 112.851014 
L 379.925292 113.165297 
L 380.550911 112.794436 
L 382.427768 112.99965 
L 383.053387 112.373511 
L 383.679006 111.922955 
L 384.930244 111.876382 
L 386.181482 112.270509 
L 388.058339 115.460116 
L 388.683958 115.966923 
L 389.309577 115.996315 
L 389.935196 116.41061 
L 391.186434 116.21754 
L 391.812053 116.323483 
L 392.437672 116.084991 
L 393.063291 116.024554 
L 393.68891 116.166595 
L 394.314529 116.149105 
L 394.940148 116.420661 
L 396.191386 116.440493 
L 396.817005 116.262171 
L 397.442624 116.263565 
L 398.068243 115.929595 
L 398.693862 116.069152 
L 399.319481 116.013826 
L 399.9451 116.338004 
L 400.570718 116.165975 
L 401.196337 116.372809 
L 401.821956 116.396913 
L 402.447575 116.607401 
L 403.073194 116.676987 
L 403.698813 116.222603 
L 404.324432 116.116102 
L 404.950051 116.364596 
L 405.57567 116.359131 
L 406.201289 116.161154 
L 406.826908 116.566648 
L 408.703765 116.768377 
L 409.329384 116.393518 
L 409.955003 116.276599 
L 410.580622 115.680036 
L 411.206241 115.539935 
L 412.457479 115.620217 
L 413.083098 115.704638 
L 413.708717 114.743732 
L 414.334336 114.89584 
L 414.959955 115.195599 
L 415.585574 115.158254 
L 416.211193 115.392865 
L 416.836812 115.386249 
L 417.462431 115.628064 
L 418.08805 115.423152 
L 418.713669 115.468072 
L 419.964907 115.219488 
L 420.590526 115.138325 
L 421.216145 114.829373 
L 421.841764 114.895416 
L 422.467383 114.51628 
L 423.093002 114.587152 
L 424.34424 114.31746 
L 424.969859 114.379985 
L 425.595478 114.609481 
L 426.221097 115.256801 
L 427.472335 115.406606 
L 428.097954 115.069726 
L 428.723573 115.401878 
L 429.349192 115.489881 
L 429.974811 115.139771 
L 430.60043 115.384115 
L 431.851668 115.401077 
L 433.102906 115.787803 
L 433.728525 115.702272 
L 434.354144 115.427906 
L 434.979763 115.417691 
L 435.605382 115.132716 
L 436.85662 115.030094 
L 438.107858 115.658612 
L 439.359096 115.65136 
L 441.861572 116.042921 
L 443.112809 115.744814 
L 443.738428 115.795444 
L 444.364047 116.787088 
L 444.989666 117.448379 
L 446.240904 117.846836 
L 446.866523 117.358568 
L 448.117761 116.653596 
L 448.74338 116.512895 
L 449.368999 116.233175 
L 451.245856 116.314556 
L 451.871475 116.153531 
L 453.122713 116.425468 
L 454.99957 116.354954 
L 456.876427 116.504508 
L 458.753284 116.534318 
L 459.378903 116.450396 
L 460.004522 116.56709 
L 461.881379 116.371065 
L 463.132617 115.992507 
L 463.758236 115.681649 
L 464.383855 115.827389 
L 465.009474 115.707937 
L 465.635093 115.828534 
L 466.260712 116.150529 
L 466.886331 116.231972 
L 467.51195 117.192214 
L 468.137569 117.415979 
L 469.388807 117.590131 
L 471.265664 118.079792 
L 471.891283 118.00126 
L 472.516902 118.226696 
L 473.142521 118.756372 
L 473.76814 118.663122 
L 474.393759 119.118219 
L 475.019378 119.285829 
L 475.644997 119.183481 
L 476.896235 119.396856 
L 477.521854 119.331394 
L 478.147473 119.558942 
L 478.773092 119.65269 
L 479.398711 119.620556 
L 482.526806 120.546673 
L 483.778044 120.446575 
L 485.6549 121.267121 
L 486.280519 121.795083 
L 486.906138 121.929837 
L 488.157376 121.863912 
L 488.782995 122.18276 
L 490.034233 121.556858 
L 491.285471 121.495608 
L 491.91109 121.786955 
L 493.162328 121.819732 
L 493.787947 121.659746 
L 494.413566 121.614707 
L 495.039185 121.745562 
L 495.664804 121.659655 
L 496.916042 121.787187 
L 498.16728 121.683707 
L 498.792899 121.708961 
L 499.418518 121.457217 
L 500.044137 121.651169 
L 500.669756 122.119849 
L 501.295375 122.381098 
L 502.546613 122.444907 
L 503.172232 121.139689 
L 503.797851 121.478317 
L 504.42347 121.546865 
L 505.674708 121.429406 
L 508.802803 121.871825 
L 509.428422 122.064687 
L 511.930898 122.010514 
L 512.556517 122.688103 
L 513.182136 122.908661 
L 513.807755 123.000931 
L 514.433374 123.341381 
L 515.058993 123.360902 
L 515.684612 123.226084 
L 516.310231 123.326758 
L 516.93585 123.587449 
L 517.561469 123.424782 
L 518.187088 123.534412 
L 518.812707 123.433917 
L 519.438326 123.463615 
L 520.063945 123.911005 
L 522.566421 124.794584 
L 523.817659 124.760433 
L 524.443278 124.913054 
L 525.068897 125.241214 
L 526.945754 125.232699 
L 528.196991 125.287779 
L 528.82261 125.349454 
L 530.699467 125.118137 
L 531.325086 125.069536 
L 531.950705 125.248558 
L 532.576324 124.969844 
L 533.201943 124.892003 
L 533.827562 124.618394 
L 534.453181 124.47093 
L 535.0788 124.498086 
L 535.704419 124.300912 
L 536.330038 124.395794 
L 537.581276 125.026796 
L 538.832514 124.829301 
L 541.33499 125.727381 
L 542.586228 125.668079 
L 544.463085 126.070211 
L 545.088704 125.853327 
L 546.339942 125.787015 
L 546.965561 125.770518 
L 548.216799 126.615279 
L 550.719275 127.674904 
L 551.970513 127.52514 
L 553.84737 127.363938 
L 555.724227 127.676175 
L 556.975465 127.870137 
L 557.601084 127.774377 
L 558.852322 127.913541 
L 559.477941 128.150553 
L 561.354798 127.916815 
L 561.980417 128.305992 
L 562.606036 128.192204 
L 563.857274 128.182929 
L 566.35975 128.257326 
L 566.985369 128.357359 
L 568.236607 128.159185 
L 569.487845 128.208584 
L 570.113464 128.028776 
L 570.739083 128.044787 
L 571.99032 127.818199 
L 572.615939 127.826678 
L 573.241558 128.004237 
L 574.492796 128.037218 
L 575.118415 127.748386 
L 576.995272 128.339658 
L 577.620891 128.249873 
L 578.872129 128.323028 
L 579.497748 128.274823 
L 580.748986 128.844544 
L 582.625843 128.627294 
L 583.251462 128.77325 
L 583.877081 128.599074 
L 585.753938 128.537254 
L 588.882033 128.337663 
L 589.507652 128.778558 
L 590.75889 128.924008 
L 592.010128 128.960661 
L 592.635747 129.200217 
L 593.261366 129.186374 
L 594.512604 128.779644 
L 595.763842 128.887768 
L 596.389461 128.792122 
L 597.640699 129.037287 
L 599.517556 128.984898 
L 601.394413 128.99122 
L 602.020032 129.257197 
L 603.27127 129.260304 
L 603.896889 129.087835 
L 604.522508 129.035229 
L 605.773746 129.285001 
L 606.399365 129.218916 
L 607.024984 129.009907 
L 609.52746 129.152543 
L 610.778698 129.333707 
L 613.906792 129.277067 
L 615.15803 129.517789 
L 618.911744 129.475246 
L 620.162982 129.235903 
L 622.665458 129.247358 
L 623.291077 129.323095 
L 623.916696 129.229941 
L 625.793553 129.762626 
L 626.419172 129.781916 
L 627.044791 129.930164 
L 627.67041 129.908684 
L 628.296029 130.195732 
L 628.921648 130.334148 
L 629.547267 130.239169 
L 630.172886 130.318105 
L 631.424124 130.254669 
L 632.049743 130.29613 
L 632.675362 130.092712 
L 633.300981 130.207865 
L 634.552219 130.144269 
L 636.429076 130.722593 
L 637.054695 130.537087 
L 637.680314 130.721816 
L 638.305933 130.698457 
L 638.931552 130.523682 
L 639.557171 130.52025 
L 640.18279 130.673477 
L 640.808409 130.674985 
L 641.434028 130.495892 
L 643.310885 130.49486 
L 643.936504 130.598958 
L 645.187742 130.379079 
L 647.064599 130.442039 
L 648.941456 130.343154 
L 652.69517 130.270257 
L 654.572027 130.335769 
L 656.448883 130.483652 
L 657.700121 130.651765 
L 658.951359 130.582636 
L 659.576978 129.930874 
L 660.202597 129.835655 
L 661.453835 130.150084 
L 662.079454 130.101652 
L 664.58193 131.040868 
L 665.207549 131.060633 
L 667.084406 131.540041 
L 667.710025 131.540434 
L 670.212501 132.131459 
L 670.83812 132.155304 
L 672.089358 132.642897 
L 674.591834 132.608885 
L 675.843072 132.566754 
L 677.719929 132.465589 
L 678.971167 132.619852 
L 680.848024 132.37499 
L 681.473643 132.239445 
L 682.724881 132.528223 
L 683.976119 132.600972 
L 684.601738 132.682803 
L 685.227357 132.900043 
L 685.852976 132.937024 
L 692.109166 132.047777 
L 692.734785 132.081962 
L 693.360404 132.29301 
L 694.611642 132.241306 
L 695.237261 132.356897 
L 696.488499 132.217802 
L 697.739737 132.069234 
L 700.867831 131.979505 
L 701.49345 132.140175 
L 702.744688 132.04424 
L 704.621545 132.425386 
L 705.872783 132.4889 
L 707.124021 132.911704 
L 707.74964 133.12506 
L 709.626497 133.184383 
L 710.252116 133.134013 
L 710.877735 133.301647 
L 711.503354 133.589211 
L 717.133925 133.534625 
L 718.385163 133.588476 
L 720.26202 133.456106 
L 722.764496 133.668968 
L 723.390115 133.885687 
L 724.015734 133.945265 
L 725.892591 133.805379 
L 728.395067 133.705013 
L 729.020686 133.598784 
L 730.897543 133.757907 
L 731.523162 133.840678 
L 733.400019 133.811963 
L 734.025638 133.992534 
L 735.902495 133.928994 
L 739.656209 133.632932 
L 741.533065 133.812342 
L 743.409922 133.635088 
L 744.035541 133.802959 
L 744.66116 134.213494 
L 745.912398 134.497691 
L 747.163636 134.57254 
L 747.163636 134.57254 
" clip-path="url(#p491feaa942)" style="fill: none; stroke: #ff0000; stroke-width: 1.5; stroke-linecap: square"/>
   </g>
   <g id="line2d_17">
    <path d="M 138.436364 255.716008 
L 139.061983 206.845897 
L 139.687602 187.217134 
L 140.313221 175.094555 
L 140.93884 168.383704 
L 141.564459 163.71122 
L 142.815697 157.292469 
L 144.066935 153.291876 
L 145.318172 150.610908 
L 146.56941 148.538013 
L 147.195029 147.963205 
L 148.446267 146.407148 
L 149.697505 145.423009 
L 150.323124 145.037017 
L 150.948743 144.51573 
L 153.451219 143.211122 
L 155.953695 142.50199 
L 157.204933 142.02234 
L 158.456171 141.256473 
L 159.707409 140.812163 
L 161.584266 140.432578 
L 162.209885 140.356945 
L 163.461123 139.977569 
L 165.963599 139.483261 
L 168.466075 139.041361 
L 169.091694 139.095932 
L 169.717313 138.949356 
L 171.59417 138.787224 
L 172.845408 138.595561 
L 176.599122 138.295286 
L 177.85036 138.066121 
L 179.727217 137.895218 
L 183.480931 137.405276 
L 189.73712 137.094631 
L 191.613977 137.062418 
L 207.254452 136.413165 
L 217.264356 136.182105 
L 221.643689 136.000902 
L 234.156068 135.700671 
L 252.299019 135.414793 
L 263.560161 135.276947 
L 267.313875 135.223618 
L 365.536055 134.831537 
L 372.417864 134.838192 
L 381.802149 134.766597 
L 464.383855 134.698608 
L 475.644997 134.686844 
L 505.049089 134.685838 
L 554.472989 134.677116 
L 575.744034 134.64643 
L 613.906792 134.570078 
L 627.67041 134.578293 
L 732.148781 134.565115 
L 747.163636 134.57254 
L 747.163636 134.57254 
" clip-path="url(#p491feaa942)" style="fill: none; stroke: #0000ff; stroke-width: 1.5; stroke-linecap: square"/>
   </g>
   <g id="patch_3">
    <path d="M 108 256.32 
L 108 34.56 
" style="fill: none; stroke: #000000; stroke-width: 0.8; stroke-linejoin: miter; stroke-linecap: square"/>
   </g>
   <g id="patch_4">
    <path d="M 777.6 256.32 
L 777.6 34.56 
" style="fill: none; stroke: #000000; stroke-width: 0.8; stroke-linejoin: miter; stroke-linecap: square"/>
   </g>
   <g id="patch_5">
    <path d="M 108 256.32 
L 777.6 256.32 
" style="fill: none; stroke: #000000; stroke-width: 0.8; stroke-linejoin: miter; stroke-linecap: square"/>
   </g>
   <g id="patch_6">
    <path d="M 108 34.56 
L 777.6 34.56 
" style="fill: none; stroke: #000000; stroke-width: 0.8; stroke-linejoin: miter; stroke-linecap: square"/>
   </g>
   <g id="text_19">
    <!-- Entropy of Chinese Tokens -->
    <g transform="translate(363.823125 28.56) scale(0.12 -0.12)">
     <defs>
      <path id="DejaVuSans-20" transform="scale(0.015625)"/>
      <path id="DejaVuSans-66" d="M 2375 4863 
L 2375 4384 
L 1825 4384 
Q 1516 4384 1395 4259 
Q 1275 4134 1275 3809 
L 1275 3500 
L 2222 3500 
L 2222 3053 
L 1275 3053 
L 1275 0 
L 697 0 
L 697 3053 
L 147 3053 
L 147 3500 
L 697 3500 
L 697 3744 
Q 697 4328 969 4595 
Q 1241 4863 1831 4863 
L 2375 4863 
z
" transform="scale(0.015625)"/>
      <path id="DejaVuSans-43" d="M 4122 4306 
L 4122 3641 
Q 3803 3938 3442 4084 
Q 3081 4231 2675 4231 
Q 1875 4231 1450 3742 
Q 1025 3253 1025 2328 
Q 1025 1406 1450 917 
Q 1875 428 2675 428 
Q 3081 428 3442 575 
Q 3803 722 4122 1019 
L 4122 359 
Q 3791 134 3420 21 
Q 3050 -91 2638 -91 
Q 1578 -91 968 557 
Q 359 1206 359 2328 
Q 359 3453 968 4101 
Q 1578 4750 2638 4750 
Q 3056 4750 3426 4639 
Q 3797 4528 4122 4306 
z
" transform="scale(0.015625)"/>
      <path id="DejaVuSans-68" d="M 3513 2113 
L 3513 0 
L 2938 0 
L 2938 2094 
Q 2938 2591 2744 2837 
Q 2550 3084 2163 3084 
Q 1697 3084 1428 2787 
Q 1159 2491 1159 1978 
L 1159 0 
L 581 0 
L 581 4863 
L 1159 4863 
L 1159 2956 
Q 1366 3272 1645 3428 
Q 1925 3584 2291 3584 
Q 2894 3584 3203 3211 
Q 3513 2838 3513 2113 
z
" transform="scale(0.015625)"/>
      <path id="DejaVuSans-69" d="M 603 3500 
L 1178 3500 
L 1178 0 
L 603 0 
L 603 3500 
z
M 603 4863 
L 1178 4863 
L 1178 4134 
L 603 4134 
L 603 4863 
z
" transform="scale(0.015625)"/>
     </defs>
     <use xlink:href="#DejaVuSans-45"/>
     <use xlink:href="#DejaVuSans-6e" transform="translate(63.183594 0)"/>
     <use xlink:href="#DejaVuSans-74" transform="translate(126.5625 0)"/>
     <use xlink:href="#DejaVuSans-72" transform="translate(165.771484 0)"/>
     <use xlink:href="#DejaVuSans-6f" transform="translate(204.634766 0)"/>
     <use xlink:href="#DejaVuSans-70" transform="translate(265.816406 0)"/>
     <use xlink:href="#DejaVuSans-79" transform="translate(329.292969 0)"/>
     <use xlink:href="#DejaVuSans-20" transform="translate(388.472656 0)"/>
     <use xlink:href="#DejaVuSans-6f" transform="translate(420.259766 0)"/>
     <use xlink:href="#DejaVuSans-66" transform="translate(481.441406 0)"/>
     <use xlink:href="#DejaVuSans-20" transform="translate(516.646484 0)"/>
     <use xlink:href="#DejaVuSans-43" transform="translate(548.433594 0)"/>
     <use xlink:href="#DejaVuSans-68" transform="translate(618.257812 0)"/>
     <use xlink:href="#DejaVuSans-69" transform="translate(681.636719 0)"/>
     <use xlink:href="#DejaVuSans-6e" transform="translate(709.419922 0)"/>
     <use xlink:href="#DejaVuSans-65" transform="translate(772.798828 0)"/>
     <use xlink:href="#DejaVuSans-73" transform="translate(834.322266 0)"/>
     <use xlink:href="#DejaVuSans-65" transform="translate(886.421875 0)"/>
     <use xlink:href="#DejaVuSans-20" transform="translate(947.945312 0)"/>
     <use xlink:href="#DejaVuSans-54" transform="translate(979.732422 0)"/>
     <use xlink:href="#DejaVuSans-6f" transform="translate(1023.816406 0)"/>
     <use xlink:href="#DejaVuSans-6b" transform="translate(1084.998047 0)"/>
     <use xlink:href="#DejaVuSans-65" transform="translate(1139.283203 0)"/>
     <use xlink:href="#DejaVuSans-6e" transform="translate(1200.806641 0)"/>
     <use xlink:href="#DejaVuSans-73" transform="translate(1264.185547 0)"/>
    </g>
   </g>
   <g id="legend_1">
    <g id="patch_7">
     <path d="M 699.46875 71.91625 
L 770.6 71.91625 
Q 772.6 71.91625 772.6 69.91625 
L 772.6 41.56 
Q 772.6 39.56 770.6 39.56 
L 699.46875 39.56 
Q 697.46875 39.56 697.46875 41.56 
L 697.46875 69.91625 
Q 697.46875 71.91625 699.46875 71.91625 
z
" style="fill: #ffffff; opacity: 0.8; stroke: #cccccc; stroke-linejoin: miter"/>
    </g>
    <g id="line2d_18">
     <path d="M 701.46875 47.658437 
L 711.46875 47.658437 
L 721.46875 47.658437 
" style="fill: none; stroke: #ff0000; stroke-width: 1.5; stroke-linecap: square"/>
    </g>
    <g id="text_20">
     <!-- Original -->
     <g transform="translate(729.46875 51.158437) scale(0.1 -0.1)">
      <defs>
       <path id="DejaVuSans-4f" d="M 2522 4238 
Q 1834 4238 1429 3725 
Q 1025 3213 1025 2328 
Q 1025 1447 1429 934 
Q 1834 422 2522 422 
Q 3209 422 3611 934 
Q 4013 1447 4013 2328 
Q 4013 3213 3611 3725 
Q 3209 4238 2522 4238 
z
M 2522 4750 
Q 3503 4750 4090 4092 
Q 4678 3434 4678 2328 
Q 4678 1225 4090 567 
Q 3503 -91 2522 -91 
Q 1538 -91 948 565 
Q 359 1222 359 2328 
Q 359 3434 948 4092 
Q 1538 4750 2522 4750 
z
" transform="scale(0.015625)"/>
       <path id="DejaVuSans-67" d="M 2906 1791 
Q 2906 2416 2648 2759 
Q 2391 3103 1925 3103 
Q 1463 3103 1205 2759 
Q 947 2416 947 1791 
Q 947 1169 1205 825 
Q 1463 481 1925 481 
Q 2391 481 2648 825 
Q 2906 1169 2906 1791 
z
M 3481 434 
Q 3481 -459 3084 -895 
Q 2688 -1331 1869 -1331 
Q 1566 -1331 1297 -1286 
Q 1028 -1241 775 -1147 
L 775 -588 
Q 1028 -725 1275 -790 
Q 1522 -856 1778 -856 
Q 2344 -856 2625 -561 
Q 2906 -266 2906 331 
L 2906 616 
Q 2728 306 2450 153 
Q 2172 0 1784 0 
Q 1141 0 747 490 
Q 353 981 353 1791 
Q 353 2603 747 3093 
Q 1141 3584 1784 3584 
Q 2172 3584 2450 3431 
Q 2728 3278 2906 2969 
L 2906 3500 
L 3481 3500 
L 3481 434 
z
" transform="scale(0.015625)"/>
       <path id="DejaVuSans-61" d="M 2194 1759 
Q 1497 1759 1228 1600 
Q 959 1441 959 1056 
Q 959 750 1161 570 
Q 1363 391 1709 391 
Q 2188 391 2477 730 
Q 2766 1069 2766 1631 
L 2766 1759 
L 2194 1759 
z
M 3341 1997 
L 3341 0 
L 2766 0 
L 2766 531 
Q 2569 213 2275 61 
Q 1981 -91 1556 -91 
Q 1019 -91 701 211 
Q 384 513 384 1019 
Q 384 1609 779 1909 
Q 1175 2209 1959 2209 
L 2766 2209 
L 2766 2266 
Q 2766 2663 2505 2880 
Q 2244 3097 1772 3097 
Q 1472 3097 1187 3025 
Q 903 2953 641 2809 
L 641 3341 
Q 956 3463 1253 3523 
Q 1550 3584 1831 3584 
Q 2591 3584 2966 3190 
Q 3341 2797 3341 1997 
z
" transform="scale(0.015625)"/>
       <path id="DejaVuSans-6c" d="M 603 4863 
L 1178 4863 
L 1178 0 
L 603 0 
L 603 4863 
z
" transform="scale(0.015625)"/>
      </defs>
      <use xlink:href="#DejaVuSans-4f"/>
      <use xlink:href="#DejaVuSans-72" transform="translate(78.710938 0)"/>
      <use xlink:href="#DejaVuSans-69" transform="translate(119.824219 0)"/>
      <use xlink:href="#DejaVuSans-67" transform="translate(147.607422 0)"/>
      <use xlink:href="#DejaVuSans-69" transform="translate(211.083984 0)"/>
      <use xlink:href="#DejaVuSans-6e" transform="translate(238.867188 0)"/>
      <use xlink:href="#DejaVuSans-61" transform="translate(302.246094 0)"/>
      <use xlink:href="#DejaVuSans-6c" transform="translate(363.525391 0)"/>
     </g>
    </g>
    <g id="line2d_19">
     <path d="M 701.46875 62.336562 
L 711.46875 62.336562 
L 721.46875 62.336562 
" style="fill: none; stroke: #0000ff; stroke-width: 1.5; stroke-linecap: square"/>
    </g>
    <g id="text_21">
     <!-- Mean -->
     <g transform="translate(729.46875 65.836562) scale(0.1 -0.1)">
      <defs>
       <path id="DejaVuSans-4d" d="M 628 4666 
L 1569 4666 
L 2759 1491 
L 3956 4666 
L 4897 4666 
L 4897 0 
L 4281 0 
L 4281 4097 
L 3078 897 
L 2444 897 
L 1241 4097 
L 1241 0 
L 628 0 
L 628 4666 
z
" transform="scale(0.015625)"/>
      </defs>
      <use xlink:href="#DejaVuSans-4d"/>
      <use xlink:href="#DejaVuSans-65" transform="translate(86.279297 0)"/>
      <use xlink:href="#DejaVuSans-61" transform="translate(147.802734 0)"/>
      <use xlink:href="#DejaVuSans-6e" transform="translate(209.082031 0)"/>
     </g>
    </g>
   </g>
  </g>
 </g>
 <defs>
  <clipPath id="p491feaa942">
   <rect x="108" y="34.56" width="669.6" height="221.76"/>
  </clipPath>
 </defs>
</svg>
